<?xml version="1.0" encoding="UTF-8" standalone="no"?><svg xmlns="http://www.w3.org/2000/svg" xmlns:xlink="http://www.w3.org/1999/xlink" contentScriptType="application/ecmascript" contentStyleType="text/css" height="461.1px" preserveAspectRatio="none" style="width:956px;height:461px;background:#FFFFFF;" version="1.1" viewBox="0 0 956 461" width="956.7px" zoomAndPan="magnify"><defs><filter height="300%" id="f1egi1edlieupq" width="300%" x="-1" y="-1"><feGaussianBlur result="blurOut" stdDeviation="0.6"/><feColorMatrix in="blurOut" result="blurOut2" type="matrix" values="0 0 0 0 0 0 0 0 0 0 0 0 0 0 0 0 0 0 .4 0"/><feOffset dx="1.2" dy="1.2" in="blurOut2" result="blurOut3"/><feBlend in="SourceGraphic" in2="blurOut3" mode="normal"/></filter></defs><g><text fill="#000000" font-family="sans-serif" font-size="5.4" lengthAdjust="spacing" textLength="373.2" x="291.075" y="9.2057">SD - Access the list of orders that have already been prepared by the AGVs and update any of those orders as having been dispatched for customer delivery</text><rect fill="#FFFFFF" filter="url(#f1egi1edlieupq)" height="404.4023" style="stroke:#A80036;stroke-width:0.3;" width="3" x="125.25" y="38.0859"/><rect fill="#FFFFFF" filter="url(#f1egi1edlieupq)" height="381.2859" style="stroke:#A80036;stroke-width:0.3;" width="3" x="252.15" y="47.1914"/><rect fill="#FFFFFF" filter="url(#f1egi1edlieupq)" height="18.2109" style="stroke:#A80036;stroke-width:0.3;" width="3" x="308.55" y="74.4023"/><rect fill="#FFFFFF" filter="url(#f1egi1edlieupq)" height="9.1055" style="stroke:#A80036;stroke-width:0.3;" width="3" x="367.35" y="83.5078"/><rect fill="#FFFFFF" filter="url(#f1egi1edlieupq)" height="54.4219" style="stroke:#A80036;stroke-width:0.3;" width="3" x="454.2" y="165.0516"/><rect fill="#FFFFFF" filter="url(#f1egi1edlieupq)" height="91.0547" style="stroke:#A80036;stroke-width:0.3;" width="3" x="454.2" y="301.0008"/><rect fill="#FFFFFF" filter="url(#f1egi1edlieupq)" height="9" style="stroke:#A80036;stroke-width:0.3;" width="3" x="553.05" y="56.2969"/><rect fill="#FFFFFF" filter="url(#f1egi1edlieupq)" height="9" style="stroke:#A80036;stroke-width:0.3;" width="3" x="553.05" y="174.157"/><rect fill="#FFFFFF" filter="url(#f1egi1edlieupq)" height="9" style="stroke:#A80036;stroke-width:0.3;" width="3" x="553.05" y="228.5789"/><rect fill="#FFFFFF" filter="url(#f1egi1edlieupq)" height="9" style="stroke:#A80036;stroke-width:0.3;" width="3" x="631.2" y="201.368"/><rect fill="#FFFFFF" filter="url(#f1egi1edlieupq)" height="72.8438" style="stroke:#A80036;stroke-width:0.3;" width="3" x="631.2" y="310.1063"/><rect fill="#FFFFFF" filter="url(#f1egi1edlieupq)" height="9" style="stroke:#A80036;stroke-width:0.3;" width="3" x="688.35" y="246.6844"/><rect fill="#FFFFFF" filter="url(#f1egi1edlieupq)" height="9" style="stroke:#A80036;stroke-width:0.3;" width="3" x="737.1" y="264.7898"/><rect fill="#FFFFFF" filter="url(#f1egi1edlieupq)" height="9" style="stroke:#A80036;stroke-width:0.3;" width="3" x="786.75" y="282.8953"/><rect fill="#FFFFFF" filter="url(#f1egi1edlieupq)" height="18.2109" style="stroke:#A80036;stroke-width:0.3;" width="3" x="870.6" y="410.2664"/><rect fill="#FFFFFF" filter="url(#f1egi1edlieupq)" height="9.1055" style="stroke:#A80036;stroke-width:0.3;" width="3" x="927.9" y="419.3719"/><rect fill="#FFFFFF" filter="url(#f1egi1edlieupq)" height="31.8164" style="stroke:#000000;stroke-width:0.6;" width="156.15" x="3" y="97.1133"/><line style="stroke:#A80036;stroke-width:0.3;stroke-dasharray:5.0,5.0;" x1="22.2" x2="22.2" y1="23.475" y2="447.8883"/><line style="stroke:#A80036;stroke-width:0.3;stroke-dasharray:5.0,5.0;" x1="126.75" x2="126.75" y1="23.475" y2="447.8883"/><line style="stroke:#A80036;stroke-width:0.3;stroke-dasharray:5.0,5.0;" x1="253.65" x2="253.65" y1="23.475" y2="447.8883"/><line style="stroke:#A80036;stroke-width:0.3;stroke-dasharray:5.0,5.0;" x1="310.05" x2="310.05" y1="23.475" y2="447.8883"/><line style="stroke:#A80036;stroke-width:0.3;stroke-dasharray:5.0,5.0;" x1="368.85" x2="368.85" y1="23.475" y2="447.8883"/><line style="stroke:#A80036;stroke-width:0.3;stroke-dasharray:5.0,5.0;" x1="455.55" x2="455.55" y1="23.475" y2="447.8883"/><line style="stroke:#A80036;stroke-width:0.3;stroke-dasharray:5.0,5.0;" x1="554.55" x2="554.55" y1="23.475" y2="447.8883"/><line style="stroke:#A80036;stroke-width:0.3;stroke-dasharray:5.0,5.0;" x1="632.55" x2="632.55" y1="23.475" y2="447.8883"/><line style="stroke:#A80036;stroke-width:0.3;stroke-dasharray:5.0,5.0;" x1="689.85" x2="689.85" y1="23.475" y2="447.8883"/><line style="stroke:#A80036;stroke-width:0.3;stroke-dasharray:5.0,5.0;" x1="738.45" x2="738.45" y1="23.475" y2="447.8883"/><line style="stroke:#A80036;stroke-width:0.3;stroke-dasharray:5.0,5.0;" x1="788.25" x2="788.25" y1="23.475" y2="447.8883"/><line style="stroke:#A80036;stroke-width:0.3;stroke-dasharray:5.0,5.0;" x1="823.65" x2="823.65" y1="23.475" y2="447.8883"/><line style="stroke:#A80036;stroke-width:0.3;stroke-dasharray:5.0,5.0;" x1="871.95" x2="871.95" y1="23.475" y2="447.8883"/><line style="stroke:#A80036;stroke-width:0.3;stroke-dasharray:5.0,5.0;" x1="929.25" x2="929.25" y1="23.475" y2="447.8883"/><rect fill="#FEFECE" filter="url(#f1egi1edlieupq)" height="9.4828" style="stroke:#A80036;stroke-width:0.44999999999999996;" width="31.5" x="6" y="12.4922"/><text fill="#000000" font-family="sans-serif" font-size="4.2" lengthAdjust="spacing" textLength="27.3" x="8.1" y="18.9521">SalesManager</text><rect fill="#FEFECE" filter="url(#f1egi1edlieupq)" height="9.4828" style="stroke:#A80036;stroke-width:0.44999999999999996;" width="31.5" x="6" y="447.5883"/><text fill="#000000" font-family="sans-serif" font-size="4.2" lengthAdjust="spacing" textLength="27.3" x="8.1" y="454.0482">SalesManager</text><rect fill="#FEFECE" filter="url(#f1egi1edlieupq)" height="9.4828" style="stroke:#A80036;stroke-width:0.44999999999999996;" width="29.4" x="111.45" y="12.4922"/><text fill="#000000" font-family="sans-serif" font-size="4.2" lengthAdjust="spacing" textLength="25.2" x="113.55" y="18.9521">:SeeReportUI</text><rect fill="#FEFECE" filter="url(#f1egi1edlieupq)" height="9.4828" style="stroke:#A80036;stroke-width:0.44999999999999996;" width="29.4" x="111.45" y="447.5883"/><text fill="#000000" font-family="sans-serif" font-size="4.2" lengthAdjust="spacing" textLength="25.2" x="113.55" y="454.0482">:SeeReportUI</text><rect fill="#FEFECE" filter="url(#f1egi1edlieupq)" height="9.4828" style="stroke:#A80036;stroke-width:0.44999999999999996;" width="44.4" x="230.85" y="12.4922"/><text fill="#000000" font-family="sans-serif" font-size="4.2" lengthAdjust="spacing" textLength="40.2" x="232.95" y="18.9521">:SeeReportController</text><rect fill="#FEFECE" filter="url(#f1egi1edlieupq)" height="9.4828" style="stroke:#A80036;stroke-width:0.44999999999999996;" width="44.4" x="230.85" y="447.5883"/><text fill="#000000" font-family="sans-serif" font-size="4.2" lengthAdjust="spacing" textLength="40.2" x="232.95" y="454.0482">:SeeReportController</text><rect fill="#FEFECE" filter="url(#f1egi1edlieupq)" height="9.4828" style="stroke:#A80036;stroke-width:0.44999999999999996;" width="60" x="279.45" y="12.4922"/><text fill="#000000" font-family="sans-serif" font-size="4.2" lengthAdjust="spacing" textLength="55.8" x="281.55" y="18.9521">surveyMapper:SurveyMapper</text><rect fill="#FEFECE" filter="url(#f1egi1edlieupq)" height="9.4828" style="stroke:#A80036;stroke-width:0.44999999999999996;" width="60" x="279.45" y="447.5883"/><text fill="#000000" font-family="sans-serif" font-size="4.2" lengthAdjust="spacing" textLength="55.8" x="281.55" y="454.0482">surveyMapper:SurveyMapper</text><rect fill="#FEFECE" filter="url(#f1egi1edlieupq)" height="9.4828" style="stroke:#A80036;stroke-width:0.44999999999999996;" width="49.2" x="343.65" y="12.4922"/><text fill="#000000" font-family="sans-serif" font-size="4.2" lengthAdjust="spacing" textLength="45" x="345.75" y="18.9521">surveyDTO:SurveyDTO</text><rect fill="#FEFECE" filter="url(#f1egi1edlieupq)" height="9.4828" style="stroke:#A80036;stroke-width:0.44999999999999996;" width="49.2" x="343.65" y="447.5883"/><text fill="#000000" font-family="sans-serif" font-size="4.2" lengthAdjust="spacing" textLength="45" x="345.75" y="454.0482">surveyDTO:SurveyDTO</text><rect fill="#FEFECE" filter="url(#f1egi1edlieupq)" height="9.4828" style="stroke:#A80036;stroke-width:0.44999999999999996;" width="116.1" x="397.05" y="12.4922"/><text fill="#000000" font-family="sans-serif" font-size="4.2" lengthAdjust="spacing" textLength="111.9" x="399.15" y="18.9521">reportPercentagesCalculator:ReportPercentagesCalculator</text><rect fill="#FEFECE" filter="url(#f1egi1edlieupq)" height="9.4828" style="stroke:#A80036;stroke-width:0.44999999999999996;" width="116.1" x="397.05" y="447.5883"/><text fill="#000000" font-family="sans-serif" font-size="4.2" lengthAdjust="spacing" textLength="111.9" x="399.15" y="454.0482">reportPercentagesCalculator:ReportPercentagesCalculator</text><rect fill="#FEFECE" filter="url(#f1egi1edlieupq)" height="9.4828" style="stroke:#A80036;stroke-width:0.44999999999999996;" width="73.2" x="517.35" y="12.4922"/><text fill="#000000" font-family="sans-serif" font-size="4.2" lengthAdjust="spacing" textLength="69" x="519.45" y="18.9521">:surveyRepository:SurveyRepository</text><rect fill="#FEFECE" filter="url(#f1egi1edlieupq)" height="9.4828" style="stroke:#A80036;stroke-width:0.44999999999999996;" width="73.2" x="517.35" y="447.5883"/><text fill="#000000" font-family="sans-serif" font-size="4.2" lengthAdjust="spacing" textLength="69" x="519.45" y="454.0482">:surveyRepository:SurveyRepository</text><rect fill="#FEFECE" filter="url(#f1egi1edlieupq)" height="9.4828" style="stroke:#A80036;stroke-width:0.44999999999999996;" width="74.7" x="594.75" y="12.4922"/><text fill="#000000" font-family="sans-serif" font-size="4.2" lengthAdjust="spacing" textLength="70.5" x="596.85" y="18.9521">:answerRepository:AnswerRepository</text><rect fill="#FEFECE" filter="url(#f1egi1edlieupq)" height="9.4828" style="stroke:#A80036;stroke-width:0.44999999999999996;" width="74.7" x="594.75" y="447.5883"/><text fill="#000000" font-family="sans-serif" font-size="4.2" lengthAdjust="spacing" textLength="70.5" x="596.85" y="454.0482">:answerRepository:AnswerRepository</text><rect fill="#FEFECE" filter="url(#f1egi1edlieupq)" height="9.4828" style="stroke:#A80036;stroke-width:0.44999999999999996;" width="31.2" x="673.65" y="12.4922"/><text fill="#000000" font-family="sans-serif" font-size="4.2" lengthAdjust="spacing" textLength="27" x="675.75" y="18.9521">survey:Survey</text><rect fill="#FEFECE" filter="url(#f1egi1edlieupq)" height="9.4828" style="stroke:#A80036;stroke-width:0.44999999999999996;" width="31.2" x="673.65" y="447.5883"/><text fill="#000000" font-family="sans-serif" font-size="4.2" lengthAdjust="spacing" textLength="27" x="675.75" y="454.0482">survey:Survey</text><rect fill="#FEFECE" filter="url(#f1egi1edlieupq)" height="9.4828" style="stroke:#A80036;stroke-width:0.44999999999999996;" width="57.9" x="709.05" y="12.4922"/><text fill="#000000" font-family="sans-serif" font-size="4.2" lengthAdjust="spacing" textLength="53.7" x="711.15" y="18.9521">questionnaire:Questionnaire</text><rect fill="#FEFECE" filter="url(#f1egi1edlieupq)" height="9.4828" style="stroke:#A80036;stroke-width:0.44999999999999996;" width="57.9" x="709.05" y="447.5883"/><text fill="#000000" font-family="sans-serif" font-size="4.2" lengthAdjust="spacing" textLength="53.7" x="711.15" y="454.0482">questionnaire:Questionnaire</text><rect fill="#FEFECE" filter="url(#f1egi1edlieupq)" height="9.4828" style="stroke:#A80036;stroke-width:0.44999999999999996;" width="33" x="771.15" y="12.4922"/><text fill="#000000" font-family="sans-serif" font-size="4.2" lengthAdjust="spacing" textLength="28.8" x="773.25" y="18.9521">section:Section</text><rect fill="#FEFECE" filter="url(#f1egi1edlieupq)" height="9.4828" style="stroke:#A80036;stroke-width:0.44999999999999996;" width="33" x="771.15" y="447.5883"/><text fill="#000000" font-family="sans-serif" font-size="4.2" lengthAdjust="spacing" textLength="28.8" x="773.25" y="454.0482">section:Section</text><rect fill="#FEFECE" filter="url(#f1egi1edlieupq)" height="9.4828" style="stroke:#A80036;stroke-width:0.44999999999999996;" width="29.7" x="808.35" y="12.4922"/><text fill="#000000" font-family="sans-serif" font-size="4.2" lengthAdjust="spacing" textLength="25.5" x="810.45" y="18.9521">report:Report</text><rect fill="#FEFECE" filter="url(#f1egi1edlieupq)" height="9.4828" style="stroke:#A80036;stroke-width:0.44999999999999996;" width="29.7" x="808.35" y="447.5883"/><text fill="#000000" font-family="sans-serif" font-size="4.2" lengthAdjust="spacing" textLength="25.5" x="810.45" y="454.0482">report:Report</text><rect fill="#FEFECE" filter="url(#f1egi1edlieupq)" height="9.4828" style="stroke:#A80036;stroke-width:0.44999999999999996;" width="58.5" x="842.25" y="12.4922"/><text fill="#000000" font-family="sans-serif" font-size="4.2" lengthAdjust="spacing" textLength="54.3" x="844.35" y="18.9521">reportMapper:ReportMapper</text><rect fill="#FEFECE" filter="url(#f1egi1edlieupq)" height="9.4828" style="stroke:#A80036;stroke-width:0.44999999999999996;" width="58.5" x="842.25" y="447.5883"/><text fill="#000000" font-family="sans-serif" font-size="4.2" lengthAdjust="spacing" textLength="54.3" x="844.35" y="454.0482">reportMapper:ReportMapper</text><rect fill="#FEFECE" filter="url(#f1egi1edlieupq)" height="9.4828" style="stroke:#A80036;stroke-width:0.44999999999999996;" width="47.7" x="904.95" y="12.4922"/><text fill="#000000" font-family="sans-serif" font-size="4.2" lengthAdjust="spacing" textLength="43.5" x="907.05" y="18.9521">reportDTO:ReportDTO</text><rect fill="#FEFECE" filter="url(#f1egi1edlieupq)" height="9.4828" style="stroke:#A80036;stroke-width:0.44999999999999996;" width="47.7" x="904.95" y="447.5883"/><text fill="#000000" font-family="sans-serif" font-size="4.2" lengthAdjust="spacing" textLength="43.5" x="907.05" y="454.0482">reportDTO:ReportDTO</text><rect fill="#FFFFFF" filter="url(#f1egi1edlieupq)" height="404.4023" style="stroke:#A80036;stroke-width:0.3;" width="3" x="125.25" y="38.0859"/><rect fill="#FFFFFF" filter="url(#f1egi1edlieupq)" height="381.2859" style="stroke:#A80036;stroke-width:0.3;" width="3" x="252.15" y="47.1914"/><rect fill="#FFFFFF" filter="url(#f1egi1edlieupq)" height="18.2109" style="stroke:#A80036;stroke-width:0.3;" width="3" x="308.55" y="74.4023"/><rect fill="#FFFFFF" filter="url(#f1egi1edlieupq)" height="9.1055" style="stroke:#A80036;stroke-width:0.3;" width="3" x="367.35" y="83.5078"/><rect fill="#FFFFFF" filter="url(#f1egi1edlieupq)" height="54.4219" style="stroke:#A80036;stroke-width:0.3;" width="3" x="454.2" y="165.0516"/><rect fill="#FFFFFF" filter="url(#f1egi1edlieupq)" height="91.0547" style="stroke:#A80036;stroke-width:0.3;" width="3" x="454.2" y="301.0008"/><rect fill="#FFFFFF" filter="url(#f1egi1edlieupq)" height="9" style="stroke:#A80036;stroke-width:0.3;" width="3" x="553.05" y="56.2969"/><rect fill="#FFFFFF" filter="url(#f1egi1edlieupq)" height="9" style="stroke:#A80036;stroke-width:0.3;" width="3" x="553.05" y="174.157"/><rect fill="#FFFFFF" filter="url(#f1egi1edlieupq)" height="9" style="stroke:#A80036;stroke-width:0.3;" width="3" x="553.05" y="228.5789"/><rect fill="#FFFFFF" filter="url(#f1egi1edlieupq)" height="9" style="stroke:#A80036;stroke-width:0.3;" width="3" x="631.2" y="201.368"/><rect fill="#FFFFFF" filter="url(#f1egi1edlieupq)" height="72.8438" style="stroke:#A80036;stroke-width:0.3;" width="3" x="631.2" y="310.1063"/><rect fill="#FFFFFF" filter="url(#f1egi1edlieupq)" height="9" style="stroke:#A80036;stroke-width:0.3;" width="3" x="688.35" y="246.6844"/><rect fill="#FFFFFF" filter="url(#f1egi1edlieupq)" height="9" style="stroke:#A80036;stroke-width:0.3;" width="3" x="737.1" y="264.7898"/><rect fill="#FFFFFF" filter="url(#f1egi1edlieupq)" height="9" style="stroke:#A80036;stroke-width:0.3;" width="3" x="786.75" y="282.8953"/><rect fill="#FFFFFF" filter="url(#f1egi1edlieupq)" height="18.2109" style="stroke:#A80036;stroke-width:0.3;" width="3" x="870.6" y="410.2664"/><rect fill="#FFFFFF" filter="url(#f1egi1edlieupq)" height="9.1055" style="stroke:#A80036;stroke-width:0.3;" width="3" x="927.9" y="419.3719"/><polygon fill="#A80036" points="121.65,36.8859,124.65,38.0859,121.65,39.2859,122.85,38.0859" style="stroke:#A80036;stroke-width:0.3;"/><line style="stroke:#A80036;stroke-width:0.3;" x1="22.35" x2="123.45" y1="38.0859" y2="38.0859"/><text fill="#000000" font-family="sans-serif" font-size="3.9" lengthAdjust="spacing" textLength="47.4" x="24.45" y="31.7235">generate a statistical report</text><text fill="#000000" font-family="sans-serif" font-size="3.9" lengthAdjust="spacing" textLength="73.8" x="25.65" y="36.629">regarding a previously set up questionnaire</text><polygon fill="#A80036" points="248.55,45.9914,251.55,47.1914,248.55,48.3914,249.75,47.1914" style="stroke:#A80036;stroke-width:0.3;"/><line style="stroke:#A80036;stroke-width:0.3;" x1="128.25" x2="250.35" y1="47.1914" y2="47.1914"/><text fill="#000000" font-family="sans-serif" font-size="3.9" lengthAdjust="spacing" textLength="22.2" x="130.35" y="45.7345">findSurveys()</text><polygon fill="#A80036" points="549.45,55.0969,552.45,56.2969,549.45,57.4969,550.65,56.2969" style="stroke:#A80036;stroke-width:0.3;"/><line style="stroke:#A80036;stroke-width:0.3;" x1="255.15" x2="551.25" y1="56.2969" y2="56.2969"/><text fill="#000000" font-family="sans-serif" font-size="3.9" lengthAdjust="spacing" textLength="12.9" x="257.25" y="54.8399">findAll()</text><polygon fill="#A80036" points="304.95,73.2023,307.95,74.4023,304.95,75.6023,306.15,74.4023" style="stroke:#A80036;stroke-width:0.3;"/><line style="stroke:#A80036;stroke-width:0.3;" x1="255.15" x2="306.75" y1="74.4023" y2="74.4023"/><text fill="#000000" font-family="sans-serif" font-size="3.9" lengthAdjust="spacing" textLength="13.2" x="257.25" y="72.9454">create()</text><polygon fill="#A80036" points="363.75,82.3078,366.75,83.5078,363.75,84.7078,364.95,83.5078" style="stroke:#A80036;stroke-width:0.3;"/><line style="stroke:#A80036;stroke-width:0.3;" x1="311.55" x2="365.55" y1="83.5078" y2="83.5078"/><text fill="#000000" font-family="sans-serif" font-size="3.9" lengthAdjust="spacing" textLength="13.2" x="313.65" y="82.0509">create()</text><polygon fill="#A80036" points="365.25,91.4133,368.25,92.6133,365.25,93.8133,366.45,92.6133" style="stroke:#A80036;stroke-width:0.3;"/><line style="stroke:#A80036;stroke-width:0.3;" x1="310.05" x2="367.05" y1="92.6133" y2="92.6133"/><text fill="#000000" font-family="sans-serif" font-size="3.9" lengthAdjust="spacing" textLength="30.9" x="312.15" y="91.1563">toDTO(surveyList)</text><path d="M3,97.1133 L24.9,97.1133 L24.9,99.5133 L21.9,102.5133 L3,102.5133 L3,97.1133 " fill="#EEEEEE" style="stroke:#000000;stroke-width:0.3;"/><rect fill="none" height="31.8164" style="stroke:#000000;stroke-width:0.6;" width="156.15" x="3" y="97.1133"/><text fill="#000000" font-family="sans-serif" font-size="3.9" font-weight="bold" lengthAdjust="spacing" textLength="8.4" x="7.5" y="101.4618">loop</text><text fill="#000000" font-family="sans-serif" font-size="3.3" font-weight="bold" lengthAdjust="spacing" textLength="19.2" x="29.4" y="101.139">[option != 0]</text><line style="stroke:#A80036;stroke-width:0.3;" x1="128.25" x2="140.85" y1="109.3242" y2="109.3242"/><line style="stroke:#A80036;stroke-width:0.3;" x1="140.85" x2="140.85" y1="109.3242" y2="113.2242"/><line style="stroke:#A80036;stroke-width:0.3;" x1="128.55" x2="140.85" y1="113.2242" y2="113.2242"/><polygon fill="#A80036" points="131.55,112.0242,128.55,113.2242,131.55,114.4242,130.35,113.2242" style="stroke:#A80036;stroke-width:0.3;"/><text fill="#000000" font-family="sans-serif" font-size="3.9" lengthAdjust="spacing" textLength="25.2" x="130.35" y="107.8673">showSurveys()</text><polygon fill="#A80036" points="25.65,116.2242,22.65,117.4242,25.65,118.6242,24.45,117.4242" style="stroke:#A80036;stroke-width:0.3;"/><line style="stroke:#A80036;stroke-width:0.3;stroke-dasharray:2.0,2.0;" x1="23.85" x2="124.95" y1="117.4242" y2="117.4242"/><polygon fill="#A80036" points="121.65,125.3297,124.65,126.5297,121.65,127.7297,122.85,126.5297" style="stroke:#A80036;stroke-width:0.3;"/><line style="stroke:#A80036;stroke-width:0.3;" x1="22.35" x2="123.45" y1="126.5297" y2="126.5297"/><text fill="#000000" font-family="sans-serif" font-size="3.9" lengthAdjust="spacing" textLength="29.4" x="24.45" y="125.0728">select the survey</text><polygon fill="#A80036" points="25.65,136.5352,22.65,137.7352,25.65,138.9352,24.45,137.7352" style="stroke:#A80036;stroke-width:0.3;"/><line style="stroke:#A80036;stroke-width:0.3;stroke-dasharray:2.0,2.0;" x1="23.85" x2="124.95" y1="137.7352" y2="137.7352"/><text fill="#000000" font-family="sans-serif" font-size="3.9" lengthAdjust="spacing" textLength="40.2" x="27.45" y="136.2782">Asks report information</text><polygon fill="#A80036" points="121.65,145.6406,124.65,146.8406,121.65,148.0406,122.85,146.8406" style="stroke:#A80036;stroke-width:0.3;"/><line style="stroke:#A80036;stroke-width:0.3;" x1="22.35" x2="123.45" y1="146.8406" y2="146.8406"/><text fill="#000000" font-family="sans-serif" font-size="3.9" lengthAdjust="spacing" textLength="95.7" x="24.45" y="145.3837">Inserts report information (id, firstDate and secondDate)</text><polygon fill="#A80036" points="248.55,154.7461,251.55,155.9461,248.55,157.1461,249.75,155.9461" style="stroke:#A80036;stroke-width:0.3;"/><line style="stroke:#A80036;stroke-width:0.3;" x1="128.25" x2="250.35" y1="155.9461" y2="155.9461"/><text fill="#000000" font-family="sans-serif" font-size="3.9" lengthAdjust="spacing" textLength="116.7" x="130.35" y="154.4892">calculateReportPercentages(surveyCode, firstDate, secondDate, id)</text><polygon fill="#A80036" points="450.6,163.8516,453.6,165.0516,450.6,166.2516,451.8,165.0516" style="stroke:#A80036;stroke-width:0.3;"/><line style="stroke:#A80036;stroke-width:0.3;" x1="255.15" x2="452.4" y1="165.0516" y2="165.0516"/><text fill="#000000" font-family="sans-serif" font-size="3.9" lengthAdjust="spacing" textLength="60" x="257.25" y="163.5946">universeSizeOfSurvey(surveyCode)</text><polygon fill="#A80036" points="549.45,172.957,552.45,174.157,549.45,175.357,550.65,174.157" style="stroke:#A80036;stroke-width:0.3;"/><line style="stroke:#A80036;stroke-width:0.3;" x1="457.2" x2="551.25" y1="174.157" y2="174.157"/><text fill="#000000" font-family="sans-serif" font-size="3.9" lengthAdjust="spacing" textLength="60" x="459.3" y="172.7001">universeSizeOfSurvey(surveyCode)</text><polygon fill="#A80036" points="450.6,191.0625,453.6,192.2625,450.6,193.4625,451.8,192.2625" style="stroke:#A80036;stroke-width:0.3;"/><line style="stroke:#A80036;stroke-width:0.3;" x1="255.15" x2="452.4" y1="192.2625" y2="192.2625"/><text fill="#000000" font-family="sans-serif" font-size="3.9" lengthAdjust="spacing" textLength="74.4" x="257.25" y="190.8056">numberOfResponsesObtained(surveyCode)</text><polygon fill="#A80036" points="627.6,200.168,630.6,201.368,627.6,202.568,628.8,201.368" style="stroke:#A80036;stroke-width:0.3;"/><line style="stroke:#A80036;stroke-width:0.3;" x1="457.2" x2="629.4" y1="201.368" y2="201.368"/><text fill="#000000" font-family="sans-serif" font-size="3.9" lengthAdjust="spacing" textLength="74.4" x="459.3" y="199.911">numberOfResponsesObtained(surveyCode)</text><polygon fill="#A80036" points="452.1,218.2734,455.1,219.4734,452.1,220.6734,453.3,219.4734" style="stroke:#A80036;stroke-width:0.3;"/><line style="stroke:#A80036;stroke-width:0.3;" x1="255.15" x2="453.9" y1="219.4734" y2="219.4734"/><text fill="#000000" font-family="sans-serif" font-size="3.9" lengthAdjust="spacing" textLength="80.7" x="257.25" y="218.0165">percentageOfResponsesObtained(surveyCode)</text><polygon fill="#A80036" points="549.45,227.3789,552.45,228.5789,549.45,229.7789,550.65,228.5789" style="stroke:#A80036;stroke-width:0.3;"/><line style="stroke:#A80036;stroke-width:0.3;" x1="255.15" x2="551.25" y1="228.5789" y2="228.5789"/><text fill="#000000" font-family="sans-serif" font-size="3.9" lengthAdjust="spacing" textLength="54" x="257.25" y="227.122">findSurveyByCode(surveyCode)</text><polygon fill="#A80036" points="684.75,245.4844,687.75,246.6844,684.75,247.8844,685.95,246.6844" style="stroke:#A80036;stroke-width:0.3;"/><line style="stroke:#A80036;stroke-width:0.3;" x1="255.15" x2="686.55" y1="246.6844" y2="246.6844"/><text fill="#000000" font-family="sans-serif" font-size="3.9" lengthAdjust="spacing" textLength="25.5" x="257.25" y="245.2274">questionnaire()</text><polygon fill="#A80036" points="733.5,263.5898,736.5,264.7898,733.5,265.9898,734.7,264.7898" style="stroke:#A80036;stroke-width:0.3;"/><line style="stroke:#A80036;stroke-width:0.3;" x1="255.15" x2="735.3" y1="264.7898" y2="264.7898"/><text fill="#000000" font-family="sans-serif" font-size="3.9" lengthAdjust="spacing" textLength="17.1" x="257.25" y="263.3329">sections()</text><polygon fill="#A80036" points="783.15,281.6953,786.15,282.8953,783.15,284.0953,784.35,282.8953" style="stroke:#A80036;stroke-width:0.3;"/><line style="stroke:#A80036;stroke-width:0.3;" x1="255.15" x2="784.95" y1="282.8953" y2="282.8953"/><text fill="#000000" font-family="sans-serif" font-size="3.9" lengthAdjust="spacing" textLength="19.2" x="257.25" y="281.4384">questions()</text><polygon fill="#A80036" points="450.6,299.8008,453.6,301.0008,450.6,302.2008,451.8,301.0008" style="stroke:#A80036;stroke-width:0.3;"/><line style="stroke:#A80036;stroke-width:0.3;" x1="255.15" x2="452.4" y1="301.0008" y2="301.0008"/><text fill="#000000" font-family="sans-serif" font-size="3.9" lengthAdjust="spacing" textLength="83.4" x="257.25" y="299.5438">calculatePercentages(surveyCode, questionList)</text><polygon fill="#A80036" points="627.6,308.9063,630.6,310.1063,627.6,311.3063,628.8,310.1063" style="stroke:#A80036;stroke-width:0.3;"/><line style="stroke:#A80036;stroke-width:0.3;" x1="457.2" x2="629.4" y1="310.1063" y2="310.1063"/><text fill="#000000" font-family="sans-serif" font-size="3.9" lengthAdjust="spacing" textLength="94.8" x="459.3" y="308.6493">findAnswersWithQuestionsOfFT(surveyCode, question)</text><polygon fill="#A80036" points="627.6,318.0117,630.6,319.2117,627.6,320.4117,628.8,319.2117" style="stroke:#A80036;stroke-width:0.3;"/><line style="stroke:#A80036;stroke-width:0.3;" x1="457.2" x2="629.4" y1="319.2117" y2="319.2117"/><text fill="#000000" font-family="sans-serif" font-size="3.9" lengthAdjust="spacing" textLength="94.8" x="459.3" y="317.7548">findAnswersWithQuestionsOfFT(surveyCode, question)</text><polygon fill="#A80036" points="627.6,327.1172,630.6,328.3172,627.6,329.5172,628.8,328.3172" style="stroke:#A80036;stroke-width:0.3;"/><line style="stroke:#A80036;stroke-width:0.3;" x1="457.2" x2="629.4" y1="328.3172" y2="328.3172"/><text fill="#000000" font-family="sans-serif" font-size="3.9" lengthAdjust="spacing" textLength="104.7" x="459.3" y="326.8603">findAnswersWithQuestionsOfNumeric(surveyCode, question)</text><polygon fill="#A80036" points="627.6,336.2227,630.6,337.4227,627.6,338.6227,628.8,337.4227" style="stroke:#A80036;stroke-width:0.3;"/><line style="stroke:#A80036;stroke-width:0.3;" x1="457.2" x2="629.4" y1="337.4227" y2="337.4227"/><text fill="#000000" font-family="sans-serif" font-size="3.9" lengthAdjust="spacing" textLength="95.7" x="459.3" y="335.9657">findAnswersWithQuestionsOfSC(surveyCode, question)</text><polygon fill="#A80036" points="627.6,345.3281,630.6,346.5281,627.6,347.7281,628.8,346.5281" style="stroke:#A80036;stroke-width:0.3;"/><line style="stroke:#A80036;stroke-width:0.3;" x1="457.2" x2="629.4" y1="346.5281" y2="346.5281"/><text fill="#000000" font-family="sans-serif" font-size="3.9" lengthAdjust="spacing" textLength="99.3" x="459.3" y="345.0712">findAnswersWithQuestionsOfSCIV(surveyCode, question)</text><polygon fill="#A80036" points="627.6,354.4336,630.6,355.6336,627.6,356.8336,628.8,355.6336" style="stroke:#A80036;stroke-width:0.3;"/><line style="stroke:#A80036;stroke-width:0.3;" x1="457.2" x2="629.4" y1="355.6336" y2="355.6336"/><text fill="#000000" font-family="sans-serif" font-size="3.9" lengthAdjust="spacing" textLength="96.3" x="459.3" y="354.1767">findAnswersWithQuestionsOfMC(surveyCode, question)</text><polygon fill="#A80036" points="627.6,363.5391,630.6,364.7391,627.6,365.9391,628.8,364.7391" style="stroke:#A80036;stroke-width:0.3;"/><line style="stroke:#A80036;stroke-width:0.3;" x1="457.2" x2="629.4" y1="364.7391" y2="364.7391"/><text fill="#000000" font-family="sans-serif" font-size="3.9" lengthAdjust="spacing" textLength="99.9" x="459.3" y="363.2821">findAnswersWithQuestionsOfMCIV(surveyCode, question)</text><polygon fill="#A80036" points="627.6,372.6445,630.6,373.8445,627.6,375.0445,628.8,373.8445" style="stroke:#A80036;stroke-width:0.3;"/><line style="stroke:#A80036;stroke-width:0.3;" x1="457.2" x2="629.4" y1="373.8445" y2="373.8445"/><text fill="#000000" font-family="sans-serif" font-size="3.9" lengthAdjust="spacing" textLength="103.2" x="459.3" y="372.3876">findAnswersWithQuestionsOfScaling(surveyCode, question)</text><polygon fill="#A80036" points="629.1,381.75,632.1,382.95,629.1,384.15,630.3,382.95" style="stroke:#A80036;stroke-width:0.3;"/><line style="stroke:#A80036;stroke-width:0.3;" x1="457.2" x2="630.9" y1="382.95" y2="382.95"/><text fill="#000000" font-family="sans-serif" font-size="3.9" lengthAdjust="spacing" textLength="103.2" x="459.3" y="381.4931">findAnswersWithQuestionsOfScaling(surveyCode, question)</text><polygon fill="#A80036" points="452.1,390.8555,455.1,392.0555,452.1,393.2555,453.3,392.0555" style="stroke:#A80036;stroke-width:0.3;"/><line style="stroke:#A80036;stroke-width:0.3;" x1="255.15" x2="453.9" y1="392.0555" y2="392.0555"/><text fill="#000000" font-family="sans-serif" font-size="3.9" lengthAdjust="spacing" textLength="44.7" x="257.25" y="390.5985">writeAllDataOfTheReport()</text><polygon fill="#A80036" points="820.2,399.9609,823.2,401.1609,820.2,402.3609,821.4,401.1609" style="stroke:#A80036;stroke-width:0.3;"/><line style="stroke:#A80036;stroke-width:0.3;" x1="255.15" x2="822" y1="401.1609" y2="401.1609"/><text fill="#000000" font-family="sans-serif" font-size="3.9" lengthAdjust="spacing" textLength="73.5" x="257.25" y="399.704">newReport(id, firstDate, secondDate, data)</text><polygon fill="#A80036" points="867,409.0664,870,410.2664,867,411.4664,868.2,410.2664" style="stroke:#A80036;stroke-width:0.3;"/><line style="stroke:#A80036;stroke-width:0.3;" x1="255.15" x2="868.8" y1="410.2664" y2="410.2664"/><text fill="#000000" font-family="sans-serif" font-size="3.9" lengthAdjust="spacing" textLength="13.2" x="257.25" y="408.8095">create()</text><polygon fill="#A80036" points="924.3,418.1719,927.3,419.3719,924.3,420.5719,925.5,419.3719" style="stroke:#A80036;stroke-width:0.3;"/><line style="stroke:#A80036;stroke-width:0.3;" x1="873.6" x2="926.1" y1="419.3719" y2="419.3719"/><text fill="#000000" font-family="sans-serif" font-size="3.9" lengthAdjust="spacing" textLength="13.2" x="875.7" y="417.9149">create()</text><polygon fill="#A80036" points="925.8,427.2773,928.8,428.4773,925.8,429.6773,927,428.4773" style="stroke:#A80036;stroke-width:0.3;"/><line style="stroke:#A80036;stroke-width:0.3;" x1="872.1" x2="927.6" y1="428.4773" y2="428.4773"/><text fill="#000000" font-family="sans-serif" font-size="3.9" lengthAdjust="spacing" textLength="23.4" x="874.2" y="427.0204">toDTO(report)</text><polygon fill="#A80036" points="25.65,441.2883,22.65,442.4883,25.65,443.6883,24.45,442.4883" style="stroke:#A80036;stroke-width:0.3;"/><line style="stroke:#A80036;stroke-width:0.3;stroke-dasharray:2.0,2.0;" x1="23.85" x2="126.45" y1="442.4883" y2="442.4883"/><text fill="#000000" font-family="sans-serif" font-size="3.9" lengthAdjust="spacing" textLength="94.2" x="27.45" y="436.1259">Shows the report done and informs the Sales Manager</text><text fill="#000000" font-family="sans-serif" font-size="3.9" lengthAdjust="spacing" textLength="61.2" x="28.65" y="441.0313">about the success of the operation.</text><!--MD5=[1ae08ca77cb5f739b04b5bf385879106]
@startuml
title SD - Access the list of orders that have already been prepared by the AGVs and update any of those orders as having been dispatched for customer delivery

        participant "SalesManager" as sm
		participant ":SeeReportUI" as ui
		participant ":SeeReportController" as ctrl
		participant "surveyMapper:SurveyMapper" as surveyMapper
        participant "surveyDTO:SurveyDTO" as surveyDTO
        participant "reportPercentagesCalculator:ReportPercentagesCalculator" as repPercCalc
		participant ":surveyRepository:SurveyRepository" as surveyRepo
		participant ":answerRepository:AnswerRepository" as answerRepo
		participant "survey:Survey" as surv
		participant "questionnaire:Questionnaire" as quest
		participant "section:Section" as sec
		participant "report:Report" as report
        participant "reportMapper:ReportMapper" as reportMapper
        participant "reportDTO:ReportDTO" as reportDTO

        sm->ui: generate a statistical report \n regarding a previously set up questionnaire
        activate ui
        ui->ctrl: findSurveys()
        activate ctrl
        ctrl->surveyRepo: findAll()
        activate surveyRepo
        deactivate surveyRepo

        ctrl->surveyMapper: create()
        activate surveyMapper
        surveyMapper->surveyDTO: create()
        activate surveyDTO
        surveyMapper->surveyDTO: toDTO(surveyList)
        deactivate surveyDTO
        deactivate surveyMapper

        loop option != 0
        ui->ui:showSurveys()
        ui- ->sm:
        sm->ui: select the survey
        end loop

        ui- ->sm: Asks report information
        sm -> ui: Inserts report information (id, firstDate and secondDate)

        ui->ctrl: calculateReportPercentages(surveyCode, firstDate, secondDate, id)

        ctrl->repPercCalc: universeSizeOfSurvey(surveyCode)
        activate repPercCalc
        repPercCalc->surveyRepo: universeSizeOfSurvey(surveyCode)
        activate surveyRepo
        deactivate surveyRepo
        ctrl->repPercCalc: numberOfResponsesObtained(surveyCode)
        repPercCalc->answerRepo: numberOfResponsesObtained(surveyCode)
        activate answerRepo
        deactivate answerRepo

        ctrl->repPercCalc: percentageOfResponsesObtained(surveyCode)
        deactivate repPercCalc

        ctrl->surveyRepo: findSurveyByCode(surveyCode)
        activate surveyRepo
        deactivate surveyRepo
        ctrl->surv: questionnaire()
        activate surv
        deactivate surv
        ctrl->quest: sections()
        activate quest
        deactivate quest
        ctrl->sec: questions()
        activate sec
        deactivate sec

        ctrl->repPercCalc: calculatePercentages(surveyCode, questionList)
        activate repPercCalc
        repPercCalc->answerRepo: findAnswersWithQuestionsOfFT(surveyCode, question)
        activate answerRepo
        repPercCalc->answerRepo: findAnswersWithQuestionsOfFT(surveyCode, question)
        repPercCalc->answerRepo: findAnswersWithQuestionsOfNumeric(surveyCode, question)
        repPercCalc->answerRepo: findAnswersWithQuestionsOfSC(surveyCode, question)
        repPercCalc->answerRepo: findAnswersWithQuestionsOfSCIV(surveyCode, question)
        repPercCalc->answerRepo: findAnswersWithQuestionsOfMC(surveyCode, question)
        repPercCalc->answerRepo: findAnswersWithQuestionsOfMCIV(surveyCode, question)
        repPercCalc->answerRepo: findAnswersWithQuestionsOfScaling(surveyCode, question)
        repPercCalc->answerRepo: findAnswersWithQuestionsOfScaling(surveyCode, question)
        deactivate answerRepo

        ctrl->repPercCalc: writeAllDataOfTheReport()
        deactivate repPercCalc

        ctrl->report: newReport(id, firstDate, secondDate, data)

        ctrl->reportMapper: create()
        activate reportMapper
        reportMapper->reportDTO: create()
        activate reportDTO
        reportMapper->reportDTO: toDTO(report)
        deactivate reportDTO
        deactivate reportMapper


        deactivate ctrl

        ui- ->sm: Shows the report done and informs the Sales Manager \n about the success of the operation.
        deactivate ui

@enduml

PlantUML version 1.2021.11(Sat Oct 02 14:26:11 BST 2021)
(GPL source distribution)
Java Runtime: OpenJDK Runtime Environment
JVM: OpenJDK 64-Bit Server VM
Default Encoding: Cp1252
Language: en
Country: GB
--></g></svg>