<?xml version="1.0" encoding="UTF-8" standalone="no"?><svg xmlns="http://www.w3.org/2000/svg" xmlns:xlink="http://www.w3.org/1999/xlink" contentScriptType="application/ecmascript" contentStyleType="text/css" height="429.8px" preserveAspectRatio="none" style="width:1071px;height:429px;background:#FFFFFF;" version="1.1" viewBox="0 0 1071 429" width="1071.7px" zoomAndPan="magnify"><defs><filter height="300%" id="f1jtepxwp9hv4u" width="300%" x="-1" y="-1"><feGaussianBlur result="blurOut" stdDeviation="1.3999999999999997"/><feColorMatrix in="blurOut" result="blurOut2" type="matrix" values="0 0 0 0 0 0 0 0 0 0 0 0 0 0 0 0 0 0 .4 0"/><feOffset dx="2.7999999999999994" dy="2.7999999999999994" in="blurOut2" result="blurOut3"/><feBlend in="SourceGraphic" in2="blurOut3" mode="normal"/></filter></defs><g><!--MD5=[eb345b95e956098abe5091f81c38db5f]
class SeeReportUI--><rect codeLine="2" fill="#FEFECE" filter="url(#f1jtepxwp9hv4u)" height="33.6" id="SeeReportUI" style="stroke:#A80036;stroke-width:1.0499999999999998;" width="72.1" x="411.6" y="4.9"/><ellipse cx="422.1" cy="16.1" fill="#ADD1B2" rx="7.7" ry="7.7" style="stroke:#A80036;stroke-width:0.6999999999999998;"/><path d="M423.5,13.65 Q423.6422,13.3 423.8062,13.125 Q423.9703,12.95 424.1562,12.95 Q424.4844,12.95 424.6922,13.1469 Q424.9,13.3437 424.9,13.8031 L424.9,14.8969 Q424.9,15.3562 424.7031,15.5531 Q424.5062,15.75 424.2,15.75 Q423.9266,15.75 423.7516,15.6297 Q423.5766,15.5094 423.5,15.1922 Q423.4672,14.9734 423.3469,14.8531 Q423.1281,14.6234 422.7344,14.4922 Q422.3406,14.35 421.9469,14.35 Q421.4547,14.35 421.0391,14.5469 Q420.6344,14.7437 420.3172,15.1812 Q420,15.6187 420,16.2203 L420,16.8656 Q420,17.5875 420.5906,18.0687 Q421.1812,18.55 422.2312,18.55 Q422.8547,18.55 423.2922,18.4078 Q423.5437,18.3312 423.8281,18.0797 Q424.0141,17.9375 424.1125,17.8937 Q424.2109,17.85 424.3312,17.85 Q424.5609,17.85 424.725,18.0359 Q424.9,18.2109 424.9,18.4625 Q424.9,18.7031 424.6594,18.9875 Q424.3094,19.4031 423.7516,19.6328 Q423.0187,19.95 422.1219,19.95 Q421.0719,19.95 420.2297,19.5344 Q419.5516,19.2062 419.0703,18.4953 Q418.6,17.7844 418.6,16.9422 L418.6,16.1766 Q418.6,15.3016 419.0156,14.5359 Q419.4422,13.7703 420.175,13.3656 Q420.9187,12.95 421.75,12.95 Q422.2531,12.95 422.6906,13.125 Q423.1281,13.3 423.5,13.65 Z " fill="#000000"/><text fill="#000000" font-family="sans-serif" font-size="8.4" lengthAdjust="spacing" textLength="49.7" x="431.9" y="19.5371">SeeReportUI</text><line style="stroke:#A80036;stroke-width:1.0499999999999998;" x1="412.3" x2="483" y1="27.3" y2="27.3"/><line style="stroke:#A80036;stroke-width:1.0499999999999998;" x1="412.3" x2="483" y1="32.9" y2="32.9"/><!--MD5=[2cbd677ffe9ed521f4b736461c8ec11d]
class SeeReportController--><rect codeLine="4" fill="#FEFECE" filter="url(#f1jtepxwp9hv4u)" height="52.9703" id="SeeReportController" style="stroke:#A80036;stroke-width:1.0499999999999998;" width="247.8" x="323.75" y="80.5"/><ellipse cx="405.125" cy="91.7" fill="#ADD1B2" rx="7.7" ry="7.7" style="stroke:#A80036;stroke-width:0.6999999999999998;"/><path d="M406.525,89.25 Q406.6672,88.9 406.8312,88.725 Q406.9953,88.55 407.1812,88.55 Q407.5094,88.55 407.7172,88.7469 Q407.925,88.9437 407.925,89.4031 L407.925,90.4969 Q407.925,90.9562 407.7281,91.1531 Q407.5312,91.35 407.225,91.35 Q406.9516,91.35 406.7766,91.2297 Q406.6016,91.1094 406.525,90.7922 Q406.4922,90.5734 406.3719,90.4531 Q406.1531,90.2234 405.7594,90.0922 Q405.3656,89.95 404.9719,89.95 Q404.4797,89.95 404.0641,90.1469 Q403.6594,90.3437 403.3422,90.7812 Q403.025,91.2187 403.025,91.8203 L403.025,92.4656 Q403.025,93.1875 403.6156,93.6687 Q404.2062,94.15 405.2562,94.15 Q405.8797,94.15 406.3172,94.0078 Q406.5687,93.9312 406.8531,93.6797 Q407.0391,93.5375 407.1375,93.4937 Q407.2359,93.45 407.3562,93.45 Q407.5859,93.45 407.75,93.6359 Q407.925,93.8109 407.925,94.0625 Q407.925,94.3031 407.6844,94.5875 Q407.3344,95.0031 406.7766,95.2328 Q406.0437,95.55 405.1469,95.55 Q404.0969,95.55 403.2547,95.1344 Q402.5766,94.8062 402.0953,94.0953 Q401.625,93.3844 401.625,92.5422 L401.625,91.7766 Q401.625,90.9016 402.0406,90.1359 Q402.4672,89.3703 403.2,88.9656 Q403.9437,88.55 404.775,88.55 Q405.2781,88.55 405.7156,88.725 Q406.1531,88.9 406.525,89.25 Z " fill="#000000"/><text fill="#000000" font-family="sans-serif" font-size="8.4" lengthAdjust="spacing" textLength="79.1" x="419.475" y="95.1371">SeeReportController</text><line style="stroke:#A80036;stroke-width:1.0499999999999998;" x1="324.45" x2="570.85" y1="102.9" y2="102.9"/><line style="stroke:#A80036;stroke-width:1.0499999999999998;" x1="324.45" x2="570.85" y1="108.5" y2="108.5"/><ellipse cx="331.45" cy="116.2" fill="#84BE84" rx="2.1" ry="2.1" style="stroke:#038048;stroke-width:0.6999999999999998;"/><text fill="#000000" font-family="sans-serif" font-size="7.7" lengthAdjust="spacing" textLength="46.9" x="337.75" y="119.2933">findSurveys()</text><ellipse cx="331.45" cy="125.8852" fill="#84BE84" rx="2.1" ry="2.1" style="stroke:#038048;stroke-width:0.6999999999999998;"/><text fill="#000000" font-family="sans-serif" font-size="7.7" lengthAdjust="spacing" textLength="229.6" x="337.75" y="128.9784">calculateReportPercentages(surveyCode, firstDate, secondDate, id)</text><!--MD5=[ca7e2bcbfac35f85e33bf6d1b8bb0f5b]
class SurveyDTO--><rect codeLine="9" fill="#FEFECE" filter="url(#f1jtepxwp9hv4u)" height="43.2852" id="SurveyDTO" style="stroke:#A80036;stroke-width:1.0499999999999998;" width="91.7" x="4.9" y="338.45"/><ellipse cx="27.37" cy="349.65" fill="#ADD1B2" rx="7.7" ry="7.7" style="stroke:#A80036;stroke-width:0.6999999999999998;"/><path d="M28.77,347.2 Q28.9122,346.85 29.0762,346.675 Q29.2403,346.5 29.4262,346.5 Q29.7544,346.5 29.9622,346.6969 Q30.17,346.8937 30.17,347.3531 L30.17,348.4469 Q30.17,348.9062 29.9731,349.1031 Q29.7762,349.3 29.47,349.3 Q29.1966,349.3 29.0216,349.1797 Q28.8466,349.0594 28.77,348.7422 Q28.7372,348.5234 28.6169,348.4031 Q28.3981,348.1734 28.0044,348.0422 Q27.6106,347.9 27.2169,347.9 Q26.7247,347.9 26.3091,348.0969 Q25.9044,348.2937 25.5872,348.7312 Q25.27,349.1687 25.27,349.7703 L25.27,350.4156 Q25.27,351.1375 25.8606,351.6187 Q26.4512,352.1 27.5012,352.1 Q28.1247,352.1 28.5622,351.9578 Q28.8137,351.8812 29.0981,351.6297 Q29.2841,351.4875 29.3825,351.4437 Q29.4809,351.4 29.6012,351.4 Q29.8309,351.4 29.995,351.5859 Q30.17,351.7609 30.17,352.0125 Q30.17,352.2531 29.9294,352.5375 Q29.5794,352.9531 29.0216,353.1828 Q28.2887,353.5 27.3919,353.5 Q26.3419,353.5 25.4997,353.0844 Q24.8216,352.7562 24.3403,352.0453 Q23.87,351.3344 23.87,350.4922 L23.87,349.7266 Q23.87,348.8516 24.2856,348.0859 Q24.7122,347.3203 25.445,346.9156 Q26.1887,346.5 27.02,346.5 Q27.5231,346.5 27.9606,346.675 Q28.3981,346.85 28.77,347.2 Z " fill="#000000"/><text fill="#000000" font-family="sans-serif" font-size="8.4" lengthAdjust="spacing" textLength="42.7" x="39.83" y="353.0871">SurveyDTO</text><line style="stroke:#A80036;stroke-width:1.0499999999999998;" x1="5.6" x2="95.9" y1="360.85" y2="360.85"/><line style="stroke:#A80036;stroke-width:1.0499999999999998;" x1="5.6" x2="95.9" y1="366.45" y2="366.45"/><ellipse cx="12.6" cy="374.15" fill="#84BE84" rx="2.1" ry="2.1" style="stroke:#038048;stroke-width:0.6999999999999998;"/><text fill="#000000" font-family="sans-serif" font-size="7.7" lengthAdjust="spacing" textLength="73.5" x="18.9" y="377.2433">SurveyDTO(id, string)</text><!--MD5=[167eac944423e09ef62a4d900fc4df58]
class SurveyMapper--><rect codeLine="13" fill="#FEFECE" filter="url(#f1jtepxwp9hv4u)" height="43.2852" id="SurveyMapper" style="stroke:#A80036;stroke-width:1.0499999999999998;" width="80.5" x="14" y="194.95"/><ellipse cx="26.39" cy="206.15" fill="#ADD1B2" rx="7.7" ry="7.7" style="stroke:#A80036;stroke-width:0.6999999999999998;"/><path d="M27.79,203.7 Q27.9322,203.35 28.0962,203.175 Q28.2603,203 28.4462,203 Q28.7744,203 28.9822,203.1969 Q29.19,203.3937 29.19,203.8531 L29.19,204.9469 Q29.19,205.4062 28.9931,205.6031 Q28.7962,205.8 28.49,205.8 Q28.2166,205.8 28.0416,205.6797 Q27.8666,205.5594 27.79,205.2422 Q27.7572,205.0234 27.6369,204.9031 Q27.4181,204.6734 27.0244,204.5422 Q26.6306,204.4 26.2369,204.4 Q25.7447,204.4 25.3291,204.5969 Q24.9244,204.7937 24.6072,205.2312 Q24.29,205.6687 24.29,206.2703 L24.29,206.9156 Q24.29,207.6375 24.8806,208.1187 Q25.4712,208.6 26.5212,208.6 Q27.1447,208.6 27.5822,208.4578 Q27.8337,208.3812 28.1181,208.1297 Q28.3041,207.9875 28.4025,207.9437 Q28.5009,207.9 28.6212,207.9 Q28.8509,207.9 29.015,208.0859 Q29.19,208.2609 29.19,208.5125 Q29.19,208.7531 28.9494,209.0375 Q28.5994,209.4531 28.0416,209.6828 Q27.3087,210 26.4119,210 Q25.3619,210 24.5197,209.5844 Q23.8416,209.2562 23.3603,208.5453 Q22.89,207.8344 22.89,206.9922 L22.89,206.2266 Q22.89,205.3516 23.3056,204.5859 Q23.7322,203.8203 24.465,203.4156 Q25.2087,203 26.04,203 Q26.5431,203 26.9806,203.175 Q27.4181,203.35 27.79,203.7 Z " fill="#000000"/><text fill="#000000" font-family="sans-serif" font-size="8.4" lengthAdjust="spacing" textLength="53.9" x="36.61" y="209.5871">SurveyMapper</text><line style="stroke:#A80036;stroke-width:1.0499999999999998;" x1="14.7" x2="93.8" y1="217.35" y2="217.35"/><line style="stroke:#A80036;stroke-width:1.0499999999999998;" x1="14.7" x2="93.8" y1="222.95" y2="222.95"/><ellipse cx="21.7" cy="230.65" fill="#84BE84" rx="2.1" ry="2.1" style="stroke:#038048;stroke-width:0.6999999999999998;"/><text fill="#000000" font-family="sans-serif" font-size="7.7" lengthAdjust="spacing" textLength="62.3" x="28" y="233.7433">toDTO(surveyList)</text><!--MD5=[9a61e375d8b43ff5f458f76e6bd86b74]
class ReportDTO--><rect codeLine="17" fill="#FEFECE" filter="url(#f1jtepxwp9hv4u)" height="43.2852" id="ReportDTO" style="stroke:#A80036;stroke-width:1.0499999999999998;" width="81.2" x="121.45" y="338.45"/><ellipse cx="138.88" cy="349.65" fill="#ADD1B2" rx="7.7" ry="7.7" style="stroke:#A80036;stroke-width:0.6999999999999998;"/><path d="M140.28,347.2 Q140.4222,346.85 140.5862,346.675 Q140.7503,346.5 140.9362,346.5 Q141.2644,346.5 141.4722,346.6969 Q141.68,346.8937 141.68,347.3531 L141.68,348.4469 Q141.68,348.9062 141.4831,349.1031 Q141.2862,349.3 140.98,349.3 Q140.7066,349.3 140.5316,349.1797 Q140.3566,349.0594 140.28,348.7422 Q140.2472,348.5234 140.1269,348.4031 Q139.9081,348.1734 139.5144,348.0422 Q139.1206,347.9 138.7269,347.9 Q138.2347,347.9 137.8191,348.0969 Q137.4144,348.2937 137.0972,348.7312 Q136.78,349.1687 136.78,349.7703 L136.78,350.4156 Q136.78,351.1375 137.3706,351.6187 Q137.9612,352.1 139.0112,352.1 Q139.6347,352.1 140.0722,351.9578 Q140.3237,351.8812 140.6081,351.6297 Q140.7941,351.4875 140.8925,351.4437 Q140.9909,351.4 141.1112,351.4 Q141.3409,351.4 141.505,351.5859 Q141.68,351.7609 141.68,352.0125 Q141.68,352.2531 141.4394,352.5375 Q141.0894,352.9531 140.5316,353.1828 Q139.7987,353.5 138.9019,353.5 Q137.8519,353.5 137.0097,353.0844 Q136.3316,352.7562 135.8503,352.0453 Q135.38,351.3344 135.38,350.4922 L135.38,349.7266 Q135.38,348.8516 135.7956,348.0859 Q136.2222,347.3203 136.955,346.9156 Q137.6987,346.5 138.53,346.5 Q139.0331,346.5 139.4706,346.675 Q139.9081,346.85 140.28,347.2 Z " fill="#000000"/><text fill="#000000" font-family="sans-serif" font-size="8.4" lengthAdjust="spacing" textLength="43.4" x="150.22" y="353.0871">ReportDTO</text><line style="stroke:#A80036;stroke-width:1.0499999999999998;" x1="122.15" x2="201.95" y1="360.85" y2="360.85"/><line style="stroke:#A80036;stroke-width:1.0499999999999998;" x1="122.15" x2="201.95" y1="366.45" y2="366.45"/><ellipse cx="129.15" cy="374.15" fill="#84BE84" rx="2.1" ry="2.1" style="stroke:#038048;stroke-width:0.6999999999999998;"/><text fill="#000000" font-family="sans-serif" font-size="7.7" lengthAdjust="spacing" textLength="63" x="135.45" y="377.2433">ReportDTO(report)</text><!--MD5=[d5c5f0f3b32c4f565f21696889393f31]
class ReportMapper--><rect codeLine="21" fill="#FEFECE" filter="url(#f1jtepxwp9hv4u)" height="43.2852" id="ReportMapper" style="stroke:#A80036;stroke-width:1.0499999999999998;" width="77" x="121.45" y="194.95"/><ellipse cx="131.95" cy="206.15" fill="#ADD1B2" rx="7.7" ry="7.7" style="stroke:#A80036;stroke-width:0.6999999999999998;"/><path d="M133.35,203.7 Q133.4922,203.35 133.6562,203.175 Q133.8203,203 134.0062,203 Q134.3344,203 134.5422,203.1969 Q134.75,203.3937 134.75,203.8531 L134.75,204.9469 Q134.75,205.4062 134.5531,205.6031 Q134.3562,205.8 134.05,205.8 Q133.7766,205.8 133.6016,205.6797 Q133.4266,205.5594 133.35,205.2422 Q133.3172,205.0234 133.1969,204.9031 Q132.9781,204.6734 132.5844,204.5422 Q132.1906,204.4 131.7969,204.4 Q131.3047,204.4 130.8891,204.5969 Q130.4844,204.7937 130.1672,205.2312 Q129.85,205.6687 129.85,206.2703 L129.85,206.9156 Q129.85,207.6375 130.4406,208.1187 Q131.0312,208.6 132.0812,208.6 Q132.7047,208.6 133.1422,208.4578 Q133.3937,208.3812 133.6781,208.1297 Q133.8641,207.9875 133.9625,207.9437 Q134.0609,207.9 134.1812,207.9 Q134.4109,207.9 134.575,208.0859 Q134.75,208.2609 134.75,208.5125 Q134.75,208.7531 134.5094,209.0375 Q134.1594,209.4531 133.6016,209.6828 Q132.8687,210 131.9719,210 Q130.9219,210 130.0797,209.5844 Q129.4016,209.2562 128.9203,208.5453 Q128.45,207.8344 128.45,206.9922 L128.45,206.2266 Q128.45,205.3516 128.8656,204.5859 Q129.2922,203.8203 130.025,203.4156 Q130.7687,203 131.6,203 Q132.1031,203 132.5406,203.175 Q132.9781,203.35 133.35,203.7 Z " fill="#000000"/><text fill="#000000" font-family="sans-serif" font-size="8.4" lengthAdjust="spacing" textLength="54.6" x="141.75" y="209.5871">ReportMapper</text><line style="stroke:#A80036;stroke-width:1.0499999999999998;" x1="122.15" x2="197.75" y1="217.35" y2="217.35"/><line style="stroke:#A80036;stroke-width:1.0499999999999998;" x1="122.15" x2="197.75" y1="222.95" y2="222.95"/><ellipse cx="129.15" cy="230.65" fill="#84BE84" rx="2.1" ry="2.1" style="stroke:#038048;stroke-width:0.6999999999999998;"/><text fill="#000000" font-family="sans-serif" font-size="7.7" lengthAdjust="spacing" textLength="46.9" x="135.45" y="233.7433">toDTO(report)</text><!--MD5=[3145b4be7c5005b24cda6f18a1d594b0]
class Survey--><rect codeLine="25" fill="#FEFECE" filter="url(#f1jtepxwp9hv4u)" height="43.2852" id="Survey" style="stroke:#A80036;stroke-width:1.0499999999999998;" width="69.3" x="223.3" y="194.95"/><ellipse cx="243.565" cy="206.15" fill="#ADD1B2" rx="7.7" ry="7.7" style="stroke:#A80036;stroke-width:0.6999999999999998;"/><path d="M244.965,203.7 Q245.1072,203.35 245.2712,203.175 Q245.4353,203 245.6212,203 Q245.9494,203 246.1572,203.1969 Q246.365,203.3937 246.365,203.8531 L246.365,204.9469 Q246.365,205.4062 246.1681,205.6031 Q245.9712,205.8 245.665,205.8 Q245.3916,205.8 245.2166,205.6797 Q245.0416,205.5594 244.965,205.2422 Q244.9322,205.0234 244.8119,204.9031 Q244.5931,204.6734 244.1994,204.5422 Q243.8056,204.4 243.4119,204.4 Q242.9197,204.4 242.5041,204.5969 Q242.0994,204.7937 241.7822,205.2312 Q241.465,205.6687 241.465,206.2703 L241.465,206.9156 Q241.465,207.6375 242.0556,208.1187 Q242.6462,208.6 243.6962,208.6 Q244.3197,208.6 244.7572,208.4578 Q245.0087,208.3812 245.2931,208.1297 Q245.4791,207.9875 245.5775,207.9437 Q245.6759,207.9 245.7962,207.9 Q246.0259,207.9 246.19,208.0859 Q246.365,208.2609 246.365,208.5125 Q246.365,208.7531 246.1244,209.0375 Q245.7744,209.4531 245.2166,209.6828 Q244.4837,210 243.5869,210 Q242.5369,210 241.6947,209.5844 Q241.0166,209.2562 240.5353,208.5453 Q240.065,207.8344 240.065,206.9922 L240.065,206.2266 Q240.065,205.3516 240.4806,204.5859 Q240.9072,203.8203 241.64,203.4156 Q242.3837,203 243.215,203 Q243.7181,203 244.1556,203.175 Q244.5931,203.35 244.965,203.7 Z " fill="#000000"/><text fill="#000000" font-family="sans-serif" font-size="8.4" lengthAdjust="spacing" textLength="25.2" x="255.535" y="209.5871">Survey</text><line style="stroke:#A80036;stroke-width:1.0499999999999998;" x1="224" x2="291.9" y1="217.35" y2="217.35"/><line style="stroke:#A80036;stroke-width:1.0499999999999998;" x1="224" x2="291.9" y1="222.95" y2="222.95"/><ellipse cx="231" cy="230.65" fill="#84BE84" rx="2.1" ry="2.1" style="stroke:#038048;stroke-width:0.6999999999999998;"/><text fill="#000000" font-family="sans-serif" font-size="7.7" lengthAdjust="spacing" textLength="51.1" x="237.3" y="233.7433">questionnaire()</text><!--MD5=[5a3b85c54cc1c79904e0b827443986bf]
class Questionnaire--><rect codeLine="29" fill="#FEFECE" filter="url(#f1jtepxwp9hv4u)" height="43.2852" id="Questionnaire" style="stroke:#A80036;stroke-width:1.0499999999999998;" width="77" x="317.45" y="194.95"/><ellipse cx="327.95" cy="206.15" fill="#ADD1B2" rx="7.7" ry="7.7" style="stroke:#A80036;stroke-width:0.6999999999999998;"/><path d="M329.35,203.7 Q329.4922,203.35 329.6562,203.175 Q329.8203,203 330.0062,203 Q330.3344,203 330.5422,203.1969 Q330.75,203.3937 330.75,203.8531 L330.75,204.9469 Q330.75,205.4062 330.5531,205.6031 Q330.3562,205.8 330.05,205.8 Q329.7766,205.8 329.6016,205.6797 Q329.4266,205.5594 329.35,205.2422 Q329.3172,205.0234 329.1969,204.9031 Q328.9781,204.6734 328.5844,204.5422 Q328.1906,204.4 327.7969,204.4 Q327.3047,204.4 326.8891,204.5969 Q326.4844,204.7937 326.1672,205.2312 Q325.85,205.6687 325.85,206.2703 L325.85,206.9156 Q325.85,207.6375 326.4406,208.1187 Q327.0312,208.6 328.0812,208.6 Q328.7047,208.6 329.1422,208.4578 Q329.3937,208.3812 329.6781,208.1297 Q329.8641,207.9875 329.9625,207.9437 Q330.0609,207.9 330.1812,207.9 Q330.4109,207.9 330.575,208.0859 Q330.75,208.2609 330.75,208.5125 Q330.75,208.7531 330.5094,209.0375 Q330.1594,209.4531 329.6016,209.6828 Q328.8687,210 327.9719,210 Q326.9219,210 326.0797,209.5844 Q325.4016,209.2562 324.9203,208.5453 Q324.45,207.8344 324.45,206.9922 L324.45,206.2266 Q324.45,205.3516 324.8656,204.5859 Q325.2922,203.8203 326.025,203.4156 Q326.7687,203 327.6,203 Q328.1031,203 328.5406,203.175 Q328.9781,203.35 329.35,203.7 Z " fill="#000000"/><text fill="#000000" font-family="sans-serif" font-size="8.4" lengthAdjust="spacing" textLength="54.6" x="337.75" y="209.5871">Questionnaire</text><line style="stroke:#A80036;stroke-width:1.0499999999999998;" x1="318.15" x2="393.75" y1="217.35" y2="217.35"/><line style="stroke:#A80036;stroke-width:1.0499999999999998;" x1="318.15" x2="393.75" y1="222.95" y2="222.95"/><ellipse cx="325.15" cy="230.65" fill="#84BE84" rx="2.1" ry="2.1" style="stroke:#038048;stroke-width:0.6999999999999998;"/><text fill="#000000" font-family="sans-serif" font-size="7.7" lengthAdjust="spacing" textLength="34.3" x="331.45" y="233.7433">sections()</text><!--MD5=[09a53695e98d4f26e7a054522080af08]
class Section--><rect codeLine="33" fill="#FEFECE" filter="url(#f1jtepxwp9hv4u)" height="43.2852" id="Section" style="stroke:#A80036;stroke-width:1.0499999999999998;" width="56.7" x="419.3" y="194.95"/><ellipse cx="432.32" cy="206.15" fill="#ADD1B2" rx="7.7" ry="7.7" style="stroke:#A80036;stroke-width:0.6999999999999998;"/><path d="M433.72,203.7 Q433.8622,203.35 434.0262,203.175 Q434.1903,203 434.3762,203 Q434.7044,203 434.9122,203.1969 Q435.12,203.3937 435.12,203.8531 L435.12,204.9469 Q435.12,205.4062 434.9231,205.6031 Q434.7262,205.8 434.42,205.8 Q434.1466,205.8 433.9716,205.6797 Q433.7966,205.5594 433.72,205.2422 Q433.6872,205.0234 433.5669,204.9031 Q433.3481,204.6734 432.9544,204.5422 Q432.5606,204.4 432.1669,204.4 Q431.6747,204.4 431.2591,204.5969 Q430.8544,204.7937 430.5372,205.2312 Q430.22,205.6687 430.22,206.2703 L430.22,206.9156 Q430.22,207.6375 430.8106,208.1187 Q431.4012,208.6 432.4512,208.6 Q433.0747,208.6 433.5122,208.4578 Q433.7637,208.3812 434.0481,208.1297 Q434.2341,207.9875 434.3325,207.9437 Q434.4309,207.9 434.5512,207.9 Q434.7809,207.9 434.945,208.0859 Q435.12,208.2609 435.12,208.5125 Q435.12,208.7531 434.8794,209.0375 Q434.5294,209.4531 433.9716,209.6828 Q433.2387,210 432.3419,210 Q431.2919,210 430.4497,209.5844 Q429.7716,209.2562 429.2903,208.5453 Q428.82,207.8344 428.82,206.9922 L428.82,206.2266 Q428.82,205.3516 429.2356,204.5859 Q429.6622,203.8203 430.395,203.4156 Q431.1387,203 431.97,203 Q432.4731,203 432.9106,203.175 Q433.3481,203.35 433.72,203.7 Z " fill="#000000"/><text fill="#000000" font-family="sans-serif" font-size="8.4" lengthAdjust="spacing" textLength="28.7" x="442.68" y="209.5871">Section</text><line style="stroke:#A80036;stroke-width:1.0499999999999998;" x1="420" x2="475.3" y1="217.35" y2="217.35"/><line style="stroke:#A80036;stroke-width:1.0499999999999998;" x1="420" x2="475.3" y1="222.95" y2="222.95"/><ellipse cx="427" cy="230.65" fill="#84BE84" rx="2.1" ry="2.1" style="stroke:#038048;stroke-width:0.6999999999999998;"/><text fill="#000000" font-family="sans-serif" font-size="7.7" lengthAdjust="spacing" textLength="38.5" x="433.3" y="233.7433">questions()</text><!--MD5=[f00dbe8c0302c6aec2cb26b3c659c8fc]
class Report--><rect codeLine="37" fill="#FEFECE" filter="url(#f1jtepxwp9hv4u)" height="43.2852" id="Report" style="stroke:#A80036;stroke-width:1.0499999999999998;" width="163.8" x="500.85" y="194.95"/><ellipse cx="566.825" cy="206.15" fill="#ADD1B2" rx="7.7" ry="7.7" style="stroke:#A80036;stroke-width:0.6999999999999998;"/><path d="M568.225,203.7 Q568.3672,203.35 568.5312,203.175 Q568.6953,203 568.8812,203 Q569.2094,203 569.4172,203.1969 Q569.625,203.3937 569.625,203.8531 L569.625,204.9469 Q569.625,205.4062 569.4281,205.6031 Q569.2312,205.8 568.925,205.8 Q568.6516,205.8 568.4766,205.6797 Q568.3016,205.5594 568.225,205.2422 Q568.1922,205.0234 568.0719,204.9031 Q567.8531,204.6734 567.4594,204.5422 Q567.0656,204.4 566.6719,204.4 Q566.1797,204.4 565.7641,204.5969 Q565.3594,204.7937 565.0422,205.2312 Q564.725,205.6687 564.725,206.2703 L564.725,206.9156 Q564.725,207.6375 565.3156,208.1187 Q565.9062,208.6 566.9562,208.6 Q567.5797,208.6 568.0172,208.4578 Q568.2687,208.3812 568.5531,208.1297 Q568.7391,207.9875 568.8375,207.9437 Q568.9359,207.9 569.0562,207.9 Q569.2859,207.9 569.45,208.0859 Q569.625,208.2609 569.625,208.5125 Q569.625,208.7531 569.3844,209.0375 Q569.0344,209.4531 568.4766,209.6828 Q567.7437,210 566.8469,210 Q565.7969,210 564.9547,209.5844 Q564.2766,209.2562 563.7953,208.5453 Q563.325,207.8344 563.325,206.9922 L563.325,206.2266 Q563.325,205.3516 563.7406,204.5859 Q564.1672,203.8203 564.9,203.4156 Q565.6437,203 566.475,203 Q566.9781,203 567.4156,203.175 Q567.8531,203.35 568.225,203.7 Z " fill="#000000"/><text fill="#000000" font-family="sans-serif" font-size="8.4" lengthAdjust="spacing" textLength="25.9" x="581.175" y="209.5871">Report</text><line style="stroke:#A80036;stroke-width:1.0499999999999998;" x1="501.55" x2="663.95" y1="217.35" y2="217.35"/><line style="stroke:#A80036;stroke-width:1.0499999999999998;" x1="501.55" x2="663.95" y1="222.95" y2="222.95"/><ellipse cx="508.55" cy="230.65" fill="#84BE84" rx="2.1" ry="2.1" style="stroke:#038048;stroke-width:0.6999999999999998;"/><text fill="#000000" font-family="sans-serif" font-size="7.7" lengthAdjust="spacing" textLength="145.6" x="514.85" y="233.7433">newReport(id, firstDate, secondDate, data)</text><!--MD5=[beb94f062c1c5cd0b538080a70db52f9]
class ReportPercentagesCalculator--><rect codeLine="41" fill="#FEFECE" filter="url(#f1jtepxwp9hv4u)" height="82.0258" id="ReportPercentagesCalculator" style="stroke:#A80036;stroke-width:1.0499999999999998;" width="182.7" x="739.2" y="175.7"/><ellipse cx="770.525" cy="186.9" fill="#ADD1B2" rx="7.7" ry="7.7" style="stroke:#A80036;stroke-width:0.6999999999999998;"/><path d="M771.925,184.45 Q772.0672,184.1 772.2312,183.925 Q772.3953,183.75 772.5812,183.75 Q772.9094,183.75 773.1172,183.9469 Q773.325,184.1437 773.325,184.6031 L773.325,185.6969 Q773.325,186.1562 773.1281,186.3531 Q772.9312,186.55 772.625,186.55 Q772.3516,186.55 772.1766,186.4297 Q772.0016,186.3094 771.925,185.9922 Q771.8922,185.7734 771.7719,185.6531 Q771.5531,185.4234 771.1594,185.2922 Q770.7656,185.15 770.3719,185.15 Q769.8797,185.15 769.4641,185.3469 Q769.0594,185.5437 768.7422,185.9812 Q768.425,186.4187 768.425,187.0203 L768.425,187.6656 Q768.425,188.3875 769.0156,188.8687 Q769.6062,189.35 770.6562,189.35 Q771.2797,189.35 771.7172,189.2078 Q771.9687,189.1312 772.2531,188.8797 Q772.4391,188.7375 772.5375,188.6937 Q772.6359,188.65 772.7562,188.65 Q772.9859,188.65 773.15,188.8359 Q773.325,189.0109 773.325,189.2625 Q773.325,189.5031 773.0844,189.7875 Q772.7344,190.2031 772.1766,190.4328 Q771.4437,190.75 770.5469,190.75 Q769.4969,190.75 768.6547,190.3344 Q767.9766,190.0062 767.4953,189.2953 Q767.025,188.5844 767.025,187.7422 L767.025,186.9766 Q767.025,186.1016 767.4406,185.3359 Q767.8672,184.5703 768.6,184.1656 Q769.3437,183.75 770.175,183.75 Q770.6781,183.75 771.1156,183.925 Q771.5531,184.1 771.925,184.45 Z " fill="#000000"/><text fill="#000000" font-family="sans-serif" font-size="8.4" lengthAdjust="spacing" textLength="114.1" x="784.875" y="190.3371">ReportPercentagesCalculator</text><line style="stroke:#A80036;stroke-width:1.0499999999999998;" x1="739.9" x2="921.2" y1="198.1" y2="198.1"/><line style="stroke:#A80036;stroke-width:1.0499999999999998;" x1="739.9" x2="921.2" y1="203.7" y2="203.7"/><ellipse cx="746.9" cy="211.4" fill="#84BE84" rx="2.1" ry="2.1" style="stroke:#038048;stroke-width:0.6999999999999998;"/><text fill="#000000" font-family="sans-serif" font-size="7.7" lengthAdjust="spacing" textLength="123.9" x="753.2" y="214.4933">universeSizeOfSurvey(surveyCode)</text><ellipse cx="746.9" cy="221.0852" fill="#84BE84" rx="2.1" ry="2.1" style="stroke:#038048;stroke-width:0.6999999999999998;"/><text fill="#000000" font-family="sans-serif" font-size="7.7" lengthAdjust="spacing" textLength="149.1" x="753.2" y="224.1784">numberOfResponsesObtained(surveyCode)</text><ellipse cx="746.9" cy="230.7703" fill="#84BE84" rx="2.1" ry="2.1" style="stroke:#038048;stroke-width:0.6999999999999998;"/><text fill="#000000" font-family="sans-serif" font-size="7.7" lengthAdjust="spacing" textLength="162.4" x="753.2" y="233.8636">percentageOfResponsesObtained(surveyCode)</text><ellipse cx="746.9" cy="240.4555" fill="#84BE84" rx="2.1" ry="2.1" style="stroke:#038048;stroke-width:0.6999999999999998;"/><text fill="#000000" font-family="sans-serif" font-size="7.7" lengthAdjust="spacing" textLength="164.5" x="753.2" y="243.5487">calculatePercentages(surveyCode, questionList)</text><ellipse cx="746.9" cy="250.1406" fill="#84BE84" rx="2.1" ry="2.1" style="stroke:#038048;stroke-width:0.6999999999999998;"/><text fill="#000000" font-family="sans-serif" font-size="7.7" lengthAdjust="spacing" textLength="90.3" x="753.2" y="253.2339">writeAllDataOfTheReport()</text><!--MD5=[ca0abe252586467d5b989c6b12cf24dd]
class SurveyRepository--><rect codeLine="49" fill="#FEFECE" filter="url(#f1jtepxwp9hv4u)" height="72.3406" id="SurveyRepository" style="stroke:#A80036;stroke-width:1.0499999999999998;" width="144.2" x="640.85" y="324.1"/><ellipse cx="676.025" cy="335.3" fill="#B4A7E5" rx="7.7" ry="7.7" style="stroke:#A80036;stroke-width:0.6999999999999998;"/><path d="M676.725,333.2 L676.725,337.4 L678.125,337.4 L678.4641,337.4 L678.825,337.8375 L678.825,338.1 L678.825,338.3625 L678.4641,338.8 L678.125,338.8 L673.925,338.8 L673.5859,338.8 L673.225,338.3625 L673.225,338.1 L673.225,337.8375 L673.5859,337.4 L673.925,337.4 L675.325,337.4 L675.325,333.2 L673.925,333.2 L673.5859,333.2 L673.225,332.7625 L673.225,332.5 L673.225,332.2375 L673.5859,331.8 L673.925,331.8 L678.125,331.8 L678.4641,331.8 L678.825,332.2375 L678.825,332.5 L678.825,332.7625 L678.4641,333.2 L678.125,333.2 L676.725,333.2 Z " fill="#000000"/><text fill="#000000" font-family="sans-serif" font-size="8.4" font-style="italic" lengthAdjust="spacing" textLength="67.9" x="690.375" y="338.7371">SurveyRepository</text><line style="stroke:#A80036;stroke-width:1.0499999999999998;" x1="641.55" x2="784.35" y1="346.5" y2="346.5"/><line style="stroke:#A80036;stroke-width:1.0499999999999998;" x1="641.55" x2="784.35" y1="352.1" y2="352.1"/><ellipse cx="648.55" cy="359.8" fill="#84BE84" rx="2.1" ry="2.1" style="stroke:#038048;stroke-width:0.6999999999999998;"/><text fill="#000000" font-family="sans-serif" font-size="7.7" lengthAdjust="spacing" textLength="28.7" x="654.85" y="362.8933">findAll();</text><ellipse cx="648.55" cy="369.4852" fill="#84BE84" rx="2.1" ry="2.1" style="stroke:#038048;stroke-width:0.6999999999999998;"/><text fill="#000000" font-family="sans-serif" font-size="7.7" lengthAdjust="spacing" textLength="110.6" x="654.85" y="372.5784">findSurveyByCode(surveyCode)</text><ellipse cx="648.55" cy="379.1703" fill="#84BE84" rx="2.1" ry="2.1" style="stroke:#038048;stroke-width:0.6999999999999998;"/><text fill="#000000" font-family="sans-serif" font-size="7.7" lengthAdjust="spacing" textLength="126" x="654.85" y="382.2636">universeSizeOfSurvey(surveyCode);</text><ellipse cx="648.55" cy="388.8555" fill="#84BE84" rx="2.1" ry="2.1" style="stroke:#038048;stroke-width:0.6999999999999998;"/><text fill="#000000" font-family="sans-serif" font-size="7.7" lengthAdjust="spacing" textLength="116.9" x="654.85" y="391.9487">numberOfQuestions(surveyCode);</text><!--MD5=[5c8703cadfa11f206abaf6e976fe0d7b]
class AnswerRepository--><rect codeLine="56" fill="#FEFECE" filter="url(#f1jtepxwp9hv4u)" height="120.7664" id="AnswerRepository" style="stroke:#A80036;stroke-width:1.0499999999999998;" width="229.6" x="832.65" y="299.6"/><ellipse cx="909.825" cy="310.8" fill="#B4A7E5" rx="7.7" ry="7.7" style="stroke:#A80036;stroke-width:0.6999999999999998;"/><path d="M910.525,308.7 L910.525,312.9 L911.925,312.9 L912.2641,312.9 L912.625,313.3375 L912.625,313.6 L912.625,313.8625 L912.2641,314.3 L911.925,314.3 L907.725,314.3 L907.3859,314.3 L907.025,313.8625 L907.025,313.6 L907.025,313.3375 L907.3859,312.9 L907.725,312.9 L909.125,312.9 L909.125,308.7 L907.725,308.7 L907.3859,308.7 L907.025,308.2625 L907.025,308 L907.025,307.7375 L907.3859,307.3 L907.725,307.3 L911.925,307.3 L912.2641,307.3 L912.625,307.7375 L912.625,308 L912.625,308.2625 L912.2641,308.7 L911.925,308.7 L910.525,308.7 Z " fill="#000000"/><text fill="#000000" font-family="sans-serif" font-size="8.4" font-style="italic" lengthAdjust="spacing" textLength="69.3" x="924.175" y="314.2371">AnswerRepository</text><line style="stroke:#A80036;stroke-width:1.0499999999999998;" x1="833.35" x2="1061.55" y1="322" y2="322"/><line style="stroke:#A80036;stroke-width:1.0499999999999998;" x1="833.35" x2="1061.55" y1="327.6" y2="327.6"/><ellipse cx="840.35" cy="335.3" fill="#84BE84" rx="2.1" ry="2.1" style="stroke:#038048;stroke-width:0.6999999999999998;"/><text fill="#000000" font-family="sans-serif" font-size="7.7" lengthAdjust="spacing" textLength="151.2" x="846.65" y="338.3933">numberOfResponsesObtained(surveyCode);</text><ellipse cx="840.35" cy="344.9852" fill="#84BE84" rx="2.1" ry="2.1" style="stroke:#038048;stroke-width:0.6999999999999998;"/><text fill="#000000" font-family="sans-serif" font-size="7.7" lengthAdjust="spacing" textLength="192.5" x="846.65" y="348.0784">findAnswersWithQuestionsOfFT(surveyCode, question);</text><ellipse cx="840.35" cy="354.6703" fill="#84BE84" rx="2.1" ry="2.1" style="stroke:#038048;stroke-width:0.6999999999999998;"/><text fill="#000000" font-family="sans-serif" font-size="7.7" lengthAdjust="spacing" textLength="211.4" x="846.65" y="357.7636">findAnswersWithQuestionsOfNumeric(surveyCode, question);</text><ellipse cx="840.35" cy="364.3555" fill="#84BE84" rx="2.1" ry="2.1" style="stroke:#038048;stroke-width:0.6999999999999998;"/><text fill="#000000" font-family="sans-serif" font-size="7.7" lengthAdjust="spacing" textLength="193.9" x="846.65" y="367.4487">findAnswersWithQuestionsOfSC(surveyCode, question);</text><ellipse cx="840.35" cy="374.0406" fill="#84BE84" rx="2.1" ry="2.1" style="stroke:#038048;stroke-width:0.6999999999999998;"/><text fill="#000000" font-family="sans-serif" font-size="7.7" lengthAdjust="spacing" textLength="200.9" x="846.65" y="377.1339">findAnswersWithQuestionsOfSCIV(surveyCode, question);</text><ellipse cx="840.35" cy="383.7258" fill="#84BE84" rx="2.1" ry="2.1" style="stroke:#038048;stroke-width:0.6999999999999998;"/><text fill="#000000" font-family="sans-serif" font-size="7.7" lengthAdjust="spacing" textLength="194.6" x="846.65" y="386.819">findAnswersWithQuestionsOfMC(surveyCode, question);</text><ellipse cx="840.35" cy="393.4109" fill="#84BE84" rx="2.1" ry="2.1" style="stroke:#038048;stroke-width:0.6999999999999998;"/><text fill="#000000" font-family="sans-serif" font-size="7.7" lengthAdjust="spacing" textLength="201.6" x="846.65" y="396.5042">findAnswersWithQuestionsOfMCIV(surveyCode, question);</text><ellipse cx="840.35" cy="403.0961" fill="#84BE84" rx="2.1" ry="2.1" style="stroke:#038048;stroke-width:0.6999999999999998;"/><text fill="#000000" font-family="sans-serif" font-size="7.7" lengthAdjust="spacing" textLength="207.9" x="846.65" y="406.1894">findAnswersWithQuestionsOfSorting(surveyCode, question);</text><ellipse cx="840.35" cy="412.7812" fill="#84BE84" rx="2.1" ry="2.1" style="stroke:#038048;stroke-width:0.6999999999999998;"/><text fill="#000000" font-family="sans-serif" font-size="7.7" lengthAdjust="spacing" textLength="208.6" x="846.65" y="415.8745">findAnswersWithQuestionsOfScaling(surveyCode, question);</text><!--MD5=[c84289e7f55cd79cff24cd9bcae2a31d]
link SeeReportUI to SeeReportController--><path codeLine="69" d="M447.65,38.598 C447.65,49.406 447.65,63.931 447.65,76.769 " fill="none" id="SeeReportUI-to-SeeReportController" style="stroke:#A80036;stroke-width:0.6999999999999998;stroke-dasharray:7.0,7.0;"/><polygon fill="#A80036" points="447.65,80.339,450.45,74.039,447.65,76.839,444.85,74.039,447.65,80.339" style="stroke:#A80036;stroke-width:0.6999999999999998;"/><!--MD5=[787357bebb921621cb4fbdefcb3e5d86]
link SeeReportController to SurveyRepository--><path codeLine="71" d="M571.823,119.525 C610.246,129.122 649.537,146.055 676.55,175.7 C712.376,215.019 717.283,279.104 716.156,320.257 " fill="none" id="SeeReportController-to-SurveyRepository" style="stroke:#A80036;stroke-width:0.6999999999999998;stroke-dasharray:7.0,7.0;"/><polygon fill="#A80036" points="716.037,323.918,719.0335,317.7091,716.1469,320.4197,713.4363,317.5332,716.037,323.918" style="stroke:#A80036;stroke-width:0.6999999999999998;"/><!--MD5=[bcc5f6d80be6df681cd356fe6e53a650]
link SeeReportController to AnswerRepository--><path codeLine="72" d="M571.599,108.003 C699.3,111.069 886.263,124.523 934.15,175.7 C963.585,207.158 965.727,256.375 961.149,295.96 " fill="none" id="SeeReportController-to-AnswerRepository" style="stroke:#A80036;stroke-width:0.6999999999999998;stroke-dasharray:7.0,7.0;"/><polygon fill="#A80036" points="960.715,299.516,964.2685,293.6082,961.1454,296.0426,958.711,292.9195,960.715,299.516" style="stroke:#A80036;stroke-width:0.6999999999999998;"/><!--MD5=[9c8cc77f6b073ae2f8c981884526f2c1]
link SeeReportController to SurveyMapper--><path codeLine="73" d="M323.568,119.476 C257.67,128.905 176.533,145.754 108.85,175.7 C99.078,180.026 89.376,186.34 80.913,192.689 " fill="none" id="SeeReportController-to-SurveyMapper" style="stroke:#A80036;stroke-width:0.6999999999999998;stroke-dasharray:7.0,7.0;"/><polygon fill="#A80036" points="78.099,194.845,84.8065,193.2512,80.8821,192.7226,81.4107,188.7983,78.099,194.845" style="stroke:#A80036;stroke-width:0.6999999999999998;"/><!--MD5=[b526ab44eca198aa524b30830e6428b7]
link SeeReportController to ReportPercentagesCalculator--><path codeLine="74" d="M562.989,133.735 C611.737,145.425 668.934,160.104 719.95,175.7 C725.032,177.254 730.219,178.906 735.441,180.621 " fill="none" id="SeeReportController-to-ReportPercentagesCalculator" style="stroke:#A80036;stroke-width:0.6999999999999998;stroke-dasharray:7.0,7.0;"/><polygon fill="#A80036" points="739.067,181.818,733.9673,177.1787,735.7446,180.7172,732.2061,182.4945,739.067,181.818" style="stroke:#A80036;stroke-width:0.6999999999999998;"/><!--MD5=[4cd616ac5659f676dfddbdba05374687]
link SeeReportController to Survey--><path codeLine="75" d="M383.866,133.756 C358.463,145.201 329.476,159.691 304.85,175.7 C297.304,180.607 289.674,186.62 282.814,192.486 " fill="none" id="SeeReportController-to-Survey" style="stroke:#A80036;stroke-width:0.6999999999999998;stroke-dasharray:7.0,7.0;"/><polygon fill="#A80036" points="280.126,194.81,286.7235,192.8094,282.7742,192.5216,283.062,188.5722,280.126,194.81" style="stroke:#A80036;stroke-width:0.6999999999999998;"/><!--MD5=[b82e10dafd79629b8c915691aef8b115]
link SeeReportController to Questionnaire--><path codeLine="76" d="M425.684,133.707 C410.648,151.438 390.852,174.783 376.194,192.073 " fill="none" id="SeeReportController-to-Questionnaire" style="stroke:#A80036;stroke-width:0.6999999999999998;stroke-dasharray:7.0,7.0;"/><polygon fill="#A80036" points="373.891,194.789,380.0984,191.7893,376.1522,192.1175,375.8241,188.1714,373.891,194.789" style="stroke:#A80036;stroke-width:0.6999999999999998;"/><!--MD5=[e8c7cc40dcab1a14e11f70aad6fc0b7c]
link SeeReportController to Section--><path codeLine="77" d="M447.65,133.707 C447.65,151.151 447.65,174.02 447.65,191.212 " fill="none" id="SeeReportController-to-Section" style="stroke:#A80036;stroke-width:0.6999999999999998;stroke-dasharray:7.0,7.0;"/><polygon fill="#A80036" points="447.65,194.789,450.45,188.489,447.65,191.289,444.85,188.489,447.65,194.789" style="stroke:#A80036;stroke-width:0.6999999999999998;"/><!--MD5=[b653045bae78b7136f443684e922edab]
link SeeReportController to Report--><path codeLine="78" d="M480.011,133.707 C502.348,151.585 531.811,175.168 553.455,192.5 " fill="none" id="SeeReportController-to-Report" style="stroke:#A80036;stroke-width:0.6999999999999998;stroke-dasharray:7.0,7.0;"/><polygon fill="#A80036" points="556.318,194.789,553.1313,188.6755,553.5791,192.6099,549.6447,193.0577,556.318,194.789" style="stroke:#A80036;stroke-width:0.6999999999999998;"/><!--MD5=[664bbbcb2f04c23e16b1b43df87006e3]
link SeeReportController to ReportMapper--><path codeLine="79" d="M323.54,133.714 C286.223,144.046 245.945,157.829 211.05,175.7 C202.188,180.236 193.368,186.424 185.612,192.584 " fill="none" id="SeeReportController-to-ReportMapper" style="stroke:#A80036;stroke-width:0.6999999999999998;stroke-dasharray:7.0,7.0;"/><polygon fill="#A80036" points="182.805,194.852,189.4642,193.0672,185.5263,192.651,185.9425,188.7131,182.805,194.852" style="stroke:#A80036;stroke-width:0.6999999999999998;"/><!--MD5=[f2ebc5341e6f67fb45445bfe004dd91d]
link ReportMapper to ReportDTO--><path codeLine="81" d="M160.265,238.623 C160.643,264.334 161.28,307.524 161.686,334.705 " fill="none" id="ReportMapper-to-ReportDTO" style="stroke:#A80036;stroke-width:0.6999999999999998;stroke-dasharray:7.0,7.0;"/><polygon fill="#A80036" points="161.735,338.261,164.4447,331.9216,161.685,334.7614,158.8453,332.0016,161.735,338.261" style="stroke:#A80036;stroke-width:0.6999999999999998;"/><!--MD5=[b0afb6c89b19ea0751f927e030010b42]
link SurveyMapper to SurveyDTO--><path codeLine="82" d="M53.725,238.623 C53.095,264.334 52.031,307.524 51.359,334.705 " fill="none" id="SurveyMapper-to-SurveyDTO" style="stroke:#A80036;stroke-width:0.6999999999999998;stroke-dasharray:7.0,7.0;"/><polygon fill="#A80036" points="51.275,338.261,54.236,332.0351,51.365,334.7622,48.6379,331.8911,51.275,338.261" style="stroke:#A80036;stroke-width:0.6999999999999998;"/><!--MD5=[b85b26ac32a48a1d31701dbb47b413b2]
link ReportPercentagesCalculator to SurveyRepository--><path codeLine="84" d="M797.167,257.691 C780.661,277.634 760.851,301.574 744.59,321.223 " fill="none" id="ReportPercentagesCalculator-to-SurveyRepository" style="stroke:#A80036;stroke-width:0.6999999999999998;stroke-dasharray:7.0,7.0;"/><polygon fill="#A80036" points="742.217,324.086,748.4001,321.0365,744.4567,321.3964,744.0967,317.453,742.217,324.086" style="stroke:#A80036;stroke-width:0.6999999999999998;"/><!--MD5=[061ca41cdcb53bf532be8991fb4da135]
link ReportPercentagesCalculator to AnswerRepository--><path codeLine="85" d="M863.737,257.691 C873.649,269.745 884.765,283.255 895.58,296.401 " fill="none" id="ReportPercentagesCalculator-to-AnswerRepository" style="stroke:#A80036;stroke-width:0.6999999999999998;stroke-dasharray:7.0,7.0;"/><polygon fill="#A80036" points="898.03,299.376,896.177,292.7355,895.8012,296.6774,891.8592,296.3016,898.03,299.376" style="stroke:#A80036;stroke-width:0.6999999999999998;"/><!--MD5=[3725ccb38d5c1db8ff7fed6634106d22]
@startuml

class SeeReportUI

class SeeReportController {
+ findSurveys()
+ calculateReportPercentages(surveyCode, firstDate, secondDate, id)
}

class SurveyDTO {
+ SurveyDTO(id, string)
}

class SurveyMapper {
+ toDTO(surveyList)
}

class ReportDTO {
+ ReportDTO(report)
}

class ReportMapper {
+ toDTO(report)
}

class Survey {
+ questionnaire()
}

class Questionnaire {
+ sections()
}

class Section {
+ questions()
}

class Report {
+ newReport(id, firstDate, secondDate, data)
}

class ReportPercentagesCalculator {
+ universeSizeOfSurvey(surveyCode)
+ numberOfResponsesObtained(surveyCode)
+ percentageOfResponsesObtained(surveyCode)
+ calculatePercentages(surveyCode, questionList)
+ writeAllDataOfTheReport()
}

interface SurveyRepository {
+ findAll();
+ findSurveyByCode(surveyCode)
+ universeSizeOfSurvey(surveyCode);
+ numberOfQuestions(surveyCode);
}

interface AnswerRepository {
+ numberOfResponsesObtained(surveyCode);
+ findAnswersWithQuestionsOfFT(surveyCode, question);
+ findAnswersWithQuestionsOfNumeric(surveyCode, question);
+ findAnswersWithQuestionsOfSC(surveyCode, question);
+ findAnswersWithQuestionsOfSCIV(surveyCode, question);
+ findAnswersWithQuestionsOfMC(surveyCode, question);
+ findAnswersWithQuestionsOfMCIV(surveyCode, question);
+ findAnswersWithQuestionsOfSorting(surveyCode, question);
+ findAnswersWithQuestionsOfScaling(surveyCode, question);
}

'- - - - - - - - - -Relationships
SeeReportUI ..> SeeReportController

SeeReportController ..> SurveyRepository
SeeReportController ..> AnswerRepository
SeeReportController ..> SurveyMapper
SeeReportController ..> ReportPercentagesCalculator
SeeReportController ..> Survey
SeeReportController ..> Questionnaire
SeeReportController ..> Section
SeeReportController ..> Report
SeeReportController ..> ReportMapper

ReportMapper ..> ReportDTO
SurveyMapper ..> SurveyDTO

ReportPercentagesCalculator ..> SurveyRepository
ReportPercentagesCalculator ..> AnswerRepository

@enduml

@startuml

class SeeReportUI

class SeeReportController {
+ findSurveys()
+ calculateReportPercentages(surveyCode, firstDate, secondDate, id)
}

class SurveyDTO {
+ SurveyDTO(id, string)
}

class SurveyMapper {
+ toDTO(surveyList)
}

class ReportDTO {
+ ReportDTO(report)
}

class ReportMapper {
+ toDTO(report)
}

class Survey {
+ questionnaire()
}

class Questionnaire {
+ sections()
}

class Section {
+ questions()
}

class Report {
+ newReport(id, firstDate, secondDate, data)
}

class ReportPercentagesCalculator {
+ universeSizeOfSurvey(surveyCode)
+ numberOfResponsesObtained(surveyCode)
+ percentageOfResponsesObtained(surveyCode)
+ calculatePercentages(surveyCode, questionList)
+ writeAllDataOfTheReport()
}

interface SurveyRepository {
+ findAll();
+ findSurveyByCode(surveyCode)
+ universeSizeOfSurvey(surveyCode);
+ numberOfQuestions(surveyCode);
}

interface AnswerRepository {
+ numberOfResponsesObtained(surveyCode);
+ findAnswersWithQuestionsOfFT(surveyCode, question);
+ findAnswersWithQuestionsOfNumeric(surveyCode, question);
+ findAnswersWithQuestionsOfSC(surveyCode, question);
+ findAnswersWithQuestionsOfSCIV(surveyCode, question);
+ findAnswersWithQuestionsOfMC(surveyCode, question);
+ findAnswersWithQuestionsOfMCIV(surveyCode, question);
+ findAnswersWithQuestionsOfSorting(surveyCode, question);
+ findAnswersWithQuestionsOfScaling(surveyCode, question);
}

SeeReportUI ..> SeeReportController

SeeReportController ..> SurveyRepository
SeeReportController ..> AnswerRepository
SeeReportController ..> SurveyMapper
SeeReportController ..> ReportPercentagesCalculator
SeeReportController ..> Survey
SeeReportController ..> Questionnaire
SeeReportController ..> Section
SeeReportController ..> Report
SeeReportController ..> ReportMapper

ReportMapper ..> ReportDTO
SurveyMapper ..> SurveyDTO

ReportPercentagesCalculator ..> SurveyRepository
ReportPercentagesCalculator ..> AnswerRepository

@enduml

PlantUML version 1.2021.11(Sat Oct 02 14:26:11 BST 2021)
(GPL source distribution)
Java Runtime: OpenJDK Runtime Environment
JVM: OpenJDK 64-Bit Server VM
Default Encoding: Cp1252
Language: en
Country: GB
--></g></svg>