<?xml version="1.0" encoding="UTF-8" standalone="no"?><svg xmlns="http://www.w3.org/2000/svg" xmlns:xlink="http://www.w3.org/1999/xlink" contentStyleType="text/css" height="377px" preserveAspectRatio="none" style="width:250px;height:377px;background:#FFFFFF;" version="1.1" viewBox="0 0 250 377" width="250px" zoomAndPan="magnify"><defs/><g><rect fill="#F1F1F1" height="364.6094" rx="12.5" ry="12.5" style="stroke:#181818;stroke-width:0.5;" width="236.5" x="7" y="7"/><rect fill="#FFFFFF" height="335" rx="12.5" ry="12.5" style="stroke:#FFFFFF;stroke-width:1.0;" width="234.5" x="8" y="35.6094"/><line style="stroke:#181818;stroke-width:0.5;" x1="7" x2="243.5" y1="34.6094" y2="34.6094"/><text fill="#000000" font-family="sans-serif" font-size="14" lengthAdjust="spacing" textLength="29" x="110.75" y="26.5332">AGV</text><ellipse cx="47.5" cy="351.6094" fill="#222222" rx="10" ry="10" style="stroke:none;stroke-width:1.0;"/><g id="AGV.FREE"><rect fill="#F1F1F1" height="50" rx="12.5" ry="12.5" style="stroke:#181818;stroke-width:0.5;" width="57" x="19" y="254.6094"/><line style="stroke:#181818;stroke-width:0.5;" x1="19" x2="76" y1="282.2188" y2="282.2188"/><text fill="#000000" font-family="sans-serif" font-size="14" lengthAdjust="spacing" textLength="37" x="29" y="274.1426">FREE</text></g><g id="AGV.OCCUPIED"><rect fill="#F1F1F1" height="50" rx="12.5" ry="12.5" style="stroke:#181818;stroke-width:0.5;" width="91" x="32" y="46.6094"/><line style="stroke:#181818;stroke-width:0.5;" x1="32" x2="123" y1="74.2188" y2="74.2188"/><text fill="#000000" font-family="sans-serif" font-size="14" lengthAdjust="spacing" textLength="71" x="42" y="66.1426">OCCUPIED</text></g><g id="AGV.CHARGING"><rect fill="#F1F1F1" height="50" rx="12.5" ry="12.5" style="stroke:#181818;stroke-width:0.5;" width="92" x="139.5" y="150.6094"/><line style="stroke:#181818;stroke-width:0.5;" x1="139.5" x2="231.5" y1="178.2188" y2="178.2188"/><text fill="#000000" font-family="sans-serif" font-size="14" lengthAdjust="spacing" textLength="72" x="149.5" y="170.1426">CHARGING</text></g><!--MD5=[d45509342e3c5cc868d8dea1ebd71ffc]
reverse link FREE to *start*AGV--><g id="link_FREE_*start*AGV"><path d="M47.5,309.8394 C47.5,321.1794 47.5,333.3594 47.5,341.4194 " fill="none" id="FREE-backto-*start*AGV" style="stroke:#181818;stroke-width:1.0;"/><polygon fill="#181818" points="47.5,304.6994,43.5,313.6994,47.5,309.6994,51.5,313.6994,47.5,304.6994" style="stroke:#181818;stroke-width:1.0;"/></g><!--MD5=[6d513c01cdfc65853d5f486cdb0ac71e]
reverse link OCCUPIED to FREE--><g id="link_OCCUPIED_FREE"><path d="M59.99,101.5694 C52.38,115.7994 44.35,133.5294 40.5,150.6094 C32.53,185.9994 37.55,228.2194 42.24,254.2194 " fill="none" id="OCCUPIED-backto-FREE" style="stroke:#181818;stroke-width:1.0;"/><polygon fill="#181818" points="62.54,96.8794,54.7187,102.865,60.1457,101.2689,61.7419,106.6958,62.54,96.8794" style="stroke:#181818;stroke-width:1.0;"/><text fill="#000000" font-family="sans-serif" font-size="13" lengthAdjust="spacing" textLength="88" x="41.5" y="181.1045">Order assigned</text></g><!--MD5=[5b512269087423b023df104e3f5117e3]
link OCCUPIED to CHARGING--><g id="link_OCCUPIED_CHARGING"><path d="M103.09,96.7794 C118.98,111.7894 139.46,131.1294 156.03,146.7694 " fill="none" id="OCCUPIED-to-CHARGING" style="stroke:#181818;stroke-width:1.0;"/><polygon fill="#181818" points="159.71,150.2594,155.8977,141.1783,156.069,146.8326,150.4147,147.0039,159.71,150.2594" style="stroke:#181818;stroke-width:1.0;"/><text fill="#000000" font-family="sans-serif" font-size="13" lengthAdjust="spacing" textLength="81" x="138.5" y="129.1045">Finished Task</text></g><!--MD5=[efedb01050f7f7d4fdbcdcf72ea02ff2]
link CHARGING to FREE--><g id="link_CHARGING_FREE"><path d="M152.8,200.7794 C130.98,216.9094 102.39,238.0394 80.51,254.2094 " fill="none" id="CHARGING-to-FREE" style="stroke:#181818;stroke-width:1.0;"/><polygon fill="#181818" points="76.22,257.3794,85.8337,255.2398,80.2388,254.4046,81.074,248.8098,76.22,257.3794" style="stroke:#181818;stroke-width:1.0;"/><text fill="#000000" font-family="sans-serif" font-size="13" lengthAdjust="spacing" textLength="108" x="125.5" y="233.1045">Finished Recharge</text></g><!--MD5=[efcd0d990df5c37c8f088ff06a1ca55b]
@startuml
'https://plantuml.com/state-diagram



state AGV{
[*] -u-> FREE

FREE -u-> OCCUPIED : Order assigned

OCCUPIED - ->CHARGING : Finished Task

CHARGING - ->FREE : Finished Recharge

}

@enduml

@startuml



state AGV{
[*] -u-> FREE

FREE -u-> OCCUPIED : Order assigned

OCCUPIED - ->CHARGING : Finished Task

CHARGING - ->FREE : Finished Recharge

}

@enduml

PlantUML version 1.2022.4(Sat Apr 09 14:29:17 BST 2022)
(GPL source distribution)
Java Runtime: OpenJDK Runtime Environment
JVM: OpenJDK 64-Bit Server VM
Default Encoding: Cp1252
Language: pt
Country: PT
--></g></svg>