<?xml version="1.0" encoding="UTF-8" standalone="no"?><svg xmlns="http://www.w3.org/2000/svg" xmlns:xlink="http://www.w3.org/1999/xlink" contentStyleType="text/css" height="538px" preserveAspectRatio="none" style="width:1098px;height:538px;background:#FFFFFF;" version="1.1" viewBox="0 0 1098 538" width="1098px" zoomAndPan="magnify"><defs/><g><rect height="27.6094" style="stroke:#00000000;stroke-width:1.0;fill:none;" width="214" x="441" y="10"/><text fill="#000000" font-family="sans-serif" font-size="14" font-weight="bold" lengthAdjust="spacing" textLength="204" x="446" y="29.5332">Create AGVMovementThread</text><rect fill="#FFFFFF" height="375.2344" style="stroke:#181818;stroke-width:1.0;" width="10" x="86.5" y="108.5703"/><rect fill="#FFFFFF" height="30" style="stroke:#181818;stroke-width:1.0;" width="10" x="336.5" y="181.5313"/><rect fill="#FFFFFF" height="30" style="stroke:#181818;stroke-width:1.0;" width="10" x="336.5" y="350.8438"/><rect fill="#FFFFFF" height="135.9609" style="stroke:#181818;stroke-width:1.0;" width="10" x="524" y="181.5313"/><rect fill="#FFFFFF" height="30" style="stroke:#181818;stroke-width:1.0;" width="10" x="735" y="287.4922"/><rect fill="#FFFFFF" height="132.9609" style="stroke:#181818;stroke-width:1.0;" width="10" x="735" y="350.8438"/><rect fill="#FFFFFF" height="30" style="stroke:#181818;stroke-width:1.0;" width="10" x="975.5" y="453.8047"/><line style="stroke:#181818;stroke-width:0.5;stroke-dasharray:5.0,5.0;" x1="91" x2="91" y1="76.2188" y2="501.8047"/><line style="stroke:#181818;stroke-width:0.5;stroke-dasharray:5.0,5.0;" x1="341" x2="341" y1="147.875" y2="501.8047"/><line style="stroke:#181818;stroke-width:0.5;stroke-dasharray:5.0,5.0;" x1="529" x2="529" y1="76.2188" y2="501.8047"/><line style="stroke:#181818;stroke-width:0.5;stroke-dasharray:5.0,5.0;" x1="740" x2="740" y1="250.8359" y2="501.8047"/><line style="stroke:#181818;stroke-width:0.5;stroke-dasharray:5.0,5.0;" x1="980" x2="980" y1="420.1484" y2="501.8047"/><rect fill="#E2E2F0" height="31.6094" rx="2.5" ry="2.5" style="stroke:#181818;stroke-width:0.5;" width="173" x="5" y="43.6094"/><text fill="#000000" font-family="sans-serif" font-size="14" lengthAdjust="spacing" textLength="159" x="12" y="65.1426">:AGVOccupiedWatchDog</text><rect fill="#E2E2F0" height="31.6094" rx="2.5" ry="2.5" style="stroke:#181818;stroke-width:0.5;" width="173" x="5" y="500.8047"/><text fill="#000000" font-family="sans-serif" font-size="14" lengthAdjust="spacing" textLength="159" x="12" y="522.3379">:AGVOccupiedWatchDog</text><rect fill="#E2E2F0" height="31.6094" rx="2.5" ry="2.5" style="stroke:#181818;stroke-width:0.5;" width="191" x="246" y="500.8047"/><text fill="#000000" font-family="sans-serif" font-size="14" lengthAdjust="spacing" textLength="177" x="253" y="522.3379">client:TcpAgvManagerClient</text><rect fill="#E2E2F0" height="31.6094" rx="2.5" ry="2.5" style="stroke:#181818;stroke-width:0.5;" width="164" x="447" y="43.6094"/><text fill="#000000" font-family="sans-serif" font-size="14" lengthAdjust="spacing" textLength="150" x="454" y="65.1426">:TcpAgvManagerServer</text><rect fill="#E2E2F0" height="31.6094" rx="2.5" ry="2.5" style="stroke:#181818;stroke-width:0.5;" width="164" x="447" y="500.8047"/><text fill="#000000" font-family="sans-serif" font-size="14" lengthAdjust="spacing" textLength="150" x="454" y="522.3379">:TcpAgvManagerServer</text><rect fill="#E2E2F0" height="31.6094" rx="2.5" ry="2.5" style="stroke:#181818;stroke-width:0.5;" width="238" x="621" y="500.8047"/><text fill="#000000" font-family="sans-serif" font-size="14" lengthAdjust="spacing" textLength="224" x="628" y="522.3379">menu:TcpAgvManagerThreadMenu</text><rect fill="#E2E2F0" height="31.6094" rx="2.5" ry="2.5" style="stroke:#181818;stroke-width:0.5;" width="223" x="869" y="500.8047"/><text fill="#000000" font-family="sans-serif" font-size="14" lengthAdjust="spacing" textLength="209" x="876" y="522.3379">movement:AGVMovementThread</text><rect fill="#FFFFFF" height="375.2344" style="stroke:#181818;stroke-width:1.0;" width="10" x="86.5" y="108.5703"/><rect fill="#FFFFFF" height="30" style="stroke:#181818;stroke-width:1.0;" width="10" x="336.5" y="181.5313"/><rect fill="#FFFFFF" height="30" style="stroke:#181818;stroke-width:1.0;" width="10" x="336.5" y="350.8438"/><rect fill="#FFFFFF" height="135.9609" style="stroke:#181818;stroke-width:1.0;" width="10" x="524" y="181.5313"/><rect fill="#FFFFFF" height="30" style="stroke:#181818;stroke-width:1.0;" width="10" x="735" y="287.4922"/><rect fill="#FFFFFF" height="132.9609" style="stroke:#181818;stroke-width:1.0;" width="10" x="735" y="350.8438"/><rect fill="#FFFFFF" height="30" style="stroke:#181818;stroke-width:1.0;" width="10" x="975.5" y="453.8047"/><polygon fill="#181818" points="74.5,104.5703,84.5,108.5703,74.5,112.5703,78.5,108.5703" style="stroke:#181818;stroke-width:1.0;"/><line style="stroke:#181818;stroke-width:1.0;" x1="0" x2="80.5" y1="108.5703" y2="108.5703"/><text fill="#000000" font-family="sans-serif" font-size="13" font-weight="bold" lengthAdjust="spacing" textLength="7" x="7" y="103.7139">1</text><text fill="#000000" font-family="sans-serif" font-size="13" lengthAdjust="spacing" textLength="54" x="18" y="103.7139">onEvent()</text><polygon fill="#181818" points="234,134.9219,244,138.9219,234,142.9219,238,138.9219" style="stroke:#181818;stroke-width:1.0;"/><line style="stroke:#181818;stroke-width:1.0;" x1="96.5" x2="240" y1="138.9219" y2="138.9219"/><text fill="#000000" font-family="sans-serif" font-size="13" font-weight="bold" lengthAdjust="spacing" textLength="7" x="103.5" y="134.0654">2</text><text fill="#000000" font-family="sans-serif" font-size="13" lengthAdjust="spacing" textLength="44" x="114.5" y="134.0654">create()</text><rect fill="#E2E2F0" height="31.6094" rx="2.5" ry="2.5" style="stroke:#181818;stroke-width:0.5;" width="191" x="246" y="116.5703"/><text fill="#000000" font-family="sans-serif" font-size="14" lengthAdjust="spacing" textLength="177" x="253" y="138.1035">client:TcpAgvManagerClient</text><polygon fill="#181818" points="324.5,177.5313,334.5,181.5313,324.5,185.5313,328.5,181.5313" style="stroke:#181818;stroke-width:1.0;"/><line style="stroke:#181818;stroke-width:1.0;" x1="96.5" x2="330.5" y1="181.5313" y2="181.5313"/><text fill="#000000" font-family="sans-serif" font-size="13" font-weight="bold" lengthAdjust="spacing" textLength="7" x="103.5" y="176.6748">3</text><text fill="#000000" font-family="sans-serif" font-size="13" lengthAdjust="spacing" textLength="26" x="114.5" y="176.6748">run()</text><polygon fill="#181818" points="609,237.8828,619,241.8828,609,245.8828,613,241.8828" style="stroke:#181818;stroke-width:1.0;"/><line style="stroke:#181818;stroke-width:1.0;" x1="534" x2="615" y1="241.8828" y2="241.8828"/><text fill="#000000" font-family="sans-serif" font-size="13" font-weight="bold" lengthAdjust="spacing" textLength="7" x="541" y="237.0264">4</text><text fill="#000000" font-family="sans-serif" font-size="13" lengthAdjust="spacing" textLength="44" x="552" y="237.0264">create()</text><rect fill="#E2E2F0" height="31.6094" rx="2.5" ry="2.5" style="stroke:#181818;stroke-width:0.5;" width="238" x="621" y="219.5313"/><text fill="#000000" font-family="sans-serif" font-size="14" lengthAdjust="spacing" textLength="224" x="628" y="241.0645">menu:TcpAgvManagerThreadMenu</text><polygon fill="#181818" points="723,283.4922,733,287.4922,723,291.4922,727,287.4922" style="stroke:#181818;stroke-width:1.0;"/><line style="stroke:#181818;stroke-width:1.0;" x1="534" x2="729" y1="287.4922" y2="287.4922"/><text fill="#000000" font-family="sans-serif" font-size="13" font-weight="bold" lengthAdjust="spacing" textLength="7" x="541" y="282.6357">5</text><text fill="#000000" font-family="sans-serif" font-size="13" lengthAdjust="spacing" textLength="26" x="552" y="282.6357">run()</text><path d="M750,267.1406 L750,293.1406 L873,293.1406 L873,277.1406 L863,267.1406 L750,267.1406 " fill="#FEFFDD" style="stroke:#181818;stroke-width:0.5;"/><path d="M863,267.1406 L863,277.1406 L873,277.1406 L863,267.1406 " fill="#FEFFDD" style="stroke:#181818;stroke-width:0.5;"/><text fill="#000000" font-family="sans-serif" font-size="13" lengthAdjust="spacing" textLength="102" x="756" y="285.6357">waits for an input.</text><polygon fill="#181818" points="324.5,346.8438,334.5,350.8438,324.5,354.8438,328.5,350.8438" style="stroke:#181818;stroke-width:1.0;"/><line style="stroke:#181818;stroke-width:1.0;" x1="96.5" x2="330.5" y1="350.8438" y2="350.8438"/><text fill="#000000" font-family="sans-serif" font-size="13" font-weight="bold" lengthAdjust="spacing" textLength="7" x="103.5" y="345.9873">6</text><text fill="#000000" font-family="sans-serif" font-size="13" lengthAdjust="spacing" textLength="210" x="114.5" y="345.9873">writeByte(size,messageCode, agvId)</text><polygon fill="#181818" points="857,407.1953,867,411.1953,857,415.1953,861,411.1953" style="stroke:#181818;stroke-width:1.0;"/><line style="stroke:#181818;stroke-width:1.0;" x1="745" x2="863" y1="411.1953" y2="411.1953"/><text fill="#000000" font-family="sans-serif" font-size="13" font-weight="bold" lengthAdjust="spacing" textLength="7" x="752" y="406.3389">7</text><text fill="#000000" font-family="sans-serif" font-size="13" lengthAdjust="spacing" textLength="44" x="763" y="406.3389">create()</text><rect fill="#E2E2F0" height="31.6094" rx="2.5" ry="2.5" style="stroke:#181818;stroke-width:0.5;" width="223" x="869" y="388.8438"/><text fill="#000000" font-family="sans-serif" font-size="14" lengthAdjust="spacing" textLength="209" x="876" y="410.377">movement:AGVMovementThread</text><polygon fill="#181818" points="963.5,449.8047,973.5,453.8047,963.5,457.8047,967.5,453.8047" style="stroke:#181818;stroke-width:1.0;"/><line style="stroke:#181818;stroke-width:1.0;" x1="745" x2="969.5" y1="453.8047" y2="453.8047"/><text fill="#000000" font-family="sans-serif" font-size="13" font-weight="bold" lengthAdjust="spacing" textLength="7" x="752" y="448.9482">8</text><text fill="#000000" font-family="sans-serif" font-size="13" lengthAdjust="spacing" textLength="26" x="763" y="448.9482">run()</text><!--MD5=[3cb89281e8482a24d73616f17b1180ac]
@startuml
title Create AGVMovementThread
autonumber

participant ":AGVOccupiedWatchDog" as watchDog
participant "client:TcpAgvManagerClient" as client
participant ":TcpAgvManagerServer" as server
participant "menu:TcpAgvManagerThreadMenu" as menu
participant "movement:AGVMovementThread" as movement


->watchDog :onEvent()
activate watchDog
    watchDog -> client**:create()
    watchDog -> client : run()
    activate client
    deactivate client


    activate server
        server -> menu** : create()
        server -> menu : run()
        note right: waits for an input.
        activate menu
        deactivate menu
    deactivate server

    watchDog -> client: writeByte(size,messageCode, agvId)
    activate client
    deactivate client

    activate menu
        menu ->movement** : create()
        menu -> movement:run()
        activate movement
        deactivate movement
    deactivate menu
deactivate watchDog

@enduml

PlantUML version 1.2022.4(Sat Apr 09 14:29:17 BST 2022)
(GPL source distribution)
Java Runtime: OpenJDK Runtime Environment
JVM: OpenJDK 64-Bit Server VM
Default Encoding: Cp1252
Language: pt
Country: PT
--></g></svg>