<?xml version="1.0" encoding="UTF-8" standalone="no"?><svg xmlns="http://www.w3.org/2000/svg" xmlns:xlink="http://www.w3.org/1999/xlink" contentScriptType="application/ecmascript" contentStyleType="text/css" height="558px" preserveAspectRatio="none" style="width:1314px;height:558px;background:#FFFFFF;" version="1.1" viewBox="0 0 1314 558" width="1314px" zoomAndPan="magnify"><defs><filter height="300%" id="fbs6ljo62jbnb" width="300%" x="-1" y="-1"><feGaussianBlur result="blurOut" stdDeviation="2.0"/><feColorMatrix in="blurOut" result="blurOut2" type="matrix" values="0 0 0 0 0 0 0 0 0 0 0 0 0 0 0 0 0 0 .4 0"/><feOffset dx="4.0" dy="4.0" in="blurOut2" result="blurOut3"/><feBlend in="SourceGraphic" in2="blurOut3" mode="normal"/></filter></defs><g><!--MD5=[6043648ee3058e586c4ac154c63c9895]
class UpdateOrderToDeliveredUI--><rect codeLine="2" fill="#FEFECE" filter="url(#fbs6ljo62jbnb)" height="48" id="UpdateOrderToDeliveredUI" style="stroke:#A80036;stroke-width:1.5;" width="181" x="478" y="7"/><ellipse cx="493" cy="23" fill="#ADD1B2" rx="11" ry="11" style="stroke:#A80036;stroke-width:1.0;"/><path d="M495,19.5 Q495.2031,19 495.4375,18.75 Q495.6719,18.5 495.9375,18.5 Q496.4063,18.5 496.7031,18.7813 Q497,19.0625 497,19.7188 L497,21.2813 Q497,21.9375 496.7188,22.2188 Q496.4375,22.5 496,22.5 Q495.6094,22.5 495.3594,22.3281 Q495.1094,22.1563 495,21.7031 Q494.9531,21.3906 494.7813,21.2188 Q494.4688,20.8906 493.9063,20.7031 Q493.3438,20.5 492.7813,20.5 Q492.0781,20.5 491.4844,20.7813 Q490.9063,21.0625 490.4531,21.6875 Q490,22.3125 490,23.1719 L490,24.0938 Q490,25.125 490.8438,25.8125 Q491.6875,26.5 493.1875,26.5 Q494.0781,26.5 494.7031,26.2969 Q495.0625,26.1875 495.4688,25.8281 Q495.7344,25.625 495.875,25.5625 Q496.0156,25.5 496.1875,25.5 Q496.5156,25.5 496.75,25.7656 Q497,26.0156 497,26.375 Q497,26.7188 496.6563,27.125 Q496.1563,27.7188 495.3594,28.0469 Q494.3125,28.5 493.0313,28.5 Q491.5313,28.5 490.3281,27.9063 Q489.3594,27.4375 488.6719,26.4219 Q488,25.4063 488,24.2031 L488,23.1094 Q488,21.8594 488.5938,20.7656 Q489.2031,19.6719 490.25,19.0938 Q491.3125,18.5 492.5,18.5 Q493.2188,18.5 493.8438,18.75 Q494.4688,19 495,19.5 Z " fill="#000000"/><text fill="#000000" font-family="sans-serif" font-size="12" lengthAdjust="spacing" textLength="149" x="507" y="27.9102">UpdateOrderToDeliveredUI</text><line style="stroke:#A80036;stroke-width:1.5;" x1="479" x2="658" y1="39" y2="39"/><line style="stroke:#A80036;stroke-width:1.5;" x1="479" x2="658" y1="47" y2="47"/><!--MD5=[113bf30278c36f29ab106f6117783732]
class UpdateOrderToDeliveredControllerEventfulImpl--><rect codeLine="4" fill="#FEFECE" filter="url(#fbs6ljo62jbnb)" height="103.3438" id="UpdateOrderToDeliveredControllerEventfulImpl" style="stroke:#A80036;stroke-width:1.5;" width="290" x="281.5" y="115"/><ellipse cx="296.5" cy="131" fill="#ADD1B2" rx="11" ry="11" style="stroke:#A80036;stroke-width:1.0;"/><path d="M298.5,127.5 Q298.7031,127 298.9375,126.75 Q299.1719,126.5 299.4375,126.5 Q299.9063,126.5 300.2031,126.7813 Q300.5,127.0625 300.5,127.7188 L300.5,129.2813 Q300.5,129.9375 300.2188,130.2188 Q299.9375,130.5 299.5,130.5 Q299.1094,130.5 298.8594,130.3281 Q298.6094,130.1563 298.5,129.7031 Q298.4531,129.3906 298.2813,129.2188 Q297.9688,128.8906 297.4063,128.7031 Q296.8438,128.5 296.2813,128.5 Q295.5781,128.5 294.9844,128.7813 Q294.4063,129.0625 293.9531,129.6875 Q293.5,130.3125 293.5,131.1719 L293.5,132.0938 Q293.5,133.125 294.3438,133.8125 Q295.1875,134.5 296.6875,134.5 Q297.5781,134.5 298.2031,134.2969 Q298.5625,134.1875 298.9688,133.8281 Q299.2344,133.625 299.375,133.5625 Q299.5156,133.5 299.6875,133.5 Q300.0156,133.5 300.25,133.7656 Q300.5,134.0156 300.5,134.375 Q300.5,134.7188 300.1563,135.125 Q299.6563,135.7188 298.8594,136.0469 Q297.8125,136.5 296.5313,136.5 Q295.0313,136.5 293.8281,135.9063 Q292.8594,135.4375 292.1719,134.4219 Q291.5,133.4063 291.5,132.2031 L291.5,131.1094 Q291.5,129.8594 292.0938,128.7656 Q292.7031,127.6719 293.75,127.0938 Q294.8125,126.5 296,126.5 Q296.7188,126.5 297.3438,126.75 Q297.9688,127 298.5,127.5 Z " fill="#000000"/><text fill="#000000" font-family="sans-serif" font-size="12" lengthAdjust="spacing" textLength="258" x="310.5" y="135.9102">UpdateOrderToDeliveredControllerEventfulImpl</text><line style="stroke:#A80036;stroke-width:1.5;" x1="282.5" x2="570.5" y1="147" y2="147"/><line style="stroke:#A80036;stroke-width:1.5;" x1="282.5" x2="570.5" y1="155" y2="155"/><ellipse cx="292.5" cy="166" fill="#84BE84" rx="3" ry="3" style="stroke:#038048;stroke-width:1.0;"/><text fill="#000000" font-family="sans-serif" font-size="11" lengthAdjust="spacing" textLength="207" x="301.5" y="170.4189">changeOrderStatusToDelivered(orderDTO)</text><ellipse cx="292.5" cy="179.8359" fill="#84BE84" rx="3" ry="3" style="stroke:#038048;stroke-width:1.0;"/><text fill="#000000" font-family="sans-serif" font-size="11" lengthAdjust="spacing" textLength="153" x="301.5" y="184.2549">findProductOrderById(identifier)</text><ellipse cx="292.5" cy="193.6719" fill="#84BE84" rx="3" ry="3" style="stroke:#038048;stroke-width:1.0;"/><text fill="#000000" font-family="sans-serif" font-size="11" lengthAdjust="spacing" textLength="112" x="301.5" y="198.0908">listOfOrdersReceived()</text><ellipse cx="292.5" cy="207.5078" fill="#84BE84" rx="3" ry="3" style="stroke:#038048;stroke-width:1.0;"/><text fill="#000000" font-family="sans-serif" font-size="11" lengthAdjust="spacing" textLength="162" x="301.5" y="211.9268">findCustomerByOrderId(identifier)</text><!--MD5=[71ecf3b8d628b175ab06da4dfe6a570f]
class UpdateOrderController--><rect codeLine="11" fill="#FEFECE" filter="url(#fbs6ljo62jbnb)" height="48" id="UpdateOrderController" style="stroke:#A80036;stroke-width:1.5;" width="157" x="1031" y="7"/><ellipse cx="1046" cy="23" fill="#ADD1B2" rx="11" ry="11" style="stroke:#A80036;stroke-width:1.0;"/><path d="M1048,19.5 Q1048.2031,19 1048.4375,18.75 Q1048.6719,18.5 1048.9375,18.5 Q1049.4063,18.5 1049.7031,18.7813 Q1050,19.0625 1050,19.7188 L1050,21.2813 Q1050,21.9375 1049.7188,22.2188 Q1049.4375,22.5 1049,22.5 Q1048.6094,22.5 1048.3594,22.3281 Q1048.1094,22.1563 1048,21.7031 Q1047.9531,21.3906 1047.7813,21.2188 Q1047.4688,20.8906 1046.9063,20.7031 Q1046.3438,20.5 1045.7813,20.5 Q1045.0781,20.5 1044.4844,20.7813 Q1043.9063,21.0625 1043.4531,21.6875 Q1043,22.3125 1043,23.1719 L1043,24.0938 Q1043,25.125 1043.8438,25.8125 Q1044.6875,26.5 1046.1875,26.5 Q1047.0781,26.5 1047.7031,26.2969 Q1048.0625,26.1875 1048.4688,25.8281 Q1048.7344,25.625 1048.875,25.5625 Q1049.0156,25.5 1049.1875,25.5 Q1049.5156,25.5 1049.75,25.7656 Q1050,26.0156 1050,26.375 Q1050,26.7188 1049.6563,27.125 Q1049.1563,27.7188 1048.3594,28.0469 Q1047.3125,28.5 1046.0313,28.5 Q1044.5313,28.5 1043.3281,27.9063 Q1042.3594,27.4375 1041.6719,26.4219 Q1041,25.4063 1041,24.2031 L1041,23.1094 Q1041,21.8594 1041.5938,20.7656 Q1042.2031,19.6719 1043.25,19.0938 Q1044.3125,18.5 1045.5,18.5 Q1046.2188,18.5 1046.8438,18.75 Q1047.4688,19 1048,19.5 Z " fill="#000000"/><text fill="#000000" font-family="sans-serif" font-size="12" lengthAdjust="spacing" textLength="125" x="1060" y="27.9102">UpdateOrderController</text><line style="stroke:#A80036;stroke-width:1.5;" x1="1032" x2="1187" y1="39" y2="39"/><line style="stroke:#A80036;stroke-width:1.5;" x1="1032" x2="1187" y1="47" y2="47"/><!--MD5=[0c7624888451d2039aaef18036130ed9]
class Dispatcher--><rect codeLine="14" fill="#FEFECE" filter="url(#fbs6ljo62jbnb)" height="75.6719" id="Dispatcher" style="stroke:#A80036;stroke-width:1.5;" width="92" x="973.5" y="312.5"/><ellipse cx="988.5" cy="328.5" fill="#ADD1B2" rx="11" ry="11" style="stroke:#A80036;stroke-width:1.0;"/><path d="M990.5,325 Q990.7031,324.5 990.9375,324.25 Q991.1719,324 991.4375,324 Q991.9063,324 992.2031,324.2813 Q992.5,324.5625 992.5,325.2188 L992.5,326.7813 Q992.5,327.4375 992.2188,327.7188 Q991.9375,328 991.5,328 Q991.1094,328 990.8594,327.8281 Q990.6094,327.6563 990.5,327.2031 Q990.4531,326.8906 990.2813,326.7188 Q989.9688,326.3906 989.4063,326.2031 Q988.8438,326 988.2813,326 Q987.5781,326 986.9844,326.2813 Q986.4063,326.5625 985.9531,327.1875 Q985.5,327.8125 985.5,328.6719 L985.5,329.5938 Q985.5,330.625 986.3438,331.3125 Q987.1875,332 988.6875,332 Q989.5781,332 990.2031,331.7969 Q990.5625,331.6875 990.9688,331.3281 Q991.2344,331.125 991.375,331.0625 Q991.5156,331 991.6875,331 Q992.0156,331 992.25,331.2656 Q992.5,331.5156 992.5,331.875 Q992.5,332.2188 992.1563,332.625 Q991.6563,333.2188 990.8594,333.5469 Q989.8125,334 988.5313,334 Q987.0313,334 985.8281,333.4063 Q984.8594,332.9375 984.1719,331.9219 Q983.5,330.9063 983.5,329.7031 L983.5,328.6094 Q983.5,327.3594 984.0938,326.2656 Q984.7031,325.1719 985.75,324.5938 Q986.8125,324 988,324 Q988.7188,324 989.3438,324.25 Q989.9688,324.5 990.5,325 Z " fill="#000000"/><text fill="#000000" font-family="sans-serif" font-size="12" lengthAdjust="spacing" textLength="60" x="1002.5" y="333.4102">Dispatcher</text><line style="stroke:#A80036;stroke-width:1.5;" x1="974.5" x2="1064.5" y1="344.5" y2="344.5"/><line style="stroke:#A80036;stroke-width:1.5;" x1="974.5" x2="1064.5" y1="352.5" y2="352.5"/><ellipse cx="984.5" cy="363.5" fill="#84BE84" rx="3" ry="3" style="stroke:#038048;stroke-width:1.0;"/><text fill="#000000" font-family="sans-serif" font-size="11" lengthAdjust="spacing" textLength="48" x="993.5" y="367.9189">publish(e)</text><ellipse cx="984.5" cy="377.3359" fill="#84BE84" rx="3" ry="3" style="stroke:#038048;stroke-width:1.0;"/><text fill="#000000" font-family="sans-serif" font-size="11" lengthAdjust="spacing" textLength="46" x="993.5" y="381.7549">handle(e)</text><!--MD5=[e30e4630d4a35d2d39446d34214c3311]
class EventPublisher--><rect codeLine="19" fill="#FEFECE" filter="url(#fbs6ljo62jbnb)" height="61.8359" id="EventPublisher" style="stroke:#A80036;stroke-width:1.5;" width="142" x="1038.5" y="135.5"/><ellipse cx="1065.65" cy="151.5" fill="#ADD1B2" rx="11" ry="11" style="stroke:#A80036;stroke-width:1.0;"/><path d="M1067.65,148 Q1067.8531,147.5 1068.0875,147.25 Q1068.3219,147 1068.5875,147 Q1069.0563,147 1069.3531,147.2813 Q1069.65,147.5625 1069.65,148.2188 L1069.65,149.7813 Q1069.65,150.4375 1069.3688,150.7188 Q1069.0875,151 1068.65,151 Q1068.2594,151 1068.0094,150.8281 Q1067.7594,150.6563 1067.65,150.2031 Q1067.6031,149.8906 1067.4313,149.7188 Q1067.1188,149.3906 1066.5563,149.2031 Q1065.9938,149 1065.4313,149 Q1064.7281,149 1064.1344,149.2813 Q1063.5563,149.5625 1063.1031,150.1875 Q1062.65,150.8125 1062.65,151.6719 L1062.65,152.5938 Q1062.65,153.625 1063.4938,154.3125 Q1064.3375,155 1065.8375,155 Q1066.7281,155 1067.3531,154.7969 Q1067.7125,154.6875 1068.1188,154.3281 Q1068.3844,154.125 1068.525,154.0625 Q1068.6656,154 1068.8375,154 Q1069.1656,154 1069.4,154.2656 Q1069.65,154.5156 1069.65,154.875 Q1069.65,155.2188 1069.3063,155.625 Q1068.8063,156.2188 1068.0094,156.5469 Q1066.9625,157 1065.6813,157 Q1064.1813,157 1062.9781,156.4063 Q1062.0094,155.9375 1061.3219,154.9219 Q1060.65,153.9063 1060.65,152.7031 L1060.65,151.6094 Q1060.65,150.3594 1061.2438,149.2656 Q1061.8531,148.1719 1062.9,147.5938 Q1063.9625,147 1065.15,147 Q1065.8688,147 1066.4938,147.25 Q1067.1188,147.5 1067.65,148 Z " fill="#000000"/><text fill="#000000" font-family="sans-serif" font-size="12" lengthAdjust="spacing" textLength="83" x="1082.35" y="156.4102">EventPublisher</text><line style="stroke:#A80036;stroke-width:1.5;" x1="1039.5" x2="1179.5" y1="167.5" y2="167.5"/><line style="stroke:#A80036;stroke-width:1.5;" x1="1039.5" x2="1179.5" y1="175.5" y2="175.5"/><ellipse cx="1049.5" cy="186.5" fill="#84BE84" rx="3" ry="3" style="stroke:#038048;stroke-width:1.0;"/><text fill="#000000" font-family="sans-serif" font-size="11" lengthAdjust="spacing" textLength="116" x="1058.5" y="190.9189">publishEvent(orderDTO)</text><!--MD5=[50ffad3e267d989798b2f23b490188c8]
class UpdateOrderToDeliveredEvent--><rect codeLine="23" fill="#FEFECE" filter="url(#fbs6ljo62jbnb)" height="48" id="UpdateOrderToDeliveredEvent" style="stroke:#A80036;stroke-width:1.5;" width="199" x="1101" y="326.5"/><ellipse cx="1116" cy="342.5" fill="#ADD1B2" rx="11" ry="11" style="stroke:#A80036;stroke-width:1.0;"/><path d="M1118,339 Q1118.2031,338.5 1118.4375,338.25 Q1118.6719,338 1118.9375,338 Q1119.4063,338 1119.7031,338.2813 Q1120,338.5625 1120,339.2188 L1120,340.7813 Q1120,341.4375 1119.7188,341.7188 Q1119.4375,342 1119,342 Q1118.6094,342 1118.3594,341.8281 Q1118.1094,341.6563 1118,341.2031 Q1117.9531,340.8906 1117.7813,340.7188 Q1117.4688,340.3906 1116.9063,340.2031 Q1116.3438,340 1115.7813,340 Q1115.0781,340 1114.4844,340.2813 Q1113.9063,340.5625 1113.4531,341.1875 Q1113,341.8125 1113,342.6719 L1113,343.5938 Q1113,344.625 1113.8438,345.3125 Q1114.6875,346 1116.1875,346 Q1117.0781,346 1117.7031,345.7969 Q1118.0625,345.6875 1118.4688,345.3281 Q1118.7344,345.125 1118.875,345.0625 Q1119.0156,345 1119.1875,345 Q1119.5156,345 1119.75,345.2656 Q1120,345.5156 1120,345.875 Q1120,346.2188 1119.6563,346.625 Q1119.1563,347.2188 1118.3594,347.5469 Q1117.3125,348 1116.0313,348 Q1114.5313,348 1113.3281,347.4063 Q1112.3594,346.9375 1111.6719,345.9219 Q1111,344.9063 1111,343.7031 L1111,342.6094 Q1111,341.3594 1111.5938,340.2656 Q1112.2031,339.1719 1113.25,338.5938 Q1114.3125,338 1115.5,338 Q1116.2188,338 1116.8438,338.25 Q1117.4688,338.5 1118,339 Z " fill="#000000"/><text fill="#000000" font-family="sans-serif" font-size="12" lengthAdjust="spacing" textLength="167" x="1130" y="347.4102">UpdateOrderToDeliveredEvent</text><line style="stroke:#A80036;stroke-width:1.5;" x1="1102" x2="1299" y1="358.5" y2="358.5"/><line style="stroke:#A80036;stroke-width:1.5;" x1="1102" x2="1299" y1="366.5" y2="366.5"/><!--MD5=[4ac1cbd035ab3255058bf70e4f7ead1a]
class UpdateOrderToDeliveredFactory--><rect codeLine="26" fill="#FEFECE" filter="url(#fbs6ljo62jbnb)" height="61.8359" id="UpdateOrderToDeliveredFactory" style="stroke:#A80036;stroke-width:1.5;" width="208" x="606.5" y="135.5"/><ellipse cx="621.5" cy="151.5" fill="#ADD1B2" rx="11" ry="11" style="stroke:#A80036;stroke-width:1.0;"/><path d="M623.5,148 Q623.7031,147.5 623.9375,147.25 Q624.1719,147 624.4375,147 Q624.9063,147 625.2031,147.2813 Q625.5,147.5625 625.5,148.2188 L625.5,149.7813 Q625.5,150.4375 625.2188,150.7188 Q624.9375,151 624.5,151 Q624.1094,151 623.8594,150.8281 Q623.6094,150.6563 623.5,150.2031 Q623.4531,149.8906 623.2813,149.7188 Q622.9688,149.3906 622.4063,149.2031 Q621.8438,149 621.2813,149 Q620.5781,149 619.9844,149.2813 Q619.4063,149.5625 618.9531,150.1875 Q618.5,150.8125 618.5,151.6719 L618.5,152.5938 Q618.5,153.625 619.3438,154.3125 Q620.1875,155 621.6875,155 Q622.5781,155 623.2031,154.7969 Q623.5625,154.6875 623.9688,154.3281 Q624.2344,154.125 624.375,154.0625 Q624.5156,154 624.6875,154 Q625.0156,154 625.25,154.2656 Q625.5,154.5156 625.5,154.875 Q625.5,155.2188 625.1563,155.625 Q624.6563,156.2188 623.8594,156.5469 Q622.8125,157 621.5313,157 Q620.0313,157 618.8281,156.4063 Q617.8594,155.9375 617.1719,154.9219 Q616.5,153.9063 616.5,152.7031 L616.5,151.6094 Q616.5,150.3594 617.0938,149.2656 Q617.7031,148.1719 618.75,147.5938 Q619.8125,147 621,147 Q621.7188,147 622.3438,147.25 Q622.9688,147.5 623.5,148 Z " fill="#000000"/><text fill="#000000" font-family="sans-serif" font-size="12" lengthAdjust="spacing" textLength="176" x="635.5" y="156.4102">UpdateOrderToDeliveredFactory</text><line style="stroke:#A80036;stroke-width:1.5;" x1="607.5" x2="813.5" y1="167.5" y2="167.5"/><line style="stroke:#A80036;stroke-width:1.5;" x1="607.5" x2="813.5" y1="175.5" y2="175.5"/><ellipse cx="617.5" cy="186.5" fill="#84BE84" rx="3" ry="3" style="stroke:#038048;stroke-width:1.0;"/><text fill="#000000" font-family="sans-serif" font-size="11" lengthAdjust="spacing" textLength="30" x="626.5" y="190.9189">build()</text><!--MD5=[9265192601ae3d68217fc2a2ce1ea439]
class ProductOrder--><rect codeLine="30" fill="#FEFECE" filter="url(#fbs6ljo62jbnb)" height="61.8359" id="ProductOrder" style="stroke:#A80036;stroke-width:1.5;" width="105" x="7" y="319.5"/><ellipse cx="22" cy="335.5" fill="#ADD1B2" rx="11" ry="11" style="stroke:#A80036;stroke-width:1.0;"/><path d="M24,332 Q24.2031,331.5 24.4375,331.25 Q24.6719,331 24.9375,331 Q25.4063,331 25.7031,331.2813 Q26,331.5625 26,332.2188 L26,333.7813 Q26,334.4375 25.7188,334.7188 Q25.4375,335 25,335 Q24.6094,335 24.3594,334.8281 Q24.1094,334.6563 24,334.2031 Q23.9531,333.8906 23.7813,333.7188 Q23.4688,333.3906 22.9063,333.2031 Q22.3438,333 21.7813,333 Q21.0781,333 20.4844,333.2813 Q19.9063,333.5625 19.4531,334.1875 Q19,334.8125 19,335.6719 L19,336.5938 Q19,337.625 19.8438,338.3125 Q20.6875,339 22.1875,339 Q23.0781,339 23.7031,338.7969 Q24.0625,338.6875 24.4688,338.3281 Q24.7344,338.125 24.875,338.0625 Q25.0156,338 25.1875,338 Q25.5156,338 25.75,338.2656 Q26,338.5156 26,338.875 Q26,339.2188 25.6563,339.625 Q25.1563,340.2188 24.3594,340.5469 Q23.3125,341 22.0313,341 Q20.5313,341 19.3281,340.4063 Q18.3594,339.9375 17.6719,338.9219 Q17,337.9063 17,336.7031 L17,335.6094 Q17,334.3594 17.5938,333.2656 Q18.2031,332.1719 19.25,331.5938 Q20.3125,331 21.5,331 Q22.2188,331 22.8438,331.25 Q23.4688,331.5 24,332 Z " fill="#000000"/><text fill="#000000" font-family="sans-serif" font-size="12" lengthAdjust="spacing" textLength="73" x="36" y="340.4102">ProductOrder</text><line style="stroke:#A80036;stroke-width:1.5;" x1="8" x2="111" y1="351.5" y2="351.5"/><line style="stroke:#A80036;stroke-width:1.5;" x1="8" x2="111" y1="359.5" y2="359.5"/><ellipse cx="18" cy="370.5" fill="#84BE84" rx="3" ry="3" style="stroke:#038048;stroke-width:1.0;"/><text fill="#000000" font-family="sans-serif" font-size="11" lengthAdjust="spacing" textLength="68" x="27" y="374.9189">deliverOrder()</text><!--MD5=[136efa52ae524f6891ef3a669b0ebd18]
class OrderDTO--><rect codeLine="34" fill="#FEFECE" filter="url(#fbs6ljo62jbnb)" height="61.8359" id="OrderDTO" style="stroke:#A80036;stroke-width:1.5;" width="109" x="146" y="483"/><ellipse cx="170.45" cy="499" fill="#ADD1B2" rx="11" ry="11" style="stroke:#A80036;stroke-width:1.0;"/><path d="M172.45,495.5 Q172.6531,495 172.8875,494.75 Q173.1219,494.5 173.3875,494.5 Q173.8563,494.5 174.1531,494.7813 Q174.45,495.0625 174.45,495.7188 L174.45,497.2813 Q174.45,497.9375 174.1688,498.2188 Q173.8875,498.5 173.45,498.5 Q173.0594,498.5 172.8094,498.3281 Q172.5594,498.1563 172.45,497.7031 Q172.4031,497.3906 172.2313,497.2188 Q171.9188,496.8906 171.3563,496.7031 Q170.7938,496.5 170.2313,496.5 Q169.5281,496.5 168.9344,496.7813 Q168.3563,497.0625 167.9031,497.6875 Q167.45,498.3125 167.45,499.1719 L167.45,500.0938 Q167.45,501.125 168.2938,501.8125 Q169.1375,502.5 170.6375,502.5 Q171.5281,502.5 172.1531,502.2969 Q172.5125,502.1875 172.9188,501.8281 Q173.1844,501.625 173.325,501.5625 Q173.4656,501.5 173.6375,501.5 Q173.9656,501.5 174.2,501.7656 Q174.45,502.0156 174.45,502.375 Q174.45,502.7188 174.1063,503.125 Q173.6063,503.7188 172.8094,504.0469 Q171.7625,504.5 170.4813,504.5 Q168.9813,504.5 167.7781,503.9063 Q166.8094,503.4375 166.1219,502.4219 Q165.45,501.4063 165.45,500.2031 L165.45,499.1094 Q165.45,497.8594 166.0438,496.7656 Q166.6531,495.6719 167.7,495.0938 Q168.7625,494.5 169.95,494.5 Q170.6688,494.5 171.2938,494.75 Q171.9188,495 172.45,495.5 Z " fill="#000000"/><text fill="#000000" font-family="sans-serif" font-size="12" lengthAdjust="spacing" textLength="56" x="186.55" y="503.9102">OrderDTO</text><line style="stroke:#A80036;stroke-width:1.5;" x1="147" x2="254" y1="515" y2="515"/><line style="stroke:#A80036;stroke-width:1.5;" x1="147" x2="254" y1="523" y2="523"/><ellipse cx="157" cy="534" fill="#84BE84" rx="3" ry="3" style="stroke:#038048;stroke-width:1.0;"/><text fill="#000000" font-family="sans-serif" font-size="11" lengthAdjust="spacing" textLength="83" x="166" y="538.4189">OrderDTO(order)</text><!--MD5=[03d73a36b0f520b1385451eedccbc101]
class OrderMapper--><rect codeLine="38" fill="#FEFECE" filter="url(#fbs6ljo62jbnb)" height="75.6719" id="OrderMapper" style="stroke:#A80036;stroke-width:1.5;" width="107" x="147" y="312.5"/><ellipse cx="163.35" cy="328.5" fill="#ADD1B2" rx="11" ry="11" style="stroke:#A80036;stroke-width:1.0;"/><path d="M165.35,325 Q165.5531,324.5 165.7875,324.25 Q166.0219,324 166.2875,324 Q166.7563,324 167.0531,324.2813 Q167.35,324.5625 167.35,325.2188 L167.35,326.7813 Q167.35,327.4375 167.0688,327.7188 Q166.7875,328 166.35,328 Q165.9594,328 165.7094,327.8281 Q165.4594,327.6563 165.35,327.2031 Q165.3031,326.8906 165.1313,326.7188 Q164.8188,326.3906 164.2563,326.2031 Q163.6938,326 163.1313,326 Q162.4281,326 161.8344,326.2813 Q161.2563,326.5625 160.8031,327.1875 Q160.35,327.8125 160.35,328.6719 L160.35,329.5938 Q160.35,330.625 161.1938,331.3125 Q162.0375,332 163.5375,332 Q164.4281,332 165.0531,331.7969 Q165.4125,331.6875 165.8188,331.3281 Q166.0844,331.125 166.225,331.0625 Q166.3656,331 166.5375,331 Q166.8656,331 167.1,331.2656 Q167.35,331.5156 167.35,331.875 Q167.35,332.2188 167.0063,332.625 Q166.5063,333.2188 165.7094,333.5469 Q164.6625,334 163.3813,334 Q161.8813,334 160.6781,333.4063 Q159.7094,332.9375 159.0219,331.9219 Q158.35,330.9063 158.35,329.7031 L158.35,328.6094 Q158.35,327.3594 158.9438,326.2656 Q159.5531,325.1719 160.6,324.5938 Q161.6625,324 162.85,324 Q163.5688,324 164.1938,324.25 Q164.8188,324.5 165.35,325 Z " fill="#000000"/><text fill="#000000" font-family="sans-serif" font-size="12" lengthAdjust="spacing" textLength="72" x="177.65" y="333.4102">OrderMapper</text><line style="stroke:#A80036;stroke-width:1.5;" x1="148" x2="253" y1="344.5" y2="344.5"/><line style="stroke:#A80036;stroke-width:1.5;" x1="148" x2="253" y1="352.5" y2="352.5"/><ellipse cx="158" cy="363.5" fill="#84BE84" rx="3" ry="3" style="stroke:#038048;stroke-width:1.0;"/><text fill="#000000" font-family="sans-serif" font-size="11" lengthAdjust="spacing" textLength="81" x="167" y="367.9189">toDTO(orderList)</text><ellipse cx="158" cy="377.3359" fill="#84BE84" rx="3" ry="3" style="stroke:#038048;stroke-width:1.0;"/><text fill="#000000" font-family="sans-serif" font-size="11" lengthAdjust="spacing" textLength="64" x="167" y="381.7549">toDTO(order)</text><!--MD5=[48590afff58a68e2fcba47824d6f8a11]
class RepositoryFactory--><rect codeLine="43" fill="#FEFECE" filter="url(#fbs6ljo62jbnb)" height="61.8359" id="RepositoryFactory" style="stroke:#A80036;stroke-width:1.5;" width="131" x="289" y="319.5"/><ellipse cx="304" cy="335.5" fill="#B4A7E5" rx="11" ry="11" style="stroke:#A80036;stroke-width:1.0;"/><path d="M305,332.5 L305,338.5 L307,338.5 L307.4844,338.5 L308,339.125 L308,339.5 L308,339.875 L307.4844,340.5 L307,340.5 L301,340.5 L300.5156,340.5 L300,339.875 L300,339.5 L300,339.125 L300.5156,338.5 L301,338.5 L303,338.5 L303,332.5 L301,332.5 L300.5156,332.5 L300,331.875 L300,331.5 L300,331.125 L300.5156,330.5 L301,330.5 L307,330.5 L307.4844,330.5 L308,331.125 L308,331.5 L308,331.875 L307.4844,332.5 L307,332.5 L305,332.5 Z " fill="#000000"/><text fill="#000000" font-family="sans-serif" font-size="12" font-style="italic" lengthAdjust="spacing" textLength="99" x="318" y="340.4102">RepositoryFactory</text><line style="stroke:#A80036;stroke-width:1.5;" x1="290" x2="419" y1="351.5" y2="351.5"/><line style="stroke:#A80036;stroke-width:1.5;" x1="290" x2="419" y1="359.5" y2="359.5"/><ellipse cx="300" cy="370.5" fill="#84BE84" rx="3" ry="3" style="stroke:#038048;stroke-width:1.0;"/><text fill="#000000" font-family="sans-serif" font-size="11" lengthAdjust="spacing" textLength="58" x="309" y="374.9189">save(order)</text><!--MD5=[10930871a0e9c50c7f5c09c12f4305ee]
class CustomerDTO--><rect codeLine="47" fill="#FEFECE" filter="url(#fbs6ljo62jbnb)" height="61.8359" id="CustomerDTO" style="stroke:#A80036;stroke-width:1.5;" width="112" x="442.5" y="483"/><ellipse cx="457.5" cy="499" fill="#ADD1B2" rx="11" ry="11" style="stroke:#A80036;stroke-width:1.0;"/><path d="M459.5,495.5 Q459.7031,495 459.9375,494.75 Q460.1719,494.5 460.4375,494.5 Q460.9063,494.5 461.2031,494.7813 Q461.5,495.0625 461.5,495.7188 L461.5,497.2813 Q461.5,497.9375 461.2188,498.2188 Q460.9375,498.5 460.5,498.5 Q460.1094,498.5 459.8594,498.3281 Q459.6094,498.1563 459.5,497.7031 Q459.4531,497.3906 459.2813,497.2188 Q458.9688,496.8906 458.4063,496.7031 Q457.8438,496.5 457.2813,496.5 Q456.5781,496.5 455.9844,496.7813 Q455.4063,497.0625 454.9531,497.6875 Q454.5,498.3125 454.5,499.1719 L454.5,500.0938 Q454.5,501.125 455.3438,501.8125 Q456.1875,502.5 457.6875,502.5 Q458.5781,502.5 459.2031,502.2969 Q459.5625,502.1875 459.9688,501.8281 Q460.2344,501.625 460.375,501.5625 Q460.5156,501.5 460.6875,501.5 Q461.0156,501.5 461.25,501.7656 Q461.5,502.0156 461.5,502.375 Q461.5,502.7188 461.1563,503.125 Q460.6563,503.7188 459.8594,504.0469 Q458.8125,504.5 457.5313,504.5 Q456.0313,504.5 454.8281,503.9063 Q453.8594,503.4375 453.1719,502.4219 Q452.5,501.4063 452.5,500.2031 L452.5,499.1094 Q452.5,497.8594 453.0938,496.7656 Q453.7031,495.6719 454.75,495.0938 Q455.8125,494.5 457,494.5 Q457.7188,494.5 458.3438,494.75 Q458.9688,495 459.5,495.5 Z " fill="#000000"/><text fill="#000000" font-family="sans-serif" font-size="12" lengthAdjust="spacing" textLength="80" x="471.5" y="503.9102">CustomerDTO</text><line style="stroke:#A80036;stroke-width:1.5;" x1="443.5" x2="553.5" y1="515" y2="515"/><line style="stroke:#A80036;stroke-width:1.5;" x1="443.5" x2="553.5" y1="523" y2="523"/><ellipse cx="453.5" cy="534" fill="#84BE84" rx="3" ry="3" style="stroke:#038048;stroke-width:1.0;"/><text fill="#000000" font-family="sans-serif" font-size="11" lengthAdjust="spacing" textLength="75" x="462.5" y="538.4189">CustomerDTO()</text><!--MD5=[2ce0c9fb7f55b1e256ab28a8ea6b25ec]
class Customer--><rect codeLine="51" fill="#FEFECE" filter="url(#fbs6ljo62jbnb)" height="75.6719" id="Customer" style="stroke:#A80036;stroke-width:1.5;" width="87" x="455" y="312.5"/><ellipse cx="470" cy="328.5" fill="#ADD1B2" rx="11" ry="11" style="stroke:#A80036;stroke-width:1.0;"/><path d="M472,325 Q472.2031,324.5 472.4375,324.25 Q472.6719,324 472.9375,324 Q473.4063,324 473.7031,324.2813 Q474,324.5625 474,325.2188 L474,326.7813 Q474,327.4375 473.7188,327.7188 Q473.4375,328 473,328 Q472.6094,328 472.3594,327.8281 Q472.1094,327.6563 472,327.2031 Q471.9531,326.8906 471.7813,326.7188 Q471.4688,326.3906 470.9063,326.2031 Q470.3438,326 469.7813,326 Q469.0781,326 468.4844,326.2813 Q467.9063,326.5625 467.4531,327.1875 Q467,327.8125 467,328.6719 L467,329.5938 Q467,330.625 467.8438,331.3125 Q468.6875,332 470.1875,332 Q471.0781,332 471.7031,331.7969 Q472.0625,331.6875 472.4688,331.3281 Q472.7344,331.125 472.875,331.0625 Q473.0156,331 473.1875,331 Q473.5156,331 473.75,331.2656 Q474,331.5156 474,331.875 Q474,332.2188 473.6563,332.625 Q473.1563,333.2188 472.3594,333.5469 Q471.3125,334 470.0313,334 Q468.5313,334 467.3281,333.4063 Q466.3594,332.9375 465.6719,331.9219 Q465,330.9063 465,329.7031 L465,328.6094 Q465,327.3594 465.5938,326.2656 Q466.2031,325.1719 467.25,324.5938 Q468.3125,324 469.5,324 Q470.2188,324 470.8438,324.25 Q471.4688,324.5 472,325 Z " fill="#000000"/><text fill="#000000" font-family="sans-serif" font-size="12" lengthAdjust="spacing" textLength="55" x="484" y="333.4102">Customer</text><line style="stroke:#A80036;stroke-width:1.5;" x1="456" x2="541" y1="344.5" y2="344.5"/><line style="stroke:#A80036;stroke-width:1.5;" x1="456" x2="541" y1="352.5" y2="352.5"/><ellipse cx="466" cy="363.5" fill="#84BE84" rx="3" ry="3" style="stroke:#038048;stroke-width:1.0;"/><text fill="#000000" font-family="sans-serif" font-size="11" lengthAdjust="spacing" textLength="38" x="475" y="367.9189">toDTO()</text><ellipse cx="466" cy="377.3359" fill="#84BE84" rx="3" ry="3" style="stroke:#038048;stroke-width:1.0;"/><text fill="#000000" font-family="sans-serif" font-size="11" lengthAdjust="spacing" textLength="23" x="475" y="381.7549">vat()</text><!--MD5=[708e328039b60d50c6285936843ac334]
class OrderRepository--><rect codeLine="56" fill="#FEFECE" filter="url(#fbs6ljo62jbnb)" height="144.8516" id="OrderRepository" style="stroke:#A80036;stroke-width:1.5;" width="181" x="577" y="278"/><ellipse cx="618.55" cy="294" fill="#B4A7E5" rx="11" ry="11" style="stroke:#A80036;stroke-width:1.0;"/><path d="M619.55,291 L619.55,297 L621.55,297 L622.0344,297 L622.55,297.625 L622.55,298 L622.55,298.375 L622.0344,299 L621.55,299 L615.55,299 L615.0656,299 L614.55,298.375 L614.55,298 L614.55,297.625 L615.0656,297 L615.55,297 L617.55,297 L617.55,291 L615.55,291 L615.0656,291 L614.55,290.375 L614.55,290 L614.55,289.625 L615.0656,289 L615.55,289 L621.55,289 L622.0344,289 L622.55,289.625 L622.55,290 L622.55,290.375 L622.0344,291 L621.55,291 L619.55,291 Z " fill="#000000"/><text fill="#000000" font-family="sans-serif" font-size="12" font-style="italic" lengthAdjust="spacing" textLength="90" x="638.45" y="298.9102">OrderRepository</text><line style="stroke:#A80036;stroke-width:1.5;" x1="578" x2="757" y1="310" y2="310"/><line style="stroke:#A80036;stroke-width:1.5;" x1="578" x2="757" y1="318" y2="318"/><ellipse cx="588" cy="329" fill="#84BE84" rx="3" ry="3" style="stroke:#038048;stroke-width:1.0;"/><text fill="#000000" font-family="sans-serif" font-size="11" lengthAdjust="spacing" textLength="52" x="597" y="333.4189">add(entity)</text><ellipse cx="588" cy="342.8359" fill="#84BE84" rx="3" ry="3" style="stroke:#038048;stroke-width:1.0;"/><text fill="#000000" font-family="sans-serif" font-size="11" lengthAdjust="spacing" textLength="71" x="597" y="347.2549">findById(code)</text><ellipse cx="588" cy="356.6719" fill="#84BE84" rx="3" ry="3" style="stroke:#038048;stroke-width:1.0;"/><text fill="#000000" font-family="sans-serif" font-size="11" lengthAdjust="spacing" textLength="38" x="597" y="361.0908">findAll()</text><ellipse cx="588" cy="370.5078" fill="#84BE84" rx="3" ry="3" style="stroke:#038048;stroke-width:1.0;"/><text fill="#000000" font-family="sans-serif" font-size="11" lengthAdjust="spacing" textLength="46" x="597" y="374.9268">findPaid()</text><ellipse cx="588" cy="384.3438" fill="#84BE84" rx="3" ry="3" style="stroke:#038048;stroke-width:1.0;"/><text fill="#000000" font-family="sans-serif" font-size="11" lengthAdjust="spacing" textLength="154" x="597" y="388.7627">listOfOrdersPreparedByAGVs()</text><ellipse cx="588" cy="398.1797" fill="#84BE84" rx="3" ry="3" style="stroke:#038048;stroke-width:1.0;"/><text fill="#000000" font-family="sans-serif" font-size="11" lengthAdjust="spacing" textLength="155" x="597" y="402.5986">listOfOrdersInAscendingOrder()</text><ellipse cx="588" cy="412.0156" fill="#84BE84" rx="3" ry="3" style="stroke:#038048;stroke-width:1.0;"/><text fill="#000000" font-family="sans-serif" font-size="11" lengthAdjust="spacing" textLength="115" x="597" y="416.4346">listOfOrdersReceived();</text><!--MD5=[e69d6994dde37a3d0167e5476c791457]
class CustomerRepository--><rect codeLine="66" fill="#FEFECE" filter="url(#fbs6ljo62jbnb)" height="75.6719" id="CustomerRepository" style="stroke:#A80036;stroke-width:1.5;" width="145" x="793" y="312.5"/><ellipse cx="808" cy="328.5" fill="#B4A7E5" rx="11" ry="11" style="stroke:#A80036;stroke-width:1.0;"/><path d="M809,325.5 L809,331.5 L811,331.5 L811.4844,331.5 L812,332.125 L812,332.5 L812,332.875 L811.4844,333.5 L811,333.5 L805,333.5 L804.5156,333.5 L804,332.875 L804,332.5 L804,332.125 L804.5156,331.5 L805,331.5 L807,331.5 L807,325.5 L805,325.5 L804.5156,325.5 L804,324.875 L804,324.5 L804,324.125 L804.5156,323.5 L805,323.5 L811,323.5 L811.4844,323.5 L812,324.125 L812,324.5 L812,324.875 L811.4844,325.5 L811,325.5 L809,325.5 Z " fill="#000000"/><text fill="#000000" font-family="sans-serif" font-size="12" font-style="italic" lengthAdjust="spacing" textLength="113" x="822" y="333.4102">CustomerRepository</text><line style="stroke:#A80036;stroke-width:1.5;" x1="794" x2="937" y1="344.5" y2="344.5"/><line style="stroke:#A80036;stroke-width:1.5;" x1="794" x2="937" y1="352.5" y2="352.5"/><ellipse cx="804" cy="363.5" fill="#84BE84" rx="3" ry="3" style="stroke:#038048;stroke-width:1.0;"/><text fill="#000000" font-family="sans-serif" font-size="11" lengthAdjust="spacing" textLength="74" x="813" y="367.9189">findByVat(vat);</text><ellipse cx="804" cy="377.3359" fill="#84BE84" rx="3" ry="3" style="stroke:#038048;stroke-width:1.0;"/><text fill="#000000" font-family="sans-serif" font-size="11" lengthAdjust="spacing" textLength="90" x="813" y="381.7549">findByEmail(email);</text><!--MD5=[a163877b50cfd1a6afb64b58139315f1]
link UpdateOrderController to EventPublisher--><path codeLine="73" d="M1109.5,55.25 C1109.5,75.95 1109.5,106.53 1109.5,130.23 " fill="none" id="UpdateOrderController-to-EventPublisher" style="stroke:#A80036;stroke-width:1.0;stroke-dasharray:7.0,7.0;"/><polygon fill="#A80036" points="1109.5,135.49,1113.5,126.49,1109.5,130.49,1105.5,126.49,1109.5,135.49" style="stroke:#A80036;stroke-width:1.0;"/><!--MD5=[5078e053f4deb3b54db0e0e457ceca79]
link EventPublisher to UpdateOrderToDeliveredEvent--><path codeLine="74" d="M1124.53,197.55 C1141.75,232 1169.76,288.02 1186.53,321.56 " fill="none" id="EventPublisher-to-UpdateOrderToDeliveredEvent" style="stroke:#A80036;stroke-width:1.0;stroke-dasharray:7.0,7.0;"/><polygon fill="#A80036" points="1188.92,326.34,1188.4854,316.5007,1186.6897,321.865,1181.3254,320.0693,1188.92,326.34" style="stroke:#A80036;stroke-width:1.0;"/><!--MD5=[c58c791f543861e3357b85aeddab904d]
link EventPublisher to Dispatcher--><path codeLine="75" d="M1094.64,197.55 C1079.79,227.58 1056.84,273.98 1040.21,307.61 " fill="none" id="EventPublisher-to-Dispatcher" style="stroke:#A80036;stroke-width:1.0;stroke-dasharray:7.0,7.0;"/><polygon fill="#A80036" points="1037.81,312.48,1045.3885,306.1899,1040.0289,307.9993,1038.2194,302.6397,1037.81,312.48" style="stroke:#A80036;stroke-width:1.0;"/><!--MD5=[a70f7313e0900f076926e5cf58de0e20]
link UpdateOrderToDeliveredUI to UpdateOrderToDeliveredControllerEventfulImpl--><path codeLine="77" d="M543.77,55.25 C527.31,70.73 504.98,91.72 484.22,111.24 " fill="none" id="UpdateOrderToDeliveredUI-to-UpdateOrderToDeliveredControllerEventfulImpl" style="stroke:#A80036;stroke-width:1.0;stroke-dasharray:7.0,7.0;"/><polygon fill="#A80036" points="480.36,114.86,489.662,111.6239,484.0081,111.4408,484.1913,105.7869,480.36,114.86" style="stroke:#A80036;stroke-width:1.0;"/><!--MD5=[a2e6aa281a86d383ce866011415dd0d7]
link UpdateOrderToDeliveredUI to UpdateOrderToDeliveredFactory--><path codeLine="78" d="M593.23,55.25 C615.8,76.47 649.42,108.08 674.88,132.01 " fill="none" id="UpdateOrderToDeliveredUI-to-UpdateOrderToDeliveredFactory" style="stroke:#A80036;stroke-width:1.0;stroke-dasharray:7.0,7.0;"/><polygon fill="#A80036" points="678.58,135.49,674.7487,126.4169,674.9319,132.0708,669.278,132.2539,678.58,135.49" style="stroke:#A80036;stroke-width:1.0;"/><!--MD5=[5779fde33fac53d02588bd74c32fa539]
link UpdateOrderToDeliveredControllerEventfulImpl to OrderRepository--><path codeLine="80" d="M493.63,218.2 C518.09,236.67 546.22,257.91 572.63,277.86 " fill="none" id="UpdateOrderToDeliveredControllerEventfulImpl-to-OrderRepository" style="stroke:#A80036;stroke-width:1.0;stroke-dasharray:7.0,7.0;"/><polygon fill="#A80036" points="576.86,281.05,572.0945,272.4309,572.872,278.034,567.2689,278.8116,576.86,281.05" style="stroke:#A80036;stroke-width:1.0;"/><!--MD5=[541155de4de92b9fb02e690854c49f44]
link UpdateOrderToDeliveredControllerEventfulImpl to OrderMapper--><path codeLine="81" d="M350.07,218.14 C324.39,236.14 296.06,257.14 271.5,278 C260.46,287.38 249.13,298.18 238.85,308.49 " fill="none" id="UpdateOrderToDeliveredControllerEventfulImpl-to-OrderMapper" style="stroke:#A80036;stroke-width:1.0;stroke-dasharray:7.0,7.0;"/><polygon fill="#A80036" points="235.12,312.26,244.2908,308.6688,238.634,308.7031,238.5998,303.0464,235.12,312.26" style="stroke:#A80036;stroke-width:1.0;"/><!--MD5=[06ee39122afba1c1e9c0e399fef6fef8]
link UpdateOrderToDeliveredControllerEventfulImpl to ProductOrder--><path codeLine="82" d="M281.45,207.2 C231.05,224.61 175.64,248.03 129.5,278 C113.92,288.12 99.14,302.26 87.22,315.3 " fill="none" id="UpdateOrderToDeliveredControllerEventfulImpl-to-ProductOrder" style="stroke:#A80036;stroke-width:1.0;stroke-dasharray:7.0,7.0;"/><polygon fill="#A80036" points="83.61,319.3,92.6039,315.2862,86.9548,315.5835,86.6575,309.9345,83.61,319.3" style="stroke:#A80036;stroke-width:1.0;"/><!--MD5=[a6650b1115894e64f13b8681415c76f4]
link UpdateOrderToDeliveredControllerEventfulImpl to Customer--><path codeLine="83" d="M446.56,218.2 C457.68,246.32 471.35,280.87 481.88,307.48 " fill="none" id="UpdateOrderToDeliveredControllerEventfulImpl-to-Customer" style="stroke:#A80036;stroke-width:1.0;stroke-dasharray:7.0,7.0;"/><polygon fill="#A80036" points="483.8,312.35,484.1975,302.5092,481.9554,307.7027,476.7618,305.4606,483.8,312.35" style="stroke:#A80036;stroke-width:1.0;"/><!--MD5=[e5e0f9fddcb7b3c077e2c195cea6ef71]
link UpdateOrderToDeliveredControllerEventfulImpl to CustomerRepository--><path codeLine="84" d="M571.51,212.77 C665.19,242.12 770.56,275.37 775.5,278 C791.31,286.41 807.09,297.71 820.92,308.83 " fill="none" id="UpdateOrderToDeliveredControllerEventfulImpl-to-CustomerRepository" style="stroke:#A80036;stroke-width:1.0;stroke-dasharray:7.0,7.0;"/><polygon fill="#A80036" points="825.15,312.28,820.6873,303.5002,821.2694,309.127,815.6426,309.7091,825.15,312.28" style="stroke:#A80036;stroke-width:1.0;"/><!--MD5=[a4afa949ea65d9b9fc011e170af53246]
link UpdateOrderToDeliveredControllerEventfulImpl to RepositoryFactory--><path codeLine="85" d="M406.44,218.2 C394.34,248.79 379.22,287.01 368.42,314.31 " fill="none" id="UpdateOrderToDeliveredControllerEventfulImpl-to-RepositoryFactory" style="stroke:#A80036;stroke-width:1.0;stroke-dasharray:7.0,7.0;"/><polygon fill="#A80036" points="366.46,319.27,373.4982,312.3806,368.3046,314.6227,366.0625,309.4292,366.46,319.27" style="stroke:#A80036;stroke-width:1.0;"/><!--MD5=[8c263bea8615bc00ce9db045da41b9fc]
link OrderMapper to OrderDTO--><path codeLine="87" d="M200.5,388.55 C200.5,415.35 200.5,451.35 200.5,477.73 " fill="none" id="OrderMapper-to-OrderDTO" style="stroke:#A80036;stroke-width:1.0;stroke-dasharray:7.0,7.0;"/><polygon fill="#A80036" points="200.5,482.87,204.5,473.87,200.5,477.87,196.5,473.87,200.5,482.87" style="stroke:#A80036;stroke-width:1.0;"/><!--MD5=[d185932cca980e0d8e2a0a6a71fbe495]
link Customer to CustomerDTO--><path codeLine="88" d="M498.5,388.55 C498.5,415.35 498.5,451.35 498.5,477.73 " fill="none" id="Customer-to-CustomerDTO" style="stroke:#A80036;stroke-width:1.0;stroke-dasharray:7.0,7.0;"/><polygon fill="#A80036" points="498.5,482.87,502.5,473.87,498.5,477.87,494.5,473.87,498.5,482.87" style="stroke:#A80036;stroke-width:1.0;"/><!--MD5=[32aef5d02203b30aa69daa9d7467ccbc]
@startuml

class UpdateOrderToDeliveredUI

class UpdateOrderToDeliveredControllerEventfulImpl {
+ changeOrderStatusToDelivered(orderDTO)
+ findProductOrderById(identifier)
+ listOfOrdersReceived()
+ findCustomerByOrderId(identifier)
}

class UpdateOrderController {
}

class Dispatcher {
+ publish(e)
+ handle(e)
}

class EventPublisher {
+ publishEvent(orderDTO)
}

class UpdateOrderToDeliveredEvent {
}

class UpdateOrderToDeliveredFactory {
+ build()
}

class ProductOrder {
+ deliverOrder()
}

class OrderDTO {
+ OrderDTO(order)
}

class OrderMapper {
+ toDTO(orderList)
+ toDTO(order)
}

interface RepositoryFactory {
+ save(order)
}

class CustomerDTO {
+ CustomerDTO()
}

class Customer {
+ toDTO()
+ vat()
}

interface OrderRepository {
+ add(entity)
+ findById(code)
+ findAll()
+ findPaid()
+ listOfOrdersPreparedByAGVs()
+ listOfOrdersInAscendingOrder()
+ listOfOrdersReceived();
}

interface CustomerRepository {
+ findByVat(vat);
+ findByEmail(email);
}

'- - - - - - - - - -Relationships

UpdateOrderController ..> EventPublisher
EventPublisher ..> UpdateOrderToDeliveredEvent
EventPublisher ..> Dispatcher

UpdateOrderToDeliveredUI ..> UpdateOrderToDeliveredControllerEventfulImpl
UpdateOrderToDeliveredUI ..> UpdateOrderToDeliveredFactory

UpdateOrderToDeliveredControllerEventfulImpl ..> OrderRepository
UpdateOrderToDeliveredControllerEventfulImpl ..> OrderMapper
UpdateOrderToDeliveredControllerEventfulImpl ..> ProductOrder
UpdateOrderToDeliveredControllerEventfulImpl ..> Customer
UpdateOrderToDeliveredControllerEventfulImpl ..> CustomerRepository
UpdateOrderToDeliveredControllerEventfulImpl ..> RepositoryFactory

OrderMapper ..> OrderDTO
Customer ..> CustomerDTO

@enduml

@startuml

class UpdateOrderToDeliveredUI

class UpdateOrderToDeliveredControllerEventfulImpl {
+ changeOrderStatusToDelivered(orderDTO)
+ findProductOrderById(identifier)
+ listOfOrdersReceived()
+ findCustomerByOrderId(identifier)
}

class UpdateOrderController {
}

class Dispatcher {
+ publish(e)
+ handle(e)
}

class EventPublisher {
+ publishEvent(orderDTO)
}

class UpdateOrderToDeliveredEvent {
}

class UpdateOrderToDeliveredFactory {
+ build()
}

class ProductOrder {
+ deliverOrder()
}

class OrderDTO {
+ OrderDTO(order)
}

class OrderMapper {
+ toDTO(orderList)
+ toDTO(order)
}

interface RepositoryFactory {
+ save(order)
}

class CustomerDTO {
+ CustomerDTO()
}

class Customer {
+ toDTO()
+ vat()
}

interface OrderRepository {
+ add(entity)
+ findById(code)
+ findAll()
+ findPaid()
+ listOfOrdersPreparedByAGVs()
+ listOfOrdersInAscendingOrder()
+ listOfOrdersReceived();
}

interface CustomerRepository {
+ findByVat(vat);
+ findByEmail(email);
}


UpdateOrderController ..> EventPublisher
EventPublisher ..> UpdateOrderToDeliveredEvent
EventPublisher ..> Dispatcher

UpdateOrderToDeliveredUI ..> UpdateOrderToDeliveredControllerEventfulImpl
UpdateOrderToDeliveredUI ..> UpdateOrderToDeliveredFactory

UpdateOrderToDeliveredControllerEventfulImpl ..> OrderRepository
UpdateOrderToDeliveredControllerEventfulImpl ..> OrderMapper
UpdateOrderToDeliveredControllerEventfulImpl ..> ProductOrder
UpdateOrderToDeliveredControllerEventfulImpl ..> Customer
UpdateOrderToDeliveredControllerEventfulImpl ..> CustomerRepository
UpdateOrderToDeliveredControllerEventfulImpl ..> RepositoryFactory

OrderMapper ..> OrderDTO
Customer ..> CustomerDTO

@enduml

PlantUML version 1.2021.11(Sat Oct 02 14:26:11 BST 2021)
(GPL source distribution)
Java Runtime: OpenJDK Runtime Environment
JVM: OpenJDK 64-Bit Server VM
Default Encoding: Cp1252
Language: en
Country: GB
--></g></svg>