<?xml version="1.0" encoding="UTF-8" standalone="no"?><svg xmlns="http://www.w3.org/2000/svg" xmlns:xlink="http://www.w3.org/1999/xlink" contentStyleType="text/css" height="978px" preserveAspectRatio="none" style="width:1318px;height:978px;background:#FFFFFF;" version="1.1" viewBox="0 0 1318 978" width="1318px" zoomAndPan="magnify"><defs/><g><rect height="27.6094" style="stroke:#00000000;stroke-width:1.0;fill:none;" width="281" x="517.5" y="10"/><text fill="#000000" font-family="sans-serif" font-size="14" font-weight="bold" lengthAdjust="spacing" textLength="271" x="522.5" y="29.5332">US3001 - Sequence Diagram 4 (Survey)</text><rect fill="#FFFFFF" height="756.4531" style="stroke:#181818;stroke-width:1.0;" width="10" x="51.5" y="131.2188"/><rect fill="#FFFFFF" height="713.9258" style="stroke:#181818;stroke-width:1.0;" width="10" x="268.5" y="164.7461"/><rect fill="#FFFFFF" height="581.6953" style="stroke:#181818;stroke-width:1.0;" width="10" x="450" y="206.2734"/><rect fill="#FFFFFF" height="30" style="stroke:#181818;stroke-width:1.0;" width="10" x="678" y="279.2344"/><rect fill="#FFFFFF" height="30" style="stroke:#181818;stroke-width:1.0;" width="10" x="678" y="339.5859"/><rect fill="#FFFFFF" height="30" style="stroke:#181818;stroke-width:1.0;" width="10" x="678" y="399.9375"/><rect fill="#FFFFFF" height="103.3125" style="stroke:#181818;stroke-width:1.0;" width="10" x="678" y="460.2891"/><rect fill="#FFFFFF" height="32.6094" style="stroke:#181818;stroke-width:1.0;" width="10" x="826" y="500.6406"/><rect fill="#FFFFFF" height="30" style="stroke:#181818;stroke-width:1.0;" width="10" x="957.5" y="593.9531"/><rect fill="#FFFFFF" height="103.3125" style="stroke:#181818;stroke-width:1.0;" width="10" x="1092" y="654.3047"/><rect fill="#FFFFFF" height="32.6094" style="stroke:#181818;stroke-width:1.0;" width="10" x="1251" y="694.6563"/><rect fill="#FFFFFF" height="30" style="stroke:#181818;stroke-width:1.0;" width="10" x="1251" y="818.3203"/><line style="stroke:#181818;stroke-width:0.5;stroke-dasharray:5.0,5.0;" x1="56" x2="56" y1="121.2188" y2="896.6719"/><line style="stroke:#181818;stroke-width:0.5;stroke-dasharray:5.0,5.0;" x1="273" x2="273" y1="121.2188" y2="896.6719"/><line style="stroke:#181818;stroke-width:0.5;stroke-dasharray:5.0,5.0;" x1="455" x2="455" y1="121.2188" y2="896.6719"/><line style="stroke:#181818;stroke-width:0.5;stroke-dasharray:5.0,5.0;" x1="682.5" x2="682.5" y1="245.5781" y2="896.6719"/><line style="stroke:#181818;stroke-width:0.5;stroke-dasharray:5.0,5.0;" x1="831" x2="831" y1="499.5938" y2="896.6719"/><line style="stroke:#181818;stroke-width:0.5;stroke-dasharray:5.0,5.0;" x1="962" x2="962" y1="121.2188" y2="896.6719"/><line style="stroke:#181818;stroke-width:0.5;stroke-dasharray:5.0,5.0;" x1="1097" x2="1097" y1="121.2188" y2="896.6719"/><line style="stroke:#181818;stroke-width:0.5;stroke-dasharray:5.0,5.0;" x1="1256" x2="1256" y1="693.6094" y2="896.6719"/><text fill="#000000" font-family="sans-serif" font-size="14" lengthAdjust="spacing" textLength="97" x="5" y="118.1426">Sales Manages</text><ellipse cx="56.5" cy="52.1094" fill="#E2E2F0" rx="8" ry="8" style="stroke:#181818;stroke-width:0.5;"/><path d="M56.5,60.1094 L56.5,87.1094 M43.5,68.1094 L69.5,68.1094 M56.5,87.1094 L43.5,102.1094 M56.5,87.1094 L69.5,102.1094 " fill="none" style="stroke:#181818;stroke-width:0.5;"/><text fill="#000000" font-family="sans-serif" font-size="14" lengthAdjust="spacing" textLength="97" x="5" y="910.2051">Sales Manages</text><ellipse cx="56.5" cy="921.7813" fill="#E2E2F0" rx="8" ry="8" style="stroke:#181818;stroke-width:0.5;"/><path d="M56.5,929.7813 L56.5,956.7813 M43.5,937.7813 L69.5,937.7813 M56.5,956.7813 L43.5,971.7813 M56.5,956.7813 L69.5,971.7813 " fill="none" style="stroke:#181818;stroke-width:0.5;"/><rect fill="#E2E2F0" height="31.6094" rx="2.5" ry="2.5" style="stroke:#181818;stroke-width:0.5;" width="117" x="215" y="88.6094"/><text fill="#000000" font-family="sans-serif" font-size="14" lengthAdjust="spacing" textLength="103" x="222" y="110.1426">:CreateSurveyUI</text><rect fill="#E2E2F0" height="31.6094" rx="2.5" ry="2.5" style="stroke:#181818;stroke-width:0.5;" width="117" x="215" y="895.6719"/><text fill="#000000" font-family="sans-serif" font-size="14" lengthAdjust="spacing" textLength="103" x="222" y="917.2051">:CreateSurveyUI</text><rect fill="#E2E2F0" height="31.6094" rx="2.5" ry="2.5" style="stroke:#181818;stroke-width:0.5;" width="226" x="342" y="88.6094"/><text fill="#000000" font-family="sans-serif" font-size="14" lengthAdjust="spacing" textLength="212" x="349" y="110.1426">controller:CreateSurveyController</text><rect fill="#E2E2F0" height="31.6094" rx="2.5" ry="2.5" style="stroke:#181818;stroke-width:0.5;" width="226" x="342" y="895.6719"/><text fill="#000000" font-family="sans-serif" font-size="14" lengthAdjust="spacing" textLength="212" x="349" y="917.2051">controller:CreateSurveyController</text><rect fill="#E2E2F0" height="31.6094" rx="2.5" ry="2.5" style="stroke:#181818;stroke-width:0.5;" width="149" x="608.5" y="895.6719"/><text fill="#000000" font-family="sans-serif" font-size="14" lengthAdjust="spacing" textLength="135" x="615.5" y="917.2051">builder:SurveyBuilder</text><rect fill="#E2E2F0" height="31.6094" rx="2.5" ry="2.5" style="stroke:#181818;stroke-width:0.5;" width="104" x="779" y="895.6719"/><text fill="#000000" font-family="sans-serif" font-size="14" lengthAdjust="spacing" textLength="90" x="786" y="917.2051">survey:Survey</text><rect fill="#E2E2F0" height="31.6094" rx="2.5" ry="2.5" style="stroke:#181818;stroke-width:0.5;" width="139" x="893" y="88.6094"/><text fill="#000000" font-family="sans-serif" font-size="14" lengthAdjust="spacing" textLength="125" x="900" y="110.1426">repo:JPARepository</text><rect fill="#E2E2F0" height="31.6094" rx="2.5" ry="2.5" style="stroke:#181818;stroke-width:0.5;" width="139" x="893" y="895.6719"/><text fill="#000000" font-family="sans-serif" font-size="14" lengthAdjust="spacing" textLength="125" x="900" y="917.2051">repo:JPARepository</text><rect fill="#E2E2F0" height="31.6094" rx="2.5" ry="2.5" style="stroke:#181818;stroke-width:0.5;" width="110" x="1042" y="88.6094"/><text fill="#000000" font-family="sans-serif" font-size="14" lengthAdjust="spacing" textLength="96" x="1049" y="110.1426">:SurveyMapper</text><rect fill="#E2E2F0" height="31.6094" rx="2.5" ry="2.5" style="stroke:#181818;stroke-width:0.5;" width="110" x="1042" y="895.6719"/><text fill="#000000" font-family="sans-serif" font-size="14" lengthAdjust="spacing" textLength="96" x="1049" y="917.2051">:SurveyMapper</text><rect fill="#E2E2F0" height="31.6094" rx="2.5" ry="2.5" style="stroke:#181818;stroke-width:0.5;" width="112" x="1200" y="895.6719"/><text fill="#000000" font-family="sans-serif" font-size="14" lengthAdjust="spacing" textLength="98" x="1207" y="917.2051">dto:SurveyDTO</text><rect fill="#FFFFFF" height="756.4531" style="stroke:#181818;stroke-width:1.0;" width="10" x="51.5" y="131.2188"/><rect fill="#FFFFFF" height="713.9258" style="stroke:#181818;stroke-width:1.0;" width="10" x="268.5" y="164.7461"/><rect fill="#FFFFFF" height="581.6953" style="stroke:#181818;stroke-width:1.0;" width="10" x="450" y="206.2734"/><rect fill="#FFFFFF" height="30" style="stroke:#181818;stroke-width:1.0;" width="10" x="678" y="279.2344"/><rect fill="#FFFFFF" height="30" style="stroke:#181818;stroke-width:1.0;" width="10" x="678" y="339.5859"/><rect fill="#FFFFFF" height="30" style="stroke:#181818;stroke-width:1.0;" width="10" x="678" y="399.9375"/><rect fill="#FFFFFF" height="103.3125" style="stroke:#181818;stroke-width:1.0;" width="10" x="678" y="460.2891"/><rect fill="#FFFFFF" height="32.6094" style="stroke:#181818;stroke-width:1.0;" width="10" x="826" y="500.6406"/><rect fill="#FFFFFF" height="30" style="stroke:#181818;stroke-width:1.0;" width="10" x="957.5" y="593.9531"/><rect fill="#FFFFFF" height="103.3125" style="stroke:#181818;stroke-width:1.0;" width="10" x="1092" y="654.3047"/><rect fill="#FFFFFF" height="32.6094" style="stroke:#181818;stroke-width:1.0;" width="10" x="1251" y="694.6563"/><rect fill="#FFFFFF" height="30" style="stroke:#181818;stroke-width:1.0;" width="10" x="1251" y="818.3203"/><polygon fill="#181818" points="256.5,160.7461,266.5,164.7461,256.5,168.7461,260.5,164.7461" style="stroke:#181818;stroke-width:1.0;"/><line style="stroke:#181818;stroke-width:1.0;" x1="61.5" x2="262.5" y1="164.7461" y2="164.7461"/><text fill="#000000" font-family="sans-serif" font-size="13" font-weight="bold" lengthAdjust="spacing" textLength="7" x="68.5" y="159.8896">1</text><text fill="#000000" font-family="sans-serif" font-size="13" lengthAdjust="spacing" textLength="177" x="79.5" y="159.8896">wants to create a new section.</text><path d="M283,136.2188 L283,178.2188 L458,178.2188 L458,146.2188 L448,136.2188 L283,136.2188 " fill="#FEFFDD" style="stroke:#181818;stroke-width:0.5;"/><path d="M448,136.2188 L448,146.2188 L458,146.2188 L448,136.2188 " fill="#FEFFDD" style="stroke:#181818;stroke-width:0.5;"/><text fill="#000000" font-family="sans-serif" font-size="13" lengthAdjust="spacing" textLength="154" x="289" y="154.7139">(Data requests to Manager</text><text fill="#000000" font-family="sans-serif" font-size="13" lengthAdjust="spacing" textLength="47" x="293" y="171.0654">omitted)</text><polygon fill="#181818" points="438,202.2734,448,206.2734,438,210.2734,442,206.2734" style="stroke:#181818;stroke-width:1.0;"/><line style="stroke:#181818;stroke-width:1.0;" x1="278.5" x2="444" y1="206.2734" y2="206.2734"/><text fill="#000000" font-family="sans-serif" font-size="13" font-weight="bold" lengthAdjust="spacing" textLength="7" x="285.5" y="201.417">2</text><text fill="#000000" font-family="sans-serif" font-size="13" lengthAdjust="spacing" textLength="83" x="296.5" y="201.417">createSurvey()</text><polygon fill="#181818" points="596.5,232.625,606.5,236.625,596.5,240.625,600.5,236.625" style="stroke:#181818;stroke-width:1.0;"/><line style="stroke:#181818;stroke-width:1.0;stroke-dasharray:2.0,2.0;" x1="460" x2="602.5" y1="236.625" y2="236.625"/><text fill="#000000" font-family="sans-serif" font-size="13" font-weight="bold" lengthAdjust="spacing" textLength="7" x="467" y="231.7686">3</text><text fill="#000000" font-family="sans-serif" font-size="13" lengthAdjust="spacing" textLength="44" x="478" y="231.7686">create()</text><rect fill="#E2E2F0" height="31.6094" rx="2.5" ry="2.5" style="stroke:#181818;stroke-width:0.5;" width="149" x="608.5" y="214.2734"/><text fill="#000000" font-family="sans-serif" font-size="14" lengthAdjust="spacing" textLength="135" x="615.5" y="235.8066">builder:SurveyBuilder</text><polygon fill="#181818" points="666,275.2344,676,279.2344,666,283.2344,670,279.2344" style="stroke:#181818;stroke-width:1.0;"/><line style="stroke:#181818;stroke-width:1.0;" x1="460" x2="672" y1="279.2344" y2="279.2344"/><text fill="#000000" font-family="sans-serif" font-size="13" font-weight="bold" lengthAdjust="spacing" textLength="7" x="467" y="274.3779">4</text><text fill="#000000" font-family="sans-serif" font-size="13" lengthAdjust="spacing" textLength="161" x="478" y="274.3779">witTimeInterval(timeIntervaç)</text><polygon fill="#181818" points="666,335.5859,676,339.5859,666,343.5859,670,339.5859" style="stroke:#181818;stroke-width:1.0;"/><line style="stroke:#181818;stroke-width:1.0;" x1="460" x2="672" y1="339.5859" y2="339.5859"/><text fill="#000000" font-family="sans-serif" font-size="13" font-weight="bold" lengthAdjust="spacing" textLength="7" x="467" y="334.7295">5</text><text fill="#000000" font-family="sans-serif" font-size="13" lengthAdjust="spacing" textLength="137" x="478" y="334.7295">withAudience(audience)</text><polygon fill="#181818" points="666,395.9375,676,399.9375,666,403.9375,670,399.9375" style="stroke:#181818;stroke-width:1.0;"/><line style="stroke:#181818;stroke-width:1.0;" x1="460" x2="672" y1="399.9375" y2="399.9375"/><text fill="#000000" font-family="sans-serif" font-size="13" font-weight="bold" lengthAdjust="spacing" textLength="7" x="467" y="395.0811">6</text><text fill="#000000" font-family="sans-serif" font-size="13" lengthAdjust="spacing" textLength="188" x="478" y="395.0811">withQuestionnaire(questionnaire)</text><polygon fill="#181818" points="666,456.2891,676,460.2891,666,464.2891,670,460.2891" style="stroke:#181818;stroke-width:1.0;"/><line style="stroke:#181818;stroke-width:1.0;" x1="460" x2="672" y1="460.2891" y2="460.2891"/><text fill="#000000" font-family="sans-serif" font-size="13" font-weight="bold" lengthAdjust="spacing" textLength="7" x="467" y="455.4326">7</text><text fill="#000000" font-family="sans-serif" font-size="13" lengthAdjust="spacing" textLength="35" x="478" y="455.4326">build()</text><polygon fill="#181818" points="767,486.6406,777,490.6406,767,494.6406,771,490.6406" style="stroke:#181818;stroke-width:1.0;"/><line style="stroke:#181818;stroke-width:1.0;stroke-dasharray:2.0,2.0;" x1="688" x2="773" y1="490.6406" y2="490.6406"/><text fill="#000000" font-family="sans-serif" font-size="13" font-weight="bold" lengthAdjust="spacing" textLength="7" x="695" y="485.7842">8</text><text fill="#000000" font-family="sans-serif" font-size="13" lengthAdjust="spacing" textLength="56" x="706" y="485.7842">create(...)</text><rect fill="#E2E2F0" height="31.6094" rx="2.5" ry="2.5" style="stroke:#181818;stroke-width:0.5;" width="104" x="779" y="468.2891"/><text fill="#000000" font-family="sans-serif" font-size="14" lengthAdjust="spacing" textLength="90" x="786" y="489.8223">survey:Survey</text><polygon fill="#181818" points="699,529.25,689,533.25,699,537.25,695,533.25" style="stroke:#181818;stroke-width:1.0;"/><line style="stroke:#181818;stroke-width:1.0;stroke-dasharray:2.0,2.0;" x1="693" x2="830" y1="533.25" y2="533.25"/><text fill="#000000" font-family="sans-serif" font-size="13" font-weight="bold" lengthAdjust="spacing" textLength="7" x="705" y="528.3936">9</text><text fill="#000000" font-family="sans-serif" font-size="13" lengthAdjust="spacing" textLength="77" x="716" y="528.3936">questionnaire</text><polygon fill="#181818" points="471,559.6016,461,563.6016,471,567.6016,467,563.6016" style="stroke:#181818;stroke-width:1.0;"/><line style="stroke:#181818;stroke-width:1.0;stroke-dasharray:2.0,2.0;" x1="465" x2="682" y1="563.6016" y2="563.6016"/><text fill="#000000" font-family="sans-serif" font-size="13" font-weight="bold" lengthAdjust="spacing" textLength="14" x="477" y="558.7451">10</text><text fill="#000000" font-family="sans-serif" font-size="13" lengthAdjust="spacing" textLength="77" x="495" y="558.7451">questionnaire</text><polygon fill="#181818" points="945.5,589.9531,955.5,593.9531,945.5,597.9531,949.5,593.9531" style="stroke:#181818;stroke-width:1.0;"/><line style="stroke:#181818;stroke-width:1.0;" x1="460" x2="951.5" y1="593.9531" y2="593.9531"/><text fill="#000000" font-family="sans-serif" font-size="13" font-weight="bold" lengthAdjust="spacing" textLength="14" x="467" y="589.0967">11</text><text fill="#000000" font-family="sans-serif" font-size="13" lengthAdjust="spacing" textLength="66" x="485" y="589.0967">add(survey)</text><polygon fill="#181818" points="1080,650.3047,1090,654.3047,1080,658.3047,1084,654.3047" style="stroke:#181818;stroke-width:1.0;"/><line style="stroke:#181818;stroke-width:1.0;" x1="460" x2="1086" y1="654.3047" y2="654.3047"/><text fill="#000000" font-family="sans-serif" font-size="13" font-weight="bold" lengthAdjust="spacing" textLength="14" x="467" y="649.4482">12</text><text fill="#000000" font-family="sans-serif" font-size="13" lengthAdjust="spacing" textLength="82" x="485" y="649.4482">toDTO(survey)</text><polygon fill="#181818" points="1188,680.6563,1198,684.6563,1188,688.6563,1192,684.6563" style="stroke:#181818;stroke-width:1.0;"/><line style="stroke:#181818;stroke-width:1.0;stroke-dasharray:2.0,2.0;" x1="1102" x2="1194" y1="684.6563" y2="684.6563"/><text fill="#000000" font-family="sans-serif" font-size="13" font-weight="bold" lengthAdjust="spacing" textLength="14" x="1109" y="679.7998">13</text><text fill="#000000" font-family="sans-serif" font-size="13" lengthAdjust="spacing" textLength="56" x="1127" y="679.7998">create(...)</text><rect fill="#E2E2F0" height="31.6094" rx="2.5" ry="2.5" style="stroke:#181818;stroke-width:0.5;" width="112" x="1200" y="662.3047"/><text fill="#000000" font-family="sans-serif" font-size="14" lengthAdjust="spacing" textLength="98" x="1207" y="683.8379">dto:SurveyDTO</text><polygon fill="#181818" points="1113,723.2656,1103,727.2656,1113,731.2656,1109,727.2656" style="stroke:#181818;stroke-width:1.0;"/><line style="stroke:#181818;stroke-width:1.0;stroke-dasharray:2.0,2.0;" x1="1107" x2="1255" y1="727.2656" y2="727.2656"/><text fill="#000000" font-family="sans-serif" font-size="13" font-weight="bold" lengthAdjust="spacing" textLength="14" x="1119" y="722.4092">14</text><text fill="#000000" font-family="sans-serif" font-size="13" lengthAdjust="spacing" textLength="18" x="1137" y="722.4092">dto</text><polygon fill="#181818" points="471,753.6172,461,757.6172,471,761.6172,467,757.6172" style="stroke:#181818;stroke-width:1.0;"/><line style="stroke:#181818;stroke-width:1.0;stroke-dasharray:2.0,2.0;" x1="465" x2="1096" y1="757.6172" y2="757.6172"/><text fill="#000000" font-family="sans-serif" font-size="13" font-weight="bold" lengthAdjust="spacing" textLength="14" x="477" y="752.7607">15</text><text fill="#000000" font-family="sans-serif" font-size="13" lengthAdjust="spacing" textLength="18" x="495" y="752.7607">dto</text><polygon fill="#181818" points="289.5,783.9688,279.5,787.9688,289.5,791.9688,285.5,787.9688" style="stroke:#181818;stroke-width:1.0;"/><line style="stroke:#181818;stroke-width:1.0;stroke-dasharray:2.0,2.0;" x1="283.5" x2="454" y1="787.9688" y2="787.9688"/><text fill="#000000" font-family="sans-serif" font-size="13" font-weight="bold" lengthAdjust="spacing" textLength="14" x="295.5" y="783.1123">16</text><text fill="#000000" font-family="sans-serif" font-size="13" lengthAdjust="spacing" textLength="18" x="313.5" y="783.1123">dto</text><polygon fill="#181818" points="1239,814.3203,1249,818.3203,1239,822.3203,1243,818.3203" style="stroke:#181818;stroke-width:1.0;"/><line style="stroke:#181818;stroke-width:1.0;" x1="278.5" x2="1245" y1="818.3203" y2="818.3203"/><text fill="#000000" font-family="sans-serif" font-size="13" font-weight="bold" lengthAdjust="spacing" textLength="14" x="285.5" y="813.4639">17</text><text fill="#000000" font-family="sans-serif" font-size="13" lengthAdjust="spacing" textLength="45" x="303.5" y="813.4639">toString</text><polygon fill="#181818" points="72.5,874.6719,62.5,878.6719,72.5,882.6719,68.5,878.6719" style="stroke:#181818;stroke-width:1.0;"/><line style="stroke:#181818;stroke-width:1.0;stroke-dasharray:2.0,2.0;" x1="66.5" x2="272.5" y1="878.6719" y2="878.6719"/><text fill="#000000" font-family="sans-serif" font-size="13" font-weight="bold" lengthAdjust="spacing" textLength="14" x="78.5" y="873.8154">18</text><text fill="#000000" font-family="sans-serif" font-size="13" lengthAdjust="spacing" textLength="149" x="96.5" y="873.8154">inform operation success.</text><!--MD5=[932ceb100bbd7057bd473c03082cd434]
@startuml
title US3001 - Sequence Diagram 4 (Survey)

autonumber

actor "Sales Manages" as manager

activate manager

    manager -> ":CreateSurveyUI" as ui:wants to create a new section.
    activate ui
        note right: (Data requests to Manager\n omitted)
        ui -> "controller:CreateSurveyController" as controller: createSurvey()
        activate controller

            controller - -> "builder:SurveyBuilder" as builder**:create()

            controller -> builder:witTimeInterval(timeIntervaç)
            activate builder
            deactivate builder

            controller -> builder:withAudience(audience)
            activate builder
            deactivate builder

            controller -> builder:withQuestionnaire(questionnaire)
            activate builder
            deactivate builder


            controller -> builder:build()
            activate builder
                builder - -> "survey:Survey" as questionnaire**:create(...)
                activate questionnaire
                questionnaire - -> builder : questionnaire
                deactivate questionnaire
               builder- ->controller: questionnaire
            deactivate builder

            controller -> "repo:JPARepository" as repo: add(survey)
            activate repo
            deactivate repo


            controller -> ":SurveyMapper" as mapper:toDTO(survey)
            activate mapper
                mapper - -> "dto:SurveyDTO" as dto**: create(...)
                activate dto
                    dto- -> mapper:dto
                deactivate dto
                mapper - -> controller:dto
            deactivate mapper
            controller - -> ui:dto
        deactivate controller
        ui -> dto: toString
        activate dto
        deactivate dto
        ui - -> manager: inform operation success.
    deactivate ui
@enduml

PlantUML version 1.2022.4(Sat Apr 09 14:29:17 BST 2022)
(GPL source distribution)
Java Runtime: OpenJDK Runtime Environment
JVM: OpenJDK 64-Bit Server VM
Default Encoding: Cp1252
Language: pt
Country: PT
--></g></svg>