<?xml version="1.0" encoding="UTF-8" standalone="no"?><svg xmlns="http://www.w3.org/2000/svg" xmlns:xlink="http://www.w3.org/1999/xlink" contentStyleType="text/css" height="1314px" preserveAspectRatio="none" style="width:664px;height:1314px;background:#FFFFFF;" version="1.1" viewBox="0 0 664 1314" width="664px" zoomAndPan="magnify"><defs/><g><rect height="27.6094" style="stroke:#00000000;stroke-width:1.0;fill:none;" width="299" x="175.75" y="5"/><text fill="#000000" font-family="sans-serif" font-size="14" font-weight="bold" lengthAdjust="spacing" textLength="289" x="180.75" y="24.5332">US3001 - Class Diagram 3 (Questionnaire)</text><!--MD5=[9266e35cee0717ce828cd1f5534d0f75]
class CreateQuestionnaireUI--><g id="elem_CreateQuestionnaireUI"><rect codeLine="5" fill="#F1F1F1" height="48" id="CreateQuestionnaireUI" rx="2.5" ry="2.5" style="stroke:#181818;stroke-width:0.5;" width="176" x="163.5" y="45.6094"/><ellipse cx="178.5" cy="61.6094" fill="#ADD1B2" rx="11" ry="11" style="stroke:#181818;stroke-width:1.0;"/><path d="M180.5,58.1094 Q180.7031,57.6094 180.9375,57.3594 Q181.1719,57.1094 181.4375,57.1094 Q181.9063,57.1094 182.2031,57.3906 Q182.5,57.6719 182.5,58.3281 L182.5,59.8906 Q182.5,60.5469 182.2188,60.8281 Q181.9375,61.1094 181.5,61.1094 Q181.1094,61.1094 180.8594,60.9375 Q180.6094,60.7656 180.5,60.3125 Q180.4531,60 180.2813,59.8281 Q179.9688,59.5 179.4063,59.3125 Q178.8438,59.1094 178.2813,59.1094 Q177.5781,59.1094 176.9844,59.3906 Q176.4063,59.6719 175.9531,60.2969 Q175.5,60.9219 175.5,61.7813 L175.5,62.7031 Q175.5,63.7344 176.3438,64.4219 Q177.1875,65.1094 178.6875,65.1094 Q179.5781,65.1094 180.2031,64.9063 Q180.5625,64.7969 180.9688,64.4375 Q181.2344,64.2344 181.375,64.1719 Q181.5156,64.1094 181.6875,64.1094 Q182.0156,64.1094 182.25,64.375 Q182.5,64.625 182.5,64.9844 Q182.5,65.3281 182.1563,65.7344 Q181.6563,66.3281 180.8594,66.6563 Q179.8125,67.1094 178.5313,67.1094 Q177.0313,67.1094 175.8281,66.5156 Q174.8594,66.0469 174.1719,65.0313 Q173.5,64.0156 173.5,62.8125 L173.5,61.7188 Q173.5,60.4688 174.0938,59.375 Q174.7031,58.2813 175.75,57.7031 Q176.8125,57.1094 178,57.1094 Q178.7188,57.1094 179.3438,57.3594 Q179.9688,57.6094 180.5,58.1094 Z " fill="#000000"/><text fill="#000000" font-family="sans-serif" font-size="14" lengthAdjust="spacing" textLength="144" x="192.5" y="67.3379">CreateQuestionnaireUI</text><line style="stroke:#181818;stroke-width:0.5;" x1="164.5" x2="338.5" y1="77.6094" y2="77.6094"/><line style="stroke:#181818;stroke-width:0.5;" x1="164.5" x2="338.5" y1="85.6094" y2="85.6094"/></g><!--MD5=[7d76f64e10b37a265a451fe552a87eeb]
class CreateQuestionnaireController--><g id="elem_CreateQuestionnaireController"><rect codeLine="7" fill="#F1F1F1" height="100.8281" id="CreateQuestionnaireController" rx="2.5" ry="2.5" style="stroke:#181818;stroke-width:0.5;" width="230" x="136.5" y="154.6094"/><ellipse cx="153.3" cy="170.6094" fill="#ADD1B2" rx="11" ry="11" style="stroke:#181818;stroke-width:1.0;"/><path d="M155.3,167.1094 Q155.5031,166.6094 155.7375,166.3594 Q155.9719,166.1094 156.2375,166.1094 Q156.7063,166.1094 157.0031,166.3906 Q157.3,166.6719 157.3,167.3281 L157.3,168.8906 Q157.3,169.5469 157.0188,169.8281 Q156.7375,170.1094 156.3,170.1094 Q155.9094,170.1094 155.6594,169.9375 Q155.4094,169.7656 155.3,169.3125 Q155.2531,169 155.0813,168.8281 Q154.7688,168.5 154.2063,168.3125 Q153.6438,168.1094 153.0813,168.1094 Q152.3781,168.1094 151.7844,168.3906 Q151.2063,168.6719 150.7531,169.2969 Q150.3,169.9219 150.3,170.7813 L150.3,171.7031 Q150.3,172.7344 151.1438,173.4219 Q151.9875,174.1094 153.4875,174.1094 Q154.3781,174.1094 155.0031,173.9063 Q155.3625,173.7969 155.7688,173.4375 Q156.0344,173.2344 156.175,173.1719 Q156.3156,173.1094 156.4875,173.1094 Q156.8156,173.1094 157.05,173.375 Q157.3,173.625 157.3,173.9844 Q157.3,174.3281 156.9563,174.7344 Q156.4563,175.3281 155.6594,175.6563 Q154.6125,176.1094 153.3313,176.1094 Q151.8313,176.1094 150.6281,175.5156 Q149.6594,175.0469 148.9719,174.0313 Q148.3,173.0156 148.3,171.8125 L148.3,170.7188 Q148.3,169.4688 148.8938,168.375 Q149.5031,167.2813 150.55,166.7031 Q151.6125,166.1094 152.8,166.1094 Q153.5188,166.1094 154.1438,166.3594 Q154.7688,166.6094 155.3,167.1094 Z " fill="#000000"/><text fill="#000000" font-family="sans-serif" font-size="14" lengthAdjust="spacing" textLength="194" x="167.7" y="176.3379">CreateQuestionnaireController</text><line style="stroke:#181818;stroke-width:0.5;" x1="137.5" x2="365.5" y1="186.6094" y2="186.6094"/><line style="stroke:#181818;stroke-width:0.5;" x1="137.5" x2="365.5" y1="194.6094" y2="194.6094"/><ellipse cx="147.5" cy="205.6094" fill="#84BE84" rx="3" ry="3" style="stroke:#038048;stroke-width:1.0;"/><text fill="#000000" font-family="sans-serif" font-size="14" lengthAdjust="spacing" textLength="204" x="156.5" y="213.1426">CreateQuestionnaireController()</text><ellipse cx="147.5" cy="223.2188" fill="#84BE84" rx="3" ry="3" style="stroke:#038048;stroke-width:1.0;"/><text fill="#000000" font-family="sans-serif" font-size="14" lengthAdjust="spacing" textLength="94" x="156.5" y="230.752">getQuestions()</text><ellipse cx="147.5" cy="240.8281" fill="#84BE84" rx="3" ry="3" style="stroke:#038048;stroke-width:1.0;"/><text fill="#000000" font-family="sans-serif" font-size="14" lengthAdjust="spacing" textLength="151" x="156.5" y="248.3613">createQuestionnaire(...)</text></g><!--MD5=[5301509e5b784a50c1c4ce9967badd46]
class JPARepository--><g id="elem_JPARepository"><rect codeLine="14" fill="#F1F1F1" height="96.8281" id="JPARepository" rx="2.5" ry="2.5" style="stroke:#181818;stroke-width:0.5;" width="125" x="7" y="395.6094"/><ellipse cx="22" cy="411.6094" fill="#A9DCDF" rx="11" ry="11" style="stroke:#181818;stroke-width:1.0;"/><path d="M23.75,413.1094 L20.4531,413.1094 L20.0156,414.1094 L20.0156,414.1094 L20.4844,414.1094 L21,414.7344 L21,415.1094 L21,415.4844 L20.4844,416.1094 L20.0156,416.1094 L18.125,416.1094 L17.5156,416.1094 L17,415.4844 L17,415.1094 L17,414.7344 L17.5156,414.1094 L18.125,414.1094 L20.4375,408.1094 L19.5625,408.1094 L18.5156,408.1094 L18,407.4844 L18,407.1094 L18,406.7344 L18.5156,406.1094 L19.5625,406.1094 L23.2344,406.1094 L25.9219,414.1094 L26.4844,414.1094 L26.4844,414.1094 L27,414.7344 L27,415.1094 L27,415.4844 L26.4844,416.1094 L25.9219,416.1094 L24.0313,416.1094 L23.5156,416.1094 L23,415.4844 L23,415.1094 L23,414.7344 L23.5156,414.1094 L24.0313,414.1094 L24.0313,414.1094 L23.75,413.1094 Z M23.2031,411.1094 L22,407.5313 L20.9688,411.1094 L23.2031,411.1094 Z " fill="#000000"/><text fill="#000000" font-family="sans-serif" font-size="14" font-style="italic" lengthAdjust="spacing" textLength="93" x="36" y="417.3379">JPARepository</text><line style="stroke:#181818;stroke-width:0.5;" x1="8" x2="131" y1="427.6094" y2="427.6094"/><ellipse cx="18" cy="460.2188" fill="#84BE84" rx="3" ry="3" style="stroke:#038048;stroke-width:1.0;"/><text fill="#000000" font-family="sans-serif" font-size="14" lengthAdjust="spacing" textLength="68" x="27" y="467.752">add(entity)</text><ellipse cx="18" cy="477.8281" fill="#84BE84" rx="3" ry="3" style="stroke:#038048;stroke-width:1.0;"/><text fill="#000000" font-family="sans-serif" font-size="14" lengthAdjust="spacing" textLength="48" x="27" y="485.3613">findAll()</text><line style="stroke:#181818;stroke-width:1.0;" x1="8" x2="42.5" y1="444.4141" y2="444.4141"/><text fill="#000000" font-family="sans-serif" font-size="14" lengthAdjust="spacing" textLength="54" x="42.5" y="449.6426">Methods</text><line style="stroke:#181818;stroke-width:1.0;" x1="96.5" x2="131" y1="444.4141" y2="444.4141"/></g><!--MD5=[39db2f4e02f9ce880d65a0b099c8779e]
class QuestionnaireMapper--><g id="elem_QuestionnaireMapper"><rect codeLine="20" fill="#F1F1F1" height="79.2188" id="QuestionnaireMapper" rx="2.5" ry="2.5" style="stroke:#181818;stroke-width:0.5;" width="169" x="167" y="404.6094"/><ellipse cx="182" cy="420.6094" fill="#ADD1B2" rx="11" ry="11" style="stroke:#181818;stroke-width:1.0;"/><path d="M184,417.1094 Q184.2031,416.6094 184.4375,416.3594 Q184.6719,416.1094 184.9375,416.1094 Q185.4063,416.1094 185.7031,416.3906 Q186,416.6719 186,417.3281 L186,418.8906 Q186,419.5469 185.7188,419.8281 Q185.4375,420.1094 185,420.1094 Q184.6094,420.1094 184.3594,419.9375 Q184.1094,419.7656 184,419.3125 Q183.9531,419 183.7813,418.8281 Q183.4688,418.5 182.9063,418.3125 Q182.3438,418.1094 181.7813,418.1094 Q181.0781,418.1094 180.4844,418.3906 Q179.9063,418.6719 179.4531,419.2969 Q179,419.9219 179,420.7813 L179,421.7031 Q179,422.7344 179.8438,423.4219 Q180.6875,424.1094 182.1875,424.1094 Q183.0781,424.1094 183.7031,423.9063 Q184.0625,423.7969 184.4688,423.4375 Q184.7344,423.2344 184.875,423.1719 Q185.0156,423.1094 185.1875,423.1094 Q185.5156,423.1094 185.75,423.375 Q186,423.625 186,423.9844 Q186,424.3281 185.6563,424.7344 Q185.1563,425.3281 184.3594,425.6563 Q183.3125,426.1094 182.0313,426.1094 Q180.5313,426.1094 179.3281,425.5156 Q178.3594,425.0469 177.6719,424.0313 Q177,423.0156 177,421.8125 L177,420.7188 Q177,419.4688 177.5938,418.375 Q178.2031,417.2813 179.25,416.7031 Q180.3125,416.1094 181.5,416.1094 Q182.2188,416.1094 182.8438,416.3594 Q183.4688,416.6094 184,417.1094 Z " fill="#000000"/><text fill="#000000" font-family="sans-serif" font-size="14" lengthAdjust="spacing" textLength="137" x="196" y="426.3379">QuestionnaireMapper</text><line style="stroke:#181818;stroke-width:0.5;" x1="168" x2="335" y1="436.6094" y2="436.6094"/><ellipse cx="178" cy="469.2188" fill="#84BE84" rx="3" ry="3" style="stroke:#038048;stroke-width:1.0;"/><text fill="#000000" font-family="sans-serif" font-size="14" lengthAdjust="spacing" textLength="138" x="187" y="476.752">toDTO(questionnaire)</text><line style="stroke:#181818;stroke-width:1.0;" x1="168" x2="224.5" y1="453.4141" y2="453.4141"/><text fill="#000000" font-family="sans-serif" font-size="14" lengthAdjust="spacing" textLength="54" x="224.5" y="458.6426">Methods</text><line style="stroke:#181818;stroke-width:1.0;" x1="278.5" x2="335" y1="453.4141" y2="453.4141"/></g><!--MD5=[3ddf2fc78de39a51ca8cbdf3b2a84ba0]
class QuestionnaireDTO--><g id="elem_QuestionnaireDTO"><rect codeLine="25" fill="#F1F1F1" height="83.2188" id="QuestionnaireDTO" rx="2.5" ry="2.5" style="stroke:#181818;stroke-width:0.5;" width="151" x="176" y="674.6094"/><ellipse cx="191" cy="690.6094" fill="#ADD1B2" rx="11" ry="11" style="stroke:#181818;stroke-width:1.0;"/><path d="M193,687.1094 Q193.2031,686.6094 193.4375,686.3594 Q193.6719,686.1094 193.9375,686.1094 Q194.4063,686.1094 194.7031,686.3906 Q195,686.6719 195,687.3281 L195,688.8906 Q195,689.5469 194.7188,689.8281 Q194.4375,690.1094 194,690.1094 Q193.6094,690.1094 193.3594,689.9375 Q193.1094,689.7656 193,689.3125 Q192.9531,689 192.7813,688.8281 Q192.4688,688.5 191.9063,688.3125 Q191.3438,688.1094 190.7813,688.1094 Q190.0781,688.1094 189.4844,688.3906 Q188.9063,688.6719 188.4531,689.2969 Q188,689.9219 188,690.7813 L188,691.7031 Q188,692.7344 188.8438,693.4219 Q189.6875,694.1094 191.1875,694.1094 Q192.0781,694.1094 192.7031,693.9063 Q193.0625,693.7969 193.4688,693.4375 Q193.7344,693.2344 193.875,693.1719 Q194.0156,693.1094 194.1875,693.1094 Q194.5156,693.1094 194.75,693.375 Q195,693.625 195,693.9844 Q195,694.3281 194.6563,694.7344 Q194.1563,695.3281 193.3594,695.6563 Q192.3125,696.1094 191.0313,696.1094 Q189.5313,696.1094 188.3281,695.5156 Q187.3594,695.0469 186.6719,694.0313 Q186,693.0156 186,691.8125 L186,690.7188 Q186,689.4688 186.5938,688.375 Q187.2031,687.2813 188.25,686.7031 Q189.3125,686.1094 190.5,686.1094 Q191.2188,686.1094 191.8438,686.3594 Q192.4688,686.6094 193,687.1094 Z " fill="#000000"/><text fill="#000000" font-family="sans-serif" font-size="14" lengthAdjust="spacing" textLength="119" x="205" y="696.3379">QuestionnaireDTO</text><line style="stroke:#181818;stroke-width:0.5;" x1="177" x2="326" y1="706.6094" y2="706.6094"/><ellipse cx="187" cy="717.6094" fill="none" rx="3" ry="3" style="stroke:#038048;stroke-width:1.0;"/><text fill="#000000" font-family="sans-serif" font-size="14" lengthAdjust="spacing" textLength="11" x="196" y="725.1426">id</text><ellipse cx="187" cy="735.2188" fill="none" rx="3" ry="3" style="stroke:#038048;stroke-width:1.0;"/><text fill="#000000" font-family="sans-serif" font-size="14" lengthAdjust="spacing" textLength="49" x="196" y="742.752">toString</text><line style="stroke:#181818;stroke-width:0.5;" x1="177" x2="326" y1="749.8281" y2="749.8281"/></g><!--MD5=[fcef06c4e3b9b184487b068d5fbaf817]
class QuestionnaireBuilder--><g id="elem_QuestionnaireBuilder"><rect codeLine="30" fill="#F1F1F1" height="255.3125" id="QuestionnaireBuilder" rx="2.5" ry="2.5" style="stroke:#181818;stroke-width:0.5;" width="286" x="371.5" y="316.6094"/><ellipse cx="443.75" cy="332.6094" fill="#ADD1B2" rx="11" ry="11" style="stroke:#181818;stroke-width:1.0;"/><path d="M445.75,329.1094 Q445.9531,328.6094 446.1875,328.3594 Q446.4219,328.1094 446.6875,328.1094 Q447.1563,328.1094 447.4531,328.3906 Q447.75,328.6719 447.75,329.3281 L447.75,330.8906 Q447.75,331.5469 447.4688,331.8281 Q447.1875,332.1094 446.75,332.1094 Q446.3594,332.1094 446.1094,331.9375 Q445.8594,331.7656 445.75,331.3125 Q445.7031,331 445.5313,330.8281 Q445.2188,330.5 444.6563,330.3125 Q444.0938,330.1094 443.5313,330.1094 Q442.8281,330.1094 442.2344,330.3906 Q441.6563,330.6719 441.2031,331.2969 Q440.75,331.9219 440.75,332.7813 L440.75,333.7031 Q440.75,334.7344 441.5938,335.4219 Q442.4375,336.1094 443.9375,336.1094 Q444.8281,336.1094 445.4531,335.9063 Q445.8125,335.7969 446.2188,335.4375 Q446.4844,335.2344 446.625,335.1719 Q446.7656,335.1094 446.9375,335.1094 Q447.2656,335.1094 447.5,335.375 Q447.75,335.625 447.75,335.9844 Q447.75,336.3281 447.4063,336.7344 Q446.9063,337.3281 446.1094,337.6563 Q445.0625,338.1094 443.7813,338.1094 Q442.2813,338.1094 441.0781,337.5156 Q440.1094,337.0469 439.4219,336.0313 Q438.75,335.0156 438.75,333.8125 L438.75,332.7188 Q438.75,331.4688 439.3438,330.375 Q439.9531,329.2813 441,328.7031 Q442.0625,328.1094 443.25,328.1094 Q443.9688,328.1094 444.5938,328.3594 Q445.2188,328.6094 445.75,329.1094 Z " fill="#000000"/><text fill="#000000" font-family="sans-serif" font-size="14" lengthAdjust="spacing" textLength="133" x="464.25" y="338.3379">QuestionnaireBuilder</text><line style="stroke:#181818;stroke-width:0.5;" x1="372.5" x2="656.5" y1="348.6094" y2="348.6094"/><rect fill="none" height="6" style="stroke:#C82930;stroke-width:1.0;" width="6" x="379.5" y="356.6094"/><text fill="#000000" font-family="sans-serif" font-size="14" lengthAdjust="spacing" textLength="97" x="391.5" y="367.1426">questionnaireId</text><rect fill="none" height="6" style="stroke:#C82930;stroke-width:1.0;" width="6" x="379.5" y="374.2188"/><text fill="#000000" font-family="sans-serif" font-size="14" lengthAdjust="spacing" textLength="113" x="391.5" y="384.752">questionnaireTitle</text><rect fill="none" height="6" style="stroke:#C82930;stroke-width:1.0;" width="6" x="379.5" y="391.8281"/><text fill="#000000" font-family="sans-serif" font-size="14" lengthAdjust="spacing" textLength="111" x="391.5" y="402.3613">welcomeMessage</text><rect fill="none" height="6" style="stroke:#C82930;stroke-width:1.0;" width="6" x="379.5" y="409.4375"/><text fill="#000000" font-family="sans-serif" font-size="14" lengthAdjust="spacing" textLength="52" x="391.5" y="419.9707">sections</text><rect fill="none" height="6" style="stroke:#C82930;stroke-width:1.0;" width="6" x="379.5" y="427.0469"/><text fill="#000000" font-family="sans-serif" font-size="14" lengthAdjust="spacing" textLength="83" x="391.5" y="437.5801">finalMessage</text><ellipse cx="382.5" cy="469.2656" fill="#84BE84" rx="3" ry="3" style="stroke:#038048;stroke-width:1.0;"/><text fill="#000000" font-family="sans-serif" font-size="14" lengthAdjust="spacing" textLength="142" x="391.5" y="476.7988">withId(questionnaireId)</text><ellipse cx="382.5" cy="486.875" fill="#84BE84" rx="3" ry="3" style="stroke:#038048;stroke-width:1.0;"/><text fill="#000000" font-family="sans-serif" font-size="14" lengthAdjust="spacing" textLength="83" x="391.5" y="494.4082">withTitle(title)</text><ellipse cx="382.5" cy="504.4844" fill="#84BE84" rx="3" ry="3" style="stroke:#038048;stroke-width:1.0;"/><text fill="#000000" font-family="sans-serif" font-size="14" lengthAdjust="spacing" textLength="260" x="391.5" y="512.0176">withWelcomeMessage(welcomeMessage)</text><ellipse cx="382.5" cy="522.0938" fill="#84BE84" rx="3" ry="3" style="stroke:#038048;stroke-width:1.0;"/><text fill="#000000" font-family="sans-serif" font-size="14" lengthAdjust="spacing" textLength="140" x="391.5" y="529.627">withSections(sections)</text><ellipse cx="382.5" cy="539.7031" fill="#84BE84" rx="3" ry="3" style="stroke:#038048;stroke-width:1.0;"/><text fill="#000000" font-family="sans-serif" font-size="14" lengthAdjust="spacing" textLength="205" x="391.5" y="547.2363">withFinalMessage(finalMessage)</text><ellipse cx="382.5" cy="557.3125" fill="#84BE84" rx="3" ry="3" style="stroke:#038048;stroke-width:1.0;"/><text fill="#000000" font-family="sans-serif" font-size="14" lengthAdjust="spacing" textLength="40" x="391.5" y="564.8457">build()</text><line style="stroke:#181818;stroke-width:1.0;" x1="372.5" x2="487.5" y1="453.4609" y2="453.4609"/><text fill="#000000" font-family="sans-serif" font-size="14" lengthAdjust="spacing" textLength="54" x="487.5" y="458.6895">Methods</text><line style="stroke:#181818;stroke-width:1.0;" x1="541.5" x2="656.5" y1="453.4609" y2="453.4609"/></g><!--MD5=[5a3b85c54cc1c79904e0b827443986bf]
class Questionnaire--><g id="elem_Questionnaire"><rect codeLine="45" fill="#F1F1F1" height="167.2656" id="Questionnaire" rx="2.5" ry="2.5" style="stroke:#181818;stroke-width:0.5;" width="139" x="445" y="632.6094"/><ellipse cx="468.1" cy="648.6094" fill="#ADD1B2" rx="11" ry="11" style="stroke:#181818;stroke-width:1.0;"/><path d="M470.1,645.1094 Q470.3031,644.6094 470.5375,644.3594 Q470.7719,644.1094 471.0375,644.1094 Q471.5063,644.1094 471.8031,644.3906 Q472.1,644.6719 472.1,645.3281 L472.1,646.8906 Q472.1,647.5469 471.8188,647.8281 Q471.5375,648.1094 471.1,648.1094 Q470.7094,648.1094 470.4594,647.9375 Q470.2094,647.7656 470.1,647.3125 Q470.0531,647 469.8813,646.8281 Q469.5688,646.5 469.0063,646.3125 Q468.4438,646.1094 467.8813,646.1094 Q467.1781,646.1094 466.5844,646.3906 Q466.0063,646.6719 465.5531,647.2969 Q465.1,647.9219 465.1,648.7813 L465.1,649.7031 Q465.1,650.7344 465.9438,651.4219 Q466.7875,652.1094 468.2875,652.1094 Q469.1781,652.1094 469.8031,651.9063 Q470.1625,651.7969 470.5688,651.4375 Q470.8344,651.2344 470.975,651.1719 Q471.1156,651.1094 471.2875,651.1094 Q471.6156,651.1094 471.85,651.375 Q472.1,651.625 472.1,651.9844 Q472.1,652.3281 471.7563,652.7344 Q471.2563,653.3281 470.4594,653.6563 Q469.4125,654.1094 468.1313,654.1094 Q466.6313,654.1094 465.4281,653.5156 Q464.4594,653.0469 463.7719,652.0313 Q463.1,651.0156 463.1,649.8125 L463.1,648.7188 Q463.1,647.4688 463.6938,646.375 Q464.3031,645.2813 465.35,644.7031 Q466.4125,644.1094 467.6,644.1094 Q468.3188,644.1094 468.9438,644.3594 Q469.5688,644.6094 470.1,645.1094 Z " fill="#000000"/><text fill="#000000" font-family="sans-serif" font-size="14" lengthAdjust="spacing" textLength="89" x="483.9" y="654.3379">Questionnaire</text><line style="stroke:#181818;stroke-width:0.5;" x1="446" x2="583" y1="664.6094" y2="664.6094"/><rect fill="none" height="6" style="stroke:#C82930;stroke-width:1.0;" width="6" x="453" y="672.6094"/><text fill="#000000" font-family="sans-serif" font-size="14" lengthAdjust="spacing" textLength="97" x="465" y="683.1426">questionnaireId</text><rect fill="none" height="6" style="stroke:#C82930;stroke-width:1.0;" width="6" x="453" y="690.2188"/><text fill="#000000" font-family="sans-serif" font-size="14" lengthAdjust="spacing" textLength="113" x="465" y="700.752">questionnaireTitle</text><rect fill="none" height="6" style="stroke:#C82930;stroke-width:1.0;" width="6" x="453" y="707.8281"/><text fill="#000000" font-family="sans-serif" font-size="14" lengthAdjust="spacing" textLength="111" x="465" y="718.3613">welcomeMessage</text><rect fill="none" height="6" style="stroke:#C82930;stroke-width:1.0;" width="6" x="453" y="725.4375"/><text fill="#000000" font-family="sans-serif" font-size="14" lengthAdjust="spacing" textLength="52" x="465" y="735.9707">sections</text><rect fill="none" height="6" style="stroke:#C82930;stroke-width:1.0;" width="6" x="453" y="743.0469"/><text fill="#000000" font-family="sans-serif" font-size="14" lengthAdjust="spacing" textLength="83" x="465" y="753.5801">finalMessage</text><ellipse cx="456" cy="785.2656" fill="#84BE84" rx="3" ry="3" style="stroke:#038048;stroke-width:1.0;"/><text fill="#000000" font-family="sans-serif" font-size="14" lengthAdjust="spacing" textLength="59" x="465" y="792.7988">toString()</text><line style="stroke:#181818;stroke-width:1.0;" x1="446" x2="487.5" y1="769.4609" y2="769.4609"/><text fill="#000000" font-family="sans-serif" font-size="14" lengthAdjust="spacing" textLength="54" x="487.5" y="774.6895">Methods</text><line style="stroke:#181818;stroke-width:1.0;" x1="541.5" x2="583" y1="769.4609" y2="769.4609"/></g><!--MD5=[09a53695e98d4f26e7a054522080af08]
class Section--><g id="elem_Section"><rect codeLine="55" fill="#F1F1F1" height="184.875" id="Section" rx="2.5" ry="2.5" style="stroke:#181818;stroke-width:0.5;" width="142" x="443.5" y="877.6094"/><ellipse cx="486.85" cy="893.6094" fill="#ADD1B2" rx="11" ry="11" style="stroke:#181818;stroke-width:1.0;"/><path d="M488.85,890.1094 Q489.0531,889.6094 489.2875,889.3594 Q489.5219,889.1094 489.7875,889.1094 Q490.2563,889.1094 490.5531,889.3906 Q490.85,889.6719 490.85,890.3281 L490.85,891.8906 Q490.85,892.5469 490.5688,892.8281 Q490.2875,893.1094 489.85,893.1094 Q489.4594,893.1094 489.2094,892.9375 Q488.9594,892.7656 488.85,892.3125 Q488.8031,892 488.6313,891.8281 Q488.3188,891.5 487.7563,891.3125 Q487.1938,891.1094 486.6313,891.1094 Q485.9281,891.1094 485.3344,891.3906 Q484.7563,891.6719 484.3031,892.2969 Q483.85,892.9219 483.85,893.7813 L483.85,894.7031 Q483.85,895.7344 484.6938,896.4219 Q485.5375,897.1094 487.0375,897.1094 Q487.9281,897.1094 488.5531,896.9063 Q488.9125,896.7969 489.3188,896.4375 Q489.5844,896.2344 489.725,896.1719 Q489.8656,896.1094 490.0375,896.1094 Q490.3656,896.1094 490.6,896.375 Q490.85,896.625 490.85,896.9844 Q490.85,897.3281 490.5063,897.7344 Q490.0063,898.3281 489.2094,898.6563 Q488.1625,899.1094 486.8813,899.1094 Q485.3813,899.1094 484.1781,898.5156 Q483.2094,898.0469 482.5219,897.0313 Q481.85,896.0156 481.85,894.8125 L481.85,893.7188 Q481.85,892.4688 482.4438,891.375 Q483.0531,890.2813 484.1,889.7031 Q485.1625,889.1094 486.35,889.1094 Q487.0688,889.1094 487.6938,889.3594 Q488.3188,889.6094 488.85,890.1094 Z " fill="#000000"/><text fill="#000000" font-family="sans-serif" font-size="14" lengthAdjust="spacing" textLength="47" x="507.15" y="899.3379">Section</text><line style="stroke:#181818;stroke-width:0.5;" x1="444.5" x2="584.5" y1="909.6094" y2="909.6094"/><rect fill="none" height="6" style="stroke:#C82930;stroke-width:1.0;" width="6" x="451.5" y="917.6094"/><text fill="#000000" font-family="sans-serif" font-size="14" lengthAdjust="spacing" textLength="56" x="463.5" y="928.1426">sectionId</text><rect fill="none" height="6" style="stroke:#C82930;stroke-width:1.0;" width="6" x="451.5" y="935.2188"/><text fill="#000000" font-family="sans-serif" font-size="14" lengthAdjust="spacing" textLength="72" x="463.5" y="945.752">sectionTitle</text><rect fill="none" height="6" style="stroke:#C82930;stroke-width:1.0;" width="6" x="451.5" y="952.8281"/><text fill="#000000" font-family="sans-serif" font-size="14" lengthAdjust="spacing" textLength="116" x="463.5" y="963.3613">sectionDescription</text><rect fill="none" height="6" style="stroke:#C82930;stroke-width:1.0;" width="6" x="451.5" y="970.4375"/><text fill="#000000" font-family="sans-serif" font-size="14" lengthAdjust="spacing" textLength="88" x="463.5" y="980.9707">obligatoriness</text><rect fill="none" height="6" style="stroke:#C82930;stroke-width:1.0;" width="6" x="451.5" y="988.0469"/><text fill="#000000" font-family="sans-serif" font-size="14" lengthAdjust="spacing" textLength="77" x="463.5" y="998.5801">repeatability</text><rect fill="none" height="6" style="stroke:#C82930;stroke-width:1.0;" width="6" x="451.5" y="1005.6563"/><text fill="#000000" font-family="sans-serif" font-size="14" lengthAdjust="spacing" textLength="47" x="463.5" y="1016.1895">content</text><ellipse cx="454.5" cy="1047.875" fill="#84BE84" rx="3" ry="3" style="stroke:#038048;stroke-width:1.0;"/><text fill="#000000" font-family="sans-serif" font-size="14" lengthAdjust="spacing" textLength="63" x="463.5" y="1055.4082">toString();</text><line style="stroke:#181818;stroke-width:1.0;" x1="444.5" x2="487.5" y1="1032.0703" y2="1032.0703"/><text fill="#000000" font-family="sans-serif" font-size="14" lengthAdjust="spacing" textLength="54" x="487.5" y="1037.2988">Methods</text><line style="stroke:#181818;stroke-width:1.0;" x1="541.5" x2="584.5" y1="1032.0703" y2="1032.0703"/></g><!--MD5=[fc7123defb831ecdd44b2d9bcef6cceb]
class Question--><g id="elem_Question"><rect codeLine="66" fill="#F1F1F1" height="167.2656" id="Question" rx="2.5" ry="2.5" style="stroke:#181818;stroke-width:0.5;" width="114" x="457.5" y="1140.6094"/><ellipse cx="483.75" cy="1156.6094" fill="#ADD1B2" rx="11" ry="11" style="stroke:#181818;stroke-width:1.0;"/><path d="M485.75,1153.1094 Q485.9531,1152.6094 486.1875,1152.3594 Q486.4219,1152.1094 486.6875,1152.1094 Q487.1563,1152.1094 487.4531,1152.3906 Q487.75,1152.6719 487.75,1153.3281 L487.75,1154.8906 Q487.75,1155.5469 487.4688,1155.8281 Q487.1875,1156.1094 486.75,1156.1094 Q486.3594,1156.1094 486.1094,1155.9375 Q485.8594,1155.7656 485.75,1155.3125 Q485.7031,1155 485.5313,1154.8281 Q485.2188,1154.5 484.6563,1154.3125 Q484.0938,1154.1094 483.5313,1154.1094 Q482.8281,1154.1094 482.2344,1154.3906 Q481.6563,1154.6719 481.2031,1155.2969 Q480.75,1155.9219 480.75,1156.7813 L480.75,1157.7031 Q480.75,1158.7344 481.5938,1159.4219 Q482.4375,1160.1094 483.9375,1160.1094 Q484.8281,1160.1094 485.4531,1159.9063 Q485.8125,1159.7969 486.2188,1159.4375 Q486.4844,1159.2344 486.625,1159.1719 Q486.7656,1159.1094 486.9375,1159.1094 Q487.2656,1159.1094 487.5,1159.375 Q487.75,1159.625 487.75,1159.9844 Q487.75,1160.3281 487.4063,1160.7344 Q486.9063,1161.3281 486.1094,1161.6563 Q485.0625,1162.1094 483.7813,1162.1094 Q482.2813,1162.1094 481.0781,1161.5156 Q480.1094,1161.0469 479.4219,1160.0313 Q478.75,1159.0156 478.75,1157.8125 L478.75,1156.7188 Q478.75,1155.4688 479.3438,1154.375 Q479.9531,1153.2813 481,1152.7031 Q482.0625,1152.1094 483.25,1152.1094 Q483.9688,1152.1094 484.5938,1152.3594 Q485.2188,1152.6094 485.75,1153.1094 Z " fill="#000000"/><text fill="#000000" font-family="sans-serif" font-size="14" lengthAdjust="spacing" textLength="57" x="500.25" y="1162.3379">Question</text><line style="stroke:#181818;stroke-width:0.5;" x1="458.5" x2="570.5" y1="1172.6094" y2="1172.6094"/><rect fill="none" height="6" style="stroke:#C82930;stroke-width:1.0;" width="6" x="465.5" y="1180.6094"/><text fill="#000000" font-family="sans-serif" font-size="14" lengthAdjust="spacing" textLength="65" x="477.5" y="1191.1426">questionId</text><rect fill="none" height="6" style="stroke:#C82930;stroke-width:1.0;" width="6" x="465.5" y="1198.2188"/><text fill="#000000" font-family="sans-serif" font-size="14" lengthAdjust="spacing" textLength="81" x="477.5" y="1208.752">questionText</text><rect fill="none" height="6" style="stroke:#C82930;stroke-width:1.0;" width="6" x="465.5" y="1215.8281"/><text fill="#000000" font-family="sans-serif" font-size="14" lengthAdjust="spacing" textLength="72" x="477.5" y="1226.3613">instructions</text><rect fill="none" height="6" style="stroke:#C82930;stroke-width:1.0;" width="6" x="465.5" y="1233.4375"/><text fill="#000000" font-family="sans-serif" font-size="14" lengthAdjust="spacing" textLength="88" x="477.5" y="1243.9707">obligatoriness</text><rect fill="none" height="6" style="stroke:#C82930;stroke-width:1.0;" width="6" x="465.5" y="1251.0469"/><text fill="#000000" font-family="sans-serif" font-size="14" lengthAdjust="spacing" textLength="58" x="477.5" y="1261.5801">extra info</text><ellipse cx="468.5" cy="1293.2656" fill="#84BE84" rx="3" ry="3" style="stroke:#038048;stroke-width:1.0;"/><text fill="#000000" font-family="sans-serif" font-size="14" lengthAdjust="spacing" textLength="63" x="477.5" y="1300.7988">toString();</text><line style="stroke:#181818;stroke-width:1.0;" x1="458.5" x2="487.5" y1="1277.4609" y2="1277.4609"/><text fill="#000000" font-family="sans-serif" font-size="14" lengthAdjust="spacing" textLength="54" x="487.5" y="1282.6895">Methods</text><line style="stroke:#181818;stroke-width:1.0;" x1="541.5" x2="570.5" y1="1277.4609" y2="1277.4609"/></g><!--MD5=[716966af53a3dd2b04e2a70f9ec2bcd2]
link CreateQuestionnaireUI to CreateQuestionnaireController--><g id="link_CreateQuestionnaireUI_CreateQuestionnaireController"><path codeLine="78" d="M251.5,93.8594 C251.5,109.1594 251.5,129.8494 251.5,149.1794 " fill="none" id="CreateQuestionnaireUI-to-CreateQuestionnaireController" style="stroke:#181818;stroke-width:1.0;stroke-dasharray:7.0,7.0;"/><polygon fill="#181818" points="251.5,154.5894,255.5,145.5894,251.5,149.5894,247.5,145.5894,251.5,154.5894" style="stroke:#181818;stroke-width:1.0;"/></g><!--MD5=[b26ee06d40b23dd2d83c2a79904b4965]
link CreateQuestionnaireController to QuestionnaireBuilder--><g id="link_CreateQuestionnaireController_QuestionnaireBuilder"><path codeLine="80" d="M306.63,255.7894 C325.5,272.7894 347.58,292.6894 370.16,313.0394 " fill="none" id="CreateQuestionnaireController-to-QuestionnaireBuilder" style="stroke:#181818;stroke-width:1.0;stroke-dasharray:7.0,7.0;"/><polygon fill="#181818" points="374.09,316.5794,370.0762,307.5855,370.3735,313.2346,364.7245,313.5319,374.09,316.5794" style="stroke:#181818;stroke-width:1.0;"/></g><!--MD5=[d9e5cb773254d4131540d039f6b53116]
link CreateQuestionnaireController to JPARepository--><g id="link_CreateQuestionnaireController_JPARepository"><path codeLine="81" d="M202,255.8494 C184.63,274.2894 165.48,295.7994 149.5,316.6094 C131.48,340.0894 113.65,367.7194 99.42,391.1594 " fill="none" id="CreateQuestionnaireController-to-JPARepository" style="stroke:#181818;stroke-width:1.0;stroke-dasharray:7.0,7.0;"/><polygon fill="#181818" points="96.81,395.4794,104.8926,389.8516,99.3993,391.202,98.0489,385.7087,96.81,395.4794" style="stroke:#181818;stroke-width:1.0;"/></g><!--MD5=[3590f9c4c5fcd6542b33d9376a8c3d7a]
link CreateQuestionnaireController to QuestionnaireMapper--><g id="link_CreateQuestionnaireController_QuestionnaireMapper"><path codeLine="82" d="M251.5,255.7894 C251.5,298.1394 251.5,358.4294 251.5,399.0794 " fill="none" id="CreateQuestionnaireController-to-QuestionnaireMapper" style="stroke:#181818;stroke-width:1.0;stroke-dasharray:7.0,7.0;"/><polygon fill="#181818" points="251.5,404.4294,255.5,395.4294,251.5,399.4294,247.5,395.4294,251.5,404.4294" style="stroke:#181818;stroke-width:1.0;"/></g><!--MD5=[b621d787671db215dd49c4326fd12297]
link QuestionnaireMapper to QuestionnaireDTO--><g id="link_QuestionnaireMapper_QuestionnaireDTO"><path codeLine="84" d="M251.5,483.7894 C251.5,532.7094 251.5,616.8394 251.5,669.0294 " fill="none" id="QuestionnaireMapper-to-QuestionnaireDTO" style="stroke:#181818;stroke-width:1.0;stroke-dasharray:7.0,7.0;"/><polygon fill="#181818" points="251.5,674.2894,255.5,665.2894,251.5,669.2894,247.5,665.2894,251.5,674.2894" style="stroke:#181818;stroke-width:1.0;"/></g><!--MD5=[bfb6d1a7e29e0c5273ba3a7e44261003]
link QuestionnaireBuilder to Questionnaire--><g id="link_QuestionnaireBuilder_Questionnaire"><path codeLine="86" d="M514.5,571.8094 C514.5,590.4294 514.5,609.2694 514.5,626.8894 " fill="none" id="QuestionnaireBuilder-to-Questionnaire" style="stroke:#181818;stroke-width:1.0;stroke-dasharray:7.0,7.0;"/><polygon fill="#181818" points="514.5,632.3194,518.5,623.3194,514.5,627.3194,510.5,623.3194,514.5,632.3194" style="stroke:#181818;stroke-width:1.0;"/></g><!--MD5=[3da50156e7717b39021783dfd0973443]
link Questionnaire to Section--><g id="link_Questionnaire_Section"><path codeLine="88" d="M514.5,799.6194 C514.5,822.8094 514.5,848.2294 514.5,872.1694 " fill="none" id="Questionnaire-to-Section" style="stroke:#181818;stroke-width:1.0;"/><polygon fill="#181818" points="514.5,877.2594,518.5,868.2594,514.5,872.2594,510.5,868.2594,514.5,877.2594" style="stroke:#181818;stroke-width:1.0;"/><text fill="#000000" font-family="sans-serif" font-size="13" lengthAdjust="spacing" textLength="28" x="515.5" y="844.1045">uses</text><text fill="#000000" font-family="sans-serif" font-size="13" lengthAdjust="spacing" textLength="7" x="507.1883" y="821.2684">1</text><text fill="#000000" font-family="sans-serif" font-size="13" lengthAdjust="spacing" textLength="20" x="493.7031" y="866.737">1..*</text></g><!--MD5=[87fa8ff7d398728728a611d860795352]
link Section to Question--><g id="link_Section_Question"><path codeLine="90" d="M514.5,1062.7994 C514.5,1086.3494 514.5,1111.6294 514.5,1134.9994 " fill="none" id="Section-to-Question" style="stroke:#181818;stroke-width:1.0;"/><polygon fill="#181818" points="514.5,1140.2594,518.5,1131.2594,514.5,1135.2594,510.5,1131.2594,514.5,1140.2594" style="stroke:#181818;stroke-width:1.0;"/><text fill="#000000" font-family="sans-serif" font-size="13" lengthAdjust="spacing" textLength="28" x="515.5" y="1107.1045">uses</text><text fill="#000000" font-family="sans-serif" font-size="13" lengthAdjust="spacing" textLength="7" x="507.232" y="1084.0218">1</text><text fill="#000000" font-family="sans-serif" font-size="13" lengthAdjust="spacing" textLength="20" x="493.6406" y="1129.8648">1..*</text></g><!--MD5=[421b34279c9b28bac20b3f0ecd306740]
@startuml

title US3001 - Class Diagram 3 (Questionnaire)


class CreateQuestionnaireUI

class CreateQuestionnaireController{

+ CreateQuestionnaireController()
+ getQuestions()
+ createQuestionnaire(...)
}

abstract JPARepository {
- -Methods- -
+ add(entity)
+ findAll()
}

class QuestionnaireMapper{
- -Methods- -
+ toDTO(questionnaire)
}

class QuestionnaireDTO{
+ id
+ toString
}

class QuestionnaireBuilder{
- questionnaireId
- questionnaireTitle
- welcomeMessage
- sections
- finalMessage
- -Methods- -
+ withId(questionnaireId)
+ withTitle(title)
+ withWelcomeMessage(welcomeMessage)
+ withSections(sections)
+ withFinalMessage(finalMessage)
+ build()
}

class Questionnaire{
- questionnaireId
- questionnaireTitle
- welcomeMessage
- sections
- finalMessage
- -Methods- -
+ toString()
}

class Section{
- sectionId
- sectionTitle
- sectionDescription
- obligatoriness
- repeatability
- content
- -Methods- -
+ toString();
}

class Question{
- questionId
- questionText
- instructions
- obligatoriness
- extra info
- -Methods- -
+ toString();
}



CreateQuestionnaireUI ..> CreateQuestionnaireController

CreateQuestionnaireController ..> QuestionnaireBuilder
CreateQuestionnaireController ..> JPARepository
CreateQuestionnaireController ..> QuestionnaireMapper

QuestionnaireMapper ..> QuestionnaireDTO

QuestionnaireBuilder ..> Questionnaire

Questionnaire "1" - -> "1..*" Section:uses

Section "1"- ->"1..*" Question:uses
@enduml

PlantUML version 1.2022.4(Sat Apr 09 14:29:17 BST 2022)
(GPL source distribution)
Java Runtime: OpenJDK Runtime Environment
JVM: OpenJDK 64-Bit Server VM
Default Encoding: Cp1252
Language: pt
Country: PT
--></g></svg>