<?xml version="1.0" encoding="UTF-8" standalone="no"?><svg xmlns="http://www.w3.org/2000/svg" xmlns:xlink="http://www.w3.org/1999/xlink" contentStyleType="text/css" height="1242px" preserveAspectRatio="none" style="width:1504px;height:1242px;background:#FFFFFF;" version="1.1" viewBox="0 0 1504 1242" width="1504px" zoomAndPan="magnify"><defs/><g><rect height="27.6094" style="stroke:#00000000;stroke-width:1.0;fill:none;" width="296" x="603.25" y="10"/><text fill="#000000" font-family="sans-serif" font-size="14" font-weight="bold" lengthAdjust="spacing" textLength="286" x="608.25" y="29.5332">US3001 - Sequence Diagram 1 (Question)</text><rect fill="#FFFFFF" height="1020.2109" style="stroke:#181818;stroke-width:1.0;" width="10" x="51.5" y="131.2188"/><rect fill="#FFFFFF" height="977.6836" style="stroke:#181818;stroke-width:1.0;" width="10" x="275.5" y="164.7461"/><rect fill="#FFFFFF" height="845.4531" style="stroke:#181818;stroke-width:1.0;" width="10" x="470" y="206.2734"/><rect fill="#FFFFFF" height="30" style="stroke:#181818;stroke-width:1.0;" width="10" x="685" y="247.8008"/><rect fill="#FFFFFF" height="30" style="stroke:#181818;stroke-width:1.0;" width="10" x="813" y="361.9375"/><rect fill="#FFFFFF" height="30" style="stroke:#181818;stroke-width:1.0;" width="10" x="813" y="422.2891"/><rect fill="#FFFFFF" height="30" style="stroke:#181818;stroke-width:1.0;" width="10" x="813" y="482.6406"/><rect fill="#FFFFFF" height="30" style="stroke:#181818;stroke-width:1.0;" width="10" x="813" y="542.9922"/><rect fill="#FFFFFF" height="30" style="stroke:#181818;stroke-width:1.0;" width="10" x="813" y="603.3438"/><rect fill="#FFFFFF" height="30" style="stroke:#181818;stroke-width:1.0;" width="10" x="813" y="663.6953"/><rect fill="#FFFFFF" height="103.3125" style="stroke:#181818;stroke-width:1.0;" width="10" x="813" y="724.0469"/><rect fill="#FFFFFF" height="32.6094" style="stroke:#181818;stroke-width:1.0;" width="10" x="980.5" y="764.3984"/><rect fill="#FFFFFF" height="30" style="stroke:#181818;stroke-width:1.0;" width="10" x="1124.5" y="857.7109"/><rect fill="#FFFFFF" height="103.3125" style="stroke:#181818;stroke-width:1.0;" width="10" x="1265.5" y="918.0625"/><rect fill="#FFFFFF" height="32.6094" style="stroke:#181818;stroke-width:1.0;" width="10" x="1431" y="958.4141"/><rect fill="#FFFFFF" height="30" style="stroke:#181818;stroke-width:1.0;" width="10" x="1431" y="1082.0781"/><line style="stroke:#181818;stroke-width:0.5;stroke-dasharray:5.0,5.0;" x1="56" x2="56" y1="121.2188" y2="1160.4297"/><line style="stroke:#181818;stroke-width:0.5;stroke-dasharray:5.0,5.0;" x1="280.5" x2="280.5" y1="121.2188" y2="1160.4297"/><line style="stroke:#181818;stroke-width:0.5;stroke-dasharray:5.0,5.0;" x1="474.5" x2="474.5" y1="121.2188" y2="1160.4297"/><line style="stroke:#181818;stroke-width:0.5;stroke-dasharray:5.0,5.0;" x1="690" x2="690" y1="121.2188" y2="1160.4297"/><line style="stroke:#181818;stroke-width:0.5;stroke-dasharray:5.0,5.0;" x1="818" x2="818" y1="328.2813" y2="1160.4297"/><line style="stroke:#181818;stroke-width:0.5;stroke-dasharray:5.0,5.0;" x1="985" x2="985" y1="763.3516" y2="1160.4297"/><line style="stroke:#181818;stroke-width:0.5;stroke-dasharray:5.0,5.0;" x1="1129" x2="1129" y1="121.2188" y2="1160.4297"/><line style="stroke:#181818;stroke-width:0.5;stroke-dasharray:5.0,5.0;" x1="1270" x2="1270" y1="121.2188" y2="1160.4297"/><line style="stroke:#181818;stroke-width:0.5;stroke-dasharray:5.0,5.0;" x1="1435.5" x2="1435.5" y1="957.3672" y2="1160.4297"/><text fill="#000000" font-family="sans-serif" font-size="14" lengthAdjust="spacing" textLength="97" x="5" y="118.1426">Sales Manages</text><ellipse cx="56.5" cy="52.1094" fill="#E2E2F0" rx="8" ry="8" style="stroke:#181818;stroke-width:0.5;"/><path d="M56.5,60.1094 L56.5,87.1094 M43.5,68.1094 L69.5,68.1094 M56.5,87.1094 L43.5,102.1094 M56.5,87.1094 L69.5,102.1094 " fill="none" style="stroke:#181818;stroke-width:0.5;"/><text fill="#000000" font-family="sans-serif" font-size="14" lengthAdjust="spacing" textLength="97" x="5" y="1173.9629">Sales Manages</text><ellipse cx="56.5" cy="1185.5391" fill="#E2E2F0" rx="8" ry="8" style="stroke:#181818;stroke-width:0.5;"/><path d="M56.5,1193.5391 L56.5,1220.5391 M43.5,1201.5391 L69.5,1201.5391 M56.5,1220.5391 L43.5,1235.5391 M56.5,1220.5391 L69.5,1235.5391 " fill="none" style="stroke:#181818;stroke-width:0.5;"/><rect fill="#E2E2F0" height="31.6094" rx="2.5" ry="2.5" style="stroke:#181818;stroke-width:0.5;" width="130" x="215.5" y="88.6094"/><text fill="#000000" font-family="sans-serif" font-size="14" lengthAdjust="spacing" textLength="116" x="222.5" y="110.1426">:CreateQuestionUI</text><rect fill="#E2E2F0" height="31.6094" rx="2.5" ry="2.5" style="stroke:#181818;stroke-width:0.5;" width="130" x="215.5" y="1159.4297"/><text fill="#000000" font-family="sans-serif" font-size="14" lengthAdjust="spacing" textLength="116" x="222.5" y="1180.9629">:CreateQuestionUI</text><rect fill="#E2E2F0" height="31.6094" rx="2.5" ry="2.5" style="stroke:#181818;stroke-width:0.5;" width="239" x="355.5" y="88.6094"/><text fill="#000000" font-family="sans-serif" font-size="14" lengthAdjust="spacing" textLength="225" x="362.5" y="110.1426">controller:CreateQuestionController</text><rect fill="#E2E2F0" height="31.6094" rx="2.5" ry="2.5" style="stroke:#181818;stroke-width:0.5;" width="239" x="355.5" y="1159.4297"/><text fill="#000000" font-family="sans-serif" font-size="14" lengthAdjust="spacing" textLength="225" x="362.5" y="1180.9629">controller:CreateQuestionController</text><rect fill="#E2E2F0" height="31.6094" rx="2.5" ry="2.5" style="stroke:#181818;stroke-width:0.5;" width="74" x="653" y="88.6094"/><text fill="#000000" font-family="sans-serif" font-size="14" lengthAdjust="spacing" textLength="60" x="660" y="110.1426">:Validator</text><rect fill="#E2E2F0" height="31.6094" rx="2.5" ry="2.5" style="stroke:#181818;stroke-width:0.5;" width="74" x="653" y="1159.4297"/><text fill="#000000" font-family="sans-serif" font-size="14" lengthAdjust="spacing" textLength="60" x="660" y="1180.9629">:Validator</text><rect fill="#E2E2F0" height="31.6094" rx="2.5" ry="2.5" style="stroke:#181818;stroke-width:0.5;" width="162" x="737" y="1159.4297"/><text fill="#000000" font-family="sans-serif" font-size="14" lengthAdjust="spacing" textLength="148" x="744" y="1180.9629">builder:QuestionBuilder</text><rect fill="#E2E2F0" height="31.6094" rx="2.5" ry="2.5" style="stroke:#181818;stroke-width:0.5;" width="129" x="921" y="1159.4297"/><text fill="#000000" font-family="sans-serif" font-size="14" lengthAdjust="spacing" textLength="115" x="928" y="1180.9629">question:Question</text><rect fill="#E2E2F0" height="31.6094" rx="2.5" ry="2.5" style="stroke:#181818;stroke-width:0.5;" width="139" x="1060" y="88.6094"/><text fill="#000000" font-family="sans-serif" font-size="14" lengthAdjust="spacing" textLength="125" x="1067" y="110.1426">repo:JPARepository</text><rect fill="#E2E2F0" height="31.6094" rx="2.5" ry="2.5" style="stroke:#181818;stroke-width:0.5;" width="139" x="1060" y="1159.4297"/><text fill="#000000" font-family="sans-serif" font-size="14" lengthAdjust="spacing" textLength="125" x="1067" y="1180.9629">repo:JPARepository</text><rect fill="#E2E2F0" height="31.6094" rx="2.5" ry="2.5" style="stroke:#181818;stroke-width:0.5;" width="123" x="1209" y="88.6094"/><text fill="#000000" font-family="sans-serif" font-size="14" lengthAdjust="spacing" textLength="109" x="1216" y="110.1426">:QuestionMapper</text><rect fill="#E2E2F0" height="31.6094" rx="2.5" ry="2.5" style="stroke:#181818;stroke-width:0.5;" width="123" x="1209" y="1159.4297"/><text fill="#000000" font-family="sans-serif" font-size="14" lengthAdjust="spacing" textLength="109" x="1216" y="1180.9629">:QuestionMapper</text><rect fill="#E2E2F0" height="31.6094" rx="2.5" ry="2.5" style="stroke:#181818;stroke-width:0.5;" width="125" x="1373.5" y="1159.4297"/><text fill="#000000" font-family="sans-serif" font-size="14" lengthAdjust="spacing" textLength="111" x="1380.5" y="1180.9629">dto:QuestionDTO</text><rect fill="#FFFFFF" height="1020.2109" style="stroke:#181818;stroke-width:1.0;" width="10" x="51.5" y="131.2188"/><rect fill="#FFFFFF" height="977.6836" style="stroke:#181818;stroke-width:1.0;" width="10" x="275.5" y="164.7461"/><rect fill="#FFFFFF" height="845.4531" style="stroke:#181818;stroke-width:1.0;" width="10" x="470" y="206.2734"/><rect fill="#FFFFFF" height="30" style="stroke:#181818;stroke-width:1.0;" width="10" x="685" y="247.8008"/><rect fill="#FFFFFF" height="30" style="stroke:#181818;stroke-width:1.0;" width="10" x="813" y="361.9375"/><rect fill="#FFFFFF" height="30" style="stroke:#181818;stroke-width:1.0;" width="10" x="813" y="422.2891"/><rect fill="#FFFFFF" height="30" style="stroke:#181818;stroke-width:1.0;" width="10" x="813" y="482.6406"/><rect fill="#FFFFFF" height="30" style="stroke:#181818;stroke-width:1.0;" width="10" x="813" y="542.9922"/><rect fill="#FFFFFF" height="30" style="stroke:#181818;stroke-width:1.0;" width="10" x="813" y="603.3438"/><rect fill="#FFFFFF" height="30" style="stroke:#181818;stroke-width:1.0;" width="10" x="813" y="663.6953"/><rect fill="#FFFFFF" height="103.3125" style="stroke:#181818;stroke-width:1.0;" width="10" x="813" y="724.0469"/><rect fill="#FFFFFF" height="32.6094" style="stroke:#181818;stroke-width:1.0;" width="10" x="980.5" y="764.3984"/><rect fill="#FFFFFF" height="30" style="stroke:#181818;stroke-width:1.0;" width="10" x="1124.5" y="857.7109"/><rect fill="#FFFFFF" height="103.3125" style="stroke:#181818;stroke-width:1.0;" width="10" x="1265.5" y="918.0625"/><rect fill="#FFFFFF" height="32.6094" style="stroke:#181818;stroke-width:1.0;" width="10" x="1431" y="958.4141"/><rect fill="#FFFFFF" height="30" style="stroke:#181818;stroke-width:1.0;" width="10" x="1431" y="1082.0781"/><polygon fill="#181818" points="263.5,160.7461,273.5,164.7461,263.5,168.7461,267.5,164.7461" style="stroke:#181818;stroke-width:1.0;"/><line style="stroke:#181818;stroke-width:1.0;" x1="61.5" x2="269.5" y1="164.7461" y2="164.7461"/><text fill="#000000" font-family="sans-serif" font-size="13" font-weight="bold" lengthAdjust="spacing" textLength="7" x="68.5" y="159.8896">1</text><text fill="#000000" font-family="sans-serif" font-size="13" lengthAdjust="spacing" textLength="184" x="79.5" y="159.8896">wants to create a new question.</text><path d="M290,136.2188 L290,178.2188 L465,178.2188 L465,146.2188 L455,136.2188 L290,136.2188 " fill="#FEFFDD" style="stroke:#181818;stroke-width:0.5;"/><path d="M455,136.2188 L455,146.2188 L465,146.2188 L455,136.2188 " fill="#FEFFDD" style="stroke:#181818;stroke-width:0.5;"/><text fill="#000000" font-family="sans-serif" font-size="13" lengthAdjust="spacing" textLength="154" x="296" y="154.7139">(Data requests to Manager</text><text fill="#000000" font-family="sans-serif" font-size="13" lengthAdjust="spacing" textLength="47" x="300" y="171.0654">omitted)</text><polygon fill="#181818" points="458,202.2734,468,206.2734,458,210.2734,462,206.2734" style="stroke:#181818;stroke-width:1.0;"/><line style="stroke:#181818;stroke-width:1.0;" x1="285.5" x2="464" y1="206.2734" y2="206.2734"/><text fill="#000000" font-family="sans-serif" font-size="13" font-weight="bold" lengthAdjust="spacing" textLength="7" x="292.5" y="201.417">2</text><text fill="#000000" font-family="sans-serif" font-size="13" lengthAdjust="spacing" textLength="108" x="303.5" y="201.417">createQuestion(...)</text><polygon fill="#181818" points="673,243.8008,683,247.8008,673,251.8008,677,247.8008" style="stroke:#181818;stroke-width:1.0;"/><line style="stroke:#181818;stroke-width:1.0;stroke-dasharray:2.0,2.0;" x1="480" x2="679" y1="247.8008" y2="247.8008"/><text fill="#000000" font-family="sans-serif" font-size="13" font-weight="bold" lengthAdjust="spacing" textLength="7" x="487" y="242.9443">3</text><text fill="#000000" font-family="sans-serif" font-size="13" lengthAdjust="spacing" textLength="175" x="498" y="242.9443">validate(textFile,questionType)</text><path d="M700,219.2734 L700,261.2734 L813,261.2734 L813,229.2734 L803,219.2734 L700,219.2734 " fill="#FEFFDD" style="stroke:#181818;stroke-width:0.5;"/><path d="M803,219.2734 L803,229.2734 L813,229.2734 L803,219.2734 " fill="#FEFFDD" style="stroke:#181818;stroke-width:0.5;"/><text fill="#000000" font-family="sans-serif" font-size="13" lengthAdjust="spacing" textLength="92" x="706" y="237.7686">Connection with</text><text fill="#000000" font-family="sans-serif" font-size="13" lengthAdjust="spacing" textLength="41" x="706" y="254.1201">ANTLR</text><polygon fill="#181818" points="725,315.3281,735,319.3281,725,323.3281,729,319.3281" style="stroke:#181818;stroke-width:1.0;"/><line style="stroke:#181818;stroke-width:1.0;stroke-dasharray:2.0,2.0;" x1="480" x2="731" y1="319.3281" y2="319.3281"/><text fill="#000000" font-family="sans-serif" font-size="13" font-weight="bold" lengthAdjust="spacing" textLength="7" x="487" y="314.4717">4</text><text fill="#000000" font-family="sans-serif" font-size="13" lengthAdjust="spacing" textLength="44" x="498" y="314.4717">create()</text><rect fill="#E2E2F0" height="31.6094" rx="2.5" ry="2.5" style="stroke:#181818;stroke-width:0.5;" width="162" x="737" y="296.9766"/><text fill="#000000" font-family="sans-serif" font-size="14" lengthAdjust="spacing" textLength="148" x="744" y="318.5098">builder:QuestionBuilder</text><polygon fill="#181818" points="801,357.9375,811,361.9375,801,365.9375,805,361.9375" style="stroke:#181818;stroke-width:1.0;"/><line style="stroke:#181818;stroke-width:1.0;" x1="480" x2="807" y1="361.9375" y2="361.9375"/><text fill="#000000" font-family="sans-serif" font-size="13" font-weight="bold" lengthAdjust="spacing" textLength="7" x="487" y="357.0811">5</text><text fill="#000000" font-family="sans-serif" font-size="13" lengthAdjust="spacing" textLength="51" x="498" y="357.0811">withId(id)</text><polygon fill="#181818" points="801,418.2891,811,422.2891,801,426.2891,805,422.2891" style="stroke:#181818;stroke-width:1.0;"/><line style="stroke:#181818;stroke-width:1.0;" x1="480" x2="807" y1="422.2891" y2="422.2891"/><text fill="#000000" font-family="sans-serif" font-size="13" font-weight="bold" lengthAdjust="spacing" textLength="7" x="487" y="417.4326">6</text><text fill="#000000" font-family="sans-serif" font-size="13" lengthAdjust="spacing" textLength="78" x="498" y="417.4326">withText(text)</text><polygon fill="#181818" points="801,478.6406,811,482.6406,801,486.6406,805,482.6406" style="stroke:#181818;stroke-width:1.0;"/><line style="stroke:#181818;stroke-width:1.0;" x1="480" x2="807" y1="482.6406" y2="482.6406"/><text fill="#000000" font-family="sans-serif" font-size="13" font-weight="bold" lengthAdjust="spacing" textLength="7" x="487" y="477.7842">7</text><text fill="#000000" font-family="sans-serif" font-size="13" lengthAdjust="spacing" textLength="165" x="498" y="477.7842">withInstructions(instructions)</text><polygon fill="#181818" points="801,538.9922,811,542.9922,801,546.9922,805,542.9922" style="stroke:#181818;stroke-width:1.0;"/><line style="stroke:#181818;stroke-width:1.0;" x1="480" x2="807" y1="542.9922" y2="542.9922"/><text fill="#000000" font-family="sans-serif" font-size="13" font-weight="bold" lengthAdjust="spacing" textLength="7" x="487" y="538.1357">8</text><text fill="#000000" font-family="sans-serif" font-size="13" lengthAdjust="spacing" textLength="194" x="498" y="538.1357">withObligatoriness(obligatoriness)</text><polygon fill="#181818" points="801,599.3438,811,603.3438,801,607.3438,805,603.3438" style="stroke:#181818;stroke-width:1.0;"/><line style="stroke:#181818;stroke-width:1.0;" x1="480" x2="807" y1="603.3438" y2="603.3438"/><text fill="#000000" font-family="sans-serif" font-size="13" font-weight="bold" lengthAdjust="spacing" textLength="7" x="487" y="598.4873">9</text><text fill="#000000" font-family="sans-serif" font-size="13" lengthAdjust="spacing" textLength="71" x="498" y="598.4873">withInfo(info)</text><polygon fill="#181818" points="801,659.6953,811,663.6953,801,667.6953,805,663.6953" style="stroke:#181818;stroke-width:1.0;"/><line style="stroke:#181818;stroke-width:1.0;" x1="480" x2="807" y1="663.6953" y2="663.6953"/><text fill="#000000" font-family="sans-serif" font-size="13" font-weight="bold" lengthAdjust="spacing" textLength="14" x="487" y="658.8389">10</text><text fill="#000000" font-family="sans-serif" font-size="13" lengthAdjust="spacing" textLength="84" x="505" y="658.8389">withType(type)</text><polygon fill="#181818" points="801,720.0469,811,724.0469,801,728.0469,805,724.0469" style="stroke:#181818;stroke-width:1.0;"/><line style="stroke:#181818;stroke-width:1.0;" x1="480" x2="807" y1="724.0469" y2="724.0469"/><text fill="#000000" font-family="sans-serif" font-size="13" font-weight="bold" lengthAdjust="spacing" textLength="14" x="487" y="719.1904">11</text><text fill="#000000" font-family="sans-serif" font-size="13" lengthAdjust="spacing" textLength="35" x="505" y="719.1904">build()</text><polygon fill="#181818" points="909,750.3984,919,754.3984,909,758.3984,913,754.3984" style="stroke:#181818;stroke-width:1.0;"/><line style="stroke:#181818;stroke-width:1.0;stroke-dasharray:2.0,2.0;" x1="823" x2="915" y1="754.3984" y2="754.3984"/><text fill="#000000" font-family="sans-serif" font-size="13" font-weight="bold" lengthAdjust="spacing" textLength="14" x="830" y="749.542">12</text><text fill="#000000" font-family="sans-serif" font-size="13" lengthAdjust="spacing" textLength="56" x="848" y="749.542">create(...)</text><rect fill="#E2E2F0" height="31.6094" rx="2.5" ry="2.5" style="stroke:#181818;stroke-width:0.5;" width="129" x="921" y="732.0469"/><text fill="#000000" font-family="sans-serif" font-size="14" lengthAdjust="spacing" textLength="115" x="928" y="753.5801">question:Question</text><polygon fill="#181818" points="834,793.0078,824,797.0078,834,801.0078,830,797.0078" style="stroke:#181818;stroke-width:1.0;"/><line style="stroke:#181818;stroke-width:1.0;stroke-dasharray:2.0,2.0;" x1="828" x2="984.5" y1="797.0078" y2="797.0078"/><text fill="#000000" font-family="sans-serif" font-size="13" font-weight="bold" lengthAdjust="spacing" textLength="14" x="840" y="792.1514">13</text><text fill="#000000" font-family="sans-serif" font-size="13" lengthAdjust="spacing" textLength="49" x="858" y="792.1514">question</text><polygon fill="#181818" points="491,823.3594,481,827.3594,491,831.3594,487,827.3594" style="stroke:#181818;stroke-width:1.0;"/><line style="stroke:#181818;stroke-width:1.0;stroke-dasharray:2.0,2.0;" x1="485" x2="817" y1="827.3594" y2="827.3594"/><text fill="#000000" font-family="sans-serif" font-size="13" font-weight="bold" lengthAdjust="spacing" textLength="14" x="497" y="822.5029">14</text><text fill="#000000" font-family="sans-serif" font-size="13" lengthAdjust="spacing" textLength="49" x="515" y="822.5029">question</text><polygon fill="#181818" points="1112.5,853.7109,1122.5,857.7109,1112.5,861.7109,1116.5,857.7109" style="stroke:#181818;stroke-width:1.0;"/><line style="stroke:#181818;stroke-width:1.0;" x1="480" x2="1118.5" y1="857.7109" y2="857.7109"/><text fill="#000000" font-family="sans-serif" font-size="13" font-weight="bold" lengthAdjust="spacing" textLength="14" x="487" y="852.8545">15</text><text fill="#000000" font-family="sans-serif" font-size="13" lengthAdjust="spacing" textLength="78" x="505" y="852.8545">add(question)</text><polygon fill="#181818" points="1253.5,914.0625,1263.5,918.0625,1253.5,922.0625,1257.5,918.0625" style="stroke:#181818;stroke-width:1.0;"/><line style="stroke:#181818;stroke-width:1.0;" x1="480" x2="1259.5" y1="918.0625" y2="918.0625"/><text fill="#000000" font-family="sans-serif" font-size="13" font-weight="bold" lengthAdjust="spacing" textLength="14" x="487" y="913.2061">16</text><text fill="#000000" font-family="sans-serif" font-size="13" lengthAdjust="spacing" textLength="94" x="505" y="913.2061">toDTO(question)</text><polygon fill="#181818" points="1361.5,944.4141,1371.5,948.4141,1361.5,952.4141,1365.5,948.4141" style="stroke:#181818;stroke-width:1.0;"/><line style="stroke:#181818;stroke-width:1.0;stroke-dasharray:2.0,2.0;" x1="1275.5" x2="1367.5" y1="948.4141" y2="948.4141"/><text fill="#000000" font-family="sans-serif" font-size="13" font-weight="bold" lengthAdjust="spacing" textLength="14" x="1282.5" y="943.5576">17</text><text fill="#000000" font-family="sans-serif" font-size="13" lengthAdjust="spacing" textLength="56" x="1300.5" y="943.5576">create(...)</text><rect fill="#E2E2F0" height="31.6094" rx="2.5" ry="2.5" style="stroke:#181818;stroke-width:0.5;" width="125" x="1373.5" y="926.0625"/><text fill="#000000" font-family="sans-serif" font-size="14" lengthAdjust="spacing" textLength="111" x="1380.5" y="947.5957">dto:QuestionDTO</text><polygon fill="#181818" points="1286.5,987.0234,1276.5,991.0234,1286.5,995.0234,1282.5,991.0234" style="stroke:#181818;stroke-width:1.0;"/><line style="stroke:#181818;stroke-width:1.0;stroke-dasharray:2.0,2.0;" x1="1280.5" x2="1435" y1="991.0234" y2="991.0234"/><text fill="#000000" font-family="sans-serif" font-size="13" font-weight="bold" lengthAdjust="spacing" textLength="14" x="1292.5" y="986.167">18</text><text fill="#000000" font-family="sans-serif" font-size="13" lengthAdjust="spacing" textLength="18" x="1310.5" y="986.167">dto</text><polygon fill="#181818" points="491,1017.375,481,1021.375,491,1025.375,487,1021.375" style="stroke:#181818;stroke-width:1.0;"/><line style="stroke:#181818;stroke-width:1.0;stroke-dasharray:2.0,2.0;" x1="485" x2="1269.5" y1="1021.375" y2="1021.375"/><text fill="#000000" font-family="sans-serif" font-size="13" font-weight="bold" lengthAdjust="spacing" textLength="14" x="497" y="1016.5186">19</text><text fill="#000000" font-family="sans-serif" font-size="13" lengthAdjust="spacing" textLength="18" x="515" y="1016.5186">dto</text><polygon fill="#181818" points="296.5,1047.7266,286.5,1051.7266,296.5,1055.7266,292.5,1051.7266" style="stroke:#181818;stroke-width:1.0;"/><line style="stroke:#181818;stroke-width:1.0;stroke-dasharray:2.0,2.0;" x1="290.5" x2="474" y1="1051.7266" y2="1051.7266"/><text fill="#000000" font-family="sans-serif" font-size="13" font-weight="bold" lengthAdjust="spacing" textLength="14" x="302.5" y="1046.8701">20</text><text fill="#000000" font-family="sans-serif" font-size="13" lengthAdjust="spacing" textLength="18" x="320.5" y="1046.8701">dto</text><polygon fill="#181818" points="1419,1078.0781,1429,1082.0781,1419,1086.0781,1423,1082.0781" style="stroke:#181818;stroke-width:1.0;"/><line style="stroke:#181818;stroke-width:1.0;" x1="285.5" x2="1425" y1="1082.0781" y2="1082.0781"/><text fill="#000000" font-family="sans-serif" font-size="13" font-weight="bold" lengthAdjust="spacing" textLength="14" x="292.5" y="1077.2217">21</text><text fill="#000000" font-family="sans-serif" font-size="13" lengthAdjust="spacing" textLength="45" x="310.5" y="1077.2217">toString</text><polygon fill="#181818" points="72.5,1138.4297,62.5,1142.4297,72.5,1146.4297,68.5,1142.4297" style="stroke:#181818;stroke-width:1.0;"/><line style="stroke:#181818;stroke-width:1.0;stroke-dasharray:2.0,2.0;" x1="66.5" x2="279.5" y1="1142.4297" y2="1142.4297"/><text fill="#000000" font-family="sans-serif" font-size="13" font-weight="bold" lengthAdjust="spacing" textLength="14" x="78.5" y="1137.5732">22</text><text fill="#000000" font-family="sans-serif" font-size="13" lengthAdjust="spacing" textLength="149" x="96.5" y="1137.5732">inform operation success.</text><!--MD5=[3ccb266afc0963ae7d84c7a01c6abc4b]
@startuml
title US3001 - Sequence Diagram 1 (Question)

autonumber

actor "Sales Manages" as manager

activate manager

    manager -> ":CreateQuestionUI" as ui:wants to create a new question.
    activate ui
        note right: (Data requests to Manager\n omitted)
        ui -> "controller:CreateQuestionController" as controller: createQuestion(...)
        activate controller

            controller - -> ":Validator":validate(textFile,questionType)
            activate ":Validator"
             note right: Connection with\nANTLR
            deactivate ":Validator"

            controller - -> "builder:QuestionBuilder" as builder**:create()
            controller -> builder:withId(id)
            activate builder
            deactivate builder

            controller -> builder:withText(text)
            activate builder
            deactivate builder

            controller -> builder:withInstructions(instructions)
            activate builder
            deactivate builder

            controller -> builder:withObligatoriness(obligatoriness)
            activate builder
            deactivate builder

            controller -> builder:withInfo(info)
            activate builder
            deactivate builder

            controller -> builder:withType(type)
            activate builder
            deactivate builder

            controller -> builder:build()
            activate builder
                builder - -> "question:Question" as question**:create(...)
                activate question
                question - -> builder : question
                deactivate question
               builder- ->controller: question
            deactivate builder

            controller -> "repo:JPARepository" as repo: add(question)
            activate repo
            deactivate repo


            controller -> ":QuestionMapper" as mapper:toDTO(question)
            activate mapper
                mapper - -> "dto:QuestionDTO" as dto**: create(...)
                activate dto
                    dto- -> mapper:dto
                deactivate dto
                mapper - -> controller:dto
            deactivate mapper
            controller - -> ui:dto
        deactivate controller
        ui -> dto: toString
        activate dto
        deactivate dto
        ui - -> manager: inform operation success.
    deactivate ui
@enduml

PlantUML version 1.2022.4(Sat Apr 09 14:29:17 BST 2022)
(GPL source distribution)
Java Runtime: OpenJDK Runtime Environment
JVM: OpenJDK 64-Bit Server VM
Default Encoding: Cp1252
Language: pt
Country: PT
--></g></svg>