<?xml version="1.0" encoding="UTF-8" standalone="no"?><svg xmlns="http://www.w3.org/2000/svg" xmlns:xlink="http://www.w3.org/1999/xlink" contentStyleType="text/css" height="1159px" preserveAspectRatio="none" style="width:1344px;height:1159px;background:#FFFFFF;" version="1.1" viewBox="0 0 1344 1159" width="1344px" zoomAndPan="magnify"><defs/><g><rect height="27.6094" style="stroke:#00000000;stroke-width:1.0;fill:none;" width="285" x="528.75" y="10"/><text fill="#000000" font-family="sans-serif" font-size="14" font-weight="bold" lengthAdjust="spacing" textLength="275" x="533.75" y="29.5332">US3001 - Sequence Diagram 2 (Section)</text><rect fill="#FFFFFF" height="937.5078" style="stroke:#181818;stroke-width:1.0;" width="10" x="51.5" y="131.2188"/><rect fill="#FFFFFF" height="894.9805" style="stroke:#181818;stroke-width:1.0;" width="10" x="268.5" y="164.7461"/><rect fill="#FFFFFF" height="762.75" style="stroke:#181818;stroke-width:1.0;" width="10" x="453" y="206.2734"/><rect fill="#FFFFFF" height="30" style="stroke:#181818;stroke-width:1.0;" width="10" x="687" y="279.2344"/><rect fill="#FFFFFF" height="30" style="stroke:#181818;stroke-width:1.0;" width="10" x="687" y="339.5859"/><rect fill="#FFFFFF" height="30" style="stroke:#181818;stroke-width:1.0;" width="10" x="687" y="399.9375"/><rect fill="#FFFFFF" height="30" style="stroke:#181818;stroke-width:1.0;" width="10" x="687" y="460.2891"/><rect fill="#FFFFFF" height="30" style="stroke:#181818;stroke-width:1.0;" width="10" x="687" y="520.6406"/><rect fill="#FFFFFF" height="30" style="stroke:#181818;stroke-width:1.0;" width="10" x="687" y="580.9922"/><rect fill="#FFFFFF" height="103.3125" style="stroke:#181818;stroke-width:1.0;" width="10" x="687" y="641.3438"/><rect fill="#FFFFFF" height="32.6094" style="stroke:#181818;stroke-width:1.0;" width="10" x="845" y="681.6953"/><rect fill="#FFFFFF" height="30" style="stroke:#181818;stroke-width:1.0;" width="10" x="979.5" y="775.0078"/><rect fill="#FFFFFF" height="103.3125" style="stroke:#181818;stroke-width:1.0;" width="10" x="1115.5" y="835.3594"/><rect fill="#FFFFFF" height="32.6094" style="stroke:#181818;stroke-width:1.0;" width="10" x="1276" y="875.7109"/><rect fill="#FFFFFF" height="30" style="stroke:#181818;stroke-width:1.0;" width="10" x="1276" y="999.375"/><line style="stroke:#181818;stroke-width:0.5;stroke-dasharray:5.0,5.0;" x1="56" x2="56" y1="121.2188" y2="1077.7266"/><line style="stroke:#181818;stroke-width:0.5;stroke-dasharray:5.0,5.0;" x1="273.5" x2="273.5" y1="121.2188" y2="1077.7266"/><line style="stroke:#181818;stroke-width:0.5;stroke-dasharray:5.0,5.0;" x1="457.5" x2="457.5" y1="121.2188" y2="1077.7266"/><line style="stroke:#181818;stroke-width:0.5;stroke-dasharray:5.0,5.0;" x1="692" x2="692" y1="245.5781" y2="1077.7266"/><line style="stroke:#181818;stroke-width:0.5;stroke-dasharray:5.0,5.0;" x1="850" x2="850" y1="680.6484" y2="1077.7266"/><line style="stroke:#181818;stroke-width:0.5;stroke-dasharray:5.0,5.0;" x1="984" x2="984" y1="121.2188" y2="1077.7266"/><line style="stroke:#181818;stroke-width:0.5;stroke-dasharray:5.0,5.0;" x1="1120" x2="1120" y1="121.2188" y2="1077.7266"/><line style="stroke:#181818;stroke-width:0.5;stroke-dasharray:5.0,5.0;" x1="1280.5" x2="1280.5" y1="874.6641" y2="1077.7266"/><text fill="#000000" font-family="sans-serif" font-size="14" lengthAdjust="spacing" textLength="97" x="5" y="118.1426">Sales Manages</text><ellipse cx="56.5" cy="52.1094" fill="#E2E2F0" rx="8" ry="8" style="stroke:#181818;stroke-width:0.5;"/><path d="M56.5,60.1094 L56.5,87.1094 M43.5,68.1094 L69.5,68.1094 M56.5,87.1094 L43.5,102.1094 M56.5,87.1094 L69.5,102.1094 " fill="none" style="stroke:#181818;stroke-width:0.5;"/><text fill="#000000" font-family="sans-serif" font-size="14" lengthAdjust="spacing" textLength="97" x="5" y="1091.2598">Sales Manages</text><ellipse cx="56.5" cy="1102.8359" fill="#E2E2F0" rx="8" ry="8" style="stroke:#181818;stroke-width:0.5;"/><path d="M56.5,1110.8359 L56.5,1137.8359 M43.5,1118.8359 L69.5,1118.8359 M56.5,1137.8359 L43.5,1152.8359 M56.5,1137.8359 L69.5,1152.8359 " fill="none" style="stroke:#181818;stroke-width:0.5;"/><rect fill="#E2E2F0" height="31.6094" rx="2.5" ry="2.5" style="stroke:#181818;stroke-width:0.5;" width="120" x="213.5" y="88.6094"/><text fill="#000000" font-family="sans-serif" font-size="14" lengthAdjust="spacing" textLength="106" x="220.5" y="110.1426">:CreateSectionUI</text><rect fill="#E2E2F0" height="31.6094" rx="2.5" ry="2.5" style="stroke:#181818;stroke-width:0.5;" width="120" x="213.5" y="1076.7266"/><text fill="#000000" font-family="sans-serif" font-size="14" lengthAdjust="spacing" textLength="106" x="220.5" y="1098.2598">:CreateSectionUI</text><rect fill="#E2E2F0" height="31.6094" rx="2.5" ry="2.5" style="stroke:#181818;stroke-width:0.5;" width="229" x="343.5" y="88.6094"/><text fill="#000000" font-family="sans-serif" font-size="14" lengthAdjust="spacing" textLength="215" x="350.5" y="110.1426">controller:CreateSectionController</text><rect fill="#E2E2F0" height="31.6094" rx="2.5" ry="2.5" style="stroke:#181818;stroke-width:0.5;" width="229" x="343.5" y="1076.7266"/><text fill="#000000" font-family="sans-serif" font-size="14" lengthAdjust="spacing" textLength="215" x="350.5" y="1098.2598">controller:CreateSectionController</text><rect fill="#E2E2F0" height="31.6094" rx="2.5" ry="2.5" style="stroke:#181818;stroke-width:0.5;" width="152" x="616" y="1076.7266"/><text fill="#000000" font-family="sans-serif" font-size="14" lengthAdjust="spacing" textLength="138" x="623" y="1098.2598">builder:SectionBuilder</text><rect fill="#E2E2F0" height="31.6094" rx="2.5" ry="2.5" style="stroke:#181818;stroke-width:0.5;" width="110" x="795" y="1076.7266"/><text fill="#000000" font-family="sans-serif" font-size="14" lengthAdjust="spacing" textLength="96" x="802" y="1098.2598">section:Section</text><rect fill="#E2E2F0" height="31.6094" rx="2.5" ry="2.5" style="stroke:#181818;stroke-width:0.5;" width="139" x="915" y="88.6094"/><text fill="#000000" font-family="sans-serif" font-size="14" lengthAdjust="spacing" textLength="125" x="922" y="110.1426">repo:JPARepository</text><rect fill="#E2E2F0" height="31.6094" rx="2.5" ry="2.5" style="stroke:#181818;stroke-width:0.5;" width="139" x="915" y="1076.7266"/><text fill="#000000" font-family="sans-serif" font-size="14" lengthAdjust="spacing" textLength="125" x="922" y="1098.2598">repo:JPARepository</text><rect fill="#E2E2F0" height="31.6094" rx="2.5" ry="2.5" style="stroke:#181818;stroke-width:0.5;" width="113" x="1064" y="88.6094"/><text fill="#000000" font-family="sans-serif" font-size="14" lengthAdjust="spacing" textLength="99" x="1071" y="110.1426">:SectionMapper</text><rect fill="#E2E2F0" height="31.6094" rx="2.5" ry="2.5" style="stroke:#181818;stroke-width:0.5;" width="113" x="1064" y="1076.7266"/><text fill="#000000" font-family="sans-serif" font-size="14" lengthAdjust="spacing" textLength="99" x="1071" y="1098.2598">:SectionMapper</text><rect fill="#E2E2F0" height="31.6094" rx="2.5" ry="2.5" style="stroke:#181818;stroke-width:0.5;" width="115" x="1223.5" y="1076.7266"/><text fill="#000000" font-family="sans-serif" font-size="14" lengthAdjust="spacing" textLength="101" x="1230.5" y="1098.2598">dto:SectionDTO</text><rect fill="#FFFFFF" height="937.5078" style="stroke:#181818;stroke-width:1.0;" width="10" x="51.5" y="131.2188"/><rect fill="#FFFFFF" height="894.9805" style="stroke:#181818;stroke-width:1.0;" width="10" x="268.5" y="164.7461"/><rect fill="#FFFFFF" height="762.75" style="stroke:#181818;stroke-width:1.0;" width="10" x="453" y="206.2734"/><rect fill="#FFFFFF" height="30" style="stroke:#181818;stroke-width:1.0;" width="10" x="687" y="279.2344"/><rect fill="#FFFFFF" height="30" style="stroke:#181818;stroke-width:1.0;" width="10" x="687" y="339.5859"/><rect fill="#FFFFFF" height="30" style="stroke:#181818;stroke-width:1.0;" width="10" x="687" y="399.9375"/><rect fill="#FFFFFF" height="30" style="stroke:#181818;stroke-width:1.0;" width="10" x="687" y="460.2891"/><rect fill="#FFFFFF" height="30" style="stroke:#181818;stroke-width:1.0;" width="10" x="687" y="520.6406"/><rect fill="#FFFFFF" height="30" style="stroke:#181818;stroke-width:1.0;" width="10" x="687" y="580.9922"/><rect fill="#FFFFFF" height="103.3125" style="stroke:#181818;stroke-width:1.0;" width="10" x="687" y="641.3438"/><rect fill="#FFFFFF" height="32.6094" style="stroke:#181818;stroke-width:1.0;" width="10" x="845" y="681.6953"/><rect fill="#FFFFFF" height="30" style="stroke:#181818;stroke-width:1.0;" width="10" x="979.5" y="775.0078"/><rect fill="#FFFFFF" height="103.3125" style="stroke:#181818;stroke-width:1.0;" width="10" x="1115.5" y="835.3594"/><rect fill="#FFFFFF" height="32.6094" style="stroke:#181818;stroke-width:1.0;" width="10" x="1276" y="875.7109"/><rect fill="#FFFFFF" height="30" style="stroke:#181818;stroke-width:1.0;" width="10" x="1276" y="999.375"/><polygon fill="#181818" points="256.5,160.7461,266.5,164.7461,256.5,168.7461,260.5,164.7461" style="stroke:#181818;stroke-width:1.0;"/><line style="stroke:#181818;stroke-width:1.0;" x1="61.5" x2="262.5" y1="164.7461" y2="164.7461"/><text fill="#000000" font-family="sans-serif" font-size="13" font-weight="bold" lengthAdjust="spacing" textLength="7" x="68.5" y="159.8896">1</text><text fill="#000000" font-family="sans-serif" font-size="13" lengthAdjust="spacing" textLength="177" x="79.5" y="159.8896">wants to create a new section.</text><path d="M283,136.2188 L283,178.2188 L458,178.2188 L458,146.2188 L448,136.2188 L283,136.2188 " fill="#FEFFDD" style="stroke:#181818;stroke-width:0.5;"/><path d="M448,136.2188 L448,146.2188 L458,146.2188 L448,136.2188 " fill="#FEFFDD" style="stroke:#181818;stroke-width:0.5;"/><text fill="#000000" font-family="sans-serif" font-size="13" lengthAdjust="spacing" textLength="154" x="289" y="154.7139">(Data requests to Manager</text><text fill="#000000" font-family="sans-serif" font-size="13" lengthAdjust="spacing" textLength="47" x="293" y="171.0654">omitted)</text><polygon fill="#181818" points="441,202.2734,451,206.2734,441,210.2734,445,206.2734" style="stroke:#181818;stroke-width:1.0;"/><line style="stroke:#181818;stroke-width:1.0;" x1="278.5" x2="447" y1="206.2734" y2="206.2734"/><text fill="#000000" font-family="sans-serif" font-size="13" font-weight="bold" lengthAdjust="spacing" textLength="7" x="285.5" y="201.417">2</text><text fill="#000000" font-family="sans-serif" font-size="13" lengthAdjust="spacing" textLength="88" x="296.5" y="201.417">createSection()</text><polygon fill="#181818" points="604,232.625,614,236.625,604,240.625,608,236.625" style="stroke:#181818;stroke-width:1.0;"/><line style="stroke:#181818;stroke-width:1.0;stroke-dasharray:2.0,2.0;" x1="463" x2="610" y1="236.625" y2="236.625"/><text fill="#000000" font-family="sans-serif" font-size="13" font-weight="bold" lengthAdjust="spacing" textLength="7" x="470" y="231.7686">3</text><text fill="#000000" font-family="sans-serif" font-size="13" lengthAdjust="spacing" textLength="44" x="481" y="231.7686">create()</text><rect fill="#E2E2F0" height="31.6094" rx="2.5" ry="2.5" style="stroke:#181818;stroke-width:0.5;" width="152" x="616" y="214.2734"/><text fill="#000000" font-family="sans-serif" font-size="14" lengthAdjust="spacing" textLength="138" x="623" y="235.8066">builder:SectionBuilder</text><polygon fill="#181818" points="675,275.2344,685,279.2344,675,283.2344,679,279.2344" style="stroke:#181818;stroke-width:1.0;"/><line style="stroke:#181818;stroke-width:1.0;" x1="463" x2="681" y1="279.2344" y2="279.2344"/><text fill="#000000" font-family="sans-serif" font-size="13" font-weight="bold" lengthAdjust="spacing" textLength="7" x="470" y="274.3779">4</text><text fill="#000000" font-family="sans-serif" font-size="13" lengthAdjust="spacing" textLength="51" x="481" y="274.3779">withId(id)</text><polygon fill="#181818" points="675,335.5859,685,339.5859,675,343.5859,679,339.5859" style="stroke:#181818;stroke-width:1.0;"/><line style="stroke:#181818;stroke-width:1.0;" x1="463" x2="681" y1="339.5859" y2="339.5859"/><text fill="#000000" font-family="sans-serif" font-size="13" font-weight="bold" lengthAdjust="spacing" textLength="7" x="470" y="334.7295">5</text><text fill="#000000" font-family="sans-serif" font-size="13" lengthAdjust="spacing" textLength="76" x="481" y="334.7295">withTitle(title)</text><polygon fill="#181818" points="675,395.9375,685,399.9375,675,403.9375,679,399.9375" style="stroke:#181818;stroke-width:1.0;"/><line style="stroke:#181818;stroke-width:1.0;" x1="463" x2="681" y1="399.9375" y2="399.9375"/><text fill="#000000" font-family="sans-serif" font-size="13" font-weight="bold" lengthAdjust="spacing" textLength="7" x="470" y="395.0811">6</text><text fill="#000000" font-family="sans-serif" font-size="13" lengthAdjust="spacing" textLength="159" x="481" y="395.0811">withDescription(description)</text><polygon fill="#181818" points="675,456.2891,685,460.2891,675,464.2891,679,460.2891" style="stroke:#181818;stroke-width:1.0;"/><line style="stroke:#181818;stroke-width:1.0;" x1="463" x2="681" y1="460.2891" y2="460.2891"/><text fill="#000000" font-family="sans-serif" font-size="13" font-weight="bold" lengthAdjust="spacing" textLength="7" x="470" y="455.4326">7</text><text fill="#000000" font-family="sans-serif" font-size="13" lengthAdjust="spacing" textLength="176" x="481" y="455.4326">withRepeatability(repeatability)</text><polygon fill="#181818" points="675,516.6406,685,520.6406,675,524.6406,679,520.6406" style="stroke:#181818;stroke-width:1.0;"/><line style="stroke:#181818;stroke-width:1.0;" x1="463" x2="681" y1="520.6406" y2="520.6406"/><text fill="#000000" font-family="sans-serif" font-size="13" font-weight="bold" lengthAdjust="spacing" textLength="7" x="470" y="515.7842">8</text><text fill="#000000" font-family="sans-serif" font-size="13" lengthAdjust="spacing" textLength="146" x="481" y="515.7842">withQuestions(questions)</text><polygon fill="#181818" points="675,576.9922,685,580.9922,675,584.9922,679,580.9922" style="stroke:#181818;stroke-width:1.0;"/><line style="stroke:#181818;stroke-width:1.0;" x1="463" x2="681" y1="580.9922" y2="580.9922"/><text fill="#000000" font-family="sans-serif" font-size="13" font-weight="bold" lengthAdjust="spacing" textLength="7" x="470" y="576.1357">9</text><text fill="#000000" font-family="sans-serif" font-size="13" lengthAdjust="spacing" textLength="194" x="481" y="576.1357">withObligatoriness(obligatoriness)</text><polygon fill="#181818" points="675,637.3438,685,641.3438,675,645.3438,679,641.3438" style="stroke:#181818;stroke-width:1.0;"/><line style="stroke:#181818;stroke-width:1.0;" x1="463" x2="681" y1="641.3438" y2="641.3438"/><text fill="#000000" font-family="sans-serif" font-size="13" font-weight="bold" lengthAdjust="spacing" textLength="14" x="470" y="636.4873">10</text><text fill="#000000" font-family="sans-serif" font-size="13" lengthAdjust="spacing" textLength="35" x="488" y="636.4873">build()</text><polygon fill="#181818" points="783,667.6953,793,671.6953,783,675.6953,787,671.6953" style="stroke:#181818;stroke-width:1.0;"/><line style="stroke:#181818;stroke-width:1.0;stroke-dasharray:2.0,2.0;" x1="697" x2="789" y1="671.6953" y2="671.6953"/><text fill="#000000" font-family="sans-serif" font-size="13" font-weight="bold" lengthAdjust="spacing" textLength="14" x="704" y="666.8389">11</text><text fill="#000000" font-family="sans-serif" font-size="13" lengthAdjust="spacing" textLength="56" x="722" y="666.8389">create(...)</text><rect fill="#E2E2F0" height="31.6094" rx="2.5" ry="2.5" style="stroke:#181818;stroke-width:0.5;" width="110" x="795" y="649.3438"/><text fill="#000000" font-family="sans-serif" font-size="14" lengthAdjust="spacing" textLength="96" x="802" y="670.877">section:Section</text><polygon fill="#181818" points="708,710.3047,698,714.3047,708,718.3047,704,714.3047" style="stroke:#181818;stroke-width:1.0;"/><line style="stroke:#181818;stroke-width:1.0;stroke-dasharray:2.0,2.0;" x1="702" x2="849" y1="714.3047" y2="714.3047"/><text fill="#000000" font-family="sans-serif" font-size="13" font-weight="bold" lengthAdjust="spacing" textLength="14" x="714" y="709.4482">12</text><text fill="#000000" font-family="sans-serif" font-size="13" lengthAdjust="spacing" textLength="49" x="732" y="709.4482">sections</text><polygon fill="#181818" points="474,740.6563,464,744.6563,474,748.6563,470,744.6563" style="stroke:#181818;stroke-width:1.0;"/><line style="stroke:#181818;stroke-width:1.0;stroke-dasharray:2.0,2.0;" x1="468" x2="691" y1="744.6563" y2="744.6563"/><text fill="#000000" font-family="sans-serif" font-size="13" font-weight="bold" lengthAdjust="spacing" textLength="14" x="480" y="739.7998">13</text><text fill="#000000" font-family="sans-serif" font-size="13" lengthAdjust="spacing" textLength="49" x="498" y="739.7998">sections</text><polygon fill="#181818" points="967.5,771.0078,977.5,775.0078,967.5,779.0078,971.5,775.0078" style="stroke:#181818;stroke-width:1.0;"/><line style="stroke:#181818;stroke-width:1.0;" x1="463" x2="973.5" y1="775.0078" y2="775.0078"/><text fill="#000000" font-family="sans-serif" font-size="13" font-weight="bold" lengthAdjust="spacing" textLength="14" x="470" y="770.1514">14</text><text fill="#000000" font-family="sans-serif" font-size="13" lengthAdjust="spacing" textLength="71" x="488" y="770.1514">add(section)</text><polygon fill="#181818" points="1103.5,831.3594,1113.5,835.3594,1103.5,839.3594,1107.5,835.3594" style="stroke:#181818;stroke-width:1.0;"/><line style="stroke:#181818;stroke-width:1.0;" x1="463" x2="1109.5" y1="835.3594" y2="835.3594"/><text fill="#000000" font-family="sans-serif" font-size="13" font-weight="bold" lengthAdjust="spacing" textLength="14" x="470" y="830.5029">15</text><text fill="#000000" font-family="sans-serif" font-size="13" lengthAdjust="spacing" textLength="87" x="488" y="830.5029">toDTO(section)</text><polygon fill="#181818" points="1211.5,861.7109,1221.5,865.7109,1211.5,869.7109,1215.5,865.7109" style="stroke:#181818;stroke-width:1.0;"/><line style="stroke:#181818;stroke-width:1.0;stroke-dasharray:2.0,2.0;" x1="1125.5" x2="1217.5" y1="865.7109" y2="865.7109"/><text fill="#000000" font-family="sans-serif" font-size="13" font-weight="bold" lengthAdjust="spacing" textLength="14" x="1132.5" y="860.8545">16</text><text fill="#000000" font-family="sans-serif" font-size="13" lengthAdjust="spacing" textLength="56" x="1150.5" y="860.8545">create(...)</text><rect fill="#E2E2F0" height="31.6094" rx="2.5" ry="2.5" style="stroke:#181818;stroke-width:0.5;" width="115" x="1223.5" y="843.3594"/><text fill="#000000" font-family="sans-serif" font-size="14" lengthAdjust="spacing" textLength="101" x="1230.5" y="864.8926">dto:SectionDTO</text><polygon fill="#181818" points="1136.5,904.3203,1126.5,908.3203,1136.5,912.3203,1132.5,908.3203" style="stroke:#181818;stroke-width:1.0;"/><line style="stroke:#181818;stroke-width:1.0;stroke-dasharray:2.0,2.0;" x1="1130.5" x2="1280" y1="908.3203" y2="908.3203"/><text fill="#000000" font-family="sans-serif" font-size="13" font-weight="bold" lengthAdjust="spacing" textLength="14" x="1142.5" y="903.4639">17</text><text fill="#000000" font-family="sans-serif" font-size="13" lengthAdjust="spacing" textLength="18" x="1160.5" y="903.4639">dto</text><polygon fill="#181818" points="474,934.6719,464,938.6719,474,942.6719,470,938.6719" style="stroke:#181818;stroke-width:1.0;"/><line style="stroke:#181818;stroke-width:1.0;stroke-dasharray:2.0,2.0;" x1="468" x2="1119.5" y1="938.6719" y2="938.6719"/><text fill="#000000" font-family="sans-serif" font-size="13" font-weight="bold" lengthAdjust="spacing" textLength="14" x="480" y="933.8154">18</text><text fill="#000000" font-family="sans-serif" font-size="13" lengthAdjust="spacing" textLength="18" x="498" y="933.8154">dto</text><polygon fill="#181818" points="289.5,965.0234,279.5,969.0234,289.5,973.0234,285.5,969.0234" style="stroke:#181818;stroke-width:1.0;"/><line style="stroke:#181818;stroke-width:1.0;stroke-dasharray:2.0,2.0;" x1="283.5" x2="457" y1="969.0234" y2="969.0234"/><text fill="#000000" font-family="sans-serif" font-size="13" font-weight="bold" lengthAdjust="spacing" textLength="14" x="295.5" y="964.167">19</text><text fill="#000000" font-family="sans-serif" font-size="13" lengthAdjust="spacing" textLength="18" x="313.5" y="964.167">dto</text><polygon fill="#181818" points="1264,995.375,1274,999.375,1264,1003.375,1268,999.375" style="stroke:#181818;stroke-width:1.0;"/><line style="stroke:#181818;stroke-width:1.0;" x1="278.5" x2="1270" y1="999.375" y2="999.375"/><text fill="#000000" font-family="sans-serif" font-size="13" font-weight="bold" lengthAdjust="spacing" textLength="14" x="285.5" y="994.5186">20</text><text fill="#000000" font-family="sans-serif" font-size="13" lengthAdjust="spacing" textLength="45" x="303.5" y="994.5186">toString</text><polygon fill="#181818" points="72.5,1055.7266,62.5,1059.7266,72.5,1063.7266,68.5,1059.7266" style="stroke:#181818;stroke-width:1.0;"/><line style="stroke:#181818;stroke-width:1.0;stroke-dasharray:2.0,2.0;" x1="66.5" x2="272.5" y1="1059.7266" y2="1059.7266"/><text fill="#000000" font-family="sans-serif" font-size="13" font-weight="bold" lengthAdjust="spacing" textLength="14" x="78.5" y="1054.8701">21</text><text fill="#000000" font-family="sans-serif" font-size="13" lengthAdjust="spacing" textLength="149" x="96.5" y="1054.8701">inform operation success.</text><!--MD5=[542a52ae662cac0a6cec437f1818dd01]
@startuml
title US3001 - Sequence Diagram 2 (Section)

autonumber

actor "Sales Manages" as manager

activate manager

    manager -> ":CreateSectionUI" as ui:wants to create a new section.
    activate ui
        note right: (Data requests to Manager\n omitted)
        ui -> "controller:CreateSectionController" as controller: createSection()
        activate controller

            controller - -> "builder:SectionBuilder" as builder**:create()
            controller -> builder:withId(id)
            activate builder
            deactivate builder

            controller -> builder:withTitle(title)
            activate builder
            deactivate builder

            controller -> builder:withDescription(description)
            activate builder
            deactivate builder

            controller -> builder:withRepeatability(repeatability)
            activate builder
            deactivate builder

            controller -> builder:withQuestions(questions)
            activate builder
            deactivate builder

            controller -> builder:withObligatoriness(obligatoriness)
            activate builder
            deactivate builder

            controller -> builder:build()
            activate builder
                builder - -> "section:Section" as sections**:create(...)
                activate sections
                sections - -> builder : sections
                deactivate sections
               builder- ->controller: sections
            deactivate builder

            controller -> "repo:JPARepository" as repo: add(section)
            activate repo
            deactivate repo


            controller -> ":SectionMapper" as mapper:toDTO(section)
            activate mapper
                mapper - -> "dto:SectionDTO" as dto**: create(...)
                activate dto
                    dto- -> mapper:dto
                deactivate dto
                mapper - -> controller:dto
            deactivate mapper
            controller - -> ui:dto
        deactivate controller
        ui -> dto: toString
        activate dto
        deactivate dto
        ui - -> manager: inform operation success.
    deactivate ui
@enduml

PlantUML version 1.2022.4(Sat Apr 09 14:29:17 BST 2022)
(GPL source distribution)
Java Runtime: OpenJDK Runtime Environment
JVM: OpenJDK 64-Bit Server VM
Default Encoding: Cp1252
Language: pt
Country: PT
--></g></svg>