<?xml version="1.0" encoding="UTF-8" standalone="no"?><svg xmlns="http://www.w3.org/2000/svg" xmlns:xlink="http://www.w3.org/1999/xlink" contentStyleType="text/css" height="1118px" preserveAspectRatio="none" style="width:684px;height:1118px;background:#FFFFFF;" version="1.1" viewBox="0 0 684 1118" width="684px" zoomAndPan="magnify"><defs/><g><rect height="27.6094" style="stroke:#00000000;stroke-width:1.0;fill:none;" width="252" x="209.25" y="5"/><text fill="#000000" font-family="sans-serif" font-size="14" font-weight="bold" lengthAdjust="spacing" textLength="242" x="214.25" y="24.5332">US3001 - Class Diagram 2 (Section)</text><!--MD5=[0fedf0ecbdd4081c11cf2629c008c390]
class CreateSectionUI--><g id="elem_CreateSectionUI"><rect codeLine="5" fill="#F1F1F1" height="48" id="CreateSectionUI" rx="2.5" ry="2.5" style="stroke:#181818;stroke-width:0.5;" width="134" x="172.5" y="45.6094"/><ellipse cx="187.5" cy="61.6094" fill="#ADD1B2" rx="11" ry="11" style="stroke:#181818;stroke-width:1.0;"/><path d="M189.5,58.1094 Q189.7031,57.6094 189.9375,57.3594 Q190.1719,57.1094 190.4375,57.1094 Q190.9063,57.1094 191.2031,57.3906 Q191.5,57.6719 191.5,58.3281 L191.5,59.8906 Q191.5,60.5469 191.2188,60.8281 Q190.9375,61.1094 190.5,61.1094 Q190.1094,61.1094 189.8594,60.9375 Q189.6094,60.7656 189.5,60.3125 Q189.4531,60 189.2813,59.8281 Q188.9688,59.5 188.4063,59.3125 Q187.8438,59.1094 187.2813,59.1094 Q186.5781,59.1094 185.9844,59.3906 Q185.4063,59.6719 184.9531,60.2969 Q184.5,60.9219 184.5,61.7813 L184.5,62.7031 Q184.5,63.7344 185.3438,64.4219 Q186.1875,65.1094 187.6875,65.1094 Q188.5781,65.1094 189.2031,64.9063 Q189.5625,64.7969 189.9688,64.4375 Q190.2344,64.2344 190.375,64.1719 Q190.5156,64.1094 190.6875,64.1094 Q191.0156,64.1094 191.25,64.375 Q191.5,64.625 191.5,64.9844 Q191.5,65.3281 191.1563,65.7344 Q190.6563,66.3281 189.8594,66.6563 Q188.8125,67.1094 187.5313,67.1094 Q186.0313,67.1094 184.8281,66.5156 Q183.8594,66.0469 183.1719,65.0313 Q182.5,64.0156 182.5,62.8125 L182.5,61.7188 Q182.5,60.4688 183.0938,59.375 Q183.7031,58.2813 184.75,57.7031 Q185.8125,57.1094 187,57.1094 Q187.7188,57.1094 188.3438,57.3594 Q188.9688,57.6094 189.5,58.1094 Z " fill="#000000"/><text fill="#000000" font-family="sans-serif" font-size="14" lengthAdjust="spacing" textLength="102" x="201.5" y="67.3379">CreateSectionUI</text><line style="stroke:#181818;stroke-width:0.5;" x1="173.5" x2="305.5" y1="77.6094" y2="77.6094"/><line style="stroke:#181818;stroke-width:0.5;" x1="173.5" x2="305.5" y1="85.6094" y2="85.6094"/></g><!--MD5=[8bd1b2d100e9a57bf0a7125a9f8fa533]
class CreateSectionController--><g id="elem_CreateSectionController"><rect codeLine="7" fill="#F1F1F1" height="114.4375" id="CreateSectionController" rx="2.5" ry="2.5" style="stroke:#181818;stroke-width:0.5;" width="188" x="145.5" y="154.6094"/><ellipse cx="162.3" cy="170.6094" fill="#ADD1B2" rx="11" ry="11" style="stroke:#181818;stroke-width:1.0;"/><path d="M164.3,167.1094 Q164.5031,166.6094 164.7375,166.3594 Q164.9719,166.1094 165.2375,166.1094 Q165.7063,166.1094 166.0031,166.3906 Q166.3,166.6719 166.3,167.3281 L166.3,168.8906 Q166.3,169.5469 166.0188,169.8281 Q165.7375,170.1094 165.3,170.1094 Q164.9094,170.1094 164.6594,169.9375 Q164.4094,169.7656 164.3,169.3125 Q164.2531,169 164.0813,168.8281 Q163.7688,168.5 163.2063,168.3125 Q162.6438,168.1094 162.0813,168.1094 Q161.3781,168.1094 160.7844,168.3906 Q160.2063,168.6719 159.7531,169.2969 Q159.3,169.9219 159.3,170.7813 L159.3,171.7031 Q159.3,172.7344 160.1438,173.4219 Q160.9875,174.1094 162.4875,174.1094 Q163.3781,174.1094 164.0031,173.9063 Q164.3625,173.7969 164.7688,173.4375 Q165.0344,173.2344 165.175,173.1719 Q165.3156,173.1094 165.4875,173.1094 Q165.8156,173.1094 166.05,173.375 Q166.3,173.625 166.3,173.9844 Q166.3,174.3281 165.9563,174.7344 Q165.4563,175.3281 164.6594,175.6563 Q163.6125,176.1094 162.3313,176.1094 Q160.8313,176.1094 159.6281,175.5156 Q158.6594,175.0469 157.9719,174.0313 Q157.3,173.0156 157.3,171.8125 L157.3,170.7188 Q157.3,169.4688 157.8938,168.375 Q158.5031,167.2813 159.55,166.7031 Q160.6125,166.1094 161.8,166.1094 Q162.5188,166.1094 163.1438,166.3594 Q163.7688,166.6094 164.3,167.1094 Z " fill="#000000"/><text fill="#000000" font-family="sans-serif" font-size="14" lengthAdjust="spacing" textLength="152" x="176.7" y="176.3379">CreateSectionController</text><line style="stroke:#181818;stroke-width:0.5;" x1="146.5" x2="332.5" y1="186.6094" y2="186.6094"/><ellipse cx="156.5" cy="219.2188" fill="#84BE84" rx="3" ry="3" style="stroke:#038048;stroke-width:1.0;"/><text fill="#000000" font-family="sans-serif" font-size="14" lengthAdjust="spacing" textLength="162" x="165.5" y="226.752">CreateSectionController()</text><ellipse cx="156.5" cy="236.8281" fill="#84BE84" rx="3" ry="3" style="stroke:#038048;stroke-width:1.0;"/><text fill="#000000" font-family="sans-serif" font-size="14" lengthAdjust="spacing" textLength="94" x="165.5" y="244.3613">getQuestions()</text><ellipse cx="156.5" cy="254.4375" fill="#84BE84" rx="3" ry="3" style="stroke:#038048;stroke-width:1.0;"/><text fill="#000000" font-family="sans-serif" font-size="14" lengthAdjust="spacing" textLength="109" x="165.5" y="261.9707">createSection(...)</text><line style="stroke:#181818;stroke-width:1.0;" x1="146.5" x2="212.5" y1="203.4141" y2="203.4141"/><text fill="#000000" font-family="sans-serif" font-size="14" lengthAdjust="spacing" textLength="54" x="212.5" y="208.6426">Methods</text><line style="stroke:#181818;stroke-width:1.0;" x1="266.5" x2="332.5" y1="203.4141" y2="203.4141"/></g><!--MD5=[5301509e5b784a50c1c4ce9967badd46]
class JPARepository--><g id="elem_JPARepository"><rect codeLine="14" fill="#F1F1F1" height="96.8281" id="JPARepository" rx="2.5" ry="2.5" style="stroke:#181818;stroke-width:0.5;" width="125" x="7" y="426.6094"/><ellipse cx="22" cy="442.6094" fill="#A9DCDF" rx="11" ry="11" style="stroke:#181818;stroke-width:1.0;"/><path d="M23.75,444.1094 L20.4531,444.1094 L20.0156,445.1094 L20.0156,445.1094 L20.4844,445.1094 L21,445.7344 L21,446.1094 L21,446.4844 L20.4844,447.1094 L20.0156,447.1094 L18.125,447.1094 L17.5156,447.1094 L17,446.4844 L17,446.1094 L17,445.7344 L17.5156,445.1094 L18.125,445.1094 L20.4375,439.1094 L19.5625,439.1094 L18.5156,439.1094 L18,438.4844 L18,438.1094 L18,437.7344 L18.5156,437.1094 L19.5625,437.1094 L23.2344,437.1094 L25.9219,445.1094 L26.4844,445.1094 L26.4844,445.1094 L27,445.7344 L27,446.1094 L27,446.4844 L26.4844,447.1094 L25.9219,447.1094 L24.0313,447.1094 L23.5156,447.1094 L23,446.4844 L23,446.1094 L23,445.7344 L23.5156,445.1094 L24.0313,445.1094 L24.0313,445.1094 L23.75,444.1094 Z M23.2031,442.1094 L22,438.5313 L20.9688,442.1094 L23.2031,442.1094 Z " fill="#000000"/><text fill="#000000" font-family="sans-serif" font-size="14" font-style="italic" lengthAdjust="spacing" textLength="93" x="36" y="448.3379">JPARepository</text><line style="stroke:#181818;stroke-width:0.5;" x1="8" x2="131" y1="458.6094" y2="458.6094"/><ellipse cx="18" cy="491.2188" fill="#84BE84" rx="3" ry="3" style="stroke:#038048;stroke-width:1.0;"/><text fill="#000000" font-family="sans-serif" font-size="14" lengthAdjust="spacing" textLength="68" x="27" y="498.752">add(entity)</text><ellipse cx="18" cy="508.8281" fill="#84BE84" rx="3" ry="3" style="stroke:#038048;stroke-width:1.0;"/><text fill="#000000" font-family="sans-serif" font-size="14" lengthAdjust="spacing" textLength="48" x="27" y="516.3613">findAll()</text><line style="stroke:#181818;stroke-width:1.0;" x1="8" x2="42.5" y1="475.4141" y2="475.4141"/><text fill="#000000" font-family="sans-serif" font-size="14" lengthAdjust="spacing" textLength="54" x="42.5" y="480.6426">Methods</text><line style="stroke:#181818;stroke-width:1.0;" x1="96.5" x2="131" y1="475.4141" y2="475.4141"/></g><!--MD5=[a6253355468a7bf99db95596000beb77]
class SectionMapper--><g id="elem_SectionMapper"><rect codeLine="20" fill="#F1F1F1" height="96.8281" id="SectionMapper" rx="2.5" ry="2.5" style="stroke:#181818;stroke-width:0.5;" width="145" x="167" y="426.6094"/><ellipse cx="190.1" cy="442.6094" fill="#ADD1B2" rx="11" ry="11" style="stroke:#181818;stroke-width:1.0;"/><path d="M192.1,439.1094 Q192.3031,438.6094 192.5375,438.3594 Q192.7719,438.1094 193.0375,438.1094 Q193.5063,438.1094 193.8031,438.3906 Q194.1,438.6719 194.1,439.3281 L194.1,440.8906 Q194.1,441.5469 193.8188,441.8281 Q193.5375,442.1094 193.1,442.1094 Q192.7094,442.1094 192.4594,441.9375 Q192.2094,441.7656 192.1,441.3125 Q192.0531,441 191.8813,440.8281 Q191.5688,440.5 191.0063,440.3125 Q190.4438,440.1094 189.8813,440.1094 Q189.1781,440.1094 188.5844,440.3906 Q188.0063,440.6719 187.5531,441.2969 Q187.1,441.9219 187.1,442.7813 L187.1,443.7031 Q187.1,444.7344 187.9438,445.4219 Q188.7875,446.1094 190.2875,446.1094 Q191.1781,446.1094 191.8031,445.9063 Q192.1625,445.7969 192.5688,445.4375 Q192.8344,445.2344 192.975,445.1719 Q193.1156,445.1094 193.2875,445.1094 Q193.6156,445.1094 193.85,445.375 Q194.1,445.625 194.1,445.9844 Q194.1,446.3281 193.7563,446.7344 Q193.2563,447.3281 192.4594,447.6563 Q191.4125,448.1094 190.1313,448.1094 Q188.6313,448.1094 187.4281,447.5156 Q186.4594,447.0469 185.7719,446.0313 Q185.1,445.0156 185.1,443.8125 L185.1,442.7188 Q185.1,441.4688 185.6938,440.375 Q186.3031,439.2813 187.35,438.7031 Q188.4125,438.1094 189.6,438.1094 Q190.3188,438.1094 190.9438,438.3594 Q191.5688,438.6094 192.1,439.1094 Z " fill="#000000"/><text fill="#000000" font-family="sans-serif" font-size="14" lengthAdjust="spacing" textLength="95" x="205.9" y="448.3379">SectionMapper</text><line style="stroke:#181818;stroke-width:0.5;" x1="168" x2="311" y1="458.6094" y2="458.6094"/><ellipse cx="178" cy="491.2188" fill="#84BE84" rx="3" ry="3" style="stroke:#038048;stroke-width:1.0;"/><text fill="#000000" font-family="sans-serif" font-size="14" lengthAdjust="spacing" textLength="97" x="187" y="498.752">toDTO(section)</text><ellipse cx="178" cy="508.8281" fill="#84BE84" rx="3" ry="3" style="stroke:#038048;stroke-width:1.0;"/><text fill="#000000" font-family="sans-serif" font-size="14" lengthAdjust="spacing" textLength="119" x="187" y="516.3613">toDTO(sectionList)</text><line style="stroke:#181818;stroke-width:1.0;" x1="168" x2="212.5" y1="475.4141" y2="475.4141"/><text fill="#000000" font-family="sans-serif" font-size="14" lengthAdjust="spacing" textLength="54" x="212.5" y="480.6426">Methods</text><line style="stroke:#181818;stroke-width:1.0;" x1="266.5" x2="311" y1="475.4141" y2="475.4141"/></g><!--MD5=[89835f43ccbacc82295c51dbfdfbe6e9]
class SectionDTO--><g id="elem_SectionDTO"><rect codeLine="26" fill="#F1F1F1" height="83.2188" id="SectionDTO" rx="2.5" ry="2.5" style="stroke:#181818;stroke-width:0.5;" width="109" x="61" y="732.6094"/><ellipse cx="76" cy="748.6094" fill="#ADD1B2" rx="11" ry="11" style="stroke:#181818;stroke-width:1.0;"/><path d="M78,745.1094 Q78.2031,744.6094 78.4375,744.3594 Q78.6719,744.1094 78.9375,744.1094 Q79.4063,744.1094 79.7031,744.3906 Q80,744.6719 80,745.3281 L80,746.8906 Q80,747.5469 79.7188,747.8281 Q79.4375,748.1094 79,748.1094 Q78.6094,748.1094 78.3594,747.9375 Q78.1094,747.7656 78,747.3125 Q77.9531,747 77.7813,746.8281 Q77.4688,746.5 76.9063,746.3125 Q76.3438,746.1094 75.7813,746.1094 Q75.0781,746.1094 74.4844,746.3906 Q73.9063,746.6719 73.4531,747.2969 Q73,747.9219 73,748.7813 L73,749.7031 Q73,750.7344 73.8438,751.4219 Q74.6875,752.1094 76.1875,752.1094 Q77.0781,752.1094 77.7031,751.9063 Q78.0625,751.7969 78.4688,751.4375 Q78.7344,751.2344 78.875,751.1719 Q79.0156,751.1094 79.1875,751.1094 Q79.5156,751.1094 79.75,751.375 Q80,751.625 80,751.9844 Q80,752.3281 79.6563,752.7344 Q79.1563,753.3281 78.3594,753.6563 Q77.3125,754.1094 76.0313,754.1094 Q74.5313,754.1094 73.3281,753.5156 Q72.3594,753.0469 71.6719,752.0313 Q71,751.0156 71,749.8125 L71,748.7188 Q71,747.4688 71.5938,746.375 Q72.2031,745.2813 73.25,744.7031 Q74.3125,744.1094 75.5,744.1094 Q76.2188,744.1094 76.8438,744.3594 Q77.4688,744.6094 78,745.1094 Z " fill="#000000"/><text fill="#000000" font-family="sans-serif" font-size="14" lengthAdjust="spacing" textLength="77" x="90" y="754.3379">SectionDTO</text><line style="stroke:#181818;stroke-width:0.5;" x1="62" x2="169" y1="764.6094" y2="764.6094"/><ellipse cx="72" cy="775.6094" fill="none" rx="3" ry="3" style="stroke:#038048;stroke-width:1.0;"/><text fill="#000000" font-family="sans-serif" font-size="14" lengthAdjust="spacing" textLength="56" x="81" y="783.1426">sectionId</text><ellipse cx="72" cy="793.2188" fill="none" rx="3" ry="3" style="stroke:#038048;stroke-width:1.0;"/><text fill="#000000" font-family="sans-serif" font-size="14" lengthAdjust="spacing" textLength="49" x="81" y="800.752">toString</text><line style="stroke:#181818;stroke-width:0.5;" x1="62" x2="169" y1="807.8281" y2="807.8281"/></g><!--MD5=[67766dc9f5cbe90f7ae01f665fcb398e]
class QuestionMapper--><g id="elem_QuestionMapper"><rect codeLine="32" fill="#F1F1F1" height="79.2188" id="QuestionMapper" rx="2.5" ry="2.5" style="stroke:#181818;stroke-width:0.5;" width="137" x="205" y="734.6094"/><ellipse cx="220" cy="750.6094" fill="#ADD1B2" rx="11" ry="11" style="stroke:#181818;stroke-width:1.0;"/><path d="M222,747.1094 Q222.2031,746.6094 222.4375,746.3594 Q222.6719,746.1094 222.9375,746.1094 Q223.4063,746.1094 223.7031,746.3906 Q224,746.6719 224,747.3281 L224,748.8906 Q224,749.5469 223.7188,749.8281 Q223.4375,750.1094 223,750.1094 Q222.6094,750.1094 222.3594,749.9375 Q222.1094,749.7656 222,749.3125 Q221.9531,749 221.7813,748.8281 Q221.4688,748.5 220.9063,748.3125 Q220.3438,748.1094 219.7813,748.1094 Q219.0781,748.1094 218.4844,748.3906 Q217.9063,748.6719 217.4531,749.2969 Q217,749.9219 217,750.7813 L217,751.7031 Q217,752.7344 217.8438,753.4219 Q218.6875,754.1094 220.1875,754.1094 Q221.0781,754.1094 221.7031,753.9063 Q222.0625,753.7969 222.4688,753.4375 Q222.7344,753.2344 222.875,753.1719 Q223.0156,753.1094 223.1875,753.1094 Q223.5156,753.1094 223.75,753.375 Q224,753.625 224,753.9844 Q224,754.3281 223.6563,754.7344 Q223.1563,755.3281 222.3594,755.6563 Q221.3125,756.1094 220.0313,756.1094 Q218.5313,756.1094 217.3281,755.5156 Q216.3594,755.0469 215.6719,754.0313 Q215,753.0156 215,751.8125 L215,750.7188 Q215,749.4688 215.5938,748.375 Q216.2031,747.2813 217.25,746.7031 Q218.3125,746.1094 219.5,746.1094 Q220.2188,746.1094 220.8438,746.3594 Q221.4688,746.6094 222,747.1094 Z " fill="#000000"/><text fill="#000000" font-family="sans-serif" font-size="14" lengthAdjust="spacing" textLength="105" x="234" y="756.3379">QuestionMapper</text><line style="stroke:#181818;stroke-width:0.5;" x1="206" x2="341" y1="766.6094" y2="766.6094"/><ellipse cx="216" cy="799.2188" fill="#84BE84" rx="3" ry="3" style="stroke:#038048;stroke-width:1.0;"/><text fill="#000000" font-family="sans-serif" font-size="14" lengthAdjust="spacing" textLength="106" x="225" y="806.752">toDTO(question)</text><line style="stroke:#181818;stroke-width:1.0;" x1="206" x2="246.5" y1="783.4141" y2="783.4141"/><text fill="#000000" font-family="sans-serif" font-size="14" lengthAdjust="spacing" textLength="54" x="246.5" y="788.6426">Methods</text><line style="stroke:#181818;stroke-width:1.0;" x1="300.5" x2="341" y1="783.4141" y2="783.4141"/></g><!--MD5=[c802f1427b4977f3680f5ce962804e21]
class QuestionDTO--><g id="elem_QuestionDTO"><rect codeLine="37" fill="#F1F1F1" height="65.6094" id="QuestionDTO" rx="2.5" ry="2.5" style="stroke:#181818;stroke-width:0.5;" width="119" x="85" y="995.1094"/><ellipse cx="100" cy="1011.1094" fill="#ADD1B2" rx="11" ry="11" style="stroke:#181818;stroke-width:1.0;"/><path d="M102,1007.6094 Q102.2031,1007.1094 102.4375,1006.8594 Q102.6719,1006.6094 102.9375,1006.6094 Q103.4063,1006.6094 103.7031,1006.8906 Q104,1007.1719 104,1007.8281 L104,1009.3906 Q104,1010.0469 103.7188,1010.3281 Q103.4375,1010.6094 103,1010.6094 Q102.6094,1010.6094 102.3594,1010.4375 Q102.1094,1010.2656 102,1009.8125 Q101.9531,1009.5 101.7813,1009.3281 Q101.4688,1009 100.9063,1008.8125 Q100.3438,1008.6094 99.7813,1008.6094 Q99.0781,1008.6094 98.4844,1008.8906 Q97.9063,1009.1719 97.4531,1009.7969 Q97,1010.4219 97,1011.2813 L97,1012.2031 Q97,1013.2344 97.8438,1013.9219 Q98.6875,1014.6094 100.1875,1014.6094 Q101.0781,1014.6094 101.7031,1014.4063 Q102.0625,1014.2969 102.4688,1013.9375 Q102.7344,1013.7344 102.875,1013.6719 Q103.0156,1013.6094 103.1875,1013.6094 Q103.5156,1013.6094 103.75,1013.875 Q104,1014.125 104,1014.4844 Q104,1014.8281 103.6563,1015.2344 Q103.1563,1015.8281 102.3594,1016.1563 Q101.3125,1016.6094 100.0313,1016.6094 Q98.5313,1016.6094 97.3281,1016.0156 Q96.3594,1015.5469 95.6719,1014.5313 Q95,1013.5156 95,1012.3125 L95,1011.2188 Q95,1009.9688 95.5938,1008.875 Q96.2031,1007.7813 97.25,1007.2031 Q98.3125,1006.6094 99.5,1006.6094 Q100.2188,1006.6094 100.8438,1006.8594 Q101.4688,1007.1094 102,1007.6094 Z " fill="#000000"/><text fill="#000000" font-family="sans-serif" font-size="14" lengthAdjust="spacing" textLength="87" x="114" y="1016.8379">QuestionDTO</text><line style="stroke:#181818;stroke-width:0.5;" x1="86" x2="203" y1="1027.1094" y2="1027.1094"/><ellipse cx="96" cy="1038.1094" fill="none" rx="3" ry="3" style="stroke:#038048;stroke-width:1.0;"/><text fill="#000000" font-family="sans-serif" font-size="14" lengthAdjust="spacing" textLength="49" x="105" y="1045.6426">toString</text><line style="stroke:#181818;stroke-width:0.5;" x1="86" x2="203" y1="1052.7188" y2="1052.7188"/></g><!--MD5=[fe57f3cef35fdf02ea3f7e2e074a9035]
class SectionBuilder--><g id="elem_SectionBuilder"><rect codeLine="41" fill="#F1F1F1" height="290.5313" id="SectionBuilder" rx="2.5" ry="2.5" style="stroke:#181818;stroke-width:0.5;" width="239" x="347" y="329.6094"/><ellipse cx="416.75" cy="345.6094" fill="#ADD1B2" rx="11" ry="11" style="stroke:#181818;stroke-width:1.0;"/><path d="M418.75,342.1094 Q418.9531,341.6094 419.1875,341.3594 Q419.4219,341.1094 419.6875,341.1094 Q420.1563,341.1094 420.4531,341.3906 Q420.75,341.6719 420.75,342.3281 L420.75,343.8906 Q420.75,344.5469 420.4688,344.8281 Q420.1875,345.1094 419.75,345.1094 Q419.3594,345.1094 419.1094,344.9375 Q418.8594,344.7656 418.75,344.3125 Q418.7031,344 418.5313,343.8281 Q418.2188,343.5 417.6563,343.3125 Q417.0938,343.1094 416.5313,343.1094 Q415.8281,343.1094 415.2344,343.3906 Q414.6563,343.6719 414.2031,344.2969 Q413.75,344.9219 413.75,345.7813 L413.75,346.7031 Q413.75,347.7344 414.5938,348.4219 Q415.4375,349.1094 416.9375,349.1094 Q417.8281,349.1094 418.4531,348.9063 Q418.8125,348.7969 419.2188,348.4375 Q419.4844,348.2344 419.625,348.1719 Q419.7656,348.1094 419.9375,348.1094 Q420.2656,348.1094 420.5,348.375 Q420.75,348.625 420.75,348.9844 Q420.75,349.3281 420.4063,349.7344 Q419.9063,350.3281 419.1094,350.6563 Q418.0625,351.1094 416.7813,351.1094 Q415.2813,351.1094 414.0781,350.5156 Q413.1094,350.0469 412.4219,349.0313 Q411.75,348.0156 411.75,346.8125 L411.75,345.7188 Q411.75,344.4688 412.3438,343.375 Q412.9531,342.2813 414,341.7031 Q415.0625,341.1094 416.25,341.1094 Q416.9688,341.1094 417.5938,341.3594 Q418.2188,341.6094 418.75,342.1094 Z " fill="#000000"/><text fill="#000000" font-family="sans-serif" font-size="14" lengthAdjust="spacing" textLength="91" x="437.25" y="351.3379">SectionBuilder</text><line style="stroke:#181818;stroke-width:0.5;" x1="348" x2="585" y1="361.6094" y2="361.6094"/><rect fill="none" height="6" style="stroke:#C82930;stroke-width:1.0;" width="6" x="355" y="369.6094"/><text fill="#000000" font-family="sans-serif" font-size="14" lengthAdjust="spacing" textLength="56" x="367" y="380.1426">sectionId</text><rect fill="none" height="6" style="stroke:#C82930;stroke-width:1.0;" width="6" x="355" y="387.2188"/><text fill="#000000" font-family="sans-serif" font-size="14" lengthAdjust="spacing" textLength="72" x="367" y="397.752">sectionTitle</text><rect fill="none" height="6" style="stroke:#C82930;stroke-width:1.0;" width="6" x="355" y="404.8281"/><text fill="#000000" font-family="sans-serif" font-size="14" lengthAdjust="spacing" textLength="116" x="367" y="415.3613">sectionDescription</text><rect fill="none" height="6" style="stroke:#C82930;stroke-width:1.0;" width="6" x="355" y="422.4375"/><text fill="#000000" font-family="sans-serif" font-size="14" lengthAdjust="spacing" textLength="88" x="367" y="432.9707">obligatoriness</text><rect fill="none" height="6" style="stroke:#C82930;stroke-width:1.0;" width="6" x="355" y="440.0469"/><text fill="#000000" font-family="sans-serif" font-size="14" lengthAdjust="spacing" textLength="77" x="367" y="450.5801">repeatability</text><rect fill="none" height="6" style="stroke:#C82930;stroke-width:1.0;" width="6" x="355" y="457.6563"/><text fill="#000000" font-family="sans-serif" font-size="14" lengthAdjust="spacing" textLength="61" x="367" y="468.1895">questions</text><ellipse cx="358" cy="499.875" fill="#84BE84" rx="3" ry="3" style="stroke:#038048;stroke-width:1.0;"/><text fill="#000000" font-family="sans-serif" font-size="14" lengthAdjust="spacing" textLength="56" x="367" y="507.4082">withId(id)</text><ellipse cx="358" cy="517.4844" fill="#84BE84" rx="3" ry="3" style="stroke:#038048;stroke-width:1.0;"/><text fill="#000000" font-family="sans-serif" font-size="14" lengthAdjust="spacing" textLength="83" x="367" y="525.0176">withTitle(title)</text><ellipse cx="358" cy="535.0938" fill="#84BE84" rx="3" ry="3" style="stroke:#038048;stroke-width:1.0;"/><text fill="#000000" font-family="sans-serif" font-size="14" lengthAdjust="spacing" textLength="174" x="367" y="542.627">withDescription(description)</text><ellipse cx="358" cy="552.7031" fill="#84BE84" rx="3" ry="3" style="stroke:#038048;stroke-width:1.0;"/><text fill="#000000" font-family="sans-serif" font-size="14" lengthAdjust="spacing" textLength="213" x="367" y="560.2363">withObligatoriness(obligatoriness)</text><ellipse cx="358" cy="570.3125" fill="#84BE84" rx="3" ry="3" style="stroke:#038048;stroke-width:1.0;"/><text fill="#000000" font-family="sans-serif" font-size="14" lengthAdjust="spacing" textLength="193" x="367" y="577.8457">withRepeatability(repeatability)</text><ellipse cx="358" cy="587.9219" fill="#84BE84" rx="3" ry="3" style="stroke:#038048;stroke-width:1.0;"/><text fill="#000000" font-family="sans-serif" font-size="14" lengthAdjust="spacing" textLength="159" x="367" y="595.4551">withQuestions(questions)</text><ellipse cx="358" cy="605.5313" fill="#84BE84" rx="3" ry="3" style="stroke:#038048;stroke-width:1.0;"/><text fill="#000000" font-family="sans-serif" font-size="14" lengthAdjust="spacing" textLength="40" x="367" y="613.0645">build()</text><line style="stroke:#181818;stroke-width:1.0;" x1="348" x2="439.5" y1="484.0703" y2="484.0703"/><text fill="#000000" font-family="sans-serif" font-size="14" lengthAdjust="spacing" textLength="54" x="439.5" y="489.2988">Methods</text><line style="stroke:#181818;stroke-width:1.0;" x1="493.5" x2="585" y1="484.0703" y2="484.0703"/></g><!--MD5=[09a53695e98d4f26e7a054522080af08]
class Section--><g id="elem_Section"><rect codeLine="58" fill="#F1F1F1" height="184.875" id="Section" rx="2.5" ry="2.5" style="stroke:#181818;stroke-width:0.5;" width="142" x="395.5" y="681.6094"/><ellipse cx="438.85" cy="697.6094" fill="#ADD1B2" rx="11" ry="11" style="stroke:#181818;stroke-width:1.0;"/><path d="M440.85,694.1094 Q441.0531,693.6094 441.2875,693.3594 Q441.5219,693.1094 441.7875,693.1094 Q442.2563,693.1094 442.5531,693.3906 Q442.85,693.6719 442.85,694.3281 L442.85,695.8906 Q442.85,696.5469 442.5688,696.8281 Q442.2875,697.1094 441.85,697.1094 Q441.4594,697.1094 441.2094,696.9375 Q440.9594,696.7656 440.85,696.3125 Q440.8031,696 440.6313,695.8281 Q440.3188,695.5 439.7563,695.3125 Q439.1938,695.1094 438.6313,695.1094 Q437.9281,695.1094 437.3344,695.3906 Q436.7563,695.6719 436.3031,696.2969 Q435.85,696.9219 435.85,697.7813 L435.85,698.7031 Q435.85,699.7344 436.6938,700.4219 Q437.5375,701.1094 439.0375,701.1094 Q439.9281,701.1094 440.5531,700.9063 Q440.9125,700.7969 441.3188,700.4375 Q441.5844,700.2344 441.725,700.1719 Q441.8656,700.1094 442.0375,700.1094 Q442.3656,700.1094 442.6,700.375 Q442.85,700.625 442.85,700.9844 Q442.85,701.3281 442.5063,701.7344 Q442.0063,702.3281 441.2094,702.6563 Q440.1625,703.1094 438.8813,703.1094 Q437.3813,703.1094 436.1781,702.5156 Q435.2094,702.0469 434.5219,701.0313 Q433.85,700.0156 433.85,698.8125 L433.85,697.7188 Q433.85,696.4688 434.4438,695.375 Q435.0531,694.2813 436.1,693.7031 Q437.1625,693.1094 438.35,693.1094 Q439.0688,693.1094 439.6938,693.3594 Q440.3188,693.6094 440.85,694.1094 Z " fill="#000000"/><text fill="#000000" font-family="sans-serif" font-size="14" lengthAdjust="spacing" textLength="47" x="459.15" y="703.3379">Section</text><line style="stroke:#181818;stroke-width:0.5;" x1="396.5" x2="536.5" y1="713.6094" y2="713.6094"/><rect fill="none" height="6" style="stroke:#C82930;stroke-width:1.0;" width="6" x="403.5" y="721.6094"/><text fill="#000000" font-family="sans-serif" font-size="14" lengthAdjust="spacing" textLength="56" x="415.5" y="732.1426">sectionId</text><rect fill="none" height="6" style="stroke:#C82930;stroke-width:1.0;" width="6" x="403.5" y="739.2188"/><text fill="#000000" font-family="sans-serif" font-size="14" lengthAdjust="spacing" textLength="72" x="415.5" y="749.752">sectionTitle</text><rect fill="none" height="6" style="stroke:#C82930;stroke-width:1.0;" width="6" x="403.5" y="756.8281"/><text fill="#000000" font-family="sans-serif" font-size="14" lengthAdjust="spacing" textLength="116" x="415.5" y="767.3613">sectionDescription</text><rect fill="none" height="6" style="stroke:#C82930;stroke-width:1.0;" width="6" x="403.5" y="774.4375"/><text fill="#000000" font-family="sans-serif" font-size="14" lengthAdjust="spacing" textLength="88" x="415.5" y="784.9707">obligatoriness</text><rect fill="none" height="6" style="stroke:#C82930;stroke-width:1.0;" width="6" x="403.5" y="792.0469"/><text fill="#000000" font-family="sans-serif" font-size="14" lengthAdjust="spacing" textLength="77" x="415.5" y="802.5801">repeatability</text><rect fill="none" height="6" style="stroke:#C82930;stroke-width:1.0;" width="6" x="403.5" y="809.6563"/><text fill="#000000" font-family="sans-serif" font-size="14" lengthAdjust="spacing" textLength="61" x="415.5" y="820.1895">questions</text><ellipse cx="406.5" cy="851.875" fill="#84BE84" rx="3" ry="3" style="stroke:#038048;stroke-width:1.0;"/><text fill="#000000" font-family="sans-serif" font-size="14" lengthAdjust="spacing" textLength="63" x="415.5" y="859.4082">toString();</text><line style="stroke:#181818;stroke-width:1.0;" x1="396.5" x2="439.5" y1="836.0703" y2="836.0703"/><text fill="#000000" font-family="sans-serif" font-size="14" lengthAdjust="spacing" textLength="54" x="439.5" y="841.2988">Methods</text><line style="stroke:#181818;stroke-width:1.0;" x1="493.5" x2="536.5" y1="836.0703" y2="836.0703"/></g><!--MD5=[fc7123defb831ecdd44b2d9bcef6cceb]
class Question--><g id="elem_Question"><rect codeLine="69" fill="#F1F1F1" height="167.2656" id="Question" rx="2.5" ry="2.5" style="stroke:#181818;stroke-width:0.5;" width="114" x="255.5" y="944.6094"/><ellipse cx="281.75" cy="960.6094" fill="#B4A7E5" rx="11" ry="11" style="stroke:#181818;stroke-width:1.0;"/><path d="M282.75,957.6094 L282.75,963.6094 L284.75,963.6094 L285.2344,963.6094 L285.75,964.2344 L285.75,964.6094 L285.75,964.9844 L285.2344,965.6094 L284.75,965.6094 L278.75,965.6094 L278.2656,965.6094 L277.75,964.9844 L277.75,964.6094 L277.75,964.2344 L278.2656,963.6094 L278.75,963.6094 L280.75,963.6094 L280.75,957.6094 L278.75,957.6094 L278.2656,957.6094 L277.75,956.9844 L277.75,956.6094 L277.75,956.2344 L278.2656,955.6094 L278.75,955.6094 L284.75,955.6094 L285.2344,955.6094 L285.75,956.2344 L285.75,956.6094 L285.75,956.9844 L285.2344,957.6094 L284.75,957.6094 L282.75,957.6094 Z " fill="#000000"/><text fill="#000000" font-family="sans-serif" font-size="14" font-style="italic" lengthAdjust="spacing" textLength="57" x="298.25" y="966.3379">Question</text><line style="stroke:#181818;stroke-width:0.5;" x1="256.5" x2="368.5" y1="976.6094" y2="976.6094"/><rect fill="none" height="6" style="stroke:#C82930;stroke-width:1.0;" width="6" x="263.5" y="984.6094"/><text fill="#000000" font-family="sans-serif" font-size="14" lengthAdjust="spacing" textLength="65" x="275.5" y="995.1426">questionId</text><rect fill="none" height="6" style="stroke:#C82930;stroke-width:1.0;" width="6" x="263.5" y="1002.2188"/><text fill="#000000" font-family="sans-serif" font-size="14" lengthAdjust="spacing" textLength="81" x="275.5" y="1012.752">questionText</text><rect fill="none" height="6" style="stroke:#C82930;stroke-width:1.0;" width="6" x="263.5" y="1019.8281"/><text fill="#000000" font-family="sans-serif" font-size="14" lengthAdjust="spacing" textLength="72" x="275.5" y="1030.3613">instructions</text><rect fill="none" height="6" style="stroke:#C82930;stroke-width:1.0;" width="6" x="263.5" y="1037.4375"/><text fill="#000000" font-family="sans-serif" font-size="14" lengthAdjust="spacing" textLength="88" x="275.5" y="1047.9707">obligatoriness</text><rect fill="none" height="6" style="stroke:#C82930;stroke-width:1.0;" width="6" x="263.5" y="1055.0469"/><text fill="#000000" font-family="sans-serif" font-size="14" lengthAdjust="spacing" textLength="58" x="275.5" y="1065.5801">extra info</text><ellipse cx="266.5" cy="1097.2656" fill="#84BE84" rx="3" ry="3" style="stroke:#038048;stroke-width:1.0;"/><text fill="#000000" font-family="sans-serif" font-size="14" lengthAdjust="spacing" textLength="63" x="275.5" y="1104.7988">toString();</text><line style="stroke:#181818;stroke-width:1.0;" x1="256.5" x2="285.5" y1="1081.4609" y2="1081.4609"/><text fill="#000000" font-family="sans-serif" font-size="14" lengthAdjust="spacing" textLength="54" x="285.5" y="1086.6895">Methods</text><line style="stroke:#181818;stroke-width:1.0;" x1="339.5" x2="368.5" y1="1081.4609" y2="1081.4609"/></g><!--MD5=[612a8bdae8d52d1733a2d00cd54fc954]
class Obligatoriness--><g id="elem_Obligatoriness"><rect codeLine="79" fill="#F1F1F1" height="100.8281" id="Obligatoriness" rx="2.5" ry="2.5" style="stroke:#181818;stroke-width:0.5;" width="123" x="405" y="977.6094"/><ellipse cx="420" cy="993.6094" fill="#EB937F" rx="11" ry="11" style="stroke:#181818;stroke-width:1.0;"/><path d="M418.5,994.6094 L418.5,996.6094 L422.5,996.6094 L422.5,995.6094 L422.5,995.125 L423.125,994.6094 L423.5,994.6094 L423.875,994.6094 L424.5,995.125 L424.5,995.6094 L424.5,998.6094 L416.5,998.6094 L416.0156,998.6094 L415.5,997.9844 L415.5,997.6094 L415.5,997.2344 L416.0156,996.6094 L416.5,996.6094 L416.5,996.6094 L416.5,990.6094 L416.5,990.6094 L416.0156,990.6094 L415.5,989.9844 L415.5,989.6094 L415.5,989.2344 L416.0156,988.6094 L416.5,988.6094 L424.5,988.6094 L424.5,991.6094 L424.5,992.0938 L423.875,992.6094 L423.5,992.6094 L423.125,992.6094 L422.5,992.0938 L422.5,991.6094 L422.5,990.6094 L418.5,990.6094 L418.5,992.6094 L419.5,992.6094 L419.5,992.125 L419.5,992.125 L420.125,991.6094 L420.5,991.6094 L420.875,991.6094 L421.5,992.125 L421.5,992.6094 L421.5,994.6094 L421.5,995.0938 L420.875,995.6094 L420.875,995.6094 L420.5,995.6094 L420.125,995.6094 L419.5,995.0938 L419.5,995.0938 L419.5,994.6094 L418.5,994.6094 Z " fill="#000000"/><text fill="#000000" font-family="sans-serif" font-size="14" lengthAdjust="spacing" textLength="91" x="434" y="999.3379">Obligatoriness</text><line style="stroke:#181818;stroke-width:0.5;" x1="406" x2="527" y1="1009.6094" y2="1009.6094"/><text fill="#000000" font-family="sans-serif" font-size="14" lengthAdjust="spacing" textLength="87" x="411" y="1028.1426">MANDATORY</text><text fill="#000000" font-family="sans-serif" font-size="14" lengthAdjust="spacing" textLength="69" x="411" y="1045.752">OPTIONAL</text><text fill="#000000" font-family="sans-serif" font-size="14" lengthAdjust="spacing" textLength="92" x="411" y="1063.3613">CONDITIONAL</text><line style="stroke:#181818;stroke-width:0.5;" x1="406" x2="527" y1="1070.4375" y2="1070.4375"/></g><!--MD5=[05b96a268a6d46993a7a8d8b390a16f4]
class Repeatability--><g id="elem_Repeatability"><rect codeLine="85" fill="#F1F1F1" height="100.8281" id="Repeatability" rx="2.5" ry="2.5" style="stroke:#181818;stroke-width:0.5;" width="114" x="563.5" y="977.6094"/><ellipse cx="578.5" cy="993.6094" fill="#EB937F" rx="11" ry="11" style="stroke:#181818;stroke-width:1.0;"/><path d="M577,994.6094 L577,996.6094 L581,996.6094 L581,995.6094 L581,995.125 L581.625,994.6094 L582,994.6094 L582.375,994.6094 L583,995.125 L583,995.6094 L583,998.6094 L575,998.6094 L574.5156,998.6094 L574,997.9844 L574,997.6094 L574,997.2344 L574.5156,996.6094 L575,996.6094 L575,996.6094 L575,990.6094 L575,990.6094 L574.5156,990.6094 L574,989.9844 L574,989.6094 L574,989.2344 L574.5156,988.6094 L575,988.6094 L583,988.6094 L583,991.6094 L583,992.0938 L582.375,992.6094 L582,992.6094 L581.625,992.6094 L581,992.0938 L581,991.6094 L581,990.6094 L577,990.6094 L577,992.6094 L578,992.6094 L578,992.125 L578,992.125 L578.625,991.6094 L579,991.6094 L579.375,991.6094 L580,992.125 L580,992.6094 L580,994.6094 L580,995.0938 L579.375,995.6094 L579.375,995.6094 L579,995.6094 L578.625,995.6094 L578,995.0938 L578,995.0938 L578,994.6094 L577,994.6094 Z " fill="#000000"/><text fill="#000000" font-family="sans-serif" font-size="14" lengthAdjust="spacing" textLength="82" x="592.5" y="999.3379">Repeatability</text><line style="stroke:#181818;stroke-width:0.5;" x1="564.5" x2="676.5" y1="1009.6094" y2="1009.6094"/><text fill="#000000" font-family="sans-serif" font-size="14" lengthAdjust="spacing" textLength="38" x="569.5" y="1028.1426">NONE</text><text fill="#000000" font-family="sans-serif" font-size="14" lengthAdjust="spacing" textLength="47" x="569.5" y="1045.752">BRAND</text><text fill="#000000" font-family="sans-serif" font-size="14" lengthAdjust="spacing" textLength="78" x="569.5" y="1063.3613">CATEGORY</text><line style="stroke:#181818;stroke-width:0.5;" x1="564.5" x2="676.5" y1="1070.4375" y2="1070.4375"/></g><!--MD5=[d3ce6bf8eeaf5b602145ccdc05bd4bb7]
link CreateSectionUI to CreateSectionController--><g id="link_CreateSectionUI_CreateSectionController"><path codeLine="90" d="M239.5,93.7294 C239.5,108.9794 239.5,129.7194 239.5,149.4994 " fill="none" id="CreateSectionUI-to-CreateSectionController" style="stroke:#181818;stroke-width:1.0;stroke-dasharray:7.0,7.0;"/><polygon fill="#181818" points="239.5,154.5094,243.5,145.5094,239.5,149.5094,235.5,145.5094,239.5,154.5094" style="stroke:#181818;stroke-width:1.0;"/></g><!--MD5=[b9cd5e088d918cb9c408ffcc2da84d9e]
link CreateSectionController to SectionBuilder--><g id="link_CreateSectionController_SectionBuilder"><path codeLine="92" d="M288.2,268.7094 C304.7,287.7194 323.95,309.8894 343.58,332.5094 " fill="none" id="CreateSectionController-to-SectionBuilder" style="stroke:#181818;stroke-width:1.0;stroke-dasharray:7.0,7.0;"/><polygon fill="#181818" points="346.99,336.4294,344.094,327.0159,343.7056,332.6594,338.0621,332.271,346.99,336.4294" style="stroke:#181818;stroke-width:1.0;"/></g><!--MD5=[04b33c2a135ccf39b0f901310269f113]
link CreateSectionController to JPARepository--><g id="link_CreateSectionController_JPARepository"><path codeLine="93" d="M193.56,268.7794 C178.86,287.6694 162.93,309.1494 149.5,329.6094 C130.01,359.3094 110.65,394.0994 95.86,422.0994 " fill="none" id="CreateSectionController-to-JPARepository" style="stroke:#181818;stroke-width:1.0;stroke-dasharray:7.0,7.0;"/><polygon fill="#181818" points="93.53,426.5294,101.2743,420.4445,95.8681,422.1097,94.2029,416.7035,93.53,426.5294" style="stroke:#181818;stroke-width:1.0;"/></g><!--MD5=[91c18d9efd8cb23b99d358caf9acd86f]
link CreateSectionController to SectionMapper--><g id="link_CreateSectionController_SectionMapper"><path codeLine="94" d="M239.5,268.7094 C239.5,313.9394 239.5,377.0894 239.5,421.3894 " fill="none" id="CreateSectionController-to-SectionMapper" style="stroke:#181818;stroke-width:1.0;stroke-dasharray:7.0,7.0;"/><polygon fill="#181818" points="239.5,426.4294,243.5,417.4294,239.5,421.4294,235.5,417.4294,239.5,426.4294" style="stroke:#181818;stroke-width:1.0;"/></g><!--MD5=[dd5ecb0067ecb1807034f78c05073758]
link QuestionMapper to QuestionDTO--><g id="link_QuestionMapper_QuestionDTO"><path codeLine="96" d="M253.77,813.6594 C229.15,861.7394 187.37,943.3594 163.23,990.5094 " fill="none" id="QuestionMapper-to-QuestionDTO" style="stroke:#181818;stroke-width:1.0;stroke-dasharray:7.0,7.0;"/><polygon fill="#181818" points="160.95,994.9694,168.6084,988.7768,163.2261,990.5175,161.4854,985.1351,160.95,994.9694" style="stroke:#181818;stroke-width:1.0;"/></g><!--MD5=[47a2a80611801f1777c48fa4cd15776a]
link SectionMapper to SectionDTO--><g id="link_SectionMapper_SectionDTO"><path codeLine="97" d="M219.58,523.8294 C196.19,579.8594 157.66,672.1194 134.62,727.3094 " fill="none" id="SectionMapper-to-SectionDTO" style="stroke:#181818;stroke-width:1.0;stroke-dasharray:7.0,7.0;"/><polygon fill="#181818" points="132.58,732.1994,139.7413,725.438,134.5081,727.5861,132.36,722.353,132.58,732.1994" style="stroke:#181818;stroke-width:1.0;"/></g><!--MD5=[cd695e9f19db9d54c7325e7367157579]
link SectionMapper to QuestionMapper--><g id="link_SectionMapper_QuestionMapper"><path codeLine="98" d="M244.96,523.8294 C251.45,580.5394 262.2,674.3694 268.49,729.3094 " fill="none" id="SectionMapper-to-QuestionMapper" style="stroke:#181818;stroke-width:1.0;stroke-dasharray:7.0,7.0;"/><polygon fill="#181818" points="269.08,734.4994,272.0261,725.1015,268.509,729.5321,264.0784,726.015,269.08,734.4994" style="stroke:#181818;stroke-width:1.0;"/></g><!--MD5=[9258e35697f6ad97cd4e82d248f02c69]
link SectionDTO to QuestionDTO--><g id="link_SectionDTO_QuestionDTO"><path codeLine="100" d="M120.19,815.8794 C125.72,863.8994 134.82,943.0094 140.18,989.5794 " fill="none" id="SectionDTO-to-QuestionDTO" style="stroke:#181818;stroke-width:1.0;"/><polygon fill="#181818" points="140.78,994.8094,143.7261,985.4115,140.209,989.8421,135.7784,986.325,140.78,994.8094" style="stroke:#181818;stroke-width:1.0;"/><text fill="#000000" font-family="sans-serif" font-size="13" lengthAdjust="spacing" textLength="7" x="113.3797" y="837.3172">1</text><text fill="#000000" font-family="sans-serif" font-size="13" lengthAdjust="spacing" textLength="20" x="118.0789" y="984.2466">1..*</text></g><!--MD5=[de97d3b70ddd1e0987e2bf654730f4e3]
link SectionBuilder to Section--><g id="link_SectionBuilder_Section"><path codeLine="102" d="M466.5,620.6894 C466.5,639.4094 466.5,658.2094 466.5,675.8994 " fill="none" id="SectionBuilder-to-Section" style="stroke:#181818;stroke-width:1.0;stroke-dasharray:7.0,7.0;"/><polygon fill="#181818" points="466.5,681.3594,470.5,672.3594,466.5,676.3594,462.5,672.3594,466.5,681.3594" style="stroke:#181818;stroke-width:1.0;"/></g><!--MD5=[87fa8ff7d398728728a611d860795352]
link Section to Question--><g id="link_Section_Question"><path codeLine="104" d="M410.47,866.7994 C395.89,890.6494 380.24,916.2694 365.81,939.8794 " fill="none" id="Section-to-Question" style="stroke:#181818;stroke-width:1.0;"/><polygon fill="#181818" points="363.13,944.2594,371.24,938.6711,365.7401,939.9947,364.4165,934.4949,363.13,944.2594" style="stroke:#181818;stroke-width:1.0;"/><text fill="#000000" font-family="sans-serif" font-size="13" lengthAdjust="spacing" textLength="49" x="390.5" y="911.1045">contains</text><text fill="#000000" font-family="sans-serif" font-size="13" lengthAdjust="spacing" textLength="7" x="398.9122" y="888.0218">1</text><text fill="#000000" font-family="sans-serif" font-size="13" lengthAdjust="spacing" textLength="20" x="346.6216" y="933.8648">1..*</text></g><!--MD5=[5cdb98ab5092f89550e36d3e1e1f4842]
link Section to Obligatoriness--><g id="link_Section_Obligatoriness"><path codeLine="105" d="M466.5,866.7994 C466.5,902.1894 466.5,941.4794 466.5,972.3094 " fill="none" id="Section-to-Obligatoriness" style="stroke:#181818;stroke-width:1.0;"/><polygon fill="#181818" points="466.5,977.5694,470.5,968.5694,466.5,972.5694,462.5,968.5694,466.5,977.5694" style="stroke:#181818;stroke-width:1.0;"/></g><!--MD5=[16c0df862a9e0fbee7e9c42b66e11371]
link Section to Repeatability--><g id="link_Section_Repeatability"><path codeLine="106" d="M522.53,866.7994 C544.34,902.4794 568.57,942.1294 587.48,973.0694 " fill="none" id="Section-to-Repeatability" style="stroke:#181818;stroke-width:1.0;"/><polygon fill="#181818" points="590.23,977.5694,588.9527,967.8037,587.6239,973.3023,582.1253,971.9734,590.23,977.5694" style="stroke:#181818;stroke-width:1.0;"/></g><!--MD5=[0550aa4c95a90cac25bc1cfd4346e1fd]
@startuml

title US3001 - Class Diagram 2 (Section)


class CreateSectionUI

class CreateSectionController{
- -Methods- -
+ CreateSectionController()
+ getQuestions()
+ createSection(...)
}

abstract JPARepository {
- -Methods- -
+ add(entity)
+ findAll()
}

class SectionMapper{
- -Methods- -
+ toDTO(section)
+ toDTO(sectionList)
}

class SectionDTO{
+ sectionId
+ toString
}


class QuestionMapper{
- -Methods- -
+ toDTO(question)
}

class QuestionDTO{
+ toString
}

class SectionBuilder{
- sectionId
- sectionTitle
- sectionDescription
- obligatoriness
- repeatability
- questions
- -Methods- -
+ withId(id)
+ withTitle(title)
+ withDescription(description)
+ withObligatoriness(obligatoriness)
+ withRepeatability(repeatability)
+ withQuestions(questions)
+ build()
}

class Section{
- sectionId
- sectionTitle
- sectionDescription
- obligatoriness
- repeatability
- questions
- -Methods- -
+ toString();
}

interface Question{
- questionId
- questionText
- instructions
- obligatoriness
- extra info
- -Methods- -
+ toString();
}

enum Obligatoriness{
MANDATORY
OPTIONAL
CONDITIONAL
}

enum Repeatability{
    NONE
    BRAND
    CATEGORY
}
CreateSectionUI ..> CreateSectionController

CreateSectionController ..> SectionBuilder
CreateSectionController ..> JPARepository
CreateSectionController ..> SectionMapper

QuestionMapper ..> QuestionDTO
SectionMapper ..> SectionDTO
SectionMapper ..> QuestionMapper

SectionDTO "1" - -> "1..*" QuestionDTO

SectionBuilder ..> Section

Section "1" - -> "1..*" Question: contains
Section - -> Obligatoriness
Section - -> Repeatability

@enduml

PlantUML version 1.2022.4(Sat Apr 09 14:29:17 BST 2022)
(GPL source distribution)
Java Runtime: OpenJDK Runtime Environment
JVM: OpenJDK 64-Bit Server VM
Default Encoding: Cp1252
Language: pt
Country: PT
--></g></svg>