<?xml version="1.0" encoding="UTF-8" standalone="no"?><svg xmlns="http://www.w3.org/2000/svg" xmlns:xlink="http://www.w3.org/1999/xlink" contentStyleType="text/css" height="1099px" preserveAspectRatio="none" style="width:1585px;height:1099px;background:#FFFFFF;" version="1.1" viewBox="0 0 1585 1099" width="1585px" zoomAndPan="magnify"><defs/><g><rect height="27.6094" style="stroke:#00000000;stroke-width:1.0;fill:none;" width="332" x="625.75" y="10"/><text fill="#000000" font-family="sans-serif" font-size="14" font-weight="bold" lengthAdjust="spacing" textLength="322" x="630.75" y="29.5332">US3001 - Sequence Diagram 3 (Questionnaire)</text><rect fill="#FFFFFF" height="877.1563" style="stroke:#181818;stroke-width:1.0;" width="10" x="51.5" y="131.2188"/><rect fill="#FFFFFF" height="834.6289" style="stroke:#181818;stroke-width:1.0;" width="10" x="268.5" y="164.7461"/><rect fill="#FFFFFF" height="702.3984" style="stroke:#181818;stroke-width:1.0;" width="10" x="495" y="206.2734"/><rect fill="#FFFFFF" height="30" style="stroke:#181818;stroke-width:1.0;" width="10" x="778" y="279.2344"/><rect fill="#FFFFFF" height="30" style="stroke:#181818;stroke-width:1.0;" width="10" x="778" y="339.5859"/><rect fill="#FFFFFF" height="30" style="stroke:#181818;stroke-width:1.0;" width="10" x="778" y="399.9375"/><rect fill="#FFFFFF" height="30" style="stroke:#181818;stroke-width:1.0;" width="10" x="778" y="460.2891"/><rect fill="#FFFFFF" height="30" style="stroke:#181818;stroke-width:1.0;" width="10" x="778" y="520.6406"/><rect fill="#FFFFFF" height="103.3125" style="stroke:#181818;stroke-width:1.0;" width="10" x="778" y="580.9922"/><rect fill="#FFFFFF" height="32.6094" style="stroke:#181818;stroke-width:1.0;" width="10" x="981.5" y="621.3438"/><rect fill="#FFFFFF" height="30" style="stroke:#181818;stroke-width:1.0;" width="10" x="1157.5" y="714.6563"/><rect fill="#FFFFFF" height="103.3125" style="stroke:#181818;stroke-width:1.0;" width="10" x="1314.5" y="775.0078"/><rect fill="#FFFFFF" height="32.6094" style="stroke:#181818;stroke-width:1.0;" width="10" x="1496" y="815.3594"/><rect fill="#FFFFFF" height="30" style="stroke:#181818;stroke-width:1.0;" width="10" x="1496" y="939.0234"/><line style="stroke:#181818;stroke-width:0.5;stroke-dasharray:5.0,5.0;" x1="56" x2="56" y1="121.2188" y2="1017.375"/><line style="stroke:#181818;stroke-width:0.5;stroke-dasharray:5.0,5.0;" x1="273.5" x2="273.5" y1="121.2188" y2="1017.375"/><line style="stroke:#181818;stroke-width:0.5;stroke-dasharray:5.0,5.0;" x1="499.5" x2="499.5" y1="121.2188" y2="1017.375"/><line style="stroke:#181818;stroke-width:0.5;stroke-dasharray:5.0,5.0;" x1="783" x2="783" y1="245.5781" y2="1017.375"/><line style="stroke:#181818;stroke-width:0.5;stroke-dasharray:5.0,5.0;" x1="986" x2="986" y1="620.2969" y2="1017.375"/><line style="stroke:#181818;stroke-width:0.5;stroke-dasharray:5.0,5.0;" x1="1162" x2="1162" y1="121.2188" y2="1017.375"/><line style="stroke:#181818;stroke-width:0.5;stroke-dasharray:5.0,5.0;" x1="1319" x2="1319" y1="121.2188" y2="1017.375"/><line style="stroke:#181818;stroke-width:0.5;stroke-dasharray:5.0,5.0;" x1="1500.5" x2="1500.5" y1="814.3125" y2="1017.375"/><text fill="#000000" font-family="sans-serif" font-size="14" lengthAdjust="spacing" textLength="97" x="5" y="118.1426">Sales Manages</text><ellipse cx="56.5" cy="52.1094" fill="#E2E2F0" rx="8" ry="8" style="stroke:#181818;stroke-width:0.5;"/><path d="M56.5,60.1094 L56.5,87.1094 M43.5,68.1094 L69.5,68.1094 M56.5,87.1094 L43.5,102.1094 M56.5,87.1094 L69.5,102.1094 " fill="none" style="stroke:#181818;stroke-width:0.5;"/><text fill="#000000" font-family="sans-serif" font-size="14" lengthAdjust="spacing" textLength="97" x="5" y="1030.9082">Sales Manages</text><ellipse cx="56.5" cy="1042.4844" fill="#E2E2F0" rx="8" ry="8" style="stroke:#181818;stroke-width:0.5;"/><path d="M56.5,1050.4844 L56.5,1077.4844 M43.5,1058.4844 L69.5,1058.4844 M56.5,1077.4844 L43.5,1092.4844 M56.5,1077.4844 L69.5,1092.4844 " fill="none" style="stroke:#181818;stroke-width:0.5;"/><rect fill="#E2E2F0" height="31.6094" rx="2.5" ry="2.5" style="stroke:#181818;stroke-width:0.5;" width="162" x="192.5" y="88.6094"/><text fill="#000000" font-family="sans-serif" font-size="14" lengthAdjust="spacing" textLength="148" x="199.5" y="110.1426">:CreateQuestionnaireUI</text><rect fill="#E2E2F0" height="31.6094" rx="2.5" ry="2.5" style="stroke:#181818;stroke-width:0.5;" width="162" x="192.5" y="1016.375"/><text fill="#000000" font-family="sans-serif" font-size="14" lengthAdjust="spacing" textLength="148" x="199.5" y="1037.9082">:CreateQuestionnaireUI</text><rect fill="#E2E2F0" height="31.6094" rx="2.5" ry="2.5" style="stroke:#181818;stroke-width:0.5;" width="271" x="364.5" y="88.6094"/><text fill="#000000" font-family="sans-serif" font-size="14" lengthAdjust="spacing" textLength="257" x="371.5" y="110.1426">controller:CreateQuestionnaireController</text><rect fill="#E2E2F0" height="31.6094" rx="2.5" ry="2.5" style="stroke:#181818;stroke-width:0.5;" width="271" x="364.5" y="1016.375"/><text fill="#000000" font-family="sans-serif" font-size="14" lengthAdjust="spacing" textLength="257" x="371.5" y="1037.9082">controller:CreateQuestionnaireController</text><rect fill="#E2E2F0" height="31.6094" rx="2.5" ry="2.5" style="stroke:#181818;stroke-width:0.5;" width="194" x="686" y="1016.375"/><text fill="#000000" font-family="sans-serif" font-size="14" lengthAdjust="spacing" textLength="180" x="693" y="1037.9082">builder:QuestionnaireBuilder</text><rect fill="#E2E2F0" height="31.6094" rx="2.5" ry="2.5" style="stroke:#181818;stroke-width:0.5;" width="193" x="890" y="1016.375"/><text fill="#000000" font-family="sans-serif" font-size="14" lengthAdjust="spacing" textLength="179" x="897" y="1037.9082">questionnaire:Questionnaire</text><rect fill="#E2E2F0" height="31.6094" rx="2.5" ry="2.5" style="stroke:#181818;stroke-width:0.5;" width="139" x="1093" y="88.6094"/><text fill="#000000" font-family="sans-serif" font-size="14" lengthAdjust="spacing" textLength="125" x="1100" y="110.1426">repo:JPARepository</text><rect fill="#E2E2F0" height="31.6094" rx="2.5" ry="2.5" style="stroke:#181818;stroke-width:0.5;" width="139" x="1093" y="1016.375"/><text fill="#000000" font-family="sans-serif" font-size="14" lengthAdjust="spacing" textLength="125" x="1100" y="1037.9082">repo:JPARepository</text><rect fill="#E2E2F0" height="31.6094" rx="2.5" ry="2.5" style="stroke:#181818;stroke-width:0.5;" width="155" x="1242" y="88.6094"/><text fill="#000000" font-family="sans-serif" font-size="14" lengthAdjust="spacing" textLength="141" x="1249" y="110.1426">:QuestionnaireMapper</text><rect fill="#E2E2F0" height="31.6094" rx="2.5" ry="2.5" style="stroke:#181818;stroke-width:0.5;" width="155" x="1242" y="1016.375"/><text fill="#000000" font-family="sans-serif" font-size="14" lengthAdjust="spacing" textLength="141" x="1249" y="1037.9082">:QuestionnaireMapper</text><rect fill="#E2E2F0" height="31.6094" rx="2.5" ry="2.5" style="stroke:#181818;stroke-width:0.5;" width="157" x="1422.5" y="1016.375"/><text fill="#000000" font-family="sans-serif" font-size="14" lengthAdjust="spacing" textLength="143" x="1429.5" y="1037.9082">dto:QuestionnaireDTO</text><rect fill="#FFFFFF" height="877.1563" style="stroke:#181818;stroke-width:1.0;" width="10" x="51.5" y="131.2188"/><rect fill="#FFFFFF" height="834.6289" style="stroke:#181818;stroke-width:1.0;" width="10" x="268.5" y="164.7461"/><rect fill="#FFFFFF" height="702.3984" style="stroke:#181818;stroke-width:1.0;" width="10" x="495" y="206.2734"/><rect fill="#FFFFFF" height="30" style="stroke:#181818;stroke-width:1.0;" width="10" x="778" y="279.2344"/><rect fill="#FFFFFF" height="30" style="stroke:#181818;stroke-width:1.0;" width="10" x="778" y="339.5859"/><rect fill="#FFFFFF" height="30" style="stroke:#181818;stroke-width:1.0;" width="10" x="778" y="399.9375"/><rect fill="#FFFFFF" height="30" style="stroke:#181818;stroke-width:1.0;" width="10" x="778" y="460.2891"/><rect fill="#FFFFFF" height="30" style="stroke:#181818;stroke-width:1.0;" width="10" x="778" y="520.6406"/><rect fill="#FFFFFF" height="103.3125" style="stroke:#181818;stroke-width:1.0;" width="10" x="778" y="580.9922"/><rect fill="#FFFFFF" height="32.6094" style="stroke:#181818;stroke-width:1.0;" width="10" x="981.5" y="621.3438"/><rect fill="#FFFFFF" height="30" style="stroke:#181818;stroke-width:1.0;" width="10" x="1157.5" y="714.6563"/><rect fill="#FFFFFF" height="103.3125" style="stroke:#181818;stroke-width:1.0;" width="10" x="1314.5" y="775.0078"/><rect fill="#FFFFFF" height="32.6094" style="stroke:#181818;stroke-width:1.0;" width="10" x="1496" y="815.3594"/><rect fill="#FFFFFF" height="30" style="stroke:#181818;stroke-width:1.0;" width="10" x="1496" y="939.0234"/><polygon fill="#181818" points="256.5,160.7461,266.5,164.7461,256.5,168.7461,260.5,164.7461" style="stroke:#181818;stroke-width:1.0;"/><line style="stroke:#181818;stroke-width:1.0;" x1="61.5" x2="262.5" y1="164.7461" y2="164.7461"/><text fill="#000000" font-family="sans-serif" font-size="13" font-weight="bold" lengthAdjust="spacing" textLength="7" x="68.5" y="159.8896">1</text><text fill="#000000" font-family="sans-serif" font-size="13" lengthAdjust="spacing" textLength="177" x="79.5" y="159.8896">wants to create a new section.</text><path d="M283,136.2188 L283,178.2188 L458,178.2188 L458,146.2188 L448,136.2188 L283,136.2188 " fill="#FEFFDD" style="stroke:#181818;stroke-width:0.5;"/><path d="M448,136.2188 L448,146.2188 L458,146.2188 L448,136.2188 " fill="#FEFFDD" style="stroke:#181818;stroke-width:0.5;"/><text fill="#000000" font-family="sans-serif" font-size="13" lengthAdjust="spacing" textLength="154" x="289" y="154.7139">(Data requests to Manager</text><text fill="#000000" font-family="sans-serif" font-size="13" lengthAdjust="spacing" textLength="47" x="293" y="171.0654">omitted)</text><polygon fill="#181818" points="483,202.2734,493,206.2734,483,210.2734,487,206.2734" style="stroke:#181818;stroke-width:1.0;"/><line style="stroke:#181818;stroke-width:1.0;" x1="278.5" x2="489" y1="206.2734" y2="206.2734"/><text fill="#000000" font-family="sans-serif" font-size="13" font-weight="bold" lengthAdjust="spacing" textLength="7" x="285.5" y="201.417">2</text><text fill="#000000" font-family="sans-serif" font-size="13" lengthAdjust="spacing" textLength="124" x="296.5" y="201.417">createQuestionnaire()</text><polygon fill="#181818" points="674,232.625,684,236.625,674,240.625,678,236.625" style="stroke:#181818;stroke-width:1.0;"/><line style="stroke:#181818;stroke-width:1.0;stroke-dasharray:2.0,2.0;" x1="505" x2="680" y1="236.625" y2="236.625"/><text fill="#000000" font-family="sans-serif" font-size="13" font-weight="bold" lengthAdjust="spacing" textLength="7" x="512" y="231.7686">3</text><text fill="#000000" font-family="sans-serif" font-size="13" lengthAdjust="spacing" textLength="44" x="523" y="231.7686">create()</text><rect fill="#E2E2F0" height="31.6094" rx="2.5" ry="2.5" style="stroke:#181818;stroke-width:0.5;" width="194" x="686" y="214.2734"/><text fill="#000000" font-family="sans-serif" font-size="14" lengthAdjust="spacing" textLength="180" x="693" y="235.8066">builder:QuestionnaireBuilder</text><polygon fill="#181818" points="766,275.2344,776,279.2344,766,283.2344,770,279.2344" style="stroke:#181818;stroke-width:1.0;"/><line style="stroke:#181818;stroke-width:1.0;" x1="505" x2="772" y1="279.2344" y2="279.2344"/><text fill="#000000" font-family="sans-serif" font-size="13" font-weight="bold" lengthAdjust="spacing" textLength="7" x="512" y="274.3779">4</text><text fill="#000000" font-family="sans-serif" font-size="13" lengthAdjust="spacing" textLength="51" x="523" y="274.3779">withId(id)</text><polygon fill="#181818" points="766,335.5859,776,339.5859,766,343.5859,770,339.5859" style="stroke:#181818;stroke-width:1.0;"/><line style="stroke:#181818;stroke-width:1.0;" x1="505" x2="772" y1="339.5859" y2="339.5859"/><text fill="#000000" font-family="sans-serif" font-size="13" font-weight="bold" lengthAdjust="spacing" textLength="7" x="512" y="334.7295">5</text><text fill="#000000" font-family="sans-serif" font-size="13" lengthAdjust="spacing" textLength="76" x="523" y="334.7295">withTitle(title)</text><polygon fill="#181818" points="766,395.9375,776,399.9375,766,403.9375,770,399.9375" style="stroke:#181818;stroke-width:1.0;"/><line style="stroke:#181818;stroke-width:1.0;" x1="505" x2="772" y1="399.9375" y2="399.9375"/><text fill="#000000" font-family="sans-serif" font-size="13" font-weight="bold" lengthAdjust="spacing" textLength="7" x="512" y="395.0811">6</text><text fill="#000000" font-family="sans-serif" font-size="13" lengthAdjust="spacing" textLength="243" x="523" y="395.0811">withWelcomeMessage(welcomeMessage)</text><polygon fill="#181818" points="766,456.2891,776,460.2891,766,464.2891,770,460.2891" style="stroke:#181818;stroke-width:1.0;"/><line style="stroke:#181818;stroke-width:1.0;" x1="505" x2="772" y1="460.2891" y2="460.2891"/><text fill="#000000" font-family="sans-serif" font-size="13" font-weight="bold" lengthAdjust="spacing" textLength="7" x="512" y="455.4326">7</text><text fill="#000000" font-family="sans-serif" font-size="13" lengthAdjust="spacing" textLength="188" x="523" y="455.4326">withFinalMessage(finalMessage)</text><polygon fill="#181818" points="766,516.6406,776,520.6406,766,524.6406,770,520.6406" style="stroke:#181818;stroke-width:1.0;"/><line style="stroke:#181818;stroke-width:1.0;" x1="505" x2="772" y1="520.6406" y2="520.6406"/><text fill="#000000" font-family="sans-serif" font-size="13" font-weight="bold" lengthAdjust="spacing" textLength="7" x="512" y="515.7842">8</text><text fill="#000000" font-family="sans-serif" font-size="13" lengthAdjust="spacing" textLength="131" x="523" y="515.7842">withSections(sections)</text><polygon fill="#181818" points="766,576.9922,776,580.9922,766,584.9922,770,580.9922" style="stroke:#181818;stroke-width:1.0;"/><line style="stroke:#181818;stroke-width:1.0;" x1="505" x2="772" y1="580.9922" y2="580.9922"/><text fill="#000000" font-family="sans-serif" font-size="13" font-weight="bold" lengthAdjust="spacing" textLength="7" x="512" y="576.1357">9</text><text fill="#000000" font-family="sans-serif" font-size="13" lengthAdjust="spacing" textLength="35" x="523" y="576.1357">build()</text><polygon fill="#181818" points="878,607.3438,888,611.3438,878,615.3438,882,611.3438" style="stroke:#181818;stroke-width:1.0;"/><line style="stroke:#181818;stroke-width:1.0;stroke-dasharray:2.0,2.0;" x1="788" x2="884" y1="611.3438" y2="611.3438"/><text fill="#000000" font-family="sans-serif" font-size="13" font-weight="bold" lengthAdjust="spacing" textLength="14" x="795" y="606.4873">10</text><text fill="#000000" font-family="sans-serif" font-size="13" lengthAdjust="spacing" textLength="56" x="813" y="606.4873">create(...)</text><rect fill="#E2E2F0" height="31.6094" rx="2.5" ry="2.5" style="stroke:#181818;stroke-width:0.5;" width="193" x="890" y="588.9922"/><text fill="#000000" font-family="sans-serif" font-size="14" lengthAdjust="spacing" textLength="179" x="897" y="610.5254">questionnaire:Questionnaire</text><polygon fill="#181818" points="799,649.9531,789,653.9531,799,657.9531,795,653.9531" style="stroke:#181818;stroke-width:1.0;"/><line style="stroke:#181818;stroke-width:1.0;stroke-dasharray:2.0,2.0;" x1="793" x2="985.5" y1="653.9531" y2="653.9531"/><text fill="#000000" font-family="sans-serif" font-size="13" font-weight="bold" lengthAdjust="spacing" textLength="14" x="805" y="649.0967">11</text><text fill="#000000" font-family="sans-serif" font-size="13" lengthAdjust="spacing" textLength="77" x="823" y="649.0967">questionnaire</text><polygon fill="#181818" points="516,680.3047,506,684.3047,516,688.3047,512,684.3047" style="stroke:#181818;stroke-width:1.0;"/><line style="stroke:#181818;stroke-width:1.0;stroke-dasharray:2.0,2.0;" x1="510" x2="782" y1="684.3047" y2="684.3047"/><text fill="#000000" font-family="sans-serif" font-size="13" font-weight="bold" lengthAdjust="spacing" textLength="14" x="522" y="679.4482">12</text><text fill="#000000" font-family="sans-serif" font-size="13" lengthAdjust="spacing" textLength="77" x="540" y="679.4482">questionnaire</text><polygon fill="#181818" points="1145.5,710.6563,1155.5,714.6563,1145.5,718.6563,1149.5,714.6563" style="stroke:#181818;stroke-width:1.0;"/><line style="stroke:#181818;stroke-width:1.0;" x1="505" x2="1151.5" y1="714.6563" y2="714.6563"/><text fill="#000000" font-family="sans-serif" font-size="13" font-weight="bold" lengthAdjust="spacing" textLength="14" x="512" y="709.7998">13</text><text fill="#000000" font-family="sans-serif" font-size="13" lengthAdjust="spacing" textLength="106" x="530" y="709.7998">add(questionnaire)</text><polygon fill="#181818" points="1302.5,771.0078,1312.5,775.0078,1302.5,779.0078,1306.5,775.0078" style="stroke:#181818;stroke-width:1.0;"/><line style="stroke:#181818;stroke-width:1.0;" x1="505" x2="1308.5" y1="775.0078" y2="775.0078"/><text fill="#000000" font-family="sans-serif" font-size="13" font-weight="bold" lengthAdjust="spacing" textLength="14" x="512" y="770.1514">14</text><text fill="#000000" font-family="sans-serif" font-size="13" lengthAdjust="spacing" textLength="122" x="530" y="770.1514">toDTO(questionnaire)</text><polygon fill="#181818" points="1410.5,801.3594,1420.5,805.3594,1410.5,809.3594,1414.5,805.3594" style="stroke:#181818;stroke-width:1.0;"/><line style="stroke:#181818;stroke-width:1.0;stroke-dasharray:2.0,2.0;" x1="1324.5" x2="1416.5" y1="805.3594" y2="805.3594"/><text fill="#000000" font-family="sans-serif" font-size="13" font-weight="bold" lengthAdjust="spacing" textLength="14" x="1331.5" y="800.5029">15</text><text fill="#000000" font-family="sans-serif" font-size="13" lengthAdjust="spacing" textLength="56" x="1349.5" y="800.5029">create(...)</text><rect fill="#E2E2F0" height="31.6094" rx="2.5" ry="2.5" style="stroke:#181818;stroke-width:0.5;" width="157" x="1422.5" y="783.0078"/><text fill="#000000" font-family="sans-serif" font-size="14" lengthAdjust="spacing" textLength="143" x="1429.5" y="804.541">dto:QuestionnaireDTO</text><polygon fill="#181818" points="1335.5,843.9688,1325.5,847.9688,1335.5,851.9688,1331.5,847.9688" style="stroke:#181818;stroke-width:1.0;"/><line style="stroke:#181818;stroke-width:1.0;stroke-dasharray:2.0,2.0;" x1="1329.5" x2="1500" y1="847.9688" y2="847.9688"/><text fill="#000000" font-family="sans-serif" font-size="13" font-weight="bold" lengthAdjust="spacing" textLength="14" x="1341.5" y="843.1123">16</text><text fill="#000000" font-family="sans-serif" font-size="13" lengthAdjust="spacing" textLength="18" x="1359.5" y="843.1123">dto</text><polygon fill="#181818" points="516,874.3203,506,878.3203,516,882.3203,512,878.3203" style="stroke:#181818;stroke-width:1.0;"/><line style="stroke:#181818;stroke-width:1.0;stroke-dasharray:2.0,2.0;" x1="510" x2="1318.5" y1="878.3203" y2="878.3203"/><text fill="#000000" font-family="sans-serif" font-size="13" font-weight="bold" lengthAdjust="spacing" textLength="14" x="522" y="873.4639">17</text><text fill="#000000" font-family="sans-serif" font-size="13" lengthAdjust="spacing" textLength="18" x="540" y="873.4639">dto</text><polygon fill="#181818" points="289.5,904.6719,279.5,908.6719,289.5,912.6719,285.5,908.6719" style="stroke:#181818;stroke-width:1.0;"/><line style="stroke:#181818;stroke-width:1.0;stroke-dasharray:2.0,2.0;" x1="283.5" x2="499" y1="908.6719" y2="908.6719"/><text fill="#000000" font-family="sans-serif" font-size="13" font-weight="bold" lengthAdjust="spacing" textLength="14" x="295.5" y="903.8154">18</text><text fill="#000000" font-family="sans-serif" font-size="13" lengthAdjust="spacing" textLength="18" x="313.5" y="903.8154">dto</text><polygon fill="#181818" points="1484,935.0234,1494,939.0234,1484,943.0234,1488,939.0234" style="stroke:#181818;stroke-width:1.0;"/><line style="stroke:#181818;stroke-width:1.0;" x1="278.5" x2="1490" y1="939.0234" y2="939.0234"/><text fill="#000000" font-family="sans-serif" font-size="13" font-weight="bold" lengthAdjust="spacing" textLength="14" x="285.5" y="934.167">19</text><text fill="#000000" font-family="sans-serif" font-size="13" lengthAdjust="spacing" textLength="45" x="303.5" y="934.167">toString</text><polygon fill="#181818" points="72.5,995.375,62.5,999.375,72.5,1003.375,68.5,999.375" style="stroke:#181818;stroke-width:1.0;"/><line style="stroke:#181818;stroke-width:1.0;stroke-dasharray:2.0,2.0;" x1="66.5" x2="272.5" y1="999.375" y2="999.375"/><text fill="#000000" font-family="sans-serif" font-size="13" font-weight="bold" lengthAdjust="spacing" textLength="14" x="78.5" y="994.5186">20</text><text fill="#000000" font-family="sans-serif" font-size="13" lengthAdjust="spacing" textLength="149" x="96.5" y="994.5186">inform operation success.</text><!--MD5=[4d4589be00f770a14b45f0f4810efc7e]
@startuml
title US3001 - Sequence Diagram 3 (Questionnaire)

autonumber

actor "Sales Manages" as manager

activate manager

    manager -> ":CreateQuestionnaireUI" as ui:wants to create a new section.
    activate ui
        note right: (Data requests to Manager\n omitted)
        ui -> "controller:CreateQuestionnaireController" as controller: createQuestionnaire()
        activate controller

            controller - -> "builder:QuestionnaireBuilder" as builder**:create()
            controller -> builder:withId(id)
            activate builder
            deactivate builder

            controller -> builder:withTitle(title)
            activate builder
            deactivate builder

            controller -> builder:withWelcomeMessage(welcomeMessage)
            activate builder
            deactivate builder

            controller -> builder:withFinalMessage(finalMessage)
            activate builder
            deactivate builder

            controller -> builder:withSections(sections)
            activate builder
            deactivate builder


            controller -> builder:build()
            activate builder
                builder - -> "questionnaire:Questionnaire" as questionnaire**:create(...)
                activate questionnaire
                questionnaire - -> builder : questionnaire
                deactivate questionnaire
               builder- ->controller: questionnaire
            deactivate builder

            controller -> "repo:JPARepository" as repo: add(questionnaire)
            activate repo
            deactivate repo


            controller -> ":QuestionnaireMapper" as mapper:toDTO(questionnaire)
            activate mapper
                mapper - -> "dto:QuestionnaireDTO" as dto**: create(...)
                activate dto
                    dto- -> mapper:dto
                deactivate dto
                mapper - -> controller:dto
            deactivate mapper
            controller - -> ui:dto
        deactivate controller
        ui -> dto: toString
        activate dto
        deactivate dto
        ui - -> manager: inform operation success.
    deactivate ui
@enduml

PlantUML version 1.2022.4(Sat Apr 09 14:29:17 BST 2022)
(GPL source distribution)
Java Runtime: OpenJDK Runtime Environment
JVM: OpenJDK 64-Bit Server VM
Default Encoding: Cp1252
Language: pt
Country: PT
--></g></svg>