<?xml version="1.0" encoding="UTF-8" standalone="no"?><svg xmlns="http://www.w3.org/2000/svg" xmlns:xlink="http://www.w3.org/1999/xlink" contentStyleType="text/css" height="1467px" preserveAspectRatio="none" style="width:825px;height:1467px;background:#FFFFFF;" version="1.1" viewBox="0 0 825 1467" width="825px" zoomAndPan="magnify"><defs/><g><rect height="27.6094" style="stroke:#00000000;stroke-width:1.0;fill:none;" width="248" x="281.75" y="5"/><text fill="#000000" font-family="sans-serif" font-size="14" font-weight="bold" lengthAdjust="spacing" textLength="238" x="286.75" y="24.5332">US3001 - Class Diagram 4 (Survey)</text><!--MD5=[d7ae1f9a22fdac821b66d4e46119eae8]
class CreateSurveyUI--><g id="elem_CreateSurveyUI"><rect codeLine="5" fill="#F1F1F1" height="48" id="CreateSurveyUI" rx="2.5" ry="2.5" style="stroke:#181818;stroke-width:0.5;" width="131" x="164" y="61.1094"/><ellipse cx="179" cy="77.1094" fill="#ADD1B2" rx="11" ry="11" style="stroke:#181818;stroke-width:1.0;"/><path d="M181,73.6094 Q181.2031,73.1094 181.4375,72.8594 Q181.6719,72.6094 181.9375,72.6094 Q182.4063,72.6094 182.7031,72.8906 Q183,73.1719 183,73.8281 L183,75.3906 Q183,76.0469 182.7188,76.3281 Q182.4375,76.6094 182,76.6094 Q181.6094,76.6094 181.3594,76.4375 Q181.1094,76.2656 181,75.8125 Q180.9531,75.5 180.7813,75.3281 Q180.4688,75 179.9063,74.8125 Q179.3438,74.6094 178.7813,74.6094 Q178.0781,74.6094 177.4844,74.8906 Q176.9063,75.1719 176.4531,75.7969 Q176,76.4219 176,77.2813 L176,78.2031 Q176,79.2344 176.8438,79.9219 Q177.6875,80.6094 179.1875,80.6094 Q180.0781,80.6094 180.7031,80.4063 Q181.0625,80.2969 181.4688,79.9375 Q181.7344,79.7344 181.875,79.6719 Q182.0156,79.6094 182.1875,79.6094 Q182.5156,79.6094 182.75,79.875 Q183,80.125 183,80.4844 Q183,80.8281 182.6563,81.2344 Q182.1563,81.8281 181.3594,82.1563 Q180.3125,82.6094 179.0313,82.6094 Q177.5313,82.6094 176.3281,82.0156 Q175.3594,81.5469 174.6719,80.5313 Q174,79.5156 174,78.3125 L174,77.2188 Q174,75.9688 174.5938,74.875 Q175.2031,73.7813 176.25,73.2031 Q177.3125,72.6094 178.5,72.6094 Q179.2188,72.6094 179.8438,72.8594 Q180.4688,73.1094 181,73.6094 Z " fill="#000000"/><text fill="#000000" font-family="sans-serif" font-size="14" lengthAdjust="spacing" textLength="99" x="193" y="82.8379">CreateSurveyUI</text><line style="stroke:#181818;stroke-width:0.5;" x1="165" x2="294" y1="93.1094" y2="93.1094"/><line style="stroke:#181818;stroke-width:0.5;" x1="165" x2="294" y1="101.1094" y2="101.1094"/></g><!--MD5=[f8dda83689a77e8fe8705027bf2f9a94]
class CreateSurveyController--><g id="elem_CreateSurveyController"><rect codeLine="7" fill="#F1F1F1" height="114.4375" id="CreateSurveyController" rx="2.5" ry="2.5" style="stroke:#181818;stroke-width:0.5;" width="185" x="137" y="185.6094"/><ellipse cx="153.8" cy="201.6094" fill="#ADD1B2" rx="11" ry="11" style="stroke:#181818;stroke-width:1.0;"/><path d="M155.8,198.1094 Q156.0031,197.6094 156.2375,197.3594 Q156.4719,197.1094 156.7375,197.1094 Q157.2063,197.1094 157.5031,197.3906 Q157.8,197.6719 157.8,198.3281 L157.8,199.8906 Q157.8,200.5469 157.5188,200.8281 Q157.2375,201.1094 156.8,201.1094 Q156.4094,201.1094 156.1594,200.9375 Q155.9094,200.7656 155.8,200.3125 Q155.7531,200 155.5813,199.8281 Q155.2688,199.5 154.7063,199.3125 Q154.1438,199.1094 153.5813,199.1094 Q152.8781,199.1094 152.2844,199.3906 Q151.7063,199.6719 151.2531,200.2969 Q150.8,200.9219 150.8,201.7813 L150.8,202.7031 Q150.8,203.7344 151.6438,204.4219 Q152.4875,205.1094 153.9875,205.1094 Q154.8781,205.1094 155.5031,204.9063 Q155.8625,204.7969 156.2688,204.4375 Q156.5344,204.2344 156.675,204.1719 Q156.8156,204.1094 156.9875,204.1094 Q157.3156,204.1094 157.55,204.375 Q157.8,204.625 157.8,204.9844 Q157.8,205.3281 157.4563,205.7344 Q156.9563,206.3281 156.1594,206.6563 Q155.1125,207.1094 153.8313,207.1094 Q152.3313,207.1094 151.1281,206.5156 Q150.1594,206.0469 149.4719,205.0313 Q148.8,204.0156 148.8,202.8125 L148.8,201.7188 Q148.8,200.4688 149.3938,199.375 Q150.0031,198.2813 151.05,197.7031 Q152.1125,197.1094 153.3,197.1094 Q154.0188,197.1094 154.6438,197.3594 Q155.2688,197.6094 155.8,198.1094 Z " fill="#000000"/><text fill="#000000" font-family="sans-serif" font-size="14" lengthAdjust="spacing" textLength="149" x="168.2" y="207.3379">CreateSurveyController</text><line style="stroke:#181818;stroke-width:0.5;" x1="138" x2="321" y1="217.6094" y2="217.6094"/><ellipse cx="148" cy="250.2188" fill="#84BE84" rx="3" ry="3" style="stroke:#038048;stroke-width:1.0;"/><text fill="#000000" font-family="sans-serif" font-size="14" lengthAdjust="spacing" textLength="159" x="157" y="257.752">CreateSurveyController()</text><ellipse cx="148" cy="267.8281" fill="#84BE84" rx="3" ry="3" style="stroke:#038048;stroke-width:1.0;"/><text fill="#000000" font-family="sans-serif" font-size="14" lengthAdjust="spacing" textLength="94" x="157" y="275.3613">getQuestions()</text><ellipse cx="148" cy="285.4375" fill="#84BE84" rx="3" ry="3" style="stroke:#038048;stroke-width:1.0;"/><text fill="#000000" font-family="sans-serif" font-size="14" lengthAdjust="spacing" textLength="151" x="157" y="292.9707">createQuestionnaire(...)</text><line style="stroke:#181818;stroke-width:1.0;" x1="138" x2="202.5" y1="234.4141" y2="234.4141"/><text fill="#000000" font-family="sans-serif" font-size="14" lengthAdjust="spacing" textLength="54" x="202.5" y="239.6426">Methods</text><line style="stroke:#181818;stroke-width:1.0;" x1="256.5" x2="321" y1="234.4141" y2="234.4141"/></g><!--MD5=[5301509e5b784a50c1c4ce9967badd46]
class JPARepository--><g id="elem_JPARepository"><rect codeLine="14" fill="#F1F1F1" height="114.4375" id="JPARepository" rx="2.5" ry="2.5" style="stroke:#181818;stroke-width:0.5;" width="125" x="7" y="396.1094"/><ellipse cx="22" cy="412.1094" fill="#A9DCDF" rx="11" ry="11" style="stroke:#181818;stroke-width:1.0;"/><path d="M23.75,413.6094 L20.4531,413.6094 L20.0156,414.6094 L20.0156,414.6094 L20.4844,414.6094 L21,415.2344 L21,415.6094 L21,415.9844 L20.4844,416.6094 L20.0156,416.6094 L18.125,416.6094 L17.5156,416.6094 L17,415.9844 L17,415.6094 L17,415.2344 L17.5156,414.6094 L18.125,414.6094 L20.4375,408.6094 L19.5625,408.6094 L18.5156,408.6094 L18,407.9844 L18,407.6094 L18,407.2344 L18.5156,406.6094 L19.5625,406.6094 L23.2344,406.6094 L25.9219,414.6094 L26.4844,414.6094 L26.4844,414.6094 L27,415.2344 L27,415.6094 L27,415.9844 L26.4844,416.6094 L25.9219,416.6094 L24.0313,416.6094 L23.5156,416.6094 L23,415.9844 L23,415.6094 L23,415.2344 L23.5156,414.6094 L24.0313,414.6094 L24.0313,414.6094 L23.75,413.6094 Z M23.2031,411.6094 L22,408.0313 L20.9688,411.6094 L23.2031,411.6094 Z " fill="#000000"/><text fill="#000000" font-family="sans-serif" font-size="14" font-style="italic" lengthAdjust="spacing" textLength="93" x="36" y="417.8379">JPARepository</text><line style="stroke:#181818;stroke-width:0.5;" x1="8" x2="131" y1="428.1094" y2="428.1094"/><ellipse cx="18" cy="460.7188" fill="#84BE84" rx="3" ry="3" style="stroke:#038048;stroke-width:1.0;"/><text fill="#000000" font-family="sans-serif" font-size="14" lengthAdjust="spacing" textLength="48" x="27" y="468.252">findAll()</text><ellipse cx="18" cy="478.3281" fill="#84BE84" rx="3" ry="3" style="stroke:#038048;stroke-width:1.0;"/><text fill="#000000" font-family="sans-serif" font-size="14" lengthAdjust="spacing" textLength="68" x="27" y="485.8613">add(entity)</text><text fill="#000000" font-family="sans-serif" font-size="14" lengthAdjust="spacing" textLength="4" x="27" y="503.4707"> </text><line style="stroke:#181818;stroke-width:1.0;" x1="8" x2="42.5" y1="444.9141" y2="444.9141"/><text fill="#000000" font-family="sans-serif" font-size="14" lengthAdjust="spacing" textLength="54" x="42.5" y="450.1426">Methods</text><line style="stroke:#181818;stroke-width:1.0;" x1="96.5" x2="131" y1="444.9141" y2="444.9141"/></g><!--MD5=[167eac944423e09ef62a4d900fc4df58]
class SurveyMapper--><g id="elem_SurveyMapper"><rect codeLine="21" fill="#F1F1F1" height="79.2188" id="SurveyMapper" rx="2.5" ry="2.5" style="stroke:#181818;stroke-width:0.5;" width="124" x="167.5" y="413.6094"/><ellipse cx="182.5" cy="429.6094" fill="#ADD1B2" rx="11" ry="11" style="stroke:#181818;stroke-width:1.0;"/><path d="M184.5,426.1094 Q184.7031,425.6094 184.9375,425.3594 Q185.1719,425.1094 185.4375,425.1094 Q185.9063,425.1094 186.2031,425.3906 Q186.5,425.6719 186.5,426.3281 L186.5,427.8906 Q186.5,428.5469 186.2188,428.8281 Q185.9375,429.1094 185.5,429.1094 Q185.1094,429.1094 184.8594,428.9375 Q184.6094,428.7656 184.5,428.3125 Q184.4531,428 184.2813,427.8281 Q183.9688,427.5 183.4063,427.3125 Q182.8438,427.1094 182.2813,427.1094 Q181.5781,427.1094 180.9844,427.3906 Q180.4063,427.6719 179.9531,428.2969 Q179.5,428.9219 179.5,429.7813 L179.5,430.7031 Q179.5,431.7344 180.3438,432.4219 Q181.1875,433.1094 182.6875,433.1094 Q183.5781,433.1094 184.2031,432.9063 Q184.5625,432.7969 184.9688,432.4375 Q185.2344,432.2344 185.375,432.1719 Q185.5156,432.1094 185.6875,432.1094 Q186.0156,432.1094 186.25,432.375 Q186.5,432.625 186.5,432.9844 Q186.5,433.3281 186.1563,433.7344 Q185.6563,434.3281 184.8594,434.6563 Q183.8125,435.1094 182.5313,435.1094 Q181.0313,435.1094 179.8281,434.5156 Q178.8594,434.0469 178.1719,433.0313 Q177.5,432.0156 177.5,430.8125 L177.5,429.7188 Q177.5,428.4688 178.0938,427.375 Q178.7031,426.2813 179.75,425.7031 Q180.8125,425.1094 182,425.1094 Q182.7188,425.1094 183.3438,425.3594 Q183.9688,425.6094 184.5,426.1094 Z " fill="#000000"/><text fill="#000000" font-family="sans-serif" font-size="14" lengthAdjust="spacing" textLength="92" x="196.5" y="435.3379">SurveyMapper</text><line style="stroke:#181818;stroke-width:0.5;" x1="168.5" x2="290.5" y1="445.6094" y2="445.6094"/><ellipse cx="178.5" cy="478.2188" fill="#84BE84" rx="3" ry="3" style="stroke:#038048;stroke-width:1.0;"/><text fill="#000000" font-family="sans-serif" font-size="14" lengthAdjust="spacing" textLength="94" x="187.5" y="485.752">toDTO(survey)</text><line style="stroke:#181818;stroke-width:1.0;" x1="168.5" x2="202.5" y1="462.4141" y2="462.4141"/><text fill="#000000" font-family="sans-serif" font-size="14" lengthAdjust="spacing" textLength="54" x="202.5" y="467.6426">Methods</text><line style="stroke:#181818;stroke-width:1.0;" x1="256.5" x2="290.5" y1="462.4141" y2="462.4141"/></g><!--MD5=[ca7e2bcbfac35f85e33bf6d1b8bb0f5b]
class SurveyDTO--><g id="elem_SurveyDTO"><rect codeLine="26" fill="#F1F1F1" height="83.2188" id="SurveyDTO" rx="2.5" ry="2.5" style="stroke:#181818;stroke-width:0.5;" width="106" x="176.5" y="631.1094"/><ellipse cx="191.5" cy="647.1094" fill="#ADD1B2" rx="11" ry="11" style="stroke:#181818;stroke-width:1.0;"/><path d="M193.5,643.6094 Q193.7031,643.1094 193.9375,642.8594 Q194.1719,642.6094 194.4375,642.6094 Q194.9063,642.6094 195.2031,642.8906 Q195.5,643.1719 195.5,643.8281 L195.5,645.3906 Q195.5,646.0469 195.2188,646.3281 Q194.9375,646.6094 194.5,646.6094 Q194.1094,646.6094 193.8594,646.4375 Q193.6094,646.2656 193.5,645.8125 Q193.4531,645.5 193.2813,645.3281 Q192.9688,645 192.4063,644.8125 Q191.8438,644.6094 191.2813,644.6094 Q190.5781,644.6094 189.9844,644.8906 Q189.4063,645.1719 188.9531,645.7969 Q188.5,646.4219 188.5,647.2813 L188.5,648.2031 Q188.5,649.2344 189.3438,649.9219 Q190.1875,650.6094 191.6875,650.6094 Q192.5781,650.6094 193.2031,650.4063 Q193.5625,650.2969 193.9688,649.9375 Q194.2344,649.7344 194.375,649.6719 Q194.5156,649.6094 194.6875,649.6094 Q195.0156,649.6094 195.25,649.875 Q195.5,650.125 195.5,650.4844 Q195.5,650.8281 195.1563,651.2344 Q194.6563,651.8281 193.8594,652.1563 Q192.8125,652.6094 191.5313,652.6094 Q190.0313,652.6094 188.8281,652.0156 Q187.8594,651.5469 187.1719,650.5313 Q186.5,649.5156 186.5,648.3125 L186.5,647.2188 Q186.5,645.9688 187.0938,644.875 Q187.7031,643.7813 188.75,643.2031 Q189.8125,642.6094 191,642.6094 Q191.7188,642.6094 192.3438,642.8594 Q192.9688,643.1094 193.5,643.6094 Z " fill="#000000"/><text fill="#000000" font-family="sans-serif" font-size="14" lengthAdjust="spacing" textLength="74" x="205.5" y="652.8379">SurveyDTO</text><line style="stroke:#181818;stroke-width:0.5;" x1="177.5" x2="281.5" y1="663.1094" y2="663.1094"/><ellipse cx="187.5" cy="674.1094" fill="none" rx="3" ry="3" style="stroke:#038048;stroke-width:1.0;"/><text fill="#000000" font-family="sans-serif" font-size="14" lengthAdjust="spacing" textLength="11" x="196.5" y="681.6426">id</text><ellipse cx="187.5" cy="691.7188" fill="none" rx="3" ry="3" style="stroke:#038048;stroke-width:1.0;"/><text fill="#000000" font-family="sans-serif" font-size="14" lengthAdjust="spacing" textLength="49" x="196.5" y="699.252">toString</text><line style="stroke:#181818;stroke-width:0.5;" x1="177.5" x2="281.5" y1="706.3281" y2="706.3281"/></g><!--MD5=[39db2f4e02f9ce880d65a0b099c8779e]
class QuestionnaireMapper--><g id="elem_QuestionnaireMapper"><rect codeLine="31" fill="#F1F1F1" height="79.2188" id="QuestionnaireMapper" rx="2.5" ry="2.5" style="stroke:#181818;stroke-width:0.5;" width="169" x="330" y="45.6094"/><ellipse cx="345" cy="61.6094" fill="#ADD1B2" rx="11" ry="11" style="stroke:#181818;stroke-width:1.0;"/><path d="M347,58.1094 Q347.2031,57.6094 347.4375,57.3594 Q347.6719,57.1094 347.9375,57.1094 Q348.4063,57.1094 348.7031,57.3906 Q349,57.6719 349,58.3281 L349,59.8906 Q349,60.5469 348.7188,60.8281 Q348.4375,61.1094 348,61.1094 Q347.6094,61.1094 347.3594,60.9375 Q347.1094,60.7656 347,60.3125 Q346.9531,60 346.7813,59.8281 Q346.4688,59.5 345.9063,59.3125 Q345.3438,59.1094 344.7813,59.1094 Q344.0781,59.1094 343.4844,59.3906 Q342.9063,59.6719 342.4531,60.2969 Q342,60.9219 342,61.7813 L342,62.7031 Q342,63.7344 342.8438,64.4219 Q343.6875,65.1094 345.1875,65.1094 Q346.0781,65.1094 346.7031,64.9063 Q347.0625,64.7969 347.4688,64.4375 Q347.7344,64.2344 347.875,64.1719 Q348.0156,64.1094 348.1875,64.1094 Q348.5156,64.1094 348.75,64.375 Q349,64.625 349,64.9844 Q349,65.3281 348.6563,65.7344 Q348.1563,66.3281 347.3594,66.6563 Q346.3125,67.1094 345.0313,67.1094 Q343.5313,67.1094 342.3281,66.5156 Q341.3594,66.0469 340.6719,65.0313 Q340,64.0156 340,62.8125 L340,61.7188 Q340,60.4688 340.5938,59.375 Q341.2031,58.2813 342.25,57.7031 Q343.3125,57.1094 344.5,57.1094 Q345.2188,57.1094 345.8438,57.3594 Q346.4688,57.6094 347,58.1094 Z " fill="#000000"/><text fill="#000000" font-family="sans-serif" font-size="14" lengthAdjust="spacing" textLength="137" x="359" y="67.3379">QuestionnaireMapper</text><line style="stroke:#181818;stroke-width:0.5;" x1="331" x2="498" y1="77.6094" y2="77.6094"/><ellipse cx="341" cy="110.2188" fill="#84BE84" rx="3" ry="3" style="stroke:#038048;stroke-width:1.0;"/><text fill="#000000" font-family="sans-serif" font-size="14" lengthAdjust="spacing" textLength="138" x="350" y="117.752">toDTO(questionnaire)</text><line style="stroke:#181818;stroke-width:1.0;" x1="331" x2="387.5" y1="94.4141" y2="94.4141"/><text fill="#000000" font-family="sans-serif" font-size="14" lengthAdjust="spacing" textLength="54" x="387.5" y="99.6426">Methods</text><line style="stroke:#181818;stroke-width:1.0;" x1="441.5" x2="498" y1="94.4141" y2="94.4141"/></g><!--MD5=[3ddf2fc78de39a51ca8cbdf3b2a84ba0]
class QuestionnaireDTO--><g id="elem_QuestionnaireDTO"><rect codeLine="36" fill="#F1F1F1" height="65.6094" id="QuestionnaireDTO" rx="2.5" ry="2.5" style="stroke:#181818;stroke-width:0.5;" width="151" x="534" y="52.1094"/><ellipse cx="549" cy="68.1094" fill="#ADD1B2" rx="11" ry="11" style="stroke:#181818;stroke-width:1.0;"/><path d="M551,64.6094 Q551.2031,64.1094 551.4375,63.8594 Q551.6719,63.6094 551.9375,63.6094 Q552.4063,63.6094 552.7031,63.8906 Q553,64.1719 553,64.8281 L553,66.3906 Q553,67.0469 552.7188,67.3281 Q552.4375,67.6094 552,67.6094 Q551.6094,67.6094 551.3594,67.4375 Q551.1094,67.2656 551,66.8125 Q550.9531,66.5 550.7813,66.3281 Q550.4688,66 549.9063,65.8125 Q549.3438,65.6094 548.7813,65.6094 Q548.0781,65.6094 547.4844,65.8906 Q546.9063,66.1719 546.4531,66.7969 Q546,67.4219 546,68.2813 L546,69.2031 Q546,70.2344 546.8438,70.9219 Q547.6875,71.6094 549.1875,71.6094 Q550.0781,71.6094 550.7031,71.4063 Q551.0625,71.2969 551.4688,70.9375 Q551.7344,70.7344 551.875,70.6719 Q552.0156,70.6094 552.1875,70.6094 Q552.5156,70.6094 552.75,70.875 Q553,71.125 553,71.4844 Q553,71.8281 552.6563,72.2344 Q552.1563,72.8281 551.3594,73.1563 Q550.3125,73.6094 549.0313,73.6094 Q547.5313,73.6094 546.3281,73.0156 Q545.3594,72.5469 544.6719,71.5313 Q544,70.5156 544,69.3125 L544,68.2188 Q544,66.9688 544.5938,65.875 Q545.2031,64.7813 546.25,64.2031 Q547.3125,63.6094 548.5,63.6094 Q549.2188,63.6094 549.8438,63.8594 Q550.4688,64.1094 551,64.6094 Z " fill="#000000"/><text fill="#000000" font-family="sans-serif" font-size="14" lengthAdjust="spacing" textLength="119" x="563" y="73.8379">QuestionnaireDTO</text><line style="stroke:#181818;stroke-width:0.5;" x1="535" x2="684" y1="84.1094" y2="84.1094"/><ellipse cx="545" cy="95.1094" fill="none" rx="3" ry="3" style="stroke:#038048;stroke-width:1.0;"/><text fill="#000000" font-family="sans-serif" font-size="14" lengthAdjust="spacing" textLength="49" x="554" y="102.6426">toString</text><line style="stroke:#181818;stroke-width:0.5;" x1="535" x2="684" y1="109.7188" y2="109.7188"/></g><!--MD5=[85517d735497e4924ec541d2cb70ec34]
class SurveyBuilder--><g id="elem_SurveyBuilder"><rect codeLine="40" fill="#F1F1F1" height="184.875" id="SurveyBuilder" rx="2.5" ry="2.5" style="stroke:#181818;stroke-width:0.5;" width="235" x="327" y="360.6094"/><ellipse cx="396.25" cy="376.6094" fill="#ADD1B2" rx="11" ry="11" style="stroke:#181818;stroke-width:1.0;"/><path d="M398.25,373.1094 Q398.4531,372.6094 398.6875,372.3594 Q398.9219,372.1094 399.1875,372.1094 Q399.6563,372.1094 399.9531,372.3906 Q400.25,372.6719 400.25,373.3281 L400.25,374.8906 Q400.25,375.5469 399.9688,375.8281 Q399.6875,376.1094 399.25,376.1094 Q398.8594,376.1094 398.6094,375.9375 Q398.3594,375.7656 398.25,375.3125 Q398.2031,375 398.0313,374.8281 Q397.7188,374.5 397.1563,374.3125 Q396.5938,374.1094 396.0313,374.1094 Q395.3281,374.1094 394.7344,374.3906 Q394.1563,374.6719 393.7031,375.2969 Q393.25,375.9219 393.25,376.7813 L393.25,377.7031 Q393.25,378.7344 394.0938,379.4219 Q394.9375,380.1094 396.4375,380.1094 Q397.3281,380.1094 397.9531,379.9063 Q398.3125,379.7969 398.7188,379.4375 Q398.9844,379.2344 399.125,379.1719 Q399.2656,379.1094 399.4375,379.1094 Q399.7656,379.1094 400,379.375 Q400.25,379.625 400.25,379.9844 Q400.25,380.3281 399.9063,380.7344 Q399.4063,381.3281 398.6094,381.6563 Q397.5625,382.1094 396.2813,382.1094 Q394.7813,382.1094 393.5781,381.5156 Q392.6094,381.0469 391.9219,380.0313 Q391.25,379.0156 391.25,377.8125 L391.25,376.7188 Q391.25,375.4688 391.8438,374.375 Q392.4531,373.2813 393.5,372.7031 Q394.5625,372.1094 395.75,372.1094 Q396.4688,372.1094 397.0938,372.3594 Q397.7188,372.6094 398.25,373.1094 Z " fill="#000000"/><text fill="#000000" font-family="sans-serif" font-size="14" lengthAdjust="spacing" textLength="88" x="416.75" y="382.3379">SurveyBuilder</text><line style="stroke:#181818;stroke-width:0.5;" x1="328" x2="561" y1="392.6094" y2="392.6094"/><rect fill="none" height="6" style="stroke:#C82930;stroke-width:1.0;" width="6" x="335" y="400.6094"/><text fill="#000000" font-family="sans-serif" font-size="14" lengthAdjust="spacing" textLength="86" x="347" y="411.1426">questionnaire</text><rect fill="none" height="6" style="stroke:#C82930;stroke-width:1.0;" width="6" x="335" y="418.2188"/><text fill="#000000" font-family="sans-serif" font-size="14" lengthAdjust="spacing" textLength="72" x="347" y="428.752">timeInterval</text><rect fill="none" height="6" style="stroke:#C82930;stroke-width:1.0;" width="6" x="335" y="435.8281"/><text fill="#000000" font-family="sans-serif" font-size="14" lengthAdjust="spacing" textLength="96" x="347" y="446.3613">targetAudience</text><ellipse cx="338" cy="478.0469" fill="#84BE84" rx="3" ry="3" style="stroke:#038048;stroke-width:1.0;"/><text fill="#000000" font-family="sans-serif" font-size="14" lengthAdjust="spacing" textLength="209" x="347" y="485.5801">withQuestionnaire(questionnaire)</text><ellipse cx="338" cy="495.6563" fill="#84BE84" rx="3" ry="3" style="stroke:#038048;stroke-width:1.0;"/><text fill="#000000" font-family="sans-serif" font-size="14" lengthAdjust="spacing" textLength="183" x="347" y="503.1895">withTimeInterval(timeInterval)</text><ellipse cx="338" cy="513.2656" fill="#84BE84" rx="3" ry="3" style="stroke:#038048;stroke-width:1.0;"/><text fill="#000000" font-family="sans-serif" font-size="14" lengthAdjust="spacing" textLength="172" x="347" y="520.7988">withTargetAudience(target)</text><ellipse cx="338" cy="530.875" fill="#84BE84" rx="3" ry="3" style="stroke:#038048;stroke-width:1.0;"/><text fill="#000000" font-family="sans-serif" font-size="14" lengthAdjust="spacing" textLength="40" x="347" y="538.4082">build()</text><line style="stroke:#181818;stroke-width:1.0;" x1="328" x2="417.5" y1="462.2422" y2="462.2422"/><text fill="#000000" font-family="sans-serif" font-size="14" lengthAdjust="spacing" textLength="54" x="417.5" y="467.4707">Methods</text><line style="stroke:#181818;stroke-width:1.0;" x1="471.5" x2="561" y1="462.2422" y2="462.2422"/></g><!--MD5=[3145b4be7c5005b24cda6f18a1d594b0]
class Survey--><g id="elem_Survey"><rect codeLine="51" fill="#F1F1F1" height="132.0469" id="Survey" rx="2.5" ry="2.5" style="stroke:#181818;stroke-width:0.5;" width="122" x="383.5" y="606.6094"/><ellipse cx="419.2" cy="622.6094" fill="#ADD1B2" rx="11" ry="11" style="stroke:#181818;stroke-width:1.0;"/><path d="M421.2,619.1094 Q421.4031,618.6094 421.6375,618.3594 Q421.8719,618.1094 422.1375,618.1094 Q422.6063,618.1094 422.9031,618.3906 Q423.2,618.6719 423.2,619.3281 L423.2,620.8906 Q423.2,621.5469 422.9188,621.8281 Q422.6375,622.1094 422.2,622.1094 Q421.8094,622.1094 421.5594,621.9375 Q421.3094,621.7656 421.2,621.3125 Q421.1531,621 420.9813,620.8281 Q420.6688,620.5 420.1063,620.3125 Q419.5438,620.1094 418.9813,620.1094 Q418.2781,620.1094 417.6844,620.3906 Q417.1063,620.6719 416.6531,621.2969 Q416.2,621.9219 416.2,622.7813 L416.2,623.7031 Q416.2,624.7344 417.0438,625.4219 Q417.8875,626.1094 419.3875,626.1094 Q420.2781,626.1094 420.9031,625.9063 Q421.2625,625.7969 421.6688,625.4375 Q421.9344,625.2344 422.075,625.1719 Q422.2156,625.1094 422.3875,625.1094 Q422.7156,625.1094 422.95,625.375 Q423.2,625.625 423.2,625.9844 Q423.2,626.3281 422.8563,626.7344 Q422.3563,627.3281 421.5594,627.6563 Q420.5125,628.1094 419.2313,628.1094 Q417.7313,628.1094 416.5281,627.5156 Q415.5594,627.0469 414.8719,626.0313 Q414.2,625.0156 414.2,623.8125 L414.2,622.7188 Q414.2,621.4688 414.7938,620.375 Q415.4031,619.2813 416.45,618.7031 Q417.5125,618.1094 418.7,618.1094 Q419.4188,618.1094 420.0438,618.3594 Q420.6688,618.6094 421.2,619.1094 Z " fill="#000000"/><text fill="#000000" font-family="sans-serif" font-size="14" lengthAdjust="spacing" textLength="44" x="437.8" y="628.3379">Survey</text><line style="stroke:#181818;stroke-width:0.5;" x1="384.5" x2="504.5" y1="638.6094" y2="638.6094"/><rect fill="none" height="6" style="stroke:#C82930;stroke-width:1.0;" width="6" x="391.5" y="646.6094"/><text fill="#000000" font-family="sans-serif" font-size="14" lengthAdjust="spacing" textLength="86" x="403.5" y="657.1426">questionnaire</text><rect fill="none" height="6" style="stroke:#C82930;stroke-width:1.0;" width="6" x="391.5" y="664.2188"/><text fill="#000000" font-family="sans-serif" font-size="14" lengthAdjust="spacing" textLength="72" x="403.5" y="674.752">timeInterval</text><rect fill="none" height="6" style="stroke:#C82930;stroke-width:1.0;" width="6" x="391.5" y="681.8281"/><text fill="#000000" font-family="sans-serif" font-size="14" lengthAdjust="spacing" textLength="96" x="403.5" y="692.3613">targetAudience</text><ellipse cx="394.5" cy="724.0469" fill="#84BE84" rx="3" ry="3" style="stroke:#038048;stroke-width:1.0;"/><text fill="#000000" font-family="sans-serif" font-size="14" lengthAdjust="spacing" textLength="59" x="403.5" y="731.5801">toString()</text><line style="stroke:#181818;stroke-width:1.0;" x1="384.5" x2="417.5" y1="708.2422" y2="708.2422"/><text fill="#000000" font-family="sans-serif" font-size="14" lengthAdjust="spacing" textLength="54" x="417.5" y="713.4707">Methods</text><line style="stroke:#181818;stroke-width:1.0;" x1="471.5" x2="504.5" y1="708.2422" y2="708.2422"/></g><!--MD5=[009695af4e54f3bba8a9c60dca3e1c94]
class Description--><g id="elem_Description"><rect codeLine="59" fill="#F1F1F1" height="65.6094" id="Description" rx="2.5" ry="2.5" style="stroke:#181818;stroke-width:0.5;" width="103" x="84" y="851.6094"/><ellipse cx="99" cy="867.6094" fill="#ADD1B2" rx="11" ry="11" style="stroke:#181818;stroke-width:1.0;"/><path d="M101,864.1094 Q101.2031,863.6094 101.4375,863.3594 Q101.6719,863.1094 101.9375,863.1094 Q102.4063,863.1094 102.7031,863.3906 Q103,863.6719 103,864.3281 L103,865.8906 Q103,866.5469 102.7188,866.8281 Q102.4375,867.1094 102,867.1094 Q101.6094,867.1094 101.3594,866.9375 Q101.1094,866.7656 101,866.3125 Q100.9531,866 100.7813,865.8281 Q100.4688,865.5 99.9063,865.3125 Q99.3438,865.1094 98.7813,865.1094 Q98.0781,865.1094 97.4844,865.3906 Q96.9063,865.6719 96.4531,866.2969 Q96,866.9219 96,867.7813 L96,868.7031 Q96,869.7344 96.8438,870.4219 Q97.6875,871.1094 99.1875,871.1094 Q100.0781,871.1094 100.7031,870.9063 Q101.0625,870.7969 101.4688,870.4375 Q101.7344,870.2344 101.875,870.1719 Q102.0156,870.1094 102.1875,870.1094 Q102.5156,870.1094 102.75,870.375 Q103,870.625 103,870.9844 Q103,871.3281 102.6563,871.7344 Q102.1563,872.3281 101.3594,872.6563 Q100.3125,873.1094 99.0313,873.1094 Q97.5313,873.1094 96.3281,872.5156 Q95.3594,872.0469 94.6719,871.0313 Q94,870.0156 94,868.8125 L94,867.7188 Q94,866.4688 94.5938,865.375 Q95.2031,864.2813 96.25,863.7031 Q97.3125,863.1094 98.5,863.1094 Q99.2188,863.1094 99.8438,863.3594 Q100.4688,863.6094 101,864.1094 Z " fill="#000000"/><text fill="#000000" font-family="sans-serif" font-size="14" lengthAdjust="spacing" textLength="71" x="113" y="873.3379">Description</text><line style="stroke:#181818;stroke-width:0.5;" x1="85" x2="186" y1="883.6094" y2="883.6094"/><rect fill="none" height="6" style="stroke:#C82930;stroke-width:1.0;" width="6" x="92" y="891.6094"/><text fill="#000000" font-family="sans-serif" font-size="14" lengthAdjust="spacing" textLength="69" x="104" y="902.1426">description</text><line style="stroke:#181818;stroke-width:0.5;" x1="85" x2="186" y1="909.2188" y2="909.2188"/></g><!--MD5=[6182dff38df2217a59b2881fe0d4a7f6]
class TargetAudience--><g id="elem_TargetAudience"><rect codeLine="64" fill="#F1F1F1" height="83.2188" id="TargetAudience" rx="2.5" ry="2.5" style="stroke:#181818;stroke-width:0.5;" width="133" x="222" y="843.1094"/><ellipse cx="237" cy="859.1094" fill="#ADD1B2" rx="11" ry="11" style="stroke:#181818;stroke-width:1.0;"/><path d="M239,855.6094 Q239.2031,855.1094 239.4375,854.8594 Q239.6719,854.6094 239.9375,854.6094 Q240.4063,854.6094 240.7031,854.8906 Q241,855.1719 241,855.8281 L241,857.3906 Q241,858.0469 240.7188,858.3281 Q240.4375,858.6094 240,858.6094 Q239.6094,858.6094 239.3594,858.4375 Q239.1094,858.2656 239,857.8125 Q238.9531,857.5 238.7813,857.3281 Q238.4688,857 237.9063,856.8125 Q237.3438,856.6094 236.7813,856.6094 Q236.0781,856.6094 235.4844,856.8906 Q234.9063,857.1719 234.4531,857.7969 Q234,858.4219 234,859.2813 L234,860.2031 Q234,861.2344 234.8438,861.9219 Q235.6875,862.6094 237.1875,862.6094 Q238.0781,862.6094 238.7031,862.4063 Q239.0625,862.2969 239.4688,861.9375 Q239.7344,861.7344 239.875,861.6719 Q240.0156,861.6094 240.1875,861.6094 Q240.5156,861.6094 240.75,861.875 Q241,862.125 241,862.4844 Q241,862.8281 240.6563,863.2344 Q240.1563,863.8281 239.3594,864.1563 Q238.3125,864.6094 237.0313,864.6094 Q235.5313,864.6094 234.3281,864.0156 Q233.3594,863.5469 232.6719,862.5313 Q232,861.5156 232,860.3125 L232,859.2188 Q232,857.9688 232.5938,856.875 Q233.2031,855.7813 234.25,855.2031 Q235.3125,854.6094 236.5,854.6094 Q237.2188,854.6094 237.8438,854.8594 Q238.4688,855.1094 239,855.6094 Z " fill="#000000"/><text fill="#000000" font-family="sans-serif" font-size="14" lengthAdjust="spacing" textLength="101" x="251" y="864.8379">TargetAudience</text><line style="stroke:#181818;stroke-width:0.5;" x1="223" x2="354" y1="875.1094" y2="875.1094"/><rect fill="none" height="6" style="stroke:#C82930;stroke-width:1.0;" width="6" x="230" y="883.1094"/><text fill="#000000" font-family="sans-serif" font-size="14" lengthAdjust="spacing" textLength="38" x="242" y="893.6426">codes</text><rect fill="none" height="6" style="stroke:#C82930;stroke-width:1.0;" width="6" x="230" y="900.7188"/><text fill="#000000" font-family="sans-serif" font-size="14" lengthAdjust="spacing" textLength="61" x="242" y="911.252">dayCount</text><line style="stroke:#181818;stroke-width:0.5;" x1="223" x2="354" y1="918.3281" y2="918.3281"/></g><!--MD5=[6b88c977c6356073eb6ff477a844f5ef]
class TargetType--><g id="elem_TargetType"><rect codeLine="68" fill="#F1F1F1" height="136.0469" id="TargetType" rx="2.5" ry="2.5" style="stroke:#181818;stroke-width:0.5;" width="106" x="235.5" y="1055.1094"/><ellipse cx="250.5" cy="1071.1094" fill="#EB937F" rx="11" ry="11" style="stroke:#181818;stroke-width:1.0;"/><path d="M249,1072.1094 L249,1074.1094 L253,1074.1094 L253,1073.1094 L253,1072.625 L253.625,1072.1094 L254,1072.1094 L254.375,1072.1094 L255,1072.625 L255,1073.1094 L255,1076.1094 L247,1076.1094 L246.5156,1076.1094 L246,1075.4844 L246,1075.1094 L246,1074.7344 L246.5156,1074.1094 L247,1074.1094 L247,1074.1094 L247,1068.1094 L247,1068.1094 L246.5156,1068.1094 L246,1067.4844 L246,1067.1094 L246,1066.7344 L246.5156,1066.1094 L247,1066.1094 L255,1066.1094 L255,1069.1094 L255,1069.5938 L254.375,1070.1094 L254,1070.1094 L253.625,1070.1094 L253,1069.5938 L253,1069.1094 L253,1068.1094 L249,1068.1094 L249,1070.1094 L250,1070.1094 L250,1069.625 L250,1069.625 L250.625,1069.1094 L251,1069.1094 L251.375,1069.1094 L252,1069.625 L252,1070.1094 L252,1072.1094 L252,1072.5938 L251.375,1073.1094 L251.375,1073.1094 L251,1073.1094 L250.625,1073.1094 L250,1072.5938 L250,1072.5938 L250,1072.1094 L249,1072.1094 Z " fill="#000000"/><text fill="#000000" font-family="sans-serif" font-size="14" lengthAdjust="spacing" textLength="74" x="264.5" y="1076.8379">TargetType</text><line style="stroke:#181818;stroke-width:0.5;" x1="236.5" x2="340.5" y1="1087.1094" y2="1087.1094"/><text fill="#000000" font-family="sans-serif" font-size="14" lengthAdjust="spacing" textLength="47" x="241.5" y="1105.6426">BRAND</text><text fill="#000000" font-family="sans-serif" font-size="14" lengthAdjust="spacing" textLength="78" x="241.5" y="1123.252">CATEGORY</text><text fill="#000000" font-family="sans-serif" font-size="14" lengthAdjust="spacing" textLength="68" x="241.5" y="1140.8613">PRODUCT</text><text fill="#000000" font-family="sans-serif" font-size="14" lengthAdjust="spacing" textLength="58" x="241.5" y="1158.4707">GENDER</text><text fill="#000000" font-family="sans-serif" font-size="14" lengthAdjust="spacing" textLength="67" x="241.5" y="1176.0801">COUNTRY</text><line style="stroke:#181818;stroke-width:0.5;" x1="236.5" x2="340.5" y1="1183.1563" y2="1183.1563"/></g><!--MD5=[4bec8ac568776347aae0f1471b21fd4f]
class TimeInterval--><g id="elem_TimeInterval"><rect codeLine="76" fill="#F1F1F1" height="83.2188" id="TimeInterval" rx="2.5" ry="2.5" style="stroke:#181818;stroke-width:0.5;" width="109" x="390" y="843.1094"/><ellipse cx="405" cy="859.1094" fill="#ADD1B2" rx="11" ry="11" style="stroke:#181818;stroke-width:1.0;"/><path d="M407,855.6094 Q407.2031,855.1094 407.4375,854.8594 Q407.6719,854.6094 407.9375,854.6094 Q408.4063,854.6094 408.7031,854.8906 Q409,855.1719 409,855.8281 L409,857.3906 Q409,858.0469 408.7188,858.3281 Q408.4375,858.6094 408,858.6094 Q407.6094,858.6094 407.3594,858.4375 Q407.1094,858.2656 407,857.8125 Q406.9531,857.5 406.7813,857.3281 Q406.4688,857 405.9063,856.8125 Q405.3438,856.6094 404.7813,856.6094 Q404.0781,856.6094 403.4844,856.8906 Q402.9063,857.1719 402.4531,857.7969 Q402,858.4219 402,859.2813 L402,860.2031 Q402,861.2344 402.8438,861.9219 Q403.6875,862.6094 405.1875,862.6094 Q406.0781,862.6094 406.7031,862.4063 Q407.0625,862.2969 407.4688,861.9375 Q407.7344,861.7344 407.875,861.6719 Q408.0156,861.6094 408.1875,861.6094 Q408.5156,861.6094 408.75,861.875 Q409,862.125 409,862.4844 Q409,862.8281 408.6563,863.2344 Q408.1563,863.8281 407.3594,864.1563 Q406.3125,864.6094 405.0313,864.6094 Q403.5313,864.6094 402.3281,864.0156 Q401.3594,863.5469 400.6719,862.5313 Q400,861.5156 400,860.3125 L400,859.2188 Q400,857.9688 400.5938,856.875 Q401.2031,855.7813 402.25,855.2031 Q403.3125,854.6094 404.5,854.6094 Q405.2188,854.6094 405.8438,854.8594 Q406.4688,855.1094 407,855.6094 Z " fill="#000000"/><text fill="#000000" font-family="sans-serif" font-size="14" lengthAdjust="spacing" textLength="77" x="419" y="864.8379">TimeInterval</text><line style="stroke:#181818;stroke-width:0.5;" x1="391" x2="498" y1="875.1094" y2="875.1094"/><rect fill="none" height="6" style="stroke:#C82930;stroke-width:1.0;" width="6" x="398" y="883.1094"/><text fill="#000000" font-family="sans-serif" font-size="14" lengthAdjust="spacing" textLength="53" x="410" y="893.6426">firstDate</text><rect fill="none" height="6" style="stroke:#C82930;stroke-width:1.0;" width="6" x="398" y="900.7188"/><text fill="#000000" font-family="sans-serif" font-size="14" lengthAdjust="spacing" textLength="76" x="410" y="911.252">secondDate</text><line style="stroke:#181818;stroke-width:0.5;" x1="391" x2="498" y1="918.3281" y2="918.3281"/></g><!--MD5=[5a3b85c54cc1c79904e0b827443986bf]
class Questionnaire--><g id="elem_Questionnaire"><rect codeLine="81" fill="#F1F1F1" height="136.0469" id="Questionnaire" rx="2.5" ry="2.5" style="stroke:#181818;stroke-width:0.5;" width="139" x="534" y="816.6094"/><ellipse cx="557.1" cy="832.6094" fill="#ADD1B2" rx="11" ry="11" style="stroke:#181818;stroke-width:1.0;"/><path d="M559.1,829.1094 Q559.3031,828.6094 559.5375,828.3594 Q559.7719,828.1094 560.0375,828.1094 Q560.5063,828.1094 560.8031,828.3906 Q561.1,828.6719 561.1,829.3281 L561.1,830.8906 Q561.1,831.5469 560.8188,831.8281 Q560.5375,832.1094 560.1,832.1094 Q559.7094,832.1094 559.4594,831.9375 Q559.2094,831.7656 559.1,831.3125 Q559.0531,831 558.8813,830.8281 Q558.5688,830.5 558.0063,830.3125 Q557.4438,830.1094 556.8813,830.1094 Q556.1781,830.1094 555.5844,830.3906 Q555.0063,830.6719 554.5531,831.2969 Q554.1,831.9219 554.1,832.7813 L554.1,833.7031 Q554.1,834.7344 554.9438,835.4219 Q555.7875,836.1094 557.2875,836.1094 Q558.1781,836.1094 558.8031,835.9063 Q559.1625,835.7969 559.5688,835.4375 Q559.8344,835.2344 559.975,835.1719 Q560.1156,835.1094 560.2875,835.1094 Q560.6156,835.1094 560.85,835.375 Q561.1,835.625 561.1,835.9844 Q561.1,836.3281 560.7563,836.7344 Q560.2563,837.3281 559.4594,837.6563 Q558.4125,838.1094 557.1313,838.1094 Q555.6313,838.1094 554.4281,837.5156 Q553.4594,837.0469 552.7719,836.0313 Q552.1,835.0156 552.1,833.8125 L552.1,832.7188 Q552.1,831.4688 552.6938,830.375 Q553.3031,829.2813 554.35,828.7031 Q555.4125,828.1094 556.6,828.1094 Q557.3188,828.1094 557.9438,828.3594 Q558.5688,828.6094 559.1,829.1094 Z " fill="#000000"/><text fill="#000000" font-family="sans-serif" font-size="14" lengthAdjust="spacing" textLength="89" x="572.9" y="838.3379">Questionnaire</text><line style="stroke:#181818;stroke-width:0.5;" x1="535" x2="672" y1="848.6094" y2="848.6094"/><rect fill="none" height="6" style="stroke:#C82930;stroke-width:1.0;" width="6" x="542" y="856.6094"/><text fill="#000000" font-family="sans-serif" font-size="14" lengthAdjust="spacing" textLength="97" x="554" y="867.1426">questionnaireId</text><rect fill="none" height="6" style="stroke:#C82930;stroke-width:1.0;" width="6" x="542" y="874.2188"/><text fill="#000000" font-family="sans-serif" font-size="14" lengthAdjust="spacing" textLength="113" x="554" y="884.752">questionnaireTitle</text><rect fill="none" height="6" style="stroke:#C82930;stroke-width:1.0;" width="6" x="542" y="891.8281"/><text fill="#000000" font-family="sans-serif" font-size="14" lengthAdjust="spacing" textLength="111" x="554" y="902.3613">welcomeMessage</text><rect fill="none" height="6" style="stroke:#C82930;stroke-width:1.0;" width="6" x="542" y="909.4375"/><text fill="#000000" font-family="sans-serif" font-size="14" lengthAdjust="spacing" textLength="52" x="554" y="919.9707">sections</text><rect fill="none" height="6" style="stroke:#C82930;stroke-width:1.0;" width="6" x="542" y="927.0469"/><text fill="#000000" font-family="sans-serif" font-size="14" lengthAdjust="spacing" textLength="83" x="554" y="937.5801">finalMessage</text><line style="stroke:#181818;stroke-width:0.5;" x1="535" x2="672" y1="944.6563" y2="944.6563"/></g><!--MD5=[09a53695e98d4f26e7a054522080af08]
class Section--><g id="elem_Section"><rect codeLine="89" fill="#F1F1F1" height="184.875" id="Section" rx="2.5" ry="2.5" style="stroke:#181818;stroke-width:0.5;" width="142" x="532.5" y="1030.6094"/><ellipse cx="575.85" cy="1046.6094" fill="#ADD1B2" rx="11" ry="11" style="stroke:#181818;stroke-width:1.0;"/><path d="M577.85,1043.1094 Q578.0531,1042.6094 578.2875,1042.3594 Q578.5219,1042.1094 578.7875,1042.1094 Q579.2563,1042.1094 579.5531,1042.3906 Q579.85,1042.6719 579.85,1043.3281 L579.85,1044.8906 Q579.85,1045.5469 579.5688,1045.8281 Q579.2875,1046.1094 578.85,1046.1094 Q578.4594,1046.1094 578.2094,1045.9375 Q577.9594,1045.7656 577.85,1045.3125 Q577.8031,1045 577.6313,1044.8281 Q577.3188,1044.5 576.7563,1044.3125 Q576.1938,1044.1094 575.6313,1044.1094 Q574.9281,1044.1094 574.3344,1044.3906 Q573.7563,1044.6719 573.3031,1045.2969 Q572.85,1045.9219 572.85,1046.7813 L572.85,1047.7031 Q572.85,1048.7344 573.6938,1049.4219 Q574.5375,1050.1094 576.0375,1050.1094 Q576.9281,1050.1094 577.5531,1049.9063 Q577.9125,1049.7969 578.3188,1049.4375 Q578.5844,1049.2344 578.725,1049.1719 Q578.8656,1049.1094 579.0375,1049.1094 Q579.3656,1049.1094 579.6,1049.375 Q579.85,1049.625 579.85,1049.9844 Q579.85,1050.3281 579.5063,1050.7344 Q579.0063,1051.3281 578.2094,1051.6563 Q577.1625,1052.1094 575.8813,1052.1094 Q574.3813,1052.1094 573.1781,1051.5156 Q572.2094,1051.0469 571.5219,1050.0313 Q570.85,1049.0156 570.85,1047.8125 L570.85,1046.7188 Q570.85,1045.4688 571.4438,1044.375 Q572.0531,1043.2813 573.1,1042.7031 Q574.1625,1042.1094 575.35,1042.1094 Q576.0688,1042.1094 576.6938,1042.3594 Q577.3188,1042.6094 577.85,1043.1094 Z " fill="#000000"/><text fill="#000000" font-family="sans-serif" font-size="14" lengthAdjust="spacing" textLength="47" x="596.15" y="1052.3379">Section</text><line style="stroke:#181818;stroke-width:0.5;" x1="533.5" x2="673.5" y1="1062.6094" y2="1062.6094"/><rect fill="none" height="6" style="stroke:#C82930;stroke-width:1.0;" width="6" x="540.5" y="1070.6094"/><text fill="#000000" font-family="sans-serif" font-size="14" lengthAdjust="spacing" textLength="56" x="552.5" y="1081.1426">sectionId</text><rect fill="none" height="6" style="stroke:#C82930;stroke-width:1.0;" width="6" x="540.5" y="1088.2188"/><text fill="#000000" font-family="sans-serif" font-size="14" lengthAdjust="spacing" textLength="72" x="552.5" y="1098.752">sectionTitle</text><rect fill="none" height="6" style="stroke:#C82930;stroke-width:1.0;" width="6" x="540.5" y="1105.8281"/><text fill="#000000" font-family="sans-serif" font-size="14" lengthAdjust="spacing" textLength="116" x="552.5" y="1116.3613">sectionDescription</text><rect fill="none" height="6" style="stroke:#C82930;stroke-width:1.0;" width="6" x="540.5" y="1123.4375"/><text fill="#000000" font-family="sans-serif" font-size="14" lengthAdjust="spacing" textLength="88" x="552.5" y="1133.9707">obligatoriness</text><rect fill="none" height="6" style="stroke:#C82930;stroke-width:1.0;" width="6" x="540.5" y="1141.0469"/><text fill="#000000" font-family="sans-serif" font-size="14" lengthAdjust="spacing" textLength="77" x="552.5" y="1151.5801">repeatability</text><rect fill="none" height="6" style="stroke:#C82930;stroke-width:1.0;" width="6" x="540.5" y="1158.6563"/><text fill="#000000" font-family="sans-serif" font-size="14" lengthAdjust="spacing" textLength="47" x="552.5" y="1169.1895">content</text><ellipse cx="543.5" cy="1200.875" fill="#84BE84" rx="3" ry="3" style="stroke:#038048;stroke-width:1.0;"/><text fill="#000000" font-family="sans-serif" font-size="14" lengthAdjust="spacing" textLength="63" x="552.5" y="1208.4082">toString();</text><line style="stroke:#181818;stroke-width:1.0;" x1="533.5" x2="576.5" y1="1185.0703" y2="1185.0703"/><text fill="#000000" font-family="sans-serif" font-size="14" lengthAdjust="spacing" textLength="54" x="576.5" y="1190.2988">Methods</text><line style="stroke:#181818;stroke-width:1.0;" x1="630.5" x2="673.5" y1="1185.0703" y2="1185.0703"/></g><!--MD5=[fc7123defb831ecdd44b2d9bcef6cceb]
class Question--><g id="elem_Question"><rect codeLine="100" fill="#F1F1F1" height="167.2656" id="Question" rx="2.5" ry="2.5" style="stroke:#181818;stroke-width:0.5;" width="114" x="546.5" y="1293.6094"/><ellipse cx="572.75" cy="1309.6094" fill="#ADD1B2" rx="11" ry="11" style="stroke:#181818;stroke-width:1.0;"/><path d="M574.75,1306.1094 Q574.9531,1305.6094 575.1875,1305.3594 Q575.4219,1305.1094 575.6875,1305.1094 Q576.1563,1305.1094 576.4531,1305.3906 Q576.75,1305.6719 576.75,1306.3281 L576.75,1307.8906 Q576.75,1308.5469 576.4688,1308.8281 Q576.1875,1309.1094 575.75,1309.1094 Q575.3594,1309.1094 575.1094,1308.9375 Q574.8594,1308.7656 574.75,1308.3125 Q574.7031,1308 574.5313,1307.8281 Q574.2188,1307.5 573.6563,1307.3125 Q573.0938,1307.1094 572.5313,1307.1094 Q571.8281,1307.1094 571.2344,1307.3906 Q570.6563,1307.6719 570.2031,1308.2969 Q569.75,1308.9219 569.75,1309.7813 L569.75,1310.7031 Q569.75,1311.7344 570.5938,1312.4219 Q571.4375,1313.1094 572.9375,1313.1094 Q573.8281,1313.1094 574.4531,1312.9063 Q574.8125,1312.7969 575.2188,1312.4375 Q575.4844,1312.2344 575.625,1312.1719 Q575.7656,1312.1094 575.9375,1312.1094 Q576.2656,1312.1094 576.5,1312.375 Q576.75,1312.625 576.75,1312.9844 Q576.75,1313.3281 576.4063,1313.7344 Q575.9063,1314.3281 575.1094,1314.6563 Q574.0625,1315.1094 572.7813,1315.1094 Q571.2813,1315.1094 570.0781,1314.5156 Q569.1094,1314.0469 568.4219,1313.0313 Q567.75,1312.0156 567.75,1310.8125 L567.75,1309.7188 Q567.75,1308.4688 568.3438,1307.375 Q568.9531,1306.2813 570,1305.7031 Q571.0625,1305.1094 572.25,1305.1094 Q572.9688,1305.1094 573.5938,1305.3594 Q574.2188,1305.6094 574.75,1306.1094 Z " fill="#000000"/><text fill="#000000" font-family="sans-serif" font-size="14" lengthAdjust="spacing" textLength="57" x="589.25" y="1315.3379">Question</text><line style="stroke:#181818;stroke-width:0.5;" x1="547.5" x2="659.5" y1="1325.6094" y2="1325.6094"/><rect fill="none" height="6" style="stroke:#C82930;stroke-width:1.0;" width="6" x="554.5" y="1333.6094"/><text fill="#000000" font-family="sans-serif" font-size="14" lengthAdjust="spacing" textLength="65" x="566.5" y="1344.1426">questionId</text><rect fill="none" height="6" style="stroke:#C82930;stroke-width:1.0;" width="6" x="554.5" y="1351.2188"/><text fill="#000000" font-family="sans-serif" font-size="14" lengthAdjust="spacing" textLength="81" x="566.5" y="1361.752">questionText</text><rect fill="none" height="6" style="stroke:#C82930;stroke-width:1.0;" width="6" x="554.5" y="1368.8281"/><text fill="#000000" font-family="sans-serif" font-size="14" lengthAdjust="spacing" textLength="72" x="566.5" y="1379.3613">instructions</text><rect fill="none" height="6" style="stroke:#C82930;stroke-width:1.0;" width="6" x="554.5" y="1386.4375"/><text fill="#000000" font-family="sans-serif" font-size="14" lengthAdjust="spacing" textLength="88" x="566.5" y="1396.9707">obligatoriness</text><rect fill="none" height="6" style="stroke:#C82930;stroke-width:1.0;" width="6" x="554.5" y="1404.0469"/><text fill="#000000" font-family="sans-serif" font-size="14" lengthAdjust="spacing" textLength="58" x="566.5" y="1414.5801">extra info</text><ellipse cx="557.5" cy="1446.2656" fill="#84BE84" rx="3" ry="3" style="stroke:#038048;stroke-width:1.0;"/><text fill="#000000" font-family="sans-serif" font-size="14" lengthAdjust="spacing" textLength="63" x="566.5" y="1453.7988">toString();</text><line style="stroke:#181818;stroke-width:1.0;" x1="547.5" x2="576.5" y1="1430.4609" y2="1430.4609"/><text fill="#000000" font-family="sans-serif" font-size="14" lengthAdjust="spacing" textLength="54" x="576.5" y="1435.6895">Methods</text><line style="stroke:#181818;stroke-width:1.0;" x1="630.5" x2="659.5" y1="1430.4609" y2="1430.4609"/></g><!--MD5=[3a0bb3c76e889652d51f5f17e4686156]
class SurveyCode--><g id="elem_SurveyCode"><rect codeLine="110" fill="#F1F1F1" height="96.8281" id="SurveyCode" rx="2.5" ry="2.5" style="stroke:#181818;stroke-width:0.5;" width="110" x="708.5" y="836.1094"/><ellipse cx="723.5" cy="852.1094" fill="#ADD1B2" rx="11" ry="11" style="stroke:#181818;stroke-width:1.0;"/><path d="M725.5,848.6094 Q725.7031,848.1094 725.9375,847.8594 Q726.1719,847.6094 726.4375,847.6094 Q726.9063,847.6094 727.2031,847.8906 Q727.5,848.1719 727.5,848.8281 L727.5,850.3906 Q727.5,851.0469 727.2188,851.3281 Q726.9375,851.6094 726.5,851.6094 Q726.1094,851.6094 725.8594,851.4375 Q725.6094,851.2656 725.5,850.8125 Q725.4531,850.5 725.2813,850.3281 Q724.9688,850 724.4063,849.8125 Q723.8438,849.6094 723.2813,849.6094 Q722.5781,849.6094 721.9844,849.8906 Q721.4063,850.1719 720.9531,850.7969 Q720.5,851.4219 720.5,852.2813 L720.5,853.2031 Q720.5,854.2344 721.3438,854.9219 Q722.1875,855.6094 723.6875,855.6094 Q724.5781,855.6094 725.2031,855.4063 Q725.5625,855.2969 725.9688,854.9375 Q726.2344,854.7344 726.375,854.6719 Q726.5156,854.6094 726.6875,854.6094 Q727.0156,854.6094 727.25,854.875 Q727.5,855.125 727.5,855.4844 Q727.5,855.8281 727.1563,856.2344 Q726.6563,856.8281 725.8594,857.1563 Q724.8125,857.6094 723.5313,857.6094 Q722.0313,857.6094 720.8281,857.0156 Q719.8594,856.5469 719.1719,855.5313 Q718.5,854.5156 718.5,853.3125 L718.5,852.2188 Q718.5,850.9688 719.0938,849.875 Q719.7031,848.7813 720.75,848.2031 Q721.8125,847.6094 723,847.6094 Q723.7188,847.6094 724.3438,847.8594 Q724.9688,848.1094 725.5,848.6094 Z " fill="#000000"/><text fill="#000000" font-family="sans-serif" font-size="14" lengthAdjust="spacing" textLength="78" x="737.5" y="857.8379">SurveyCode</text><line style="stroke:#181818;stroke-width:0.5;" x1="709.5" x2="817.5" y1="868.1094" y2="868.1094"/><ellipse cx="719.5" cy="879.1094" fill="none" rx="3" ry="3" style="stroke:#038048;stroke-width:1.0;"/><text fill="#000000" font-family="sans-serif" font-size="14" lengthAdjust="spacing" textLength="38" x="728.5" y="886.6426">codes</text><ellipse cx="719.5" cy="918.3281" fill="#84BE84" rx="3" ry="3" style="stroke:#038048;stroke-width:1.0;"/><text fill="#000000" font-family="sans-serif" font-size="14" lengthAdjust="spacing" textLength="41" x="728.5" y="925.8613">code()</text><line style="stroke:#181818;stroke-width:1.0;" x1="709.5" x2="736.5" y1="902.5234" y2="902.5234"/><text fill="#000000" font-family="sans-serif" font-size="14" lengthAdjust="spacing" textLength="54" x="736.5" y="907.752">Methods</text><line style="stroke:#181818;stroke-width:1.0;" x1="790.5" x2="817.5" y1="902.5234" y2="902.5234"/></g><!--MD5=[b2f564d4f0e6575ae3c0ee7ab4ae1d86]
link CreateSurveyUI to CreateSurveyController--><g id="link_CreateSurveyUI_CreateSurveyController"><path codeLine="117" d="M229.5,109.3894 C229.5,128.1394 229.5,155.3694 229.5,180.2594 " fill="none" id="CreateSurveyUI-to-CreateSurveyController" style="stroke:#181818;stroke-width:1.0;stroke-dasharray:7.0,7.0;"/><polygon fill="#181818" points="229.5,185.5294,233.5,176.5294,229.5,180.5294,225.5,176.5294,229.5,185.5294" style="stroke:#181818;stroke-width:1.0;"/></g><!--MD5=[7375c98bfb5370c21bbfee02d5fd2605]
link CreateSurveyController to SurveyBuilder--><g id="link_CreateSurveyController_SurveyBuilder"><path codeLine="119" d="M287.4,299.7594 C305.55,317.3594 326.11,337.2994 346.24,356.8194 " fill="none" id="CreateSurveyController-to-SurveyBuilder" style="stroke:#181818;stroke-width:1.0;stroke-dasharray:7.0,7.0;"/><polygon fill="#181818" points="349.99,360.4594,346.2879,351.3328,346.3908,356.9887,340.7349,357.0915,349.99,360.4594" style="stroke:#181818;stroke-width:1.0;"/></g><!--MD5=[8e869cb3d3564fe914f498332ffbf563]
link CreateSurveyController to JPARepository--><g id="link_CreateSurveyController_JPARepository"><path codeLine="120" d="M186.41,299.7594 C164.62,328.1494 138.15,362.6494 115.91,391.6294 " fill="none" id="CreateSurveyController-to-JPARepository" style="stroke:#181818;stroke-width:1.0;stroke-dasharray:7.0,7.0;"/><polygon fill="#181818" points="112.66,395.8594,121.3089,391.148,115.701,391.8904,114.9586,386.2825,112.66,395.8594" style="stroke:#181818;stroke-width:1.0;"/></g><!--MD5=[ed563b9114cc6b8f73470638a5883a77]
link CreateSurveyController to SurveyMapper--><g id="link_CreateSurveyController_SurveyMapper"><path codeLine="121" d="M229.5,299.7594 C229.5,333.7394 229.5,376.4394 229.5,407.9894 " fill="none" id="CreateSurveyController-to-SurveyMapper" style="stroke:#181818;stroke-width:1.0;stroke-dasharray:7.0,7.0;"/><polygon fill="#181818" points="229.5,413.3494,233.5,404.3494,229.5,408.3494,225.5,404.3494,229.5,413.3494" style="stroke:#181818;stroke-width:1.0;"/></g><!--MD5=[b0afb6c89b19ea0751f927e030010b42]
link SurveyMapper to SurveyDTO--><g id="link_SurveyMapper_SurveyDTO"><path codeLine="124" d="M229.5,492.7394 C229.5,529.8894 229.5,586.0794 229.5,625.5394 " fill="none" id="SurveyMapper-to-SurveyDTO" style="stroke:#181818;stroke-width:1.0;stroke-dasharray:7.0,7.0;"/><polygon fill="#181818" points="229.5,630.7494,233.5,621.7494,229.5,625.7494,225.5,621.7494,229.5,630.7494" style="stroke:#181818;stroke-width:1.0;"/></g><!--MD5=[c8e525c1a58cd2b6a4b5ef0415e74d8d]
link SurveyBuilder to Survey--><g id="link_SurveyBuilder_Survey"><path codeLine="126" d="M444.5,545.7194 C444.5,564.2394 444.5,583.4294 444.5,601.0894 " fill="none" id="SurveyBuilder-to-Survey" style="stroke:#181818;stroke-width:1.0;stroke-dasharray:7.0,7.0;"/><polygon fill="#181818" points="444.5,606.5194,448.5,597.5194,444.5,601.5194,440.5,597.5194,444.5,606.5194" style="stroke:#181818;stroke-width:1.0;"/></g><!--MD5=[c4fc62c77a23cb95f5f7a53b7ddeb930]
link Survey to Questionnaire--><g id="link_Survey_Questionnaire"><path codeLine="128" d="M493.72,738.6194 C511.39,761.9594 531.42,788.3994 549.48,812.2594 " fill="none" id="Survey-to-Questionnaire" style="stroke:#181818;stroke-width:1.0;"/><polygon fill="#181818" points="552.59,816.3694,550.3516,806.7783,549.574,812.3814,543.9709,811.6038,552.59,816.3694" style="stroke:#181818;stroke-width:1.0;"/><text fill="#000000" font-family="sans-serif" font-size="13" lengthAdjust="spacing" textLength="28" x="530.5" y="783.1045">uses</text><text fill="#000000" font-family="sans-serif" font-size="13" lengthAdjust="spacing" textLength="7" x="491.7206" y="760.226">1</text><text fill="#000000" font-family="sans-serif" font-size="13" lengthAdjust="spacing" textLength="7" x="539.6389" y="805.5424">1</text></g><!--MD5=[17a194f6bd4e4ddc3a3e77bdb193f8ac]
link Survey to TimeInterval--><g id="link_Survey_TimeInterval"><path codeLine="129" d="M444.5,738.6194 C444.5,770.7094 444.5,808.6594 444.5,837.6894 " fill="none" id="Survey-to-TimeInterval" style="stroke:#181818;stroke-width:1.0;"/><polygon fill="#181818" points="444.5,842.9994,448.5,833.9994,444.5,837.9994,440.5,833.9994,444.5,842.9994" style="stroke:#181818;stroke-width:1.0;"/><text fill="#000000" font-family="sans-serif" font-size="13" lengthAdjust="spacing" textLength="28" x="445.5" y="783.1045">uses</text><text fill="#000000" font-family="sans-serif" font-size="13" lengthAdjust="spacing" textLength="7" x="437.1172" y="760.226">1</text><text fill="#000000" font-family="sans-serif" font-size="13" lengthAdjust="spacing" textLength="7" x="436.9203" y="832.2888">1</text></g><!--MD5=[5ab1cbeb2b4eda25b8932b9152f388eb]
link Survey to TargetAudience--><g id="link_Survey_TargetAudience"><path codeLine="130" d="M396.21,738.6194 C372.07,771.1094 343.47,809.6094 321.81,838.7694 " fill="none" id="Survey-to-TargetAudience" style="stroke:#181818;stroke-width:1.0;"/><polygon fill="#181818" points="318.67,842.9994,327.259,838.1797,321.6608,838.9925,320.848,833.3944,318.67,842.9994" style="stroke:#181818;stroke-width:1.0;"/><text fill="#000000" font-family="sans-serif" font-size="13" lengthAdjust="spacing" textLength="28" x="372.5" y="783.1045">uses</text><text fill="#000000" font-family="sans-serif" font-size="13" lengthAdjust="spacing" textLength="7" x="383.5455" y="760.226">1</text><text fill="#000000" font-family="sans-serif" font-size="13" lengthAdjust="spacing" textLength="7" x="316.0872" y="832.2888">1</text></g><!--MD5=[0b4debe2092e88b167a50a5f1b002e59]
link Survey to Description--><g id="link_Survey_Description"><path codeLine="131" d="M383.32,704.8994 C333.27,731.6894 261.66,772.7894 204.5,816.6094 C192.36,825.9194 180.06,837.1494 169.29,847.7294 " fill="none" id="Survey-to-Description" style="stroke:#181818;stroke-width:1.0;"/><polygon fill="#181818" points="165.69,851.2894,174.8966,847.7909,169.2398,847.7681,169.2626,842.1113,165.69,851.2894" style="stroke:#181818;stroke-width:1.0;"/><text fill="#000000" font-family="sans-serif" font-size="13" lengthAdjust="spacing" textLength="28" x="268.5" y="783.1045">uses</text><text fill="#000000" font-family="sans-serif" font-size="13" lengthAdjust="spacing" textLength="7" x="368.4371" y="705.3734">1</text><text fill="#000000" font-family="sans-serif" font-size="13" lengthAdjust="spacing" textLength="7" x="163.9446" y="840.7227">1</text></g><!--MD5=[8f2f12528c8717874c6c357269c3ea16]
link Survey to SurveyCode--><g id="link_Survey_SurveyCode"><path codeLine="132" d="M505.66,704.3994 C556.87,731.2794 630.92,772.7494 690.5,816.6094 C697.15,821.5094 703.88,826.9294 710.42,832.4994 " fill="none" id="Survey-to-SurveyCode" style="stroke:#181818;stroke-width:1.0;"/><polygon fill="#181818" points="714.46,835.9794,710.2491,827.0761,710.6708,832.7172,705.0296,833.1389,714.46,835.9794" style="stroke:#181818;stroke-width:1.0;"/></g><!--MD5=[b5dfedbf7b0f21cf44f7222f7478732b]
link TargetAudience to TargetType--><g id="link_TargetAudience_TargetType"><path codeLine="133" d="M288.5,926.2694 C288.5,960.0094 288.5,1008.8594 288.5,1049.3194 " fill="none" id="TargetAudience-to-TargetType" style="stroke:#181818;stroke-width:1.0;"/><polygon fill="#181818" points="288.5,1054.7194,292.5,1045.7194,288.5,1049.7194,284.5,1045.7194,288.5,1054.7194" style="stroke:#181818;stroke-width:1.0;"/></g><!--MD5=[3da50156e7717b39021783dfd0973443]
link Questionnaire to Section--><g id="link_Questionnaire_Section"><path codeLine="135" d="M603.5,952.7494 C603.5,975.3194 603.5,1000.9594 603.5,1025.3394 " fill="none" id="Questionnaire-to-Section" style="stroke:#181818;stroke-width:1.0;"/><polygon fill="#181818" points="603.5,1030.5194,607.5,1021.5194,603.5,1025.5194,599.5,1021.5194,603.5,1030.5194" style="stroke:#181818;stroke-width:1.0;"/><text fill="#000000" font-family="sans-serif" font-size="13" lengthAdjust="spacing" textLength="28" x="604.5" y="997.1045">uses</text><text fill="#000000" font-family="sans-serif" font-size="13" lengthAdjust="spacing" textLength="7" x="596.1391" y="974.1121">1</text><text fill="#000000" font-family="sans-serif" font-size="13" lengthAdjust="spacing" textLength="20" x="582.6719" y="1019.7041">1..*</text></g><!--MD5=[87fa8ff7d398728728a611d860795352]
link Section to Question--><g id="link_Section_Question"><path codeLine="137" d="M603.5,1215.7994 C603.5,1239.3494 603.5,1264.6294 603.5,1287.9994 " fill="none" id="Section-to-Question" style="stroke:#181818;stroke-width:1.0;"/><polygon fill="#181818" points="603.5,1293.2594,607.5,1284.2594,603.5,1288.2594,599.5,1284.2594,603.5,1293.2594" style="stroke:#181818;stroke-width:1.0;"/><text fill="#000000" font-family="sans-serif" font-size="13" lengthAdjust="spacing" textLength="28" x="604.5" y="1260.1045">uses</text><text fill="#000000" font-family="sans-serif" font-size="13" lengthAdjust="spacing" textLength="7" x="596.232" y="1237.0218">1</text><text fill="#000000" font-family="sans-serif" font-size="13" lengthAdjust="spacing" textLength="20" x="582.6406" y="1282.8648">1..*</text></g><!--MD5=[ebe461506bff84b136d26cc356d7d904]
@startuml

title US3001 - Class Diagram 4 (Survey)


class CreateSurveyUI

class CreateSurveyController{
- -Methods- -
+ CreateSurveyController()
+ getQuestions()
+ createQuestionnaire(...)
}

abstract JPARepository{
- -Methods- -
+ findAll()
+ add(entity)

}

class SurveyMapper{
- -Methods- -
+ toDTO(survey)
}

class SurveyDTO{
+ id
+ toString
}

class QuestionnaireMapper{
- -Methods- -
+ toDTO(questionnaire)
}

class QuestionnaireDTO{
+ toString
}

class SurveyBuilder{
- questionnaire
- timeInterval
- targetAudience
- -Methods- -
+ withQuestionnaire(questionnaire)
+ withTimeInterval(timeInterval)
+ withTargetAudience(target)
+ build()
}

class Survey{
- questionnaire
- timeInterval
- targetAudience
- -Methods- -
+ toString()
}

class Description{
- description
}


class TargetAudience{
- codes
- dayCount
}
enum TargetType{
BRAND
CATEGORY
PRODUCT
GENDER
COUNTRY
}

class TimeInterval{
- firstDate
- secondDate
}

class Questionnaire{
- questionnaireId
- questionnaireTitle
- welcomeMessage
- sections
- finalMessage
}

class Section{
- sectionId
- sectionTitle
- sectionDescription
- obligatoriness
- repeatability
- content
- -Methods- -
+ toString();
}

class Question{
- questionId
- questionText
- instructions
- obligatoriness
- extra info
- -Methods- -
+ toString();
}

class SurveyCode{
+ codes
- -Methods- -
+ code()
}


CreateSurveyUI ..> CreateSurveyController

CreateSurveyController ..> SurveyBuilder
CreateSurveyController ..> JPARepository
CreateSurveyController ..> SurveyMapper


SurveyMapper ..> SurveyDTO

SurveyBuilder ..> Survey

Survey "1" - -> "1" Questionnaire:uses
Survey "1" - -> "1" TimeInterval:uses
Survey "1" - -> "1" TargetAudience:uses
Survey "1" - -> "1"Description:uses
Survey - -> SurveyCode
TargetAudience - -> TargetType

Questionnaire "1" - -> "1..*" Section:uses

Section "1"- ->"1..*" Question:uses
@enduml

PlantUML version 1.2022.4(Sat Apr 09 14:29:17 BST 2022)
(GPL source distribution)
Java Runtime: OpenJDK Runtime Environment
JVM: OpenJDK 64-Bit Server VM
Default Encoding: Cp1252
Language: pt
Country: PT
--></g></svg>