<?xml version="1.0" encoding="UTF-8" standalone="no"?><svg xmlns="http://www.w3.org/2000/svg" xmlns:xlink="http://www.w3.org/1999/xlink" contentScriptType="application/ecmascript" contentStyleType="text/css" height="1302px" preserveAspectRatio="none" style="width:2791px;height:1302px;background:#FFFFFF;" version="1.1" viewBox="0 0 2791 1302" width="2791px" zoomAndPan="magnify"><defs><filter height="300%" id="fry72va3mp74i" width="300%" x="-1" y="-1"><feGaussianBlur result="blurOut" stdDeviation="2.0"/><feColorMatrix in="blurOut" result="blurOut2" type="matrix" values="0 0 0 0 0 0 0 0 0 0 0 0 0 0 0 0 0 0 .4 0"/><feOffset dx="4.0" dy="4.0" in="blurOut2" result="blurOut3"/><feBlend in="SourceGraphic" in2="blurOut3" mode="normal"/></filter></defs><g><text fill="#000000" font-family="sans-serif" font-size="18" lengthAdjust="spacing" textLength="520" x="1138.25" y="30.6855">SD - Abasic FIFO algorithm to automatically assign tasks to AGVs</text><rect fill="#FFFFFF" filter="url(#fry72va3mp74i)" height="1129.5469" style="stroke:#A80036;stroke-width:1.0;" width="10" x="721.5" y="110.6016"/><rect fill="#FFFFFF" filter="url(#fry72va3mp74i)" height="1068.8438" style="stroke:#A80036;stroke-width:1.0;" width="10" x="979.5" y="140.9531"/><rect fill="#FFFFFF" filter="url(#fry72va3mp74i)" height="30" style="stroke:#A80036;stroke-width:1.0;" width="10" x="1227" y="518.1719"/><rect fill="#FFFFFF" filter="url(#fry72va3mp74i)" height="30" style="stroke:#A80036;stroke-width:1.0;" width="10" x="1227" y="1088.7422"/><rect fill="#FFFFFF" filter="url(#fry72va3mp74i)" height="73.7031" style="stroke:#A80036;stroke-width:1.0;" width="10" x="1448" y="984.6875"/><rect fill="#FFFFFF" filter="url(#fry72va3mp74i)" height="60.7031" style="stroke:#A80036;stroke-width:1.0;" width="10" x="1649" y="396.7656"/><rect fill="#FFFFFF" filter="url(#fry72va3mp74i)" height="60.7031" style="stroke:#A80036;stroke-width:1.0;" width="10" x="1649" y="1149.0938"/><rect fill="#FFFFFF" filter="url(#fry72va3mp74i)" height="30.3516" style="stroke:#A80036;stroke-width:1.0;" width="10" x="1830" y="427.1172"/><rect fill="#FFFFFF" filter="url(#fry72va3mp74i)" height="30.3516" style="stroke:#A80036;stroke-width:1.0;" width="10" x="1830" y="1179.4453"/><rect fill="#FFFFFF" filter="url(#fry72va3mp74i)" height="30" style="stroke:#A80036;stroke-width:1.0;" width="10" x="2021.5" y="578.5234"/><rect fill="#FFFFFF" filter="url(#fry72va3mp74i)" height="30" style="stroke:#A80036;stroke-width:1.0;" width="10" x="2021.5" y="820.2813"/><rect fill="#FFFFFF" filter="url(#fry72va3mp74i)" height="120.7031" style="stroke:#A80036;stroke-width:1.0;" width="10" x="2221.5" y="638.875"/><rect fill="#FFFFFF" filter="url(#fry72va3mp74i)" height="30" style="stroke:#A80036;stroke-width:1.0;" width="10" x="2380.5" y="669.2266"/><rect fill="#FFFFFF" filter="url(#fry72va3mp74i)" height="30" style="stroke:#A80036;stroke-width:1.0;" width="10" x="2380.5" y="729.5781"/><rect fill="#FFFFFF" filter="url(#fry72va3mp74i)" height="66.7031" style="stroke:#A80036;stroke-width:1.0;" width="10" x="2491.5" y="880.6328"/><rect fill="#FFFFFF" filter="url(#fry72va3mp74i)" height="73.7031" style="stroke:#A80036;stroke-width:1.0;" width="10" x="2627.5" y="910.9844"/><line style="stroke:#A80036;stroke-width:1.0;stroke-dasharray:5.0,5.0;" x1="81" x2="81" y1="78.25" y2="1258.1484"/><line style="stroke:#A80036;stroke-width:1.0;stroke-dasharray:5.0,5.0;" x1="726.5" x2="726.5" y1="78.25" y2="1258.1484"/><line style="stroke:#A80036;stroke-width:1.0;stroke-dasharray:5.0,5.0;" x1="984.5" x2="984.5" y1="78.25" y2="1258.1484"/><line style="stroke:#A80036;stroke-width:1.0;stroke-dasharray:5.0,5.0;" x1="1231.5" x2="1231.5" y1="78.25" y2="1258.1484"/><line style="stroke:#A80036;stroke-width:1.0;stroke-dasharray:5.0,5.0;" x1="1452.5" x2="1452.5" y1="78.25" y2="1258.1484"/><line style="stroke:#A80036;stroke-width:1.0;stroke-dasharray:5.0,5.0;" x1="1653.5" x2="1653.5" y1="78.25" y2="1258.1484"/><line style="stroke:#A80036;stroke-width:1.0;stroke-dasharray:5.0,5.0;" x1="1834.5" x2="1834.5" y1="78.25" y2="1258.1484"/><line style="stroke:#A80036;stroke-width:1.0;stroke-dasharray:5.0,5.0;" x1="2026.5" x2="2026.5" y1="78.25" y2="1258.1484"/><line style="stroke:#A80036;stroke-width:1.0;stroke-dasharray:5.0,5.0;" x1="2226.5" x2="2226.5" y1="78.25" y2="1258.1484"/><line style="stroke:#A80036;stroke-width:1.0;stroke-dasharray:5.0,5.0;" x1="2385.5" x2="2385.5" y1="78.25" y2="1258.1484"/><line style="stroke:#A80036;stroke-width:1.0;stroke-dasharray:5.0,5.0;" x1="2496.5" x2="2496.5" y1="78.25" y2="1258.1484"/><line style="stroke:#A80036;stroke-width:1.0;stroke-dasharray:5.0,5.0;" x1="2632" x2="2632" y1="78.25" y2="1258.1484"/><rect fill="#FEFECE" filter="url(#fry72va3mp74i)" height="31.6094" style="stroke:#A80036;stroke-width:1.5;" width="149" x="5" y="41.6406"/><text fill="#000000" font-family="sans-serif" font-size="14" lengthAdjust="spacing" textLength="135" x="12" y="63.1738">WarehouseEmployee</text><rect fill="#FEFECE" filter="url(#fry72va3mp74i)" height="31.6094" style="stroke:#A80036;stroke-width:1.5;" width="149" x="5" y="1257.1484"/><text fill="#000000" font-family="sans-serif" font-size="14" lengthAdjust="spacing" textLength="135" x="12" y="1278.6816">WarehouseEmployee</text><rect fill="#FEFECE" filter="url(#fry72va3mp74i)" height="31.6094" style="stroke:#A80036;stroke-width:1.5;" width="192" x="628.5" y="41.6406"/><text fill="#000000" font-family="sans-serif" font-size="14" lengthAdjust="spacing" textLength="178" x="635.5" y="63.1738">:AssignOrderAutomaticallyUI</text><rect fill="#FEFECE" filter="url(#fry72va3mp74i)" height="31.6094" style="stroke:#A80036;stroke-width:1.5;" width="192" x="628.5" y="1257.1484"/><text fill="#000000" font-family="sans-serif" font-size="14" lengthAdjust="spacing" textLength="178" x="635.5" y="1278.6816">:AssignOrderAutomaticallyUI</text><rect fill="#FEFECE" filter="url(#fry72va3mp74i)" height="31.6094" style="stroke:#A80036;stroke-width:1.5;" width="242" x="861.5" y="41.6406"/><text fill="#000000" font-family="sans-serif" font-size="14" lengthAdjust="spacing" textLength="228" x="868.5" y="63.1738">:AssignOrderAutomaticallyController</text><rect fill="#FEFECE" filter="url(#fry72va3mp74i)" height="31.6094" style="stroke:#A80036;stroke-width:1.5;" width="242" x="861.5" y="1257.1484"/><text fill="#000000" font-family="sans-serif" font-size="14" lengthAdjust="spacing" textLength="228" x="868.5" y="1278.6816">:AssignOrderAutomaticallyController</text><rect fill="#FEFECE" filter="url(#fry72va3mp74i)" height="31.6094" style="stroke:#A80036;stroke-width:1.5;" width="225" x="1117.5" y="41.6406"/><text fill="#000000" font-family="sans-serif" font-size="14" lengthAdjust="spacing" textLength="211" x="1124.5" y="63.1738">orderRepository:OrderRepository</text><rect fill="#FEFECE" filter="url(#fry72va3mp74i)" height="31.6094" style="stroke:#A80036;stroke-width:1.5;" width="225" x="1117.5" y="1257.1484"/><text fill="#000000" font-family="sans-serif" font-size="14" lengthAdjust="spacing" textLength="211" x="1124.5" y="1278.6816">orderRepository:OrderRepository</text><rect fill="#FEFECE" filter="url(#fry72va3mp74i)" height="31.6094" style="stroke:#A80036;stroke-width:1.5;" width="189" x="1356.5" y="41.6406"/><text fill="#000000" font-family="sans-serif" font-size="14" lengthAdjust="spacing" textLength="175" x="1363.5" y="63.1738">productOrder:ProductOrder</text><rect fill="#FEFECE" filter="url(#fry72va3mp74i)" height="31.6094" style="stroke:#A80036;stroke-width:1.5;" width="189" x="1356.5" y="1257.1484"/><text fill="#000000" font-family="sans-serif" font-size="14" lengthAdjust="spacing" textLength="175" x="1363.5" y="1278.6816">productOrder:ProductOrder</text><rect fill="#FEFECE" filter="url(#fry72va3mp74i)" height="31.6094" style="stroke:#A80036;stroke-width:1.5;" width="185" x="1559.5" y="41.6406"/><text fill="#000000" font-family="sans-serif" font-size="14" lengthAdjust="spacing" textLength="171" x="1566.5" y="63.1738">orderMapper:OrderMapper</text><rect fill="#FEFECE" filter="url(#fry72va3mp74i)" height="31.6094" style="stroke:#A80036;stroke-width:1.5;" width="185" x="1559.5" y="1257.1484"/><text fill="#000000" font-family="sans-serif" font-size="14" lengthAdjust="spacing" textLength="171" x="1566.5" y="1278.6816">orderMapper:OrderMapper</text><rect fill="#FEFECE" filter="url(#fry72va3mp74i)" height="31.6094" style="stroke:#A80036;stroke-width:1.5;" width="149" x="1758.5" y="41.6406"/><text fill="#000000" font-family="sans-serif" font-size="14" lengthAdjust="spacing" textLength="135" x="1765.5" y="63.1738">orderDTO:OrderDTO</text><rect fill="#FEFECE" filter="url(#fry72va3mp74i)" height="31.6094" style="stroke:#A80036;stroke-width:1.5;" width="149" x="1758.5" y="1257.1484"/><text fill="#000000" font-family="sans-serif" font-size="14" lengthAdjust="spacing" textLength="135" x="1765.5" y="1278.6816">orderDTO:OrderDTO</text><rect fill="#FEFECE" filter="url(#fry72va3mp74i)" height="31.6094" style="stroke:#A80036;stroke-width:1.5;" width="206" x="1921.5" y="41.6406"/><text fill="#000000" font-family="sans-serif" font-size="14" lengthAdjust="spacing" textLength="192" x="1928.5" y="63.1738">agvRepository:AGVRepository</text><rect fill="#FEFECE" filter="url(#fry72va3mp74i)" height="31.6094" style="stroke:#A80036;stroke-width:1.5;" width="206" x="1921.5" y="1257.1484"/><text fill="#000000" font-family="sans-serif" font-size="14" lengthAdjust="spacing" textLength="192" x="1928.5" y="1278.6816">agvRepository:AGVRepository</text><rect fill="#FEFECE" filter="url(#fry72va3mp74i)" height="31.6094" style="stroke:#A80036;stroke-width:1.5;" width="166" x="2141.5" y="41.6406"/><text fill="#000000" font-family="sans-serif" font-size="14" lengthAdjust="spacing" textLength="152" x="2148.5" y="63.1738">agvMapper:AGVMapper</text><rect fill="#FEFECE" filter="url(#fry72va3mp74i)" height="31.6094" style="stroke:#A80036;stroke-width:1.5;" width="166" x="2141.5" y="1257.1484"/><text fill="#000000" font-family="sans-serif" font-size="14" lengthAdjust="spacing" textLength="152" x="2148.5" y="1278.6816">agvMapper:AGVMapper</text><rect fill="#FEFECE" filter="url(#fry72va3mp74i)" height="31.6094" style="stroke:#A80036;stroke-width:1.5;" width="124" x="2321.5" y="41.6406"/><text fill="#000000" font-family="sans-serif" font-size="14" lengthAdjust="spacing" textLength="110" x="2328.5" y="63.1738">agvDTO:agvDTO</text><rect fill="#FEFECE" filter="url(#fry72va3mp74i)" height="31.6094" style="stroke:#A80036;stroke-width:1.5;" width="124" x="2321.5" y="1257.1484"/><text fill="#000000" font-family="sans-serif" font-size="14" lengthAdjust="spacing" textLength="110" x="2328.5" y="1278.6816">agvDTO:agvDTO</text><rect fill="#FEFECE" filter="url(#fry72va3mp74i)" height="31.6094" style="stroke:#A80036;stroke-width:1.5;" width="70" x="2459.5" y="41.6406"/><text fill="#000000" font-family="sans-serif" font-size="14" lengthAdjust="spacing" textLength="56" x="2466.5" y="63.1738">agv:AGV</text><rect fill="#FEFECE" filter="url(#fry72va3mp74i)" height="31.6094" style="stroke:#A80036;stroke-width:1.5;" width="70" x="2459.5" y="1257.1484"/><text fill="#000000" font-family="sans-serif" font-size="14" lengthAdjust="spacing" textLength="56" x="2466.5" y="1278.6816">agv:AGV</text><rect fill="#FEFECE" filter="url(#fry72va3mp74i)" height="31.6094" style="stroke:#A80036;stroke-width:1.5;" width="121" x="2570" y="41.6406"/><text fill="#000000" font-family="sans-serif" font-size="14" lengthAdjust="spacing" textLength="107" x="2577" y="63.1738">agvStatus:Status</text><rect fill="#FEFECE" filter="url(#fry72va3mp74i)" height="31.6094" style="stroke:#A80036;stroke-width:1.5;" width="121" x="2570" y="1257.1484"/><text fill="#000000" font-family="sans-serif" font-size="14" lengthAdjust="spacing" textLength="107" x="2577" y="1278.6816">agvStatus:Status</text><rect fill="#FFFFFF" filter="url(#fry72va3mp74i)" height="1129.5469" style="stroke:#A80036;stroke-width:1.0;" width="10" x="721.5" y="110.6016"/><rect fill="#FFFFFF" filter="url(#fry72va3mp74i)" height="1068.8438" style="stroke:#A80036;stroke-width:1.0;" width="10" x="979.5" y="140.9531"/><rect fill="#FFFFFF" filter="url(#fry72va3mp74i)" height="30" style="stroke:#A80036;stroke-width:1.0;" width="10" x="1227" y="518.1719"/><rect fill="#FFFFFF" filter="url(#fry72va3mp74i)" height="30" style="stroke:#A80036;stroke-width:1.0;" width="10" x="1227" y="1088.7422"/><rect fill="#FFFFFF" filter="url(#fry72va3mp74i)" height="73.7031" style="stroke:#A80036;stroke-width:1.0;" width="10" x="1448" y="984.6875"/><rect fill="#FFFFFF" filter="url(#fry72va3mp74i)" height="60.7031" style="stroke:#A80036;stroke-width:1.0;" width="10" x="1649" y="396.7656"/><rect fill="#FFFFFF" filter="url(#fry72va3mp74i)" height="60.7031" style="stroke:#A80036;stroke-width:1.0;" width="10" x="1649" y="1149.0938"/><rect fill="#FFFFFF" filter="url(#fry72va3mp74i)" height="30.3516" style="stroke:#A80036;stroke-width:1.0;" width="10" x="1830" y="427.1172"/><rect fill="#FFFFFF" filter="url(#fry72va3mp74i)" height="30.3516" style="stroke:#A80036;stroke-width:1.0;" width="10" x="1830" y="1179.4453"/><rect fill="#FFFFFF" filter="url(#fry72va3mp74i)" height="30" style="stroke:#A80036;stroke-width:1.0;" width="10" x="2021.5" y="578.5234"/><rect fill="#FFFFFF" filter="url(#fry72va3mp74i)" height="30" style="stroke:#A80036;stroke-width:1.0;" width="10" x="2021.5" y="820.2813"/><rect fill="#FFFFFF" filter="url(#fry72va3mp74i)" height="120.7031" style="stroke:#A80036;stroke-width:1.0;" width="10" x="2221.5" y="638.875"/><rect fill="#FFFFFF" filter="url(#fry72va3mp74i)" height="30" style="stroke:#A80036;stroke-width:1.0;" width="10" x="2380.5" y="669.2266"/><rect fill="#FFFFFF" filter="url(#fry72va3mp74i)" height="30" style="stroke:#A80036;stroke-width:1.0;" width="10" x="2380.5" y="729.5781"/><rect fill="#FFFFFF" filter="url(#fry72va3mp74i)" height="66.7031" style="stroke:#A80036;stroke-width:1.0;" width="10" x="2491.5" y="880.6328"/><rect fill="#FFFFFF" filter="url(#fry72va3mp74i)" height="73.7031" style="stroke:#A80036;stroke-width:1.0;" width="10" x="2627.5" y="910.9844"/><polygon fill="#A80036" points="709.5,106.6016,719.5,110.6016,709.5,114.6016,713.5,110.6016" style="stroke:#A80036;stroke-width:1.0;"/><line style="stroke:#A80036;stroke-width:1.0;" x1="81.5" x2="715.5" y1="110.6016" y2="110.6016"/><text fill="#000000" font-family="sans-serif" font-size="13" lengthAdjust="spacing" textLength="290" x="88.5" y="105.7451">starts the algorithm to assign orders automatically</text><polygon fill="#A80036" points="967.5,136.9531,977.5,140.9531,967.5,144.9531,971.5,140.9531" style="stroke:#A80036;stroke-width:1.0;"/><line style="stroke:#A80036;stroke-width:1.0;" x1="731.5" x2="973.5" y1="140.9531" y2="140.9531"/><text fill="#000000" font-family="sans-serif" font-size="13" lengthAdjust="spacing" textLength="120" x="738.5" y="136.0967">addOrdersToQueue()</text><polygon fill="#A80036" points="1220,167.3047,1230,171.3047,1220,175.3047,1224,171.3047" style="stroke:#A80036;stroke-width:1.0;"/><line style="stroke:#A80036;stroke-width:1.0;" x1="989.5" x2="1226" y1="171.3047" y2="171.3047"/><text fill="#000000" font-family="sans-serif" font-size="13" lengthAdjust="spacing" textLength="180" x="996.5" y="166.4482">listOfOrdersInAscendingOrder()</text><polygon fill="#A80036" points="92.5,197.6563,82.5,201.6563,92.5,205.6563,88.5,201.6563" style="stroke:#A80036;stroke-width:1.0;"/><line style="stroke:#A80036;stroke-width:1.0;stroke-dasharray:2.0,2.0;" x1="86.5" x2="720.5" y1="201.6563" y2="201.6563"/><text fill="#000000" font-family="sans-serif" font-size="13" lengthAdjust="spacing" textLength="526" x="98.5" y="196.7998">Asks the warehouse employee if he wants the algorithm to assign orders periodically or not</text><polygon fill="#A80036" points="709.5,228.0078,719.5,232.0078,709.5,236.0078,713.5,232.0078" style="stroke:#A80036;stroke-width:1.0;"/><line style="stroke:#A80036;stroke-width:1.0;" x1="81.5" x2="715.5" y1="232.0078" y2="232.0078"/><text fill="#000000" font-family="sans-serif" font-size="13" lengthAdjust="spacing" textLength="392" x="88.5" y="227.1514">Chooses if the algorithm is going to assign orders periodically or not</text><line style="stroke:#A80036;stroke-width:1.0;" x1="731.5" x2="773.5" y1="262.3594" y2="262.3594"/><line style="stroke:#A80036;stroke-width:1.0;" x1="773.5" x2="773.5" y1="262.3594" y2="275.3594"/><line style="stroke:#A80036;stroke-width:1.0;" x1="732.5" x2="773.5" y1="275.3594" y2="275.3594"/><polygon fill="#A80036" points="742.5,271.3594,732.5,275.3594,742.5,279.3594,738.5,275.3594" style="stroke:#A80036;stroke-width:1.0;"/><text fill="#000000" font-family="sans-serif" font-size="13" lengthAdjust="spacing" textLength="153" x="738.5" y="257.5029">assignTaskAutomatically()</text><polygon fill="#A80036" points="967.5,301.7109,977.5,305.7109,967.5,309.7109,971.5,305.7109" style="stroke:#A80036;stroke-width:1.0;"/><line style="stroke:#A80036;stroke-width:1.0;" x1="731.5" x2="973.5" y1="305.7109" y2="305.7109"/><text fill="#000000" font-family="sans-serif" font-size="13" lengthAdjust="spacing" textLength="224" x="738.5" y="300.8545">checkIfTimeIsCorrect(time, unitOfTime)</text><polygon fill="#A80036" points="967.5,332.0625,977.5,336.0625,967.5,340.0625,971.5,336.0625" style="stroke:#A80036;stroke-width:1.0;"/><line style="stroke:#A80036;stroke-width:1.0;" x1="731.5" x2="973.5" y1="336.0625" y2="336.0625"/><text fill="#000000" font-family="sans-serif" font-size="13" lengthAdjust="spacing" textLength="166" x="738.5" y="331.2061">sizeOfListOfOrdersInQueue()</text><polygon fill="#A80036" points="967.5,362.4141,977.5,366.4141,967.5,370.4141,971.5,366.4141" style="stroke:#A80036;stroke-width:1.0;"/><line style="stroke:#A80036;stroke-width:1.0;" x1="731.5" x2="973.5" y1="366.4141" y2="366.4141"/><text fill="#000000" font-family="sans-serif" font-size="13" lengthAdjust="spacing" textLength="175" x="738.5" y="361.5576">removeFirstOrderFromQueue()</text><polygon fill="#A80036" points="1637,392.7656,1647,396.7656,1637,400.7656,1641,396.7656" style="stroke:#A80036;stroke-width:1.0;"/><line style="stroke:#A80036;stroke-width:1.0;" x1="989.5" x2="1643" y1="396.7656" y2="396.7656"/><text fill="#000000" font-family="sans-serif" font-size="13" lengthAdjust="spacing" textLength="44" x="996.5" y="391.9092">create()</text><polygon fill="#A80036" points="1818,423.1172,1828,427.1172,1818,431.1172,1822,427.1172" style="stroke:#A80036;stroke-width:1.0;"/><line style="stroke:#A80036;stroke-width:1.0;" x1="1659" x2="1824" y1="427.1172" y2="427.1172"/><text fill="#000000" font-family="sans-serif" font-size="13" lengthAdjust="spacing" textLength="44" x="1666" y="422.2607">create()</text><polygon fill="#A80036" points="1823,453.4688,1833,457.4688,1823,461.4688,1827,457.4688" style="stroke:#A80036;stroke-width:1.0;"/><line style="stroke:#A80036;stroke-width:1.0;" x1="1654" x2="1829" y1="457.4688" y2="457.4688"/><text fill="#000000" font-family="sans-serif" font-size="13" lengthAdjust="spacing" textLength="74" x="1661" y="452.6123">toDTO(order)</text><polygon fill="#A80036" points="967.5,483.8203,977.5,487.8203,967.5,491.8203,971.5,487.8203" style="stroke:#A80036;stroke-width:1.0;"/><line style="stroke:#A80036;stroke-width:1.0;" x1="731.5" x2="973.5" y1="487.8203" y2="487.8203"/><text fill="#000000" font-family="sans-serif" font-size="13" lengthAdjust="spacing" textLength="101" x="738.5" y="482.9639">listAgvAble(order)</text><polygon fill="#A80036" points="1215,514.1719,1225,518.1719,1215,522.1719,1219,518.1719" style="stroke:#A80036;stroke-width:1.0;"/><line style="stroke:#A80036;stroke-width:1.0;" x1="989.5" x2="1221" y1="518.1719" y2="518.1719"/><text fill="#000000" font-family="sans-serif" font-size="13" lengthAdjust="spacing" textLength="64" x="996.5" y="513.3154">findById(id)</text><polygon fill="#A80036" points="2009.5,574.5234,2019.5,578.5234,2009.5,582.5234,2013.5,578.5234" style="stroke:#A80036;stroke-width:1.0;"/><line style="stroke:#A80036;stroke-width:1.0;" x1="989.5" x2="2015.5" y1="578.5234" y2="578.5234"/><text fill="#000000" font-family="sans-serif" font-size="13" lengthAdjust="spacing" textLength="73" x="996.5" y="573.667">isAble(order)</text><polygon fill="#A80036" points="2209.5,634.875,2219.5,638.875,2209.5,642.875,2213.5,638.875" style="stroke:#A80036;stroke-width:1.0;"/><line style="stroke:#A80036;stroke-width:1.0;" x1="989.5" x2="2215.5" y1="638.875" y2="638.875"/><text fill="#000000" font-family="sans-serif" font-size="13" lengthAdjust="spacing" textLength="44" x="996.5" y="634.0186">create()</text><polygon fill="#A80036" points="2368.5,665.2266,2378.5,669.2266,2368.5,673.2266,2372.5,669.2266" style="stroke:#A80036;stroke-width:1.0;"/><line style="stroke:#A80036;stroke-width:1.0;" x1="2231.5" x2="2374.5" y1="669.2266" y2="669.2266"/><text fill="#000000" font-family="sans-serif" font-size="13" lengthAdjust="spacing" textLength="44" x="2238.5" y="664.3701">create()</text><polygon fill="#A80036" points="2368.5,725.5781,2378.5,729.5781,2368.5,733.5781,2372.5,729.5781" style="stroke:#A80036;stroke-width:1.0;"/><line style="stroke:#A80036;stroke-width:1.0;" x1="2231.5" x2="2374.5" y1="729.5781" y2="729.5781"/><text fill="#000000" font-family="sans-serif" font-size="13" lengthAdjust="spacing" textLength="85" x="2238.5" y="724.7217">toDTO(agvList)</text><polygon fill="#A80036" points="967.5,785.9297,977.5,789.9297,967.5,793.9297,971.5,789.9297" style="stroke:#A80036;stroke-width:1.0;"/><line style="stroke:#A80036;stroke-width:1.0;" x1="731.5" x2="973.5" y1="789.9297" y2="789.9297"/><text fill="#000000" font-family="sans-serif" font-size="13" lengthAdjust="spacing" textLength="97" x="738.5" y="785.0732">assignOrder(agv)</text><polygon fill="#A80036" points="2009.5,816.2813,2019.5,820.2813,2009.5,824.2813,2013.5,820.2813" style="stroke:#A80036;stroke-width:1.0;"/><line style="stroke:#A80036;stroke-width:1.0;" x1="989.5" x2="2015.5" y1="820.2813" y2="820.2813"/><text fill="#000000" font-family="sans-serif" font-size="13" lengthAdjust="spacing" textLength="102" x="996.5" y="815.4248">findByIdentifier(id)</text><polygon fill="#A80036" points="2479.5,876.6328,2489.5,880.6328,2479.5,884.6328,2483.5,880.6328" style="stroke:#A80036;stroke-width:1.0;"/><line style="stroke:#A80036;stroke-width:1.0;" x1="989.5" x2="2485.5" y1="880.6328" y2="880.6328"/><text fill="#000000" font-family="sans-serif" font-size="13" lengthAdjust="spacing" textLength="107" x="996.5" y="875.7764">assignOrder(order)</text><polygon fill="#A80036" points="2615.5,906.9844,2625.5,910.9844,2615.5,914.9844,2619.5,910.9844" style="stroke:#A80036;stroke-width:1.0;"/><line style="stroke:#A80036;stroke-width:1.0;" x1="2501.5" x2="2621.5" y1="910.9844" y2="910.9844"/><text fill="#000000" font-family="sans-serif" font-size="13" lengthAdjust="spacing" textLength="107" x="2508.5" y="906.1279">assignOrder(order)</text><line style="stroke:#A80036;stroke-width:1.0;" x1="2637.5" x2="2679.5" y1="946.3359" y2="946.3359"/><line style="stroke:#A80036;stroke-width:1.0;" x1="2679.5" x2="2679.5" y1="946.3359" y2="959.3359"/><line style="stroke:#A80036;stroke-width:1.0;" x1="2632.5" x2="2679.5" y1="959.3359" y2="959.3359"/><polygon fill="#A80036" points="2642.5,955.3359,2632.5,959.3359,2642.5,963.3359,2638.5,959.3359" style="stroke:#A80036;stroke-width:1.0;"/><text fill="#000000" font-family="sans-serif" font-size="13" lengthAdjust="spacing" textLength="140" x="2644.5" y="941.4795">changeStatus(occupied)</text><polygon fill="#A80036" points="1436,980.6875,1446,984.6875,1436,988.6875,1440,984.6875" style="stroke:#A80036;stroke-width:1.0;"/><line style="stroke:#A80036;stroke-width:1.0;" x1="989.5" x2="1442" y1="984.6875" y2="984.6875"/><text fill="#000000" font-family="sans-serif" font-size="13" lengthAdjust="spacing" textLength="83" x="996.5" y="979.8311">developOrder()</text><line style="stroke:#A80036;stroke-width:1.0;" x1="1458" x2="1500" y1="1015.0391" y2="1015.0391"/><line style="stroke:#A80036;stroke-width:1.0;" x1="1500" x2="1500" y1="1015.0391" y2="1028.0391"/><line style="stroke:#A80036;stroke-width:1.0;" x1="1459" x2="1500" y1="1028.0391" y2="1028.0391"/><polygon fill="#A80036" points="1469,1024.0391,1459,1028.0391,1469,1032.0391,1465,1028.0391" style="stroke:#A80036;stroke-width:1.0;"/><text fill="#000000" font-family="sans-serif" font-size="13" lengthAdjust="spacing" textLength="148" x="1465" y="1010.1826">changeStatus(developing)</text><polygon fill="#A80036" points="967.5,1054.3906,977.5,1058.3906,967.5,1062.3906,971.5,1058.3906" style="stroke:#A80036;stroke-width:1.0;"/><line style="stroke:#A80036;stroke-width:1.0;" x1="731.5" x2="973.5" y1="1058.3906" y2="1058.3906"/><text fill="#000000" font-family="sans-serif" font-size="13" lengthAdjust="spacing" textLength="179" x="738.5" y="1053.5342">findProductOrderById(identifier)</text><polygon fill="#A80036" points="1215,1084.7422,1225,1088.7422,1215,1092.7422,1219,1088.7422" style="stroke:#A80036;stroke-width:1.0;"/><line style="stroke:#A80036;stroke-width:1.0;" x1="989.5" x2="1221" y1="1088.7422" y2="1088.7422"/><text fill="#000000" font-family="sans-serif" font-size="13" lengthAdjust="spacing" textLength="64" x="996.5" y="1083.8857">findById(id)</text><polygon fill="#A80036" points="1637,1145.0938,1647,1149.0938,1637,1153.0938,1641,1149.0938" style="stroke:#A80036;stroke-width:1.0;"/><line style="stroke:#A80036;stroke-width:1.0;" x1="989.5" x2="1643" y1="1149.0938" y2="1149.0938"/><text fill="#000000" font-family="sans-serif" font-size="13" lengthAdjust="spacing" textLength="44" x="996.5" y="1144.2373">create()</text><polygon fill="#A80036" points="1818,1175.4453,1828,1179.4453,1818,1183.4453,1822,1179.4453" style="stroke:#A80036;stroke-width:1.0;"/><line style="stroke:#A80036;stroke-width:1.0;" x1="1659" x2="1824" y1="1179.4453" y2="1179.4453"/><text fill="#000000" font-family="sans-serif" font-size="13" lengthAdjust="spacing" textLength="44" x="1666" y="1174.5889">create()</text><polygon fill="#A80036" points="1823,1205.7969,1833,1209.7969,1823,1213.7969,1827,1209.7969" style="stroke:#A80036;stroke-width:1.0;"/><line style="stroke:#A80036;stroke-width:1.0;" x1="1654" x2="1829" y1="1209.7969" y2="1209.7969"/><text fill="#000000" font-family="sans-serif" font-size="13" lengthAdjust="spacing" textLength="74" x="1661" y="1204.9404">toDTO(order)</text><polygon fill="#A80036" points="92.5,1236.1484,82.5,1240.1484,92.5,1244.1484,88.5,1240.1484" style="stroke:#A80036;stroke-width:1.0;"/><line style="stroke:#A80036;stroke-width:1.0;stroke-dasharray:2.0,2.0;" x1="86.5" x2="725.5" y1="1240.1484" y2="1240.1484"/><text fill="#000000" font-family="sans-serif" font-size="13" lengthAdjust="spacing" textLength="616" x="98.5" y="1235.292">Assigns the tasks automatically, shows the ones assigned and informs about the success of the operation</text><!--MD5=[7fecce901ea420b9976edaf9310c84c0]
@startuml
title SD - Abasic FIFO algorithm to automatically assign tasks to AGVs

        participant "WarehouseEmployee" as whe
		participant ":AssignOrderAutomaticallyUI" as ui
		participant ":AssignOrderAutomaticallyController" as ctrl
		participant "orderRepository:OrderRepository" as repo
        participant "productOrder:ProductOrder" as order
        participant "orderMapper:OrderMapper" as orderMapper
        participant "orderDTO:OrderDTO" as orderDTO
        participant "agvRepository:AGVRepository" as agvRepo
        participant "agvMapper:AGVMapper" as agvMapper
        participant "agvDTO:agvDTO" as agvDto
        participant "agv:AGV" as agv
        participant "agvStatus:Status" as agvStatus

        whe->ui: starts the algorithm to assign orders automatically
        activate ui
        ui->ctrl: addOrdersToQueue()
        activate ctrl

        ctrl->repo: listOfOrdersInAscendingOrder()

        ui- ->whe: Asks the warehouse employee if he wants the algorithm to assign orders periodically or not
        whe->ui: Chooses if the algorithm is going to assign orders periodically or not

        ui->ui: assignTaskAutomatically()

        ui->ctrl: checkIfTimeIsCorrect(time, unitOfTime)
        ui->ctrl: sizeOfListOfOrdersInQueue()
        ui->ctrl: removeFirstOrderFromQueue()
        ctrl->orderMapper: create()
        activate orderMapper
        orderMapper->orderDTO: create()
        activate orderDTO
        orderMapper->orderDTO: toDTO(order)
        deactivate orderDTO
        deactivate orderMapper

        ui->ctrl: listAgvAble(order)
        ctrl->repo:findById(id)
        activate repo
        deactivate repo
        ctrl->agvRepo:isAble(order)
        activate agvRepo
        deactivate agvRepo
        ctrl->agvMapper:create()
        activate agvMapper
        agvMapper->agvDto:create()
        activate agvDto
        deactivate agvDto
        agvMapper->agvDto:toDTO(agvList)
        activate agvDto
        deactivate agvDto
        deactivate agvMapper

        ui->ctrl:assignOrder(agv)
        ctrl->agvRepo:findByIdentifier(id)
        activate agvRepo
        deactivate agvRepo
        ctrl->agv:assignOrder(order)
        activate agv
        agv->agvStatus:assignOrder(order)
        activate agvStatus
        agvStatus->agvStatus:changeStatus(occupied)
        deactivate agv
        ctrl->order:developOrder()
        deactivate agvStatus
        activate order
        order->order:changeStatus(developing)
        ui->ctrl: findProductOrderById(identifier)
        deactivate order
        ctrl->repo:findById(id)
        activate repo
        deactivate repo
        ctrl->orderMapper: create()
        activate orderMapper
        orderMapper->orderDTO: create()
        activate orderDTO
        orderMapper->orderDTO: toDTO(order)
        deactivate orderDTO
        deactivate orderMapper

        deactivate ctrl

        ui- ->whe: Assigns the tasks automatically, shows the ones assigned and informs about the success of the operation
        deactivate ui

@enduml

PlantUML version 1.2021.11(Sat Oct 02 14:26:11 BST 2021)
(GPL source distribution)
Java Runtime: OpenJDK Runtime Environment
JVM: OpenJDK 64-Bit Server VM
Default Encoding: Cp1252
Language: en
Country: GB
--></g></svg>