<?xml version="1.0" encoding="UTF-8" standalone="no"?><svg xmlns="http://www.w3.org/2000/svg" xmlns:xlink="http://www.w3.org/1999/xlink" contentStyleType="text/css" height="813px" preserveAspectRatio="none" style="width:1030px;height:813px;background:#FFFFFF;" version="1.1" viewBox="0 0 1030 813" width="1030px" zoomAndPan="magnify"><defs/><g><rect fill="#FFFFFF" height="630.0078" style="stroke:#181818;stroke-width:1.0;" width="10" x="22.5" y="92.6094"/><rect fill="#FFFFFF" height="606.6563" style="stroke:#181818;stroke-width:1.0;" width="10" x="212.5" y="114.9609"/><rect fill="#FFFFFF" height="518.6953" style="stroke:#181818;stroke-width:1.0;" width="10" x="387" y="187.9219"/><rect fill="#FFFFFF" height="321.6797" style="stroke:#181818;stroke-width:1.0;" width="10" x="537.5" y="263.8828"/><rect fill="#FFFFFF" height="90.7031" style="stroke:#181818;stroke-width:1.0;" width="10" x="537.5" y="615.9141"/><rect fill="#FFFFFF" height="190.0156" style="stroke:#181818;stroke-width:1.0;" width="10" x="706.5" y="365.1953"/><rect fill="#FFFFFF" height="60.3516" style="stroke:#181818;stroke-width:1.0;" width="10" x="706.5" y="646.2656"/><rect fill="#FFFFFF" height="79.7031" style="stroke:#181818;stroke-width:1.0;" width="10" x="885.5" y="438.1563"/><rect fill="#FFFFFF" height="30" style="stroke:#181818;stroke-width:1.0;" width="10" x="885.5" y="676.6172"/><rect height="432.7344" style="stroke:#000000;stroke-width:1.5;fill:none;" width="733" x="291.5" y="281.8828"/><line style="stroke:#181818;stroke-width:0.5;fill:none;stroke-dasharray:5.0,5.0;" x1="27" x2="27" y1="82.6094" y2="731.6172"/><line style="stroke:#181818;stroke-width:0.5;fill:none;stroke-dasharray:5.0,5.0;" x1="217.5" x2="217.5" y1="82.6094" y2="731.6172"/><line style="stroke:#181818;stroke-width:0.5;fill:none;stroke-dasharray:5.0,5.0;" x1="391.5" x2="391.5" y1="154.2656" y2="731.6172"/><line style="stroke:#181818;stroke-width:0.5;fill:none;stroke-dasharray:5.0,5.0;" x1="542.5" x2="542.5" y1="227.2266" y2="731.6172"/><line style="stroke:#181818;stroke-width:0.5;fill:none;stroke-dasharray:5.0,5.0;" x1="711.5" x2="711.5" y1="331.5391" y2="731.6172"/><line style="stroke:#181818;stroke-width:0.5;fill:none;stroke-dasharray:5.0,5.0;" x1="890.5" x2="890.5" y1="404.5" y2="731.6172"/><text fill="#000000" font-family="sans-serif" font-size="14" lengthAdjust="spacing" textLength="39" x="5" y="79.5332">Admin</text><ellipse cx="27.5" cy="13.5" fill="#E2E2F0" rx="8" ry="8" style="stroke:#181818;stroke-width:0.5;"/><path d="M27.5,21.5 L27.5,48.5 M14.5,29.5 L40.5,29.5 M27.5,48.5 L14.5,63.5 M27.5,48.5 L40.5,63.5 " fill="none" style="stroke:#181818;stroke-width:0.5;"/><text fill="#000000" font-family="sans-serif" font-size="14" lengthAdjust="spacing" textLength="39" x="5" y="745.1504">Admin</text><ellipse cx="27.5" cy="756.7266" fill="#E2E2F0" rx="8" ry="8" style="stroke:#181818;stroke-width:0.5;"/><path d="M27.5,764.7266 L27.5,791.7266 M14.5,772.7266 L40.5,772.7266 M27.5,791.7266 L14.5,806.7266 M27.5,791.7266 L40.5,806.7266 " fill="none" style="stroke:#181818;stroke-width:0.5;"/><rect fill="#E2E2F0" height="31.6094" rx="2.5" ry="2.5" style="stroke:#181818;stroke-width:0.5;" width="72" x="181.5" y="50"/><text fill="#000000" font-family="sans-serif" font-size="14" lengthAdjust="spacing" textLength="58" x="188.5" y="71.5332">:ServerUI</text><rect fill="#E2E2F0" height="31.6094" rx="2.5" ry="2.5" style="stroke:#181818;stroke-width:0.5;" width="72" x="181.5" y="730.6172"/><text fill="#000000" font-family="sans-serif" font-size="14" lengthAdjust="spacing" textLength="58" x="188.5" y="752.1504">:ServerUI</text><rect fill="#E2E2F0" height="31.6094" rx="2.5" ry="2.5" style="stroke:#181818;stroke-width:0.5;" width="181" x="301.5" y="730.6172"/><text fill="#000000" font-family="sans-serif" font-size="14" lengthAdjust="spacing" textLength="167" x="308.5" y="752.1504">controller:ServerController</text><rect fill="#E2E2F0" height="31.6094" rx="2.5" ry="2.5" style="stroke:#181818;stroke-width:0.5;" width="100" x="492.5" y="730.6172"/><text fill="#000000" font-family="sans-serif" font-size="14" lengthAdjust="spacing" textLength="86" x="499.5" y="752.1504">server:Server</text><rect fill="#E2E2F0" height="31.6094" rx="2.5" ry="2.5" style="stroke:#181818;stroke-width:0.5;" width="170" x="626.5" y="730.6172"/><text fill="#000000" font-family="sans-serif" font-size="14" lengthAdjust="spacing" textLength="156" x="633.5" y="752.1504">request:HttpAjaxRequest</text><rect fill="#E2E2F0" height="31.6094" rx="2.5" ry="2.5" style="stroke:#181818;stroke-width:0.5;" width="168" x="806.5" y="730.6172"/><text fill="#000000" font-family="sans-serif" font-size="14" lengthAdjust="spacing" textLength="154" x="813.5" y="752.1504">message:HTTPMessage</text><rect fill="#FFFFFF" height="630.0078" style="stroke:#181818;stroke-width:1.0;" width="10" x="22.5" y="92.6094"/><rect fill="#FFFFFF" height="606.6563" style="stroke:#181818;stroke-width:1.0;" width="10" x="212.5" y="114.9609"/><rect fill="#FFFFFF" height="518.6953" style="stroke:#181818;stroke-width:1.0;" width="10" x="387" y="187.9219"/><rect fill="#FFFFFF" height="321.6797" style="stroke:#181818;stroke-width:1.0;" width="10" x="537.5" y="263.8828"/><rect fill="#FFFFFF" height="90.7031" style="stroke:#181818;stroke-width:1.0;" width="10" x="537.5" y="615.9141"/><rect fill="#FFFFFF" height="190.0156" style="stroke:#181818;stroke-width:1.0;" width="10" x="706.5" y="365.1953"/><rect fill="#FFFFFF" height="60.3516" style="stroke:#181818;stroke-width:1.0;" width="10" x="706.5" y="646.2656"/><rect fill="#FFFFFF" height="79.7031" style="stroke:#181818;stroke-width:1.0;" width="10" x="885.5" y="438.1563"/><rect fill="#FFFFFF" height="30" style="stroke:#181818;stroke-width:1.0;" width="10" x="885.5" y="676.6172"/><polygon fill="#181818" points="200.5,110.9609,210.5,114.9609,200.5,118.9609,204.5,114.9609" style="stroke:#181818;stroke-width:1.0;"/><line style="stroke:#181818;stroke-width:1.0;" x1="32.5" x2="206.5" y1="114.9609" y2="114.9609"/><text fill="#000000" font-family="sans-serif" font-size="13" font-weight="bold" lengthAdjust="spacing" textLength="7" x="39.5" y="110.1045">1</text><text fill="#000000" font-family="sans-serif" font-size="13" lengthAdjust="spacing" textLength="150" x="50.5" y="110.1045">request to open the server</text><polygon fill="#181818" points="289.5,141.3125,299.5,145.3125,289.5,149.3125,293.5,145.3125" style="stroke:#181818;stroke-width:1.0;"/><line style="stroke:#181818;stroke-width:1.0;stroke-dasharray:2.0,2.0;" x1="222.5" x2="295.5" y1="145.3125" y2="145.3125"/><text fill="#000000" font-family="sans-serif" font-size="13" font-weight="bold" lengthAdjust="spacing" textLength="7" x="229.5" y="140.4561">2</text><text fill="#000000" font-family="sans-serif" font-size="13" lengthAdjust="spacing" textLength="44" x="240.5" y="140.4561">create()</text><rect fill="#E2E2F0" height="31.6094" rx="2.5" ry="2.5" style="stroke:#181818;stroke-width:0.5;" width="181" x="301.5" y="122.9609"/><text fill="#000000" font-family="sans-serif" font-size="14" lengthAdjust="spacing" textLength="167" x="308.5" y="144.4941">controller:ServerController</text><polygon fill="#181818" points="375,183.9219,385,187.9219,375,191.9219,379,187.9219" style="stroke:#181818;stroke-width:1.0;"/><line style="stroke:#181818;stroke-width:1.0;stroke-dasharray:2.0,2.0;" x1="222.5" x2="381" y1="187.9219" y2="187.9219"/><text fill="#000000" font-family="sans-serif" font-size="13" font-weight="bold" lengthAdjust="spacing" textLength="7" x="229.5" y="183.0654">3</text><text fill="#000000" font-family="sans-serif" font-size="13" lengthAdjust="spacing" textLength="72" x="240.5" y="183.0654">createServer</text><polygon fill="#181818" points="480.5,214.2734,490.5,218.2734,480.5,222.2734,484.5,218.2734" style="stroke:#181818;stroke-width:1.0;"/><line style="stroke:#181818;stroke-width:1.0;stroke-dasharray:2.0,2.0;" x1="397" x2="486.5" y1="218.2734" y2="218.2734"/><text fill="#000000" font-family="sans-serif" font-size="13" font-weight="bold" lengthAdjust="spacing" textLength="7" x="404" y="213.417">4</text><text fill="#000000" font-family="sans-serif" font-size="13" lengthAdjust="spacing" textLength="44" x="415" y="213.417">create()</text><rect fill="#E2E2F0" height="31.6094" rx="2.5" ry="2.5" style="stroke:#181818;stroke-width:0.5;" width="100" x="492.5" y="195.9219"/><text fill="#000000" font-family="sans-serif" font-size="14" lengthAdjust="spacing" textLength="86" x="499.5" y="217.4551">server:Server</text><polygon fill="#181818" points="525.5,259.8828,535.5,263.8828,525.5,267.8828,529.5,263.8828" style="stroke:#181818;stroke-width:1.0;"/><line style="stroke:#181818;stroke-width:1.0;stroke-dasharray:2.0,2.0;" x1="397" x2="531.5" y1="263.8828" y2="263.8828"/><text fill="#000000" font-family="sans-serif" font-size="13" font-weight="bold" lengthAdjust="spacing" textLength="7" x="404" y="259.0264">5</text><text fill="#000000" font-family="sans-serif" font-size="13" lengthAdjust="spacing" textLength="34" x="415" y="259.0264">start()</text><path d="M552,243.5313 L552,269.5313 L688,269.5313 L688,253.5313 L678,243.5313 L552,243.5313 " fill="#FEFFDD" style="stroke:#181818;stroke-width:0.5;"/><path d="M678,243.5313 L678,253.5313 L688,253.5313 L678,243.5313 " fill="#FEFFDD" style="stroke:#181818;stroke-width:0.5;"/><text fill="#000000" font-family="sans-serif" font-size="13" lengthAdjust="spacing" textLength="115" x="558" y="262.0264">New Thread created</text><path d="M291.5,281.8828 L364.5,281.8828 L364.5,290.2344 L354.5,300.2344 L291.5,300.2344 L291.5,281.8828 " fill="#EEEEEE" style="stroke:#000000;stroke-width:1.5;"/><rect fill="none" height="432.7344" style="stroke:#000000;stroke-width:1.5;" width="733" x="291.5" y="281.8828"/><text fill="#000000" font-family="sans-serif" font-size="13" font-weight="bold" lengthAdjust="spacing" textLength="28" x="306.5" y="296.3779">loop</text><polygon fill="#181818" points="614.5,318.5859,624.5,322.5859,614.5,326.5859,618.5,322.5859" style="stroke:#181818;stroke-width:1.0;"/><line style="stroke:#181818;stroke-width:1.0;stroke-dasharray:2.0,2.0;" x1="547.5" x2="620.5" y1="322.5859" y2="322.5859"/><text fill="#000000" font-family="sans-serif" font-size="13" font-weight="bold" lengthAdjust="spacing" textLength="7" x="554.5" y="317.7295">6</text><text fill="#000000" font-family="sans-serif" font-size="13" lengthAdjust="spacing" textLength="44" x="565.5" y="317.7295">create()</text><rect fill="#E2E2F0" height="31.6094" rx="2.5" ry="2.5" style="stroke:#181818;stroke-width:0.5;" width="170" x="626.5" y="300.2344"/><text fill="#000000" font-family="sans-serif" font-size="14" lengthAdjust="spacing" textLength="156" x="633.5" y="321.7676">request:HttpAjaxRequest</text><path d="M801,308.3633 L801,334.3633 L937,334.3633 L937,318.3633 L927,308.3633 L801,308.3633 " fill="#FEFFDD" style="stroke:#181818;stroke-width:0.5;"/><path d="M927,308.3633 L927,318.3633 L937,318.3633 L927,308.3633 " fill="#FEFFDD" style="stroke:#181818;stroke-width:0.5;"/><text fill="#000000" font-family="sans-serif" font-size="13" lengthAdjust="spacing" textLength="115" x="807" y="326.8584">New Thread created</text><polygon fill="#181818" points="694.5,361.1953,704.5,365.1953,694.5,369.1953,698.5,365.1953" style="stroke:#181818;stroke-width:1.0;"/><line style="stroke:#181818;stroke-width:1.0;stroke-dasharray:2.0,2.0;" x1="547.5" x2="700.5" y1="365.1953" y2="365.1953"/><text fill="#000000" font-family="sans-serif" font-size="13" font-weight="bold" lengthAdjust="spacing" textLength="7" x="554.5" y="360.3389">7</text><text fill="#000000" font-family="sans-serif" font-size="13" lengthAdjust="spacing" textLength="34" x="565.5" y="360.3389">start()</text><polygon fill="#181818" points="794.5,391.5469,804.5,395.5469,794.5,399.5469,798.5,395.5469" style="stroke:#181818;stroke-width:1.0;"/><line style="stroke:#181818;stroke-width:1.0;stroke-dasharray:2.0,2.0;" x1="716.5" x2="800.5" y1="395.5469" y2="395.5469"/><text fill="#000000" font-family="sans-serif" font-size="13" font-weight="bold" lengthAdjust="spacing" textLength="7" x="723.5" y="390.6904">8</text><text fill="#000000" font-family="sans-serif" font-size="13" lengthAdjust="spacing" textLength="44" x="734.5" y="390.6904">create()</text><rect fill="#E2E2F0" height="31.6094" rx="2.5" ry="2.5" style="stroke:#181818;stroke-width:0.5;" width="168" x="806.5" y="373.1953"/><text fill="#000000" font-family="sans-serif" font-size="14" lengthAdjust="spacing" textLength="154" x="813.5" y="394.7285">message:HTTPMessage</text><polygon fill="#181818" points="873.5,434.1563,883.5,438.1563,873.5,442.1563,877.5,438.1563" style="stroke:#181818;stroke-width:1.0;"/><line style="stroke:#181818;stroke-width:1.0;stroke-dasharray:2.0,2.0;" x1="716.5" x2="879.5" y1="438.1563" y2="438.1563"/><text fill="#000000" font-family="sans-serif" font-size="13" font-weight="bold" lengthAdjust="spacing" textLength="7" x="723.5" y="433.2998">9</text><text fill="#000000" font-family="sans-serif" font-size="13" lengthAdjust="spacing" textLength="114" x="734.5" y="433.2998">send(outputStream)</text><line style="stroke:#181818;stroke-width:1.0;stroke-dasharray:2.0,2.0;" x1="895.5" x2="937.5" y1="468.5078" y2="468.5078"/><line style="stroke:#181818;stroke-width:1.0;stroke-dasharray:2.0,2.0;" x1="937.5" x2="937.5" y1="468.5078" y2="481.5078"/><line style="stroke:#181818;stroke-width:1.0;stroke-dasharray:2.0,2.0;" x1="896.5" x2="937.5" y1="481.5078" y2="481.5078"/><polygon fill="#181818" points="906.5,477.5078,896.5,481.5078,906.5,485.5078,902.5,481.5078" style="stroke:#181818;stroke-width:1.0;"/><text fill="#000000" font-family="sans-serif" font-size="13" font-weight="bold" lengthAdjust="spacing" textLength="14" x="902.5" y="463.6514">10</text><text fill="#000000" font-family="sans-serif" font-size="13" lengthAdjust="spacing" textLength="92" x="920.5" y="463.6514">writeHeaderLine</text><line style="stroke:#181818;stroke-width:1.0;stroke-dasharray:2.0,2.0;" x1="895.5" x2="937.5" y1="516.8594" y2="516.8594"/><line style="stroke:#181818;stroke-width:1.0;stroke-dasharray:2.0,2.0;" x1="937.5" x2="937.5" y1="516.8594" y2="529.8594"/><line style="stroke:#181818;stroke-width:1.0;stroke-dasharray:2.0,2.0;" x1="890.5" x2="937.5" y1="529.8594" y2="529.8594"/><polygon fill="#181818" points="900.5,525.8594,890.5,529.8594,900.5,533.8594,896.5,529.8594" style="stroke:#181818;stroke-width:1.0;"/><text fill="#000000" font-family="sans-serif" font-size="13" font-weight="bold" lengthAdjust="spacing" textLength="14" x="902.5" y="512.0029">11</text><text fill="#000000" font-family="sans-serif" font-size="13" lengthAdjust="spacing" textLength="90" x="920.5" y="512.0029">readHeaderLine</text><polygon fill="#181818" points="558.5,551.2109,548.5,555.2109,558.5,559.2109,554.5,555.2109" style="stroke:#181818;stroke-width:1.0;"/><line style="stroke:#181818;stroke-width:1.0;stroke-dasharray:2.0,2.0;" x1="552.5" x2="710.5" y1="555.2109" y2="555.2109"/><text fill="#000000" font-family="sans-serif" font-size="13" font-weight="bold" lengthAdjust="spacing" textLength="14" x="564.5" y="550.3545">12</text><text fill="#000000" font-family="sans-serif" font-size="13" lengthAdjust="spacing" textLength="76" x="582.5" y="550.3545">getPlantInfo()</text><polygon fill="#181818" points="408,581.5625,398,585.5625,408,589.5625,404,585.5625" style="stroke:#181818;stroke-width:1.0;"/><line style="stroke:#181818;stroke-width:1.0;stroke-dasharray:2.0,2.0;" x1="402" x2="541.5" y1="585.5625" y2="585.5625"/><text fill="#000000" font-family="sans-serif" font-size="13" font-weight="bold" lengthAdjust="spacing" textLength="14" x="414" y="580.7061">13</text><text fill="#000000" font-family="sans-serif" font-size="13" lengthAdjust="spacing" textLength="63" x="432" y="580.7061">getPlants()</text><polygon fill="#181818" points="525.5,611.9141,535.5,615.9141,525.5,619.9141,529.5,615.9141" style="stroke:#181818;stroke-width:1.0;"/><line style="stroke:#181818;stroke-width:1.0;stroke-dasharray:2.0,2.0;" x1="397" x2="531.5" y1="615.9141" y2="615.9141"/><text fill="#000000" font-family="sans-serif" font-size="13" font-weight="bold" lengthAdjust="spacing" textLength="14" x="404" y="611.0576">14</text><text fill="#000000" font-family="sans-serif" font-size="13" lengthAdjust="spacing" textLength="28" x="422" y="611.0576">plant</text><polygon fill="#181818" points="694.5,642.2656,704.5,646.2656,694.5,650.2656,698.5,646.2656" style="stroke:#181818;stroke-width:1.0;"/><line style="stroke:#181818;stroke-width:1.0;stroke-dasharray:2.0,2.0;" x1="547.5" x2="700.5" y1="646.2656" y2="646.2656"/><text fill="#000000" font-family="sans-serif" font-size="13" font-weight="bold" lengthAdjust="spacing" textLength="14" x="554.5" y="641.4092">15</text><text fill="#000000" font-family="sans-serif" font-size="13" lengthAdjust="spacing" textLength="4" x="572.5" y="641.4092"> </text><polygon fill="#181818" points="873.5,672.6172,883.5,676.6172,873.5,680.6172,877.5,676.6172" style="stroke:#181818;stroke-width:1.0;"/><line style="stroke:#181818;stroke-width:1.0;stroke-dasharray:2.0,2.0;" x1="716.5" x2="879.5" y1="676.6172" y2="676.6172"/><text fill="#000000" font-family="sans-serif" font-size="13" font-weight="bold" lengthAdjust="spacing" textLength="14" x="723.5" y="671.7607">16</text><text fill="#000000" font-family="sans-serif" font-size="13" lengthAdjust="spacing" textLength="119" x="741.5" y="671.7607">setContent(plantInfo)</text><!--MD5=[dbe2b0d5c00afdbec3f5f418665da7ab]
@startuml
'https://plantuml.com/sequence-diagram

autonumber

actor Admin as admin

activate admin

admin -> ":ServerUI" as UI : request to open the server
activate UI
    UI - -> "controller:ServerController" as controller **  :create()
    UI - -> controller:createServer
    activate controller
        controller - -> "server:Server" as server **:create()
        controller - -> server:start()
        activate server
            note right: New Thread created
            loop
                server - -> "request:HttpAjaxRequest" as request**: create()
                            note right: New Thread created
                server - -> request:start()
                activate request
                    request - -> "message:HTTPMessage" as message**: create()
                    request - -> message: send(outputStream)
                    activate message
                        message - -> message:writeHeaderLine
                        message - -> message:readHeaderLine
                    deactivate message
                    request - -> server:getPlantInfo()
                deactivate request
                server - -> controller:getPlants()
        deactivate server
        controller - -> server:plant
        activate server
            server - -> request:
            activate request
                request - -> message:setContent(plantInfo)
                activate message
                deactivate message
            deactivate request
        deactivate server
    deactivate controller
    end loop

deactivate UI


@enduml

@startuml

autonumber

actor Admin as admin

activate admin

admin -> ":ServerUI" as UI : request to open the server
activate UI
    UI - -> "controller:ServerController" as controller **  :create()
    UI - -> controller:createServer
    activate controller
        controller - -> "server:Server" as server **:create()
        controller - -> server:start()
        activate server
            note right: New Thread created
            loop
                server - -> "request:HttpAjaxRequest" as request**: create()
                            note right: New Thread created
                server - -> request:start()
                activate request
                    request - -> "message:HTTPMessage" as message**: create()
                    request - -> message: send(outputStream)
                    activate message
                        message - -> message:writeHeaderLine
                        message - -> message:readHeaderLine
                    deactivate message
                    request - -> server:getPlantInfo()
                deactivate request
                server - -> controller:getPlants()
        deactivate server
        controller - -> server:plant
        activate server
            server - -> request:
            activate request
                request - -> message:setContent(plantInfo)
                activate message
                deactivate message
            deactivate request
        deactivate server
    deactivate controller
    end loop

deactivate UI


@enduml

PlantUML version 1.2022.4(Sat Apr 09 14:29:17 BST 2022)
(GPL source distribution)
Java Runtime: OpenJDK Runtime Environment
JVM: OpenJDK 64-Bit Server VM
Default Encoding: Cp1252
Language: pt
Country: PT
--></g></svg>