<?xml version="1.0" encoding="UTF-8" standalone="no"?><svg xmlns="http://www.w3.org/2000/svg" xmlns:xlink="http://www.w3.org/1999/xlink" contentStyleType="text/css" height="1289px" preserveAspectRatio="none" style="width:1483px;height:1289px;background:#FFFFFF;" version="1.1" viewBox="0 0 1483 1289" width="1483px" zoomAndPan="magnify"><defs/><g><rect height="27.6094" style="stroke:#00000000;stroke-width:1.0;fill:none;" width="251" x="615" y="10"/><text fill="#000000" font-family="sans-serif" font-size="14" font-weight="bold" lengthAdjust="spacing" textLength="241" x="620" y="29.5332">Answer Survey Sequence Diagram</text><rect fill="#FFFFFF" height="1058.2656" style="stroke:#181818;stroke-width:1.0;" width="10" x="33.5" y="131.2188"/><rect fill="#FFFFFF" height="285.0703" style="stroke:#181818;stroke-width:1.0;" width="10" x="216.5" y="153.5703"/><rect fill="#FFFFFF" height="121.0547" style="stroke:#181818;stroke-width:1.0;" width="10" x="216.5" y="468.9922"/><rect fill="#FFFFFF" height="30.3516" style="stroke:#181818;stroke-width:1.0;" width="10" x="216.5" y="620.3984"/><rect fill="#FFFFFF" height="508.3828" style="stroke:#181818;stroke-width:1.0;" width="10" x="216.5" y="681.1016"/><rect fill="#FFFFFF" height="181.7578" style="stroke:#181818;stroke-width:1.0;" width="10" x="425.5" y="226.5313"/><rect fill="#FFFFFF" height="30" style="stroke:#181818;stroke-width:1.0;" width="10" x="425.5" y="499.3438"/><rect fill="#FFFFFF" height="447.6797" style="stroke:#181818;stroke-width:1.0;" width="10" x="425.5" y="711.4531"/><rect fill="#FFFFFF" height="30.3516" style="stroke:#181818;stroke-width:1.0;" width="10" x="620" y="256.8828"/><rect fill="#FFFFFF" height="30.3516" style="stroke:#181818;stroke-width:1.0;" width="10" x="805.5" y="317.5859"/><rect fill="#FFFFFF" height="30" style="stroke:#181818;stroke-width:1.0;" width="10" x="1024" y="378.2891"/><rect fill="#FFFFFF" height="30" style="stroke:#181818;stroke-width:1.0;" width="10" x="1224" y="784.4141"/><rect fill="#FFFFFF" height="30" style="stroke:#181818;stroke-width:1.0;" width="10" x="1396.5" y="887.375"/><rect fill="#FFFFFF" height="30" style="stroke:#181818;stroke-width:1.0;" width="10" x="1396.5" y="947.7266"/><rect fill="#FFFFFF" height="30" style="stroke:#181818;stroke-width:1.0;" width="10" x="1396.5" y="1008.0781"/><rect fill="#FFFFFF" height="30" style="stroke:#181818;stroke-width:1.0;" width="10" x="1396.5" y="1068.4297"/><rect fill="#FFFFFF" height="30.3516" style="stroke:#181818;stroke-width:1.0;" width="10" x="1396.5" y="1128.7813"/><line style="stroke:#181818;stroke-width:0.5;stroke-dasharray:5.0,5.0;" x1="38" x2="38" y1="121.2188" y2="1207.4844"/><line style="stroke:#181818;stroke-width:0.5;stroke-dasharray:5.0,5.0;" x1="221.5" x2="221.5" y1="121.2188" y2="1207.4844"/><line style="stroke:#181818;stroke-width:0.5;stroke-dasharray:5.0,5.0;" x1="430" x2="430" y1="192.875" y2="1207.4844"/><line style="stroke:#181818;stroke-width:0.5;stroke-dasharray:5.0,5.0;" x1="625" x2="625" y1="121.2188" y2="1207.4844"/><line style="stroke:#181818;stroke-width:0.5;stroke-dasharray:5.0,5.0;" x1="810" x2="810" y1="121.2188" y2="1207.4844"/><line style="stroke:#181818;stroke-width:0.5;stroke-dasharray:5.0,5.0;" x1="1029" x2="1029" y1="121.2188" y2="1207.4844"/><line style="stroke:#181818;stroke-width:0.5;stroke-dasharray:5.0,5.0;" x1="1229" x2="1229" y1="750.7578" y2="1207.4844"/><line style="stroke:#181818;stroke-width:0.5;stroke-dasharray:5.0,5.0;" x1="1401" x2="1401" y1="853.7188" y2="1207.4844"/><text fill="#000000" font-family="sans-serif" font-size="14" lengthAdjust="spacing" textLength="61" x="5" y="118.1426">Customer</text><ellipse cx="38.5" cy="52.1094" fill="#E2E2F0" rx="8" ry="8" style="stroke:#181818;stroke-width:0.5;"/><path d="M38.5,60.1094 L38.5,87.1094 M25.5,68.1094 L51.5,68.1094 M38.5,87.1094 L25.5,102.1094 M38.5,87.1094 L51.5,102.1094 " fill="none" style="stroke:#181818;stroke-width:0.5;"/><text fill="#000000" font-family="sans-serif" font-size="14" lengthAdjust="spacing" textLength="61" x="5" y="1221.0176">Customer</text><ellipse cx="38.5" cy="1232.5938" fill="#E2E2F0" rx="8" ry="8" style="stroke:#181818;stroke-width:0.5;"/><path d="M38.5,1240.5938 L38.5,1267.5938 M25.5,1248.5938 L51.5,1248.5938 M38.5,1267.5938 L25.5,1282.5938 M38.5,1267.5938 L51.5,1282.5938 " fill="none" style="stroke:#181818;stroke-width:0.5;"/><rect fill="#E2E2F0" height="31.6094" rx="2.5" ry="2.5" style="stroke:#181818;stroke-width:0.5;" width="120" x="161.5" y="88.6094"/><text fill="#000000" font-family="sans-serif" font-size="14" lengthAdjust="spacing" textLength="106" x="168.5" y="110.1426">:AnswerSurveyUI</text><rect fill="#E2E2F0" height="31.6094" rx="2.5" ry="2.5" style="stroke:#181818;stroke-width:0.5;" width="120" x="161.5" y="1206.4844"/><text fill="#000000" font-family="sans-serif" font-size="14" lengthAdjust="spacing" textLength="106" x="168.5" y="1228.0176">:AnswerSurveyUI</text><rect fill="#E2E2F0" height="31.6094" rx="2.5" ry="2.5" style="stroke:#181818;stroke-width:0.5;" width="229" x="316" y="1206.4844"/><text fill="#000000" font-family="sans-serif" font-size="14" lengthAdjust="spacing" textLength="215" x="323" y="1228.0176">controller:AnswerSurveyController</text><rect fill="#E2E2F0" height="31.6094" rx="2.5" ry="2.5" style="stroke:#181818;stroke-width:0.5;" width="140" x="555" y="88.6094"/><text fill="#000000" font-family="sans-serif" font-size="14" lengthAdjust="spacing" textLength="126" x="562" y="110.1426">:PersistenceContext</text><rect fill="#E2E2F0" height="31.6094" rx="2.5" ry="2.5" style="stroke:#181818;stroke-width:0.5;" width="140" x="555" y="1206.4844"/><text fill="#000000" font-family="sans-serif" font-size="14" lengthAdjust="spacing" textLength="126" x="562" y="1228.0176">:PersistenceContext</text><rect fill="#E2E2F0" height="31.6094" rx="2.5" ry="2.5" style="stroke:#181818;stroke-width:0.5;" width="211" x="705" y="88.6094"/><text fill="#000000" font-family="sans-serif" font-size="14" lengthAdjust="spacing" textLength="197" x="712" y="110.1426">repoFactory:RepositoryFactory</text><rect fill="#E2E2F0" height="31.6094" rx="2.5" ry="2.5" style="stroke:#181818;stroke-width:0.5;" width="211" x="705" y="1206.4844"/><text fill="#000000" font-family="sans-serif" font-size="14" lengthAdjust="spacing" textLength="197" x="712" y="1228.0176">repoFactory:RepositoryFactory</text><rect fill="#E2E2F0" height="31.6094" rx="2.5" ry="2.5" style="stroke:#181818;stroke-width:0.5;" width="206" x="926" y="88.6094"/><text fill="#000000" font-family="sans-serif" font-size="14" lengthAdjust="spacing" textLength="192" x="933" y="110.1426">surveyRepo:SurveyRepository</text><rect fill="#E2E2F0" height="31.6094" rx="2.5" ry="2.5" style="stroke:#181818;stroke-width:0.5;" width="206" x="926" y="1206.4844"/><text fill="#000000" font-family="sans-serif" font-size="14" lengthAdjust="spacing" textLength="192" x="933" y="1228.0176">surveyRepo:SurveyRepository</text><rect fill="#E2E2F0" height="31.6094" rx="2.5" ry="2.5" style="stroke:#181818;stroke-width:0.5;" width="174" x="1142" y="1206.4844"/><text fill="#000000" font-family="sans-serif" font-size="14" lengthAdjust="spacing" textLength="160" x="1149" y="1228.0176">validator:AnswerValidator</text><rect fill="#E2E2F0" height="31.6094" rx="2.5" ry="2.5" style="stroke:#181818;stroke-width:0.5;" width="151" x="1326" y="1206.4844"/><text fill="#000000" font-family="sans-serif" font-size="14" lengthAdjust="spacing" textLength="137" x="1333" y="1228.0176">builder:AnswerBuilder</text><rect fill="#FFFFFF" height="1058.2656" style="stroke:#181818;stroke-width:1.0;" width="10" x="33.5" y="131.2188"/><rect fill="#FFFFFF" height="285.0703" style="stroke:#181818;stroke-width:1.0;" width="10" x="216.5" y="153.5703"/><rect fill="#FFFFFF" height="121.0547" style="stroke:#181818;stroke-width:1.0;" width="10" x="216.5" y="468.9922"/><rect fill="#FFFFFF" height="30.3516" style="stroke:#181818;stroke-width:1.0;" width="10" x="216.5" y="620.3984"/><rect fill="#FFFFFF" height="508.3828" style="stroke:#181818;stroke-width:1.0;" width="10" x="216.5" y="681.1016"/><rect fill="#FFFFFF" height="181.7578" style="stroke:#181818;stroke-width:1.0;" width="10" x="425.5" y="226.5313"/><rect fill="#FFFFFF" height="30" style="stroke:#181818;stroke-width:1.0;" width="10" x="425.5" y="499.3438"/><rect fill="#FFFFFF" height="447.6797" style="stroke:#181818;stroke-width:1.0;" width="10" x="425.5" y="711.4531"/><rect fill="#FFFFFF" height="30.3516" style="stroke:#181818;stroke-width:1.0;" width="10" x="620" y="256.8828"/><rect fill="#FFFFFF" height="30.3516" style="stroke:#181818;stroke-width:1.0;" width="10" x="805.5" y="317.5859"/><rect fill="#FFFFFF" height="30" style="stroke:#181818;stroke-width:1.0;" width="10" x="1024" y="378.2891"/><rect fill="#FFFFFF" height="30" style="stroke:#181818;stroke-width:1.0;" width="10" x="1224" y="784.4141"/><rect fill="#FFFFFF" height="30" style="stroke:#181818;stroke-width:1.0;" width="10" x="1396.5" y="887.375"/><rect fill="#FFFFFF" height="30" style="stroke:#181818;stroke-width:1.0;" width="10" x="1396.5" y="947.7266"/><rect fill="#FFFFFF" height="30" style="stroke:#181818;stroke-width:1.0;" width="10" x="1396.5" y="1008.0781"/><rect fill="#FFFFFF" height="30" style="stroke:#181818;stroke-width:1.0;" width="10" x="1396.5" y="1068.4297"/><rect fill="#FFFFFF" height="30.3516" style="stroke:#181818;stroke-width:1.0;" width="10" x="1396.5" y="1128.7813"/><polygon fill="#181818" points="204.5,149.5703,214.5,153.5703,204.5,157.5703,208.5,153.5703" style="stroke:#181818;stroke-width:1.0;"/><line style="stroke:#181818;stroke-width:1.0;" x1="43.5" x2="210.5" y1="153.5703" y2="153.5703"/><text fill="#000000" font-family="sans-serif" font-size="13" lengthAdjust="spacing" textLength="26" x="50.5" y="148.7139">run()</text><polygon fill="#181818" points="304,179.9219,314,183.9219,304,187.9219,308,183.9219" style="stroke:#181818;stroke-width:1.0;"/><line style="stroke:#181818;stroke-width:1.0;stroke-dasharray:2.0,2.0;" x1="226.5" x2="310" y1="183.9219" y2="183.9219"/><text fill="#000000" font-family="sans-serif" font-size="13" lengthAdjust="spacing" textLength="44" x="233.5" y="179.0654">create()</text><rect fill="#E2E2F0" height="31.6094" rx="2.5" ry="2.5" style="stroke:#181818;stroke-width:0.5;" width="229" x="316" y="161.5703"/><text fill="#000000" font-family="sans-serif" font-size="14" lengthAdjust="spacing" textLength="215" x="323" y="183.1035">controller:AnswerSurveyController</text><polygon fill="#181818" points="413.5,222.5313,423.5,226.5313,413.5,230.5313,417.5,226.5313" style="stroke:#181818;stroke-width:1.0;"/><line style="stroke:#181818;stroke-width:1.0;" x1="226.5" x2="419.5" y1="226.5313" y2="226.5313"/><text fill="#000000" font-family="sans-serif" font-size="13" lengthAdjust="spacing" textLength="180" x="233.5" y="221.6748">getAvailableSurveys(username)</text><polygon fill="#181818" points="608,252.8828,618,256.8828,608,260.8828,612,256.8828" style="stroke:#181818;stroke-width:1.0;"/><line style="stroke:#181818;stroke-width:1.0;" x1="435.5" x2="614" y1="256.8828" y2="256.8828"/><text fill="#000000" font-family="sans-serif" font-size="13" lengthAdjust="spacing" textLength="75" x="442.5" y="252.0264">repositories()</text><polygon fill="#181818" points="446.5,283.2344,436.5,287.2344,446.5,291.2344,442.5,287.2344" style="stroke:#181818;stroke-width:1.0;"/><line style="stroke:#181818;stroke-width:1.0;stroke-dasharray:2.0,2.0;" x1="440.5" x2="624" y1="287.2344" y2="287.2344"/><text fill="#000000" font-family="sans-serif" font-size="13" lengthAdjust="spacing" textLength="69" x="452.5" y="282.3779">repoFactory</text><polygon fill="#181818" points="793.5,313.5859,803.5,317.5859,793.5,321.5859,797.5,317.5859" style="stroke:#181818;stroke-width:1.0;"/><line style="stroke:#181818;stroke-width:1.0;" x1="435.5" x2="799.5" y1="317.5859" y2="317.5859"/><text fill="#000000" font-family="sans-serif" font-size="13" lengthAdjust="spacing" textLength="44" x="442.5" y="312.7295">surveys</text><polygon fill="#181818" points="446.5,343.9375,436.5,347.9375,446.5,351.9375,442.5,347.9375" style="stroke:#181818;stroke-width:1.0;"/><line style="stroke:#181818;stroke-width:1.0;stroke-dasharray:2.0,2.0;" x1="440.5" x2="809.5" y1="347.9375" y2="347.9375"/><text fill="#000000" font-family="sans-serif" font-size="13" lengthAdjust="spacing" textLength="67" x="452.5" y="343.0811">surveyRepo</text><polygon fill="#181818" points="1012,374.2891,1022,378.2891,1012,382.2891,1016,378.2891" style="stroke:#181818;stroke-width:1.0;"/><line style="stroke:#181818;stroke-width:1.0;" x1="435.5" x2="1018" y1="378.2891" y2="378.2891"/><text fill="#000000" font-family="sans-serif" font-size="13" lengthAdjust="spacing" textLength="206" x="442.5" y="373.4326">findSurveysForCustomer(username)</text><polygon fill="#181818" points="54.5,434.6406,44.5,438.6406,54.5,442.6406,50.5,438.6406" style="stroke:#181818;stroke-width:1.0;"/><line style="stroke:#181818;stroke-width:1.0;stroke-dasharray:2.0,2.0;" x1="48.5" x2="220.5" y1="438.6406" y2="438.6406"/><text fill="#000000" font-family="sans-serif" font-size="13" lengthAdjust="spacing" textLength="134" x="60.5" y="433.7842">ask to choose a survey</text><polygon fill="#181818" points="204.5,464.9922,214.5,468.9922,204.5,472.9922,208.5,468.9922" style="stroke:#181818;stroke-width:1.0;"/><line style="stroke:#181818;stroke-width:1.0;" x1="43.5" x2="210.5" y1="468.9922" y2="468.9922"/><text fill="#000000" font-family="sans-serif" font-size="13" lengthAdjust="spacing" textLength="101" x="50.5" y="464.1357">chooses a survey</text><polygon fill="#181818" points="413.5,495.3438,423.5,499.3438,413.5,503.3438,417.5,499.3438" style="stroke:#181818;stroke-width:1.0;"/><line style="stroke:#181818;stroke-width:1.0;" x1="226.5" x2="419.5" y1="499.3438" y2="499.3438"/><text fill="#000000" font-family="sans-serif" font-size="13" lengthAdjust="spacing" textLength="130" x="233.5" y="494.4873">exportSurvey(surveyId)</text><polygon fill="#181818" points="54.5,555.6953,44.5,559.6953,54.5,563.6953,50.5,559.6953" style="stroke:#181818;stroke-width:1.0;"/><line style="stroke:#181818;stroke-width:1.0;stroke-dasharray:2.0,2.0;" x1="48.5" x2="215.5" y1="559.6953" y2="559.6953"/><text fill="#000000" font-family="sans-serif" font-size="13" lengthAdjust="spacing" textLength="131" x="60.5" y="554.8389">show new file directory</text><polygon fill="#181818" points="54.5,586.0469,44.5,590.0469,54.5,594.0469,50.5,590.0469" style="stroke:#181818;stroke-width:1.0;"/><line style="stroke:#181818;stroke-width:1.0;" x1="48.5" x2="220.5" y1="590.0469" y2="590.0469"/><text fill="#000000" font-family="sans-serif" font-size="13" lengthAdjust="spacing" textLength="145" x="60.5" y="585.1904">ask if survey is answered</text><polygon fill="#181818" points="204.5,616.3984,214.5,620.3984,204.5,624.3984,208.5,620.3984" style="stroke:#181818;stroke-width:1.0;"/><line style="stroke:#181818;stroke-width:1.0;" x1="43.5" x2="210.5" y1="620.3984" y2="620.3984"/><text fill="#000000" font-family="sans-serif" font-size="13" lengthAdjust="spacing" textLength="105" x="50.5" y="615.542">answers positively</text><polygon fill="#181818" points="54.5,646.75,44.5,650.75,54.5,654.75,50.5,650.75" style="stroke:#181818;stroke-width:1.0;"/><line style="stroke:#181818;stroke-width:1.0;stroke-dasharray:2.0,2.0;" x1="48.5" x2="220.5" y1="650.75" y2="650.75"/><text fill="#000000" font-family="sans-serif" font-size="13" lengthAdjust="spacing" textLength="102" x="60.5" y="645.8936">asks file directory</text><polygon fill="#181818" points="204.5,677.1016,214.5,681.1016,204.5,685.1016,208.5,681.1016" style="stroke:#181818;stroke-width:1.0;"/><line style="stroke:#181818;stroke-width:1.0;" x1="43.5" x2="210.5" y1="681.1016" y2="681.1016"/><text fill="#000000" font-family="sans-serif" font-size="13" lengthAdjust="spacing" textLength="106" x="50.5" y="676.2451">types file directory</text><polygon fill="#181818" points="413.5,707.4531,423.5,711.4531,413.5,715.4531,417.5,711.4531" style="stroke:#181818;stroke-width:1.0;"/><line style="stroke:#181818;stroke-width:1.0;stroke-dasharray:2.0,2.0;" x1="226.5" x2="419.5" y1="711.4531" y2="711.4531"/><text fill="#000000" font-family="sans-serif" font-size="13" lengthAdjust="spacing" textLength="138" x="233.5" y="706.5967">answerSurvey(directory)</text><polygon fill="#181818" points="1130,737.8047,1140,741.8047,1130,745.8047,1134,741.8047" style="stroke:#181818;stroke-width:1.0;"/><line style="stroke:#181818;stroke-width:1.0;" x1="435.5" x2="1136" y1="741.8047" y2="741.8047"/><text fill="#000000" font-family="sans-serif" font-size="13" lengthAdjust="spacing" textLength="44" x="442.5" y="736.9482">create()</text><rect fill="#E2E2F0" height="31.6094" rx="2.5" ry="2.5" style="stroke:#181818;stroke-width:0.5;" width="174" x="1142" y="719.4531"/><text fill="#000000" font-family="sans-serif" font-size="14" lengthAdjust="spacing" textLength="160" x="1149" y="740.9863">validator:AnswerValidator</text><polygon fill="#181818" points="1212,780.4141,1222,784.4141,1212,788.4141,1216,784.4141" style="stroke:#181818;stroke-width:1.0;"/><line style="stroke:#181818;stroke-width:1.0;" x1="435.5" x2="1218" y1="784.4141" y2="784.4141"/><text fill="#000000" font-family="sans-serif" font-size="13" lengthAdjust="spacing" textLength="155" x="442.5" y="779.5576">validateSurveyAnswer(text)</text><polygon fill="#181818" points="1314,840.7656,1324,844.7656,1314,848.7656,1318,844.7656" style="stroke:#181818;stroke-width:1.0;"/><line style="stroke:#181818;stroke-width:1.0;" x1="435.5" x2="1320" y1="844.7656" y2="844.7656"/><text fill="#000000" font-family="sans-serif" font-size="13" lengthAdjust="spacing" textLength="66" x="442.5" y="839.9092">create(true)</text><rect fill="#E2E2F0" height="31.6094" rx="2.5" ry="2.5" style="stroke:#181818;stroke-width:0.5;" width="151" x="1326" y="822.4141"/><text fill="#000000" font-family="sans-serif" font-size="14" lengthAdjust="spacing" textLength="137" x="1333" y="843.9473">builder:AnswerBuilder</text><polygon fill="#181818" points="1384.5,883.375,1394.5,887.375,1384.5,891.375,1388.5,887.375" style="stroke:#181818;stroke-width:1.0;"/><line style="stroke:#181818;stroke-width:1.0;" x1="435.5" x2="1390.5" y1="887.375" y2="887.375"/><text fill="#000000" font-family="sans-serif" font-size="13" lengthAdjust="spacing" textLength="78" x="442.5" y="882.5186">withText(text)</text><polygon fill="#181818" points="1384.5,943.7266,1394.5,947.7266,1384.5,951.7266,1388.5,947.7266" style="stroke:#181818;stroke-width:1.0;"/><line style="stroke:#181818;stroke-width:1.0;" x1="435.5" x2="1390.5" y1="947.7266" y2="947.7266"/><text fill="#000000" font-family="sans-serif" font-size="13" lengthAdjust="spacing" textLength="107" x="442.5" y="942.8701">withSurvey(survey)</text><polygon fill="#181818" points="1384.5,1004.0781,1394.5,1008.0781,1384.5,1012.0781,1388.5,1008.0781" style="stroke:#181818;stroke-width:1.0;"/><line style="stroke:#181818;stroke-width:1.0;" x1="435.5" x2="1390.5" y1="1008.0781" y2="1008.0781"/><text fill="#000000" font-family="sans-serif" font-size="13" lengthAdjust="spacing" textLength="117" x="442.5" y="1003.2217">withSection(section)</text><polygon fill="#181818" points="1384.5,1064.4297,1394.5,1068.4297,1384.5,1072.4297,1388.5,1068.4297" style="stroke:#181818;stroke-width:1.0;"/><line style="stroke:#181818;stroke-width:1.0;" x1="435.5" x2="1390.5" y1="1068.4297" y2="1068.4297"/><text fill="#000000" font-family="sans-serif" font-size="13" lengthAdjust="spacing" textLength="132" x="442.5" y="1063.5732">withQuestion(question)</text><polygon fill="#181818" points="1384.5,1124.7813,1394.5,1128.7813,1384.5,1132.7813,1388.5,1128.7813" style="stroke:#181818;stroke-width:1.0;"/><line style="stroke:#181818;stroke-width:1.0;" x1="435.5" x2="1390.5" y1="1128.7813" y2="1128.7813"/><text fill="#000000" font-family="sans-serif" font-size="13" lengthAdjust="spacing" textLength="35" x="442.5" y="1123.9248">build()</text><polygon fill="#181818" points="441.5,1155.1328,431.5,1159.1328,441.5,1163.1328,437.5,1159.1328" style="stroke:#181818;stroke-width:1.0;"/><line style="stroke:#181818;stroke-width:1.0;stroke-dasharray:2.0,2.0;" x1="435.5" x2="1400.5" y1="1159.1328" y2="1159.1328"/><text fill="#000000" font-family="sans-serif" font-size="13" lengthAdjust="spacing" textLength="41" x="447.5" y="1154.2764">answer</text><polygon fill="#181818" points="49.5,1185.4844,39.5,1189.4844,49.5,1193.4844,45.5,1189.4844" style="stroke:#181818;stroke-width:1.0;"/><line style="stroke:#181818;stroke-width:1.0;stroke-dasharray:2.0,2.0;" x1="43.5" x2="220.5" y1="1189.4844" y2="1189.4844"/><text fill="#000000" font-family="sans-serif" font-size="13" lengthAdjust="spacing" textLength="149" x="55.5" y="1184.6279">Inform operation success.</text><!--MD5=[c99b0633134e6315b906c936a40c234a]
@startuml
title Answer Survey Sequence Diagram

actor Customer
activate Customer

Customer -> ":AnswerSurveyUI" as ui: run()
    activate ui
    ui - -> "controller:AnswerSurveyController" as controller**:create()
    ui -> controller: getAvailableSurveys(username)
        activate controller
        controller -> ":PersistenceContext":repositories()
            activate ":PersistenceContext"
        ":PersistenceContext" - -> controller:repoFactory
            deactivate ":PersistenceContext"
        controller -> "repoFactory:RepositoryFactory":surveys
            activate "repoFactory:RepositoryFactory"
        "repoFactory:RepositoryFactory" - -> controller:surveyRepo
            deactivate "repoFactory:RepositoryFactory"

        controller -> "surveyRepo:SurveyRepository":findSurveysForCustomer(username)
            activate "surveyRepo:SurveyRepository"
            deactivate "surveyRepo:SurveyRepository"
        deactivate controller
    ui - -> Customer: ask to choose a survey
    deactivate ui
Customer -> ui:chooses a survey
    activate ui
    ui -> controller:exportSurvey(surveyId)
        activate controller
        deactivate controller
    ui - -> Customer: show new file directory
    ui -> Customer: ask if survey is answered
    deactivate ui
Customer -> ui:answers positively
    activate ui
    ui- -> Customer:asks file directory
    deactivate ui   
Customer -> ui:types file directory
    activate ui
    ui - -> controller: answerSurvey(directory)
        activate controller
        controller -> "validator:AnswerValidator"as validator** :create()
        controller -> validator:validateSurveyAnswer(text)
            activate validator
            deactivate validator

        controller -> "builder:AnswerBuilder" as builder**:create(true)
        controller -> builder:withText(text)
            activate builder
            deactivate builder

        controller -> builder:withSurvey(survey)
            activate builder
            deactivate builder

         controller -> builder:withSection(section)
            activate builder
            deactivate builder

         controller -> builder:withQuestion(question)
            activate builder
            deactivate builder

         controller -> builder:build()
            activate builder
            builder - -> controller: answer
            deactivate builder
        deactivate controller

     ui- ->Customer: Inform operation success.
    deactivate ui

deactivate Customer
@enduml

PlantUML version 1.2022.4(Sat Apr 09 14:29:17 BST 2022)
(GPL source distribution)
Java Runtime: OpenJDK Runtime Environment
JVM: OpenJDK 64-Bit Server VM
Default Encoding: Cp1252
Language: pt
Country: PT
--></g></svg>