<?xml version="1.0" encoding="UTF-8" standalone="no"?><svg xmlns="http://www.w3.org/2000/svg" xmlns:xlink="http://www.w3.org/1999/xlink" contentStyleType="text/css" height="537px" preserveAspectRatio="none" style="width:1078px;height:537px;background:#FFFFFF;" version="1.1" viewBox="0 0 1078 537" width="1078px" zoomAndPan="magnify"><defs/><g><rect height="27.6094" style="stroke:#00000000;stroke-width:1.0;fill:none;" width="225" x="419.75" y="5"/><text fill="#000000" font-family="sans-serif" font-size="14" font-weight="bold" lengthAdjust="spacing" textLength="215" x="424.75" y="24.5332">Notify Customer Class Diagram</text><!--MD5=[f886f20a97b06017781015e544c4c276]
class EventDispatcher--><g id="elem_EventDispatcher"><rect codeLine="3" fill="#F1F1F1" height="132.0469" id="EventDispatcher" rx="2.5" ry="2.5" style="stroke:#181818;stroke-width:0.5;" width="223" x="7" y="202.6094"/><ellipse cx="62.75" cy="218.6094" fill="#B4A7E5" rx="11" ry="11" style="stroke:#181818;stroke-width:1.0;"/><path d="M63.75,215.6094 L63.75,221.6094 L65.75,221.6094 L66.2344,221.6094 L66.75,222.2344 L66.75,222.6094 L66.75,222.9844 L66.2344,223.6094 L65.75,223.6094 L59.75,223.6094 L59.2656,223.6094 L58.75,222.9844 L58.75,222.6094 L58.75,222.2344 L59.2656,221.6094 L59.75,221.6094 L61.75,221.6094 L61.75,215.6094 L59.75,215.6094 L59.2656,215.6094 L58.75,214.9844 L58.75,214.6094 L58.75,214.2344 L59.2656,213.6094 L59.75,213.6094 L65.75,213.6094 L66.2344,213.6094 L66.75,214.2344 L66.75,214.6094 L66.75,214.9844 L66.2344,215.6094 L65.75,215.6094 L63.75,215.6094 Z " fill="#000000"/><text fill="#000000" font-family="sans-serif" font-size="14" font-style="italic" lengthAdjust="spacing" textLength="103" x="83.25" y="224.3379">EventDispatcher</text><line style="stroke:#181818;stroke-width:0.5;" x1="8" x2="229" y1="234.6094" y2="234.6094"/><ellipse cx="18" cy="267.2188" fill="#84BE84" rx="3" ry="3" style="stroke:#038048;stroke-width:1.0;"/><text fill="#000000" font-family="sans-serif" font-size="14" lengthAdjust="spacing" textLength="177" x="27" y="274.752">subscribe(observer, events)</text><ellipse cx="18" cy="284.8281" fill="#84BE84" rx="3" ry="3" style="stroke:#038048;stroke-width:1.0;"/><text fill="#000000" font-family="sans-serif" font-size="14" lengthAdjust="spacing" textLength="197" x="27" y="292.3613">unsubscribe (observer, events)</text><ellipse cx="18" cy="302.4375" fill="#84BE84" rx="3" ry="3" style="stroke:#038048;stroke-width:1.0;"/><text fill="#000000" font-family="sans-serif" font-size="14" lengthAdjust="spacing" textLength="147" x="27" y="309.9707">unsubscribe (observer)</text><ellipse cx="18" cy="320.0469" fill="#84BE84" rx="3" ry="3" style="stroke:#038048;stroke-width:1.0;"/><text fill="#000000" font-family="sans-serif" font-size="14" lengthAdjust="spacing" textLength="70" x="27" y="327.5801">shutdown()</text><line style="stroke:#181818;stroke-width:1.0;" x1="8" x2="91.5" y1="251.4141" y2="251.4141"/><text fill="#000000" font-family="sans-serif" font-size="14" lengthAdjust="spacing" textLength="54" x="91.5" y="256.6426">Methods</text><line style="stroke:#181818;stroke-width:1.0;" x1="145.5" x2="229" y1="251.4141" y2="251.4141"/></g><!--MD5=[b8b89cb2238020f68a33781aa3c26b69]
class BaseBackoffice--><g id="elem_BaseBackoffice"><rect codeLine="11" fill="#F1F1F1" height="96.8281" id="BaseBackoffice" rx="2.5" ry="2.5" style="stroke:#181818;stroke-width:0.5;" width="247" x="265" y="45.6094"/><ellipse cx="335.75" cy="61.6094" fill="#ADD1B2" rx="11" ry="11" style="stroke:#181818;stroke-width:1.0;"/><path d="M337.75,58.1094 Q337.9531,57.6094 338.1875,57.3594 Q338.4219,57.1094 338.6875,57.1094 Q339.1563,57.1094 339.4531,57.3906 Q339.75,57.6719 339.75,58.3281 L339.75,59.8906 Q339.75,60.5469 339.4688,60.8281 Q339.1875,61.1094 338.75,61.1094 Q338.3594,61.1094 338.1094,60.9375 Q337.8594,60.7656 337.75,60.3125 Q337.7031,60 337.5313,59.8281 Q337.2188,59.5 336.6563,59.3125 Q336.0938,59.1094 335.5313,59.1094 Q334.8281,59.1094 334.2344,59.3906 Q333.6563,59.6719 333.2031,60.2969 Q332.75,60.9219 332.75,61.7813 L332.75,62.7031 Q332.75,63.7344 333.5938,64.4219 Q334.4375,65.1094 335.9375,65.1094 Q336.8281,65.1094 337.4531,64.9063 Q337.8125,64.7969 338.2188,64.4375 Q338.4844,64.2344 338.625,64.1719 Q338.7656,64.1094 338.9375,64.1094 Q339.2656,64.1094 339.5,64.375 Q339.75,64.625 339.75,64.9844 Q339.75,65.3281 339.4063,65.7344 Q338.9063,66.3281 338.1094,66.6563 Q337.0625,67.1094 335.7813,67.1094 Q334.2813,67.1094 333.0781,66.5156 Q332.1094,66.0469 331.4219,65.0313 Q330.75,64.0156 330.75,62.8125 L330.75,61.7188 Q330.75,60.4688 331.3438,59.375 Q331.9531,58.2813 333,57.7031 Q334.0625,57.1094 335.25,57.1094 Q335.9688,57.1094 336.5938,57.3594 Q337.2188,57.6094 337.75,58.1094 Z " fill="#000000"/><text fill="#000000" font-family="sans-serif" font-size="14" lengthAdjust="spacing" textLength="97" x="356.25" y="67.3379">BaseBackoffice</text><line style="stroke:#181818;stroke-width:0.5;" x1="266" x2="511" y1="77.6094" y2="77.6094"/><rect fill="#F24D5C" height="6" style="stroke:#C82930;stroke-width:1.0;" width="6" x="273" y="107.2188"/><text fill="#000000" font-family="sans-serif" font-size="14" lengthAdjust="spacing" textLength="137" x="285" y="117.752">setupEventHandlers()</text><rect fill="#F24D5C" height="6" style="stroke:#C82930;stroke-width:1.0;" width="6" x="273" y="124.8281"/><text fill="#000000" font-family="sans-serif" font-size="14" lengthAdjust="spacing" textLength="221" x="285" y="135.3613">doSetupEventHandlers(dispatcher)</text><line style="stroke:#181818;stroke-width:1.0;" x1="266" x2="361.5" y1="94.4141" y2="94.4141"/><text fill="#000000" font-family="sans-serif" font-size="14" lengthAdjust="spacing" textLength="54" x="361.5" y="99.6426">Methods</text><line style="stroke:#181818;stroke-width:1.0;" x1="415.5" x2="511" y1="94.4141" y2="94.4141"/></g><!--MD5=[82d4bbe2a1a92aa1caf6b0e7e221c217]
class BaseApplication--><g id="elem_BaseApplication"><rect codeLine="17" fill="#F1F1F1" height="96.8281" id="BaseApplication" rx="2.5" ry="2.5" style="stroke:#181818;stroke-width:0.5;" width="247" x="265" y="220.1094"/><ellipse cx="333.75" cy="236.1094" fill="#A9DCDF" rx="11" ry="11" style="stroke:#181818;stroke-width:1.0;"/><path d="M335.5,237.6094 L332.2031,237.6094 L331.7656,238.6094 L331.7656,238.6094 L332.2344,238.6094 L332.75,239.2344 L332.75,239.6094 L332.75,239.9844 L332.2344,240.6094 L331.7656,240.6094 L329.875,240.6094 L329.2656,240.6094 L328.75,239.9844 L328.75,239.6094 L328.75,239.2344 L329.2656,238.6094 L329.875,238.6094 L332.1875,232.6094 L331.3125,232.6094 L330.2656,232.6094 L329.75,231.9844 L329.75,231.6094 L329.75,231.2344 L330.2656,230.6094 L331.3125,230.6094 L334.9844,230.6094 L337.6719,238.6094 L338.2344,238.6094 L338.2344,238.6094 L338.75,239.2344 L338.75,239.6094 L338.75,239.9844 L338.2344,240.6094 L337.6719,240.6094 L335.7813,240.6094 L335.2656,240.6094 L334.75,239.9844 L334.75,239.6094 L334.75,239.2344 L335.2656,238.6094 L335.7813,238.6094 L335.7813,238.6094 L335.5,237.6094 Z M334.9531,235.6094 L333.75,232.0313 L332.7188,235.6094 L334.9531,235.6094 Z " fill="#000000"/><text fill="#000000" font-family="sans-serif" font-size="14" font-style="italic" lengthAdjust="spacing" textLength="101" x="354.25" y="241.8379">BaseApplication</text><line style="stroke:#181818;stroke-width:0.5;" x1="266" x2="511" y1="252.1094" y2="252.1094"/><rect fill="#F24D5C" height="6" style="stroke:#C82930;stroke-width:1.0;" width="6" x="273" y="281.7188"/><text fill="#000000" font-family="sans-serif" font-size="14" lengthAdjust="spacing" textLength="137" x="285" y="292.252">setupEventHandlers()</text><rect fill="#F24D5C" height="6" style="stroke:#C82930;stroke-width:1.0;" width="6" x="273" y="299.3281"/><text fill="#000000" font-family="sans-serif" font-size="14" lengthAdjust="spacing" textLength="221" x="285" y="309.8613">doSetupEventHandlers(dispatcher)</text><line style="stroke:#181818;stroke-width:1.0;" x1="266" x2="361.5" y1="268.9141" y2="268.9141"/><text fill="#000000" font-family="sans-serif" font-size="14" lengthAdjust="spacing" textLength="54" x="361.5" y="274.1426">Methods</text><line style="stroke:#181818;stroke-width:1.0;" x1="415.5" x2="511" y1="268.9141" y2="268.9141"/></g><!--MD5=[526cd028cb5f1390feae86572049ddf0]
class NewSurveyWatchDog--><g id="elem_NewSurveyWatchDog"><rect codeLine="23" fill="#F1F1F1" height="79.2188" id="NewSurveyWatchDog" rx="2.5" ry="2.5" style="stroke:#181818;stroke-width:0.5;" width="168" x="547.5" y="229.1094"/><ellipse cx="562.5" cy="245.1094" fill="#ADD1B2" rx="11" ry="11" style="stroke:#181818;stroke-width:1.0;"/><path d="M564.5,241.6094 Q564.7031,241.1094 564.9375,240.8594 Q565.1719,240.6094 565.4375,240.6094 Q565.9063,240.6094 566.2031,240.8906 Q566.5,241.1719 566.5,241.8281 L566.5,243.3906 Q566.5,244.0469 566.2188,244.3281 Q565.9375,244.6094 565.5,244.6094 Q565.1094,244.6094 564.8594,244.4375 Q564.6094,244.2656 564.5,243.8125 Q564.4531,243.5 564.2813,243.3281 Q563.9688,243 563.4063,242.8125 Q562.8438,242.6094 562.2813,242.6094 Q561.5781,242.6094 560.9844,242.8906 Q560.4063,243.1719 559.9531,243.7969 Q559.5,244.4219 559.5,245.2813 L559.5,246.2031 Q559.5,247.2344 560.3438,247.9219 Q561.1875,248.6094 562.6875,248.6094 Q563.5781,248.6094 564.2031,248.4063 Q564.5625,248.2969 564.9688,247.9375 Q565.2344,247.7344 565.375,247.6719 Q565.5156,247.6094 565.6875,247.6094 Q566.0156,247.6094 566.25,247.875 Q566.5,248.125 566.5,248.4844 Q566.5,248.8281 566.1563,249.2344 Q565.6563,249.8281 564.8594,250.1563 Q563.8125,250.6094 562.5313,250.6094 Q561.0313,250.6094 559.8281,250.0156 Q558.8594,249.5469 558.1719,248.5313 Q557.5,247.5156 557.5,246.3125 L557.5,245.2188 Q557.5,243.9688 558.0938,242.875 Q558.7031,241.7813 559.75,241.2031 Q560.8125,240.6094 562,240.6094 Q562.7188,240.6094 563.3438,240.8594 Q563.9688,241.1094 564.5,241.6094 Z " fill="#000000"/><text fill="#000000" font-family="sans-serif" font-size="14" lengthAdjust="spacing" textLength="136" x="576.5" y="250.8379">NewSurveyWatchDog</text><line style="stroke:#181818;stroke-width:0.5;" x1="548.5" x2="714.5" y1="261.1094" y2="261.1094"/><ellipse cx="558.5" cy="293.7188" fill="#84BE84" rx="3" ry="3" style="stroke:#038048;stroke-width:1.0;"/><text fill="#000000" font-family="sans-serif" font-size="14" lengthAdjust="spacing" textLength="62" x="567.5" y="301.252">onEvent()</text><line style="stroke:#181818;stroke-width:1.0;" x1="548.5" x2="604.5" y1="277.9141" y2="277.9141"/><text fill="#000000" font-family="sans-serif" font-size="14" lengthAdjust="spacing" textLength="54" x="604.5" y="283.1426">Methods</text><line style="stroke:#181818;stroke-width:1.0;" x1="658.5" x2="714.5" y1="277.9141" y2="277.9141"/></g><!--MD5=[a7713aadf40296b0144520a50cdaec15]
class EventHandler--><g id="elem_EventHandler"><rect codeLine="28" fill="#F1F1F1" height="79.2188" id="EventHandler" rx="2.5" ry="2.5" style="stroke:#181818;stroke-width:0.5;" width="123" x="404" y="423.1094"/><ellipse cx="421.7" cy="439.1094" fill="#B4A7E5" rx="11" ry="11" style="stroke:#181818;stroke-width:1.0;"/><path d="M422.7,436.1094 L422.7,442.1094 L424.7,442.1094 L425.1844,442.1094 L425.7,442.7344 L425.7,443.1094 L425.7,443.4844 L425.1844,444.1094 L424.7,444.1094 L418.7,444.1094 L418.2156,444.1094 L417.7,443.4844 L417.7,443.1094 L417.7,442.7344 L418.2156,442.1094 L418.7,442.1094 L420.7,442.1094 L420.7,436.1094 L418.7,436.1094 L418.2156,436.1094 L417.7,435.4844 L417.7,435.1094 L417.7,434.7344 L418.2156,434.1094 L418.7,434.1094 L424.7,434.1094 L425.1844,434.1094 L425.7,434.7344 L425.7,435.1094 L425.7,435.4844 L425.1844,436.1094 L424.7,436.1094 L422.7,436.1094 Z " fill="#000000"/><text fill="#000000" font-family="sans-serif" font-size="14" font-style="italic" lengthAdjust="spacing" textLength="85" x="436.3" y="444.8379">EventHandler</text><line style="stroke:#181818;stroke-width:0.5;" x1="405" x2="526" y1="455.1094" y2="455.1094"/><ellipse cx="415" cy="487.7188" fill="#84BE84" rx="3" ry="3" style="stroke:#038048;stroke-width:1.0;"/><text fill="#000000" font-family="sans-serif" font-size="14" lengthAdjust="spacing" textLength="97" x="424" y="495.252">onEvent(event)</text><line style="stroke:#181818;stroke-width:1.0;" x1="405" x2="438.5" y1="471.9141" y2="471.9141"/><text fill="#000000" font-family="sans-serif" font-size="14" lengthAdjust="spacing" textLength="54" x="438.5" y="477.1426">Methods</text><line style="stroke:#181818;stroke-width:1.0;" x1="492.5" x2="526" y1="471.9141" y2="471.9141"/></g><!--MD5=[336191feb35fbde7b58d9a99d4ef7769]
class NewSurveyEvent--><g id="elem_NewSurveyEvent"><rect codeLine="33" fill="#F1F1F1" height="136.0469" id="NewSurveyEvent" rx="2.5" ry="2.5" style="stroke:#181818;stroke-width:0.5;" width="138" x="562.5" y="394.6094"/><ellipse cx="577.5" cy="410.6094" fill="#ADD1B2" rx="11" ry="11" style="stroke:#181818;stroke-width:1.0;"/><path d="M579.5,407.1094 Q579.7031,406.6094 579.9375,406.3594 Q580.1719,406.1094 580.4375,406.1094 Q580.9063,406.1094 581.2031,406.3906 Q581.5,406.6719 581.5,407.3281 L581.5,408.8906 Q581.5,409.5469 581.2188,409.8281 Q580.9375,410.1094 580.5,410.1094 Q580.1094,410.1094 579.8594,409.9375 Q579.6094,409.7656 579.5,409.3125 Q579.4531,409 579.2813,408.8281 Q578.9688,408.5 578.4063,408.3125 Q577.8438,408.1094 577.2813,408.1094 Q576.5781,408.1094 575.9844,408.3906 Q575.4063,408.6719 574.9531,409.2969 Q574.5,409.9219 574.5,410.7813 L574.5,411.7031 Q574.5,412.7344 575.3438,413.4219 Q576.1875,414.1094 577.6875,414.1094 Q578.5781,414.1094 579.2031,413.9063 Q579.5625,413.7969 579.9688,413.4375 Q580.2344,413.2344 580.375,413.1719 Q580.5156,413.1094 580.6875,413.1094 Q581.0156,413.1094 581.25,413.375 Q581.5,413.625 581.5,413.9844 Q581.5,414.3281 581.1563,414.7344 Q580.6563,415.3281 579.8594,415.6563 Q578.8125,416.1094 577.5313,416.1094 Q576.0313,416.1094 574.8281,415.5156 Q573.8594,415.0469 573.1719,414.0313 Q572.5,413.0156 572.5,411.8125 L572.5,410.7188 Q572.5,409.4688 573.0938,408.375 Q573.7031,407.2813 574.75,406.7031 Q575.8125,406.1094 577,406.1094 Q577.7188,406.1094 578.3438,406.3594 Q578.9688,406.6094 579.5,407.1094 Z " fill="#000000"/><text fill="#000000" font-family="sans-serif" font-size="14" lengthAdjust="spacing" textLength="106" x="591.5" y="416.3379">NewSurveyEvent</text><line style="stroke:#181818;stroke-width:0.5;" x1="563.5" x2="699.5" y1="426.6094" y2="426.6094"/><rect fill="none" height="6" style="stroke:#C82930;stroke-width:1.0;" width="6" x="570.5" y="456.2188"/><text fill="#000000" font-family="sans-serif" font-size="14" lengthAdjust="spacing" textLength="53" x="582.5" y="466.752">surveyId</text><line style="stroke:#181818;stroke-width:1.0;stroke-dasharray:1.0,2.0;" x1="563.5" x2="601.5" y1="443.4141" y2="443.4141"/><text fill="#000000" font-family="sans-serif" font-size="14" lengthAdjust="spacing" textLength="60" x="601.5" y="448.6426">Attributes</text><line style="stroke:#181818;stroke-width:1.0;stroke-dasharray:1.0,2.0;" x1="661.5" x2="699.5" y1="443.4141" y2="443.4141"/><ellipse cx="573.5" cy="498.4375" fill="#84BE84" rx="3" ry="3" style="stroke:#038048;stroke-width:1.0;"/><text fill="#000000" font-family="sans-serif" font-size="14" lengthAdjust="spacing" textLength="21" x="582.5" y="505.9707">id()</text><ellipse cx="573.5" cy="516.0469" fill="#84BE84" rx="3" ry="3" style="stroke:#038048;stroke-width:1.0;"/><text fill="#000000" font-family="sans-serif" font-size="14" lengthAdjust="spacing" textLength="59" x="582.5" y="523.5801">toString()</text><line style="stroke:#181818;stroke-width:1.0;" x1="563.5" x2="604.5" y1="482.6328" y2="482.6328"/><text fill="#000000" font-family="sans-serif" font-size="14" lengthAdjust="spacing" textLength="54" x="604.5" y="487.8613">Methods</text><line style="stroke:#181818;stroke-width:1.0;" x1="658.5" x2="699.5" y1="482.6328" y2="482.6328"/></g><!--MD5=[78abea00123e722e0dd71fb95d2efb88]
class NotifyCustomerController--><g id="elem_NotifyCustomerController"><rect codeLine="41" fill="#F1F1F1" height="132.0469" id="NotifyCustomerController" rx="2.5" ry="2.5" style="stroke:#181818;stroke-width:0.5;" width="336" x="735.5" y="396.6094"/><ellipse cx="820.25" cy="412.6094" fill="#ADD1B2" rx="11" ry="11" style="stroke:#181818;stroke-width:1.0;"/><path d="M822.25,409.1094 Q822.4531,408.6094 822.6875,408.3594 Q822.9219,408.1094 823.1875,408.1094 Q823.6563,408.1094 823.9531,408.3906 Q824.25,408.6719 824.25,409.3281 L824.25,410.8906 Q824.25,411.5469 823.9688,411.8281 Q823.6875,412.1094 823.25,412.1094 Q822.8594,412.1094 822.6094,411.9375 Q822.3594,411.7656 822.25,411.3125 Q822.2031,411 822.0313,410.8281 Q821.7188,410.5 821.1563,410.3125 Q820.5938,410.1094 820.0313,410.1094 Q819.3281,410.1094 818.7344,410.3906 Q818.1563,410.6719 817.7031,411.2969 Q817.25,411.9219 817.25,412.7813 L817.25,413.7031 Q817.25,414.7344 818.0938,415.4219 Q818.9375,416.1094 820.4375,416.1094 Q821.3281,416.1094 821.9531,415.9063 Q822.3125,415.7969 822.7188,415.4375 Q822.9844,415.2344 823.125,415.1719 Q823.2656,415.1094 823.4375,415.1094 Q823.7656,415.1094 824,415.375 Q824.25,415.625 824.25,415.9844 Q824.25,416.3281 823.9063,416.7344 Q823.4063,417.3281 822.6094,417.6563 Q821.5625,418.1094 820.2813,418.1094 Q818.7813,418.1094 817.5781,417.5156 Q816.6094,417.0469 815.9219,416.0313 Q815.25,415.0156 815.25,413.8125 L815.25,412.7188 Q815.25,411.4688 815.8438,410.375 Q816.4531,409.2813 817.5,408.7031 Q818.5625,408.1094 819.75,408.1094 Q820.4688,408.1094 821.0938,408.3594 Q821.7188,408.6094 822.25,409.1094 Z " fill="#000000"/><text fill="#000000" font-family="sans-serif" font-size="14" lengthAdjust="spacing" textLength="158" x="840.75" y="418.3379">NotifyCustomerController</text><line style="stroke:#181818;stroke-width:0.5;" x1="736.5" x2="1070.5" y1="428.6094" y2="428.6094"/><ellipse cx="746.5" cy="461.2188" fill="#84BE84" rx="3" ry="3" style="stroke:#038048;stroke-width:1.0;"/><text fill="#000000" font-family="sans-serif" font-size="14" lengthAdjust="spacing" textLength="140" x="755.5" y="468.752">notifyCustomer(event)</text><ellipse cx="746.5" cy="478.8281" fill="#84BE84" rx="3" ry="3" style="stroke:#038048;stroke-width:1.0;"/><text fill="#000000" font-family="sans-serif" font-size="14" lengthAdjust="spacing" textLength="73" x="755.5" y="486.3613">writeEmail()</text><ellipse cx="746.5" cy="496.4375" fill="#84BE84" rx="3" ry="3" style="stroke:#038048;stroke-width:1.0;"/><text fill="#000000" font-family="sans-serif" font-size="14" lengthAdjust="spacing" textLength="110" x="755.5" y="503.9707">sendNotification()</text><ellipse cx="746.5" cy="514.0469" fill="#84BE84" rx="3" ry="3" style="stroke:#038048;stroke-width:1.0;"/><text fill="#000000" font-family="sans-serif" font-size="14" lengthAdjust="spacing" textLength="310" x="755.5" y="521.5801">verifyCustomerHistory(customer, targetAudience)</text><line style="stroke:#181818;stroke-width:1.0;" x1="736.5" x2="876.5" y1="445.4141" y2="445.4141"/><text fill="#000000" font-family="sans-serif" font-size="14" lengthAdjust="spacing" textLength="54" x="876.5" y="450.6426">Methods</text><line style="stroke:#181818;stroke-width:1.0;" x1="930.5" x2="1070.5" y1="445.4141" y2="445.4141"/></g><!--MD5=[fa37d6e94ec9aef7736a399b26040048]
link BaseBackoffice to BaseApplication--><g id="link_BaseBackoffice_BaseApplication"><path codeLine="50" d="M388.5,142.6994 C388.5,160.3494 388.5,180.7294 388.5,199.8294 " fill="none" id="BaseBackoffice-to-BaseApplication" style="stroke:#181818;stroke-width:1.0;"/><polygon fill="none" points="395.5,199.8694,388.5,219.8694,381.5,199.8694,395.5,199.8694" style="stroke:#181818;stroke-width:1.0;"/></g><!--MD5=[79bb4caaad8debdf5c3832f628d3ca74]
link BaseBackoffice to EventDispatcher--><g id="link_BaseBackoffice_EventDispatcher"><path codeLine="51" d="M314.01,142.6994 C286.41,160.3294 254.56,180.6794 224.68,199.7694 " fill="none" id="BaseBackoffice-to-EventDispatcher" style="stroke:#181818;stroke-width:1.0;"/><polygon fill="#181818" points="220.29,202.5794,230.0295,201.1157,224.5065,199.8922,225.7301,194.3693,220.29,202.5794" style="stroke:#181818;stroke-width:1.0;"/></g><!--MD5=[46f285c5e9135570e09eb652cf897e84]
link BaseBackoffice to NewSurveyWatchDog--><g id="link_BaseBackoffice_NewSurveyWatchDog"><path codeLine="52" d="M455.54,142.6994 C492.26,168.7694 537.35,200.7694 572.69,225.8594 " fill="none" id="BaseBackoffice-to-NewSurveyWatchDog" style="stroke:#181818;stroke-width:1.0;stroke-dasharray:7.0,7.0;"/><polygon fill="#181818" points="576.95,228.8794,571.9063,220.42,572.866,225.9948,567.2911,226.9544,576.95,228.8794" style="stroke:#181818;stroke-width:1.0;"/></g><!--MD5=[8bff1397543d32f058c57dc317950cb6]
link NewSurveyWatchDog to EventHandler--><g id="link_NewSurveyWatchDog_EventHandler"><path codeLine="54" d="M597.91,308.4594 C570.23,340.4694 531.03,385.8094 502.47,418.8494 " fill="none" id="NewSurveyWatchDog-to-EventHandler" style="stroke:#181818;stroke-width:1.0;stroke-dasharray:7.0,7.0;"/><polygon fill="#181818" points="499.04,422.8094,507.9511,418.6151,502.3092,419.0262,501.8981,413.3843,499.04,422.8094" style="stroke:#181818;stroke-width:1.0;"/></g><!--MD5=[b82b4396c08008a2614d1da575407813]
link NewSurveyWatchDog to NewSurveyEvent--><g id="link_NewSurveyWatchDog_NewSurveyEvent"><path codeLine="55" d="M631.5,308.4594 C631.5,331.6694 631.5,361.8894 631.5,389.3394 " fill="none" id="NewSurveyWatchDog-to-NewSurveyEvent" style="stroke:#181818;stroke-width:1.0;stroke-dasharray:7.0,7.0;"/><polygon fill="#181818" points="631.5,394.4394,635.5,385.4394,631.5,389.4394,627.5,385.4394,631.5,394.4394" style="stroke:#181818;stroke-width:1.0;"/></g><!--MD5=[88b97cd7dcf975897c69ad5a5129fe26]
link NewSurveyWatchDog to NotifyCustomerController--><g id="link_NewSurveyWatchDog_NotifyCustomerController"><path codeLine="56" d="M686.22,308.2294 C720.79,332.6394 766.44,364.8594 806.97,393.4694 " fill="none" id="NewSurveyWatchDog-to-NotifyCustomerController" style="stroke:#181818;stroke-width:1.0;stroke-dasharray:7.0,7.0;"/><polygon fill="#181818" points="811.38,396.5794,806.3363,388.12,807.296,393.6948,801.7211,394.6544,811.38,396.5794" style="stroke:#181818;stroke-width:1.0;"/></g><!--MD5=[7887924781b489b6a1516fbf08b12ae6]
@startuml
title Notify Customer Class Diagram

interface EventDispatcher{
- -Methods- -
+ subscribe(observer, events)
+ unsubscribe (observer, events)
+ unsubscribe (observer)
+ shutdown()
}

class BaseBackoffice{
- -Methods- -
- setupEventHandlers()
- doSetupEventHandlers(dispatcher)
}

abstract BaseApplication{
- -Methods- -
- setupEventHandlers()
- doSetupEventHandlers(dispatcher)
}

class NewSurveyWatchDog{
- -Methods- -
+ onEvent()
}

interface EventHandler{
- -Methods- -
+ onEvent(event)
}

class NewSurveyEvent{
..Attributes..
- surveyId
- -Methods- -
+ id()
+ toString()
}

class NotifyCustomerController{
- -Methods- -
+ notifyCustomer(event)
+ writeEmail()
+ sendNotification()
+ verifyCustomerHistory(customer, targetAudience)
}


BaseBackoffice - -|> BaseApplication
BaseBackoffice - -> EventDispatcher
BaseBackoffice ..> NewSurveyWatchDog

NewSurveyWatchDog ..> EventHandler
NewSurveyWatchDog ..> NewSurveyEvent
NewSurveyWatchDog ..>NotifyCustomerController
@enduml

PlantUML version 1.2022.4(Sat Apr 09 14:29:17 BST 2022)
(GPL source distribution)
Java Runtime: OpenJDK Runtime Environment
JVM: OpenJDK 64-Bit Server VM
Default Encoding: Cp1252
Language: pt
Country: PT
--></g></svg>