<?xml version="1.0" encoding="UTF-8" standalone="no"?><svg xmlns="http://www.w3.org/2000/svg" xmlns:xlink="http://www.w3.org/1999/xlink" contentStyleType="text/css" height="496px" preserveAspectRatio="none" style="width:1330px;height:496px;background:#FFFFFF;" version="1.1" viewBox="0 0 1330 496" width="1330px" zoomAndPan="magnify"><defs/><g><rect height="27.6094" style="stroke:#00000000;stroke-width:1.0;fill:none;" width="258" x="535" y="10"/><text fill="#000000" font-family="sans-serif" font-size="14" font-weight="bold" lengthAdjust="spacing" textLength="248" x="540" y="29.5332">Notify Customer Sequence Diagram</text><rect fill="#FFFFFF" height="356.1016" style="stroke:#181818;stroke-width:1.0;" width="10" x="57.5" y="86.2188"/><rect fill="#FFFFFF" height="102.9609" style="stroke:#181818;stroke-width:1.0;" width="10" x="249.5" y="339.3594"/><rect fill="#FFFFFF" height="30" style="stroke:#181818;stroke-width:1.0;" width="10" x="428.5" y="151.1797"/><rect fill="#FFFFFF" height="117.8281" style="stroke:#181818;stroke-width:1.0;" width="10" x="558" y="221.5313"/><rect fill="#FFFFFF" height="32.6094" style="stroke:#181818;stroke-width:1.0;" width="10" x="755" y="264.1406"/><rect fill="#FFFFFF" height="30" style="stroke:#181818;stroke-width:1.0;" width="10" x="1183" y="412.3203"/><line style="stroke:#181818;stroke-width:0.5;stroke-dasharray:5.0,5.0;" x1="62" x2="62" y1="76.2188" y2="460.3203"/><line style="stroke:#181818;stroke-width:0.5;stroke-dasharray:5.0,5.0;" x1="254.5" x2="254.5" y1="117.5234" y2="460.3203"/><line style="stroke:#181818;stroke-width:0.5;stroke-dasharray:5.0,5.0;" x1="433.5" x2="433.5" y1="76.2188" y2="460.3203"/><line style="stroke:#181818;stroke-width:0.5;stroke-dasharray:5.0,5.0;" x1="562.5" x2="562.5" y1="220.4844" y2="460.3203"/><line style="stroke:#181818;stroke-width:0.5;stroke-dasharray:5.0,5.0;" x1="760" x2="760" y1="263.0938" y2="460.3203"/><line style="stroke:#181818;stroke-width:0.5;stroke-dasharray:5.0,5.0;" x1="962" x2="962" y1="305.7031" y2="460.3203"/><line style="stroke:#181818;stroke-width:0.5;stroke-dasharray:5.0,5.0;" x1="1188" x2="1188" y1="378.6641" y2="460.3203"/><rect fill="#E2E2F0" height="31.6094" rx="2.5" ry="2.5" style="stroke:#181818;stroke-width:0.5;" width="115" x="5" y="43.6094"/><text fill="#000000" font-family="sans-serif" font-size="14" lengthAdjust="spacing" textLength="101" x="12" y="65.1426">:BaseBackoffice</text><rect fill="#E2E2F0" height="31.6094" rx="2.5" ry="2.5" style="stroke:#181818;stroke-width:0.5;" width="115" x="5" y="459.3203"/><text fill="#000000" font-family="sans-serif" font-size="14" lengthAdjust="spacing" textLength="101" x="12" y="480.8535">:BaseBackoffice</text><rect fill="#E2E2F0" height="31.6094" rx="2.5" ry="2.5" style="stroke:#181818;stroke-width:0.5;" width="216" x="146.5" y="459.3203"/><text fill="#000000" font-family="sans-serif" font-size="14" lengthAdjust="spacing" textLength="202" x="153.5" y="480.8535">watchDog:NewSurveyWatchDog</text><rect fill="#E2E2F0" height="31.6094" rx="2.5" ry="2.5" style="stroke:#181818;stroke-width:0.5;" width="122" x="372.5" y="43.6094"/><text fill="#000000" font-family="sans-serif" font-size="14" lengthAdjust="spacing" textLength="108" x="379.5" y="65.1426">:EventDispatcher</text><rect fill="#E2E2F0" height="31.6094" rx="2.5" ry="2.5" style="stroke:#181818;stroke-width:0.5;" width="122" x="372.5" y="459.3203"/><text fill="#000000" font-family="sans-serif" font-size="14" lengthAdjust="spacing" textLength="108" x="379.5" y="480.8535">:EventDispatcher</text><rect fill="#E2E2F0" height="31.6094" rx="2.5" ry="2.5" style="stroke:#181818;stroke-width:0.5;" width="117" x="504.5" y="459.3203"/><text fill="#000000" font-family="sans-serif" font-size="14" lengthAdjust="spacing" textLength="103" x="511.5" y="480.8535">:CreateSurveyUI</text><rect fill="#E2E2F0" height="31.6094" rx="2.5" ry="2.5" style="stroke:#181818;stroke-width:0.5;" width="226" x="647" y="459.3203"/><text fill="#000000" font-family="sans-serif" font-size="14" lengthAdjust="spacing" textLength="212" x="654" y="480.8535">controller:CreateSurveyController</text><rect fill="#E2E2F0" height="31.6094" rx="2.5" ry="2.5" style="stroke:#181818;stroke-width:0.5;" width="159" x="883" y="459.3203"/><text fill="#000000" font-family="sans-serif" font-size="14" lengthAdjust="spacing" textLength="145" x="890" y="480.8535">event:NewSurveyEvent</text><rect fill="#E2E2F0" height="31.6094" rx="2.5" ry="2.5" style="stroke:#181818;stroke-width:0.5;" width="272" x="1052" y="459.3203"/><text fill="#000000" font-family="sans-serif" font-size="14" lengthAdjust="spacing" textLength="258" x="1059" y="480.8535">notifyController:NotifyCustomerController</text><rect fill="#FFFFFF" height="356.1016" style="stroke:#181818;stroke-width:1.0;" width="10" x="57.5" y="86.2188"/><rect fill="#FFFFFF" height="102.9609" style="stroke:#181818;stroke-width:1.0;" width="10" x="249.5" y="339.3594"/><rect fill="#FFFFFF" height="30" style="stroke:#181818;stroke-width:1.0;" width="10" x="428.5" y="151.1797"/><rect fill="#FFFFFF" height="117.8281" style="stroke:#181818;stroke-width:1.0;" width="10" x="558" y="221.5313"/><rect fill="#FFFFFF" height="32.6094" style="stroke:#181818;stroke-width:1.0;" width="10" x="755" y="264.1406"/><rect fill="#FFFFFF" height="30" style="stroke:#181818;stroke-width:1.0;" width="10" x="1183" y="412.3203"/><polygon fill="#181818" points="134.5,104.5703,144.5,108.5703,134.5,112.5703,138.5,108.5703" style="stroke:#181818;stroke-width:1.0;"/><line style="stroke:#181818;stroke-width:1.0;" x1="67.5" x2="140.5" y1="108.5703" y2="108.5703"/><text fill="#000000" font-family="sans-serif" font-size="13" font-weight="bold" lengthAdjust="spacing" textLength="7" x="74.5" y="103.7139">1</text><text fill="#000000" font-family="sans-serif" font-size="13" lengthAdjust="spacing" textLength="44" x="85.5" y="103.7139">create()</text><rect fill="#E2E2F0" height="31.6094" rx="2.5" ry="2.5" style="stroke:#181818;stroke-width:0.5;" width="216" x="146.5" y="86.2188"/><text fill="#000000" font-family="sans-serif" font-size="14" lengthAdjust="spacing" textLength="202" x="153.5" y="107.752">watchDog:NewSurveyWatchDog</text><polygon fill="#181818" points="416.5,147.1797,426.5,151.1797,416.5,155.1797,420.5,151.1797" style="stroke:#181818;stroke-width:1.0;"/><line style="stroke:#181818;stroke-width:1.0;" x1="67.5" x2="422.5" y1="151.1797" y2="151.1797"/><text fill="#000000" font-family="sans-serif" font-size="13" font-weight="bold" lengthAdjust="spacing" textLength="7" x="74.5" y="146.3232">2</text><text fill="#000000" font-family="sans-serif" font-size="13" lengthAdjust="spacing" textLength="223" x="85.5" y="146.3232">subscribe(watchDog, newSurveyEvent)</text><polygon fill="#181818" points="492.5,207.5313,502.5,211.5313,492.5,215.5313,496.5,211.5313" style="stroke:#181818;stroke-width:1.0;"/><line style="stroke:#181818;stroke-width:1.0;" x1="67.5" x2="498.5" y1="211.5313" y2="211.5313"/><text fill="#000000" font-family="sans-serif" font-size="13" font-weight="bold" lengthAdjust="spacing" textLength="7" x="74.5" y="206.6748">3</text><text fill="#000000" font-family="sans-serif" font-size="13" lengthAdjust="spacing" textLength="26" x="85.5" y="206.6748">run()</text><rect fill="#E2E2F0" height="31.6094" rx="2.5" ry="2.5" style="stroke:#181818;stroke-width:0.5;" width="117" x="504.5" y="189.1797"/><text fill="#000000" font-family="sans-serif" font-size="14" lengthAdjust="spacing" textLength="103" x="511.5" y="210.7129">:CreateSurveyUI</text><polygon fill="#181818" points="635,250.1406,645,254.1406,635,258.1406,639,254.1406" style="stroke:#181818;stroke-width:1.0;"/><line style="stroke:#181818;stroke-width:1.0;" x1="568" x2="641" y1="254.1406" y2="254.1406"/><text fill="#000000" font-family="sans-serif" font-size="13" font-weight="bold" lengthAdjust="spacing" textLength="7" x="575" y="249.2842">4</text><text fill="#000000" font-family="sans-serif" font-size="13" lengthAdjust="spacing" textLength="44" x="586" y="249.2842">create()</text><rect fill="#E2E2F0" height="31.6094" rx="2.5" ry="2.5" style="stroke:#181818;stroke-width:0.5;" width="226" x="647" y="231.7891"/><text fill="#000000" font-family="sans-serif" font-size="14" lengthAdjust="spacing" textLength="212" x="654" y="253.3223">controller:CreateSurveyController</text><path d="M883,239.918 L883,265.918 L988,265.918 L988,249.918 L978,239.918 L883,239.918 " fill="#FEFFDD" style="stroke:#181818;stroke-width:0.5;"/><path d="M978,239.918 L978,249.918 L988,249.918 L978,239.918 " fill="#FEFFDD" style="stroke:#181818;stroke-width:0.5;"/><text fill="#000000" font-family="sans-serif" font-size="13" lengthAdjust="spacing" textLength="84" x="889" y="258.4131">creates survey</text><polygon fill="#181818" points="871,292.75,881,296.75,871,300.75,875,296.75" style="stroke:#181818;stroke-width:1.0;"/><line style="stroke:#181818;stroke-width:1.0;stroke-dasharray:2.0,2.0;" x1="760" x2="877" y1="296.75" y2="296.75"/><text fill="#000000" font-family="sans-serif" font-size="13" font-weight="bold" lengthAdjust="spacing" textLength="7" x="767" y="291.8936">5</text><text fill="#000000" font-family="sans-serif" font-size="13" lengthAdjust="spacing" textLength="44" x="778" y="291.8936">create()</text><rect fill="#E2E2F0" height="31.6094" rx="2.5" ry="2.5" style="stroke:#181818;stroke-width:0.5;" width="159" x="883" y="274.3984"/><text fill="#000000" font-family="sans-serif" font-size="14" lengthAdjust="spacing" textLength="145" x="890" y="295.9316">event:NewSurveyEvent</text><polygon fill="#181818" points="78.5,335.3594,68.5,339.3594,78.5,343.3594,74.5,339.3594" style="stroke:#181818;stroke-width:1.0;"/><line style="stroke:#181818;stroke-width:1.0;stroke-dasharray:2.0,2.0;" x1="72.5" x2="562" y1="339.3594" y2="339.3594"/><text fill="#000000" font-family="sans-serif" font-size="13" font-weight="bold" lengthAdjust="spacing" textLength="7" x="84.5" y="334.5029">6</text><text fill="#000000" font-family="sans-serif" font-size="13" lengthAdjust="spacing" textLength="4" x="95.5" y="334.5029"> </text><polygon fill="#181818" points="1040,365.7109,1050,369.7109,1040,373.7109,1044,369.7109" style="stroke:#181818;stroke-width:1.0;"/><line style="stroke:#181818;stroke-width:1.0;" x1="259.5" x2="1046" y1="369.7109" y2="369.7109"/><text fill="#000000" font-family="sans-serif" font-size="13" font-weight="bold" lengthAdjust="spacing" textLength="7" x="266.5" y="364.8545">7</text><text fill="#000000" font-family="sans-serif" font-size="13" lengthAdjust="spacing" textLength="44" x="277.5" y="364.8545">create()</text><rect fill="#E2E2F0" height="31.6094" rx="2.5" ry="2.5" style="stroke:#181818;stroke-width:0.5;" width="272" x="1052" y="347.3594"/><text fill="#000000" font-family="sans-serif" font-size="14" lengthAdjust="spacing" textLength="258" x="1059" y="368.8926">notifyController:NotifyCustomerController</text><polygon fill="#181818" points="1171,408.3203,1181,412.3203,1171,416.3203,1175,412.3203" style="stroke:#181818;stroke-width:1.0;"/><line style="stroke:#181818;stroke-width:1.0;" x1="259.5" x2="1177" y1="412.3203" y2="412.3203"/><text fill="#000000" font-family="sans-serif" font-size="13" font-weight="bold" lengthAdjust="spacing" textLength="7" x="266.5" y="407.4639">8</text><text fill="#000000" font-family="sans-serif" font-size="13" lengthAdjust="spacing" textLength="125" x="277.5" y="407.4639">notifyCustomer(event)</text><!--MD5=[a7a7c8b31dbfa74cc6a9b5804ebe6689]
@startuml
title Notify Customer Sequence Diagram

autonumber
activate ":BaseBackoffice"
":BaseBackoffice" -> "watchDog:NewSurveyWatchDog" as WatchDog**: create()

":BaseBackoffice"  -> ":EventDispatcher" as EventDispatcher: subscribe(watchDog, newSurveyEvent)

    activate EventDispatcher
    deactivate EventDispatcher


":BaseBackoffice" -> ":CreateSurveyUI"as UI **: run()
    activate UI
    UI -> "controller:CreateSurveyController" as controller**:create()
        activate controller
        note right: creates survey
        controller - ->"event:NewSurveyEvent" as event **:create()
        deactivate controller
    UI - -> ":BaseBackoffice"
    deactivate UI

    activate WatchDog
        WatchDog -> "notifyController:NotifyCustomerController" as notifyController**:create()
        WatchDog -> notifyController:notifyCustomer(event)
            activate notifyController
            deactivate notifyController

    deactivate WatchDog

deactivate ":BaseBackoffice"





@enduml

PlantUML version 1.2022.4(Sat Apr 09 14:29:17 BST 2022)
(GPL source distribution)
Java Runtime: OpenJDK Runtime Environment
JVM: OpenJDK 64-Bit Server VM
Default Encoding: Cp1252
Language: pt
Country: PT
--></g></svg>