<?xml version="1.0" encoding="UTF-8" standalone="no"?><svg xmlns="http://www.w3.org/2000/svg" xmlns:xlink="http://www.w3.org/1999/xlink" contentStyleType="text/css" height="1515px" preserveAspectRatio="none" style="width:1484px;height:1515px;background:#FFFFFF;" version="1.1" viewBox="0 0 1484 1515" width="1484px" zoomAndPan="magnify"><defs/><g><rect height="27.6094" style="stroke:#00000000;stroke-width:1.0;fill:none;" width="218" x="626" y="5"/><text fill="#000000" font-family="sans-serif" font-size="14" font-weight="bold" lengthAdjust="spacing" textLength="208" x="631" y="24.5332">Answer Survey Class Diagram</text><!--MD5=[4c59ea32168dcd11d3619757f588f529]
class AnswerSurveyUI--><g id="elem_AnswerSurveyUI"><rect codeLine="3" fill="#F1F1F1" height="48" id="AnswerSurveyUI" rx="2.5" ry="2.5" style="stroke:#181818;stroke-width:0.5;" width="134" x="492.5" y="45.6094"/><ellipse cx="507.5" cy="61.6094" fill="#ADD1B2" rx="11" ry="11" style="stroke:#181818;stroke-width:1.0;"/><path d="M509.5,58.1094 Q509.7031,57.6094 509.9375,57.3594 Q510.1719,57.1094 510.4375,57.1094 Q510.9063,57.1094 511.2031,57.3906 Q511.5,57.6719 511.5,58.3281 L511.5,59.8906 Q511.5,60.5469 511.2188,60.8281 Q510.9375,61.1094 510.5,61.1094 Q510.1094,61.1094 509.8594,60.9375 Q509.6094,60.7656 509.5,60.3125 Q509.4531,60 509.2813,59.8281 Q508.9688,59.5 508.4063,59.3125 Q507.8438,59.1094 507.2813,59.1094 Q506.5781,59.1094 505.9844,59.3906 Q505.4063,59.6719 504.9531,60.2969 Q504.5,60.9219 504.5,61.7813 L504.5,62.7031 Q504.5,63.7344 505.3438,64.4219 Q506.1875,65.1094 507.6875,65.1094 Q508.5781,65.1094 509.2031,64.9063 Q509.5625,64.7969 509.9688,64.4375 Q510.2344,64.2344 510.375,64.1719 Q510.5156,64.1094 510.6875,64.1094 Q511.0156,64.1094 511.25,64.375 Q511.5,64.625 511.5,64.9844 Q511.5,65.3281 511.1563,65.7344 Q510.6563,66.3281 509.8594,66.6563 Q508.8125,67.1094 507.5313,67.1094 Q506.0313,67.1094 504.8281,66.5156 Q503.8594,66.0469 503.1719,65.0313 Q502.5,64.0156 502.5,62.8125 L502.5,61.7188 Q502.5,60.4688 503.0938,59.375 Q503.7031,58.2813 504.75,57.7031 Q505.8125,57.1094 507,57.1094 Q507.7188,57.1094 508.3438,57.3594 Q508.9688,57.6094 509.5,58.1094 Z " fill="#000000"/><text fill="#000000" font-family="sans-serif" font-size="14" lengthAdjust="spacing" textLength="102" x="521.5" y="67.3379">AnswerSurveyUI</text><line style="stroke:#181818;stroke-width:0.5;" x1="493.5" x2="625.5" y1="77.6094" y2="77.6094"/><line style="stroke:#181818;stroke-width:0.5;" x1="493.5" x2="625.5" y1="85.6094" y2="85.6094"/></g><!--MD5=[84d666ee5c0776ff1ca9b8899b3c1361]
class AnswerSurveyController--><g id="elem_AnswerSurveyController"><rect codeLine="5" fill="#F1F1F1" height="167.2656" id="AnswerSurveyController" rx="2.5" ry="2.5" style="stroke:#181818;stroke-width:0.5;" width="227" x="446" y="153.6094"/><ellipse cx="480.35" cy="169.6094" fill="#ADD1B2" rx="11" ry="11" style="stroke:#181818;stroke-width:1.0;"/><path d="M482.35,166.1094 Q482.5531,165.6094 482.7875,165.3594 Q483.0219,165.1094 483.2875,165.1094 Q483.7563,165.1094 484.0531,165.3906 Q484.35,165.6719 484.35,166.3281 L484.35,167.8906 Q484.35,168.5469 484.0688,168.8281 Q483.7875,169.1094 483.35,169.1094 Q482.9594,169.1094 482.7094,168.9375 Q482.4594,168.7656 482.35,168.3125 Q482.3031,168 482.1313,167.8281 Q481.8188,167.5 481.2563,167.3125 Q480.6938,167.1094 480.1313,167.1094 Q479.4281,167.1094 478.8344,167.3906 Q478.2563,167.6719 477.8031,168.2969 Q477.35,168.9219 477.35,169.7813 L477.35,170.7031 Q477.35,171.7344 478.1938,172.4219 Q479.0375,173.1094 480.5375,173.1094 Q481.4281,173.1094 482.0531,172.9063 Q482.4125,172.7969 482.8188,172.4375 Q483.0844,172.2344 483.225,172.1719 Q483.3656,172.1094 483.5375,172.1094 Q483.8656,172.1094 484.1,172.375 Q484.35,172.625 484.35,172.9844 Q484.35,173.3281 484.0063,173.7344 Q483.5063,174.3281 482.7094,174.6563 Q481.6625,175.1094 480.3813,175.1094 Q478.8813,175.1094 477.6781,174.5156 Q476.7094,174.0469 476.0219,173.0313 Q475.35,172.0156 475.35,170.8125 L475.35,169.7188 Q475.35,168.4688 475.9438,167.375 Q476.5531,166.2813 477.6,165.7031 Q478.6625,165.1094 479.85,165.1094 Q480.5688,165.1094 481.1938,165.3594 Q481.8188,165.6094 482.35,166.1094 Z " fill="#000000"/><text fill="#000000" font-family="sans-serif" font-size="14" lengthAdjust="spacing" textLength="152" x="498.65" y="175.3379">AnswerSurveyController</text><line style="stroke:#181818;stroke-width:0.5;" x1="447" x2="672" y1="185.6094" y2="185.6094"/><ellipse cx="457" cy="218.2188" fill="#84BE84" rx="3" ry="3" style="stroke:#038048;stroke-width:1.0;"/><text fill="#000000" font-family="sans-serif" font-size="14" lengthAdjust="spacing" textLength="201" x="466" y="225.752">getAvailableSurveys(username)</text><ellipse cx="457" cy="235.8281" fill="#84BE84" rx="3" ry="3" style="stroke:#038048;stroke-width:1.0;"/><text fill="#000000" font-family="sans-serif" font-size="14" lengthAdjust="spacing" textLength="137" x="466" y="243.3613">getSections(surveyId)</text><ellipse cx="457" cy="253.4375" fill="#84BE84" rx="3" ry="3" style="stroke:#038048;stroke-width:1.0;"/><text fill="#000000" font-family="sans-serif" font-size="14" lengthAdjust="spacing" textLength="150" x="466" y="260.9707">getQuestions(sectionId)</text><ellipse cx="457" cy="271.0469" fill="#84BE84" rx="3" ry="3" style="stroke:#038048;stroke-width:1.0;"/><text fill="#000000" font-family="sans-serif" font-size="14" lengthAdjust="spacing" textLength="146" x="466" y="278.5801">exportSurvey(surveyId)</text><ellipse cx="457" cy="288.6563" fill="#84BE84" rx="3" ry="3" style="stroke:#038048;stroke-width:1.0;"/><text fill="#000000" font-family="sans-serif" font-size="14" lengthAdjust="spacing" textLength="154" x="466" y="296.1895">answerSurvey(directory)</text><ellipse cx="457" cy="306.2656" fill="#84BE84" rx="3" ry="3" style="stroke:#038048;stroke-width:1.0;"/><text fill="#000000" font-family="sans-serif" font-size="14" lengthAdjust="spacing" textLength="114" x="466" y="313.7988">cancelOperation()</text><line style="stroke:#181818;stroke-width:1.0;" x1="447" x2="532.5" y1="202.4141" y2="202.4141"/><text fill="#000000" font-family="sans-serif" font-size="14" lengthAdjust="spacing" textLength="54" x="532.5" y="207.6426">Methods</text><line style="stroke:#181818;stroke-width:1.0;" x1="586.5" x2="672" y1="202.4141" y2="202.4141"/></g><g id="elem_GMN8085"><path d="M708.5,215.6094 L708.5,233.1094 L673.1,237.1094 L708.5,241.1094 L708.5,258.3125 A0,0 0 0 0 708.5,258.3125 L960.5,258.3125 A0,0 0 0 0 960.5,258.3125 L960.5,225.6094 L950.5,215.6094 L708.5,215.6094 A0,0 0 0 0 708.5,215.6094 " fill="#FEFFDD" style="stroke:#181818;stroke-width:0.5;"/><path d="M950.5,215.6094 L950.5,225.6094 L960.5,225.6094 L950.5,215.6094 " fill="#FEFFDD" style="stroke:#181818;stroke-width:0.5;"/><text fill="#000000" font-family="sans-serif" font-size="13" lengthAdjust="spacing" textLength="231" x="714.5" y="234.1045">Diagram won't show Mappers and DTOs</text><text fill="#000000" font-family="sans-serif" font-size="13" lengthAdjust="spacing" textLength="109" x="714.5" y="250.4561">for simplicity sake.</text></g><!--MD5=[2ce0c9fb7f55b1e256ab28a8ea6b25ec]
class Customer--><g id="elem_Customer"><rect codeLine="15" fill="#F1F1F1" height="132.0469" id="Customer" rx="2.5" ry="2.5" style="stroke:#181818;stroke-width:0.5;" width="115" x="168" y="426.6094"/><ellipse cx="192.9" cy="442.6094" fill="#ADD1B2" rx="11" ry="11" style="stroke:#181818;stroke-width:1.0;"/><path d="M194.9,439.1094 Q195.1031,438.6094 195.3375,438.3594 Q195.5719,438.1094 195.8375,438.1094 Q196.3063,438.1094 196.6031,438.3906 Q196.9,438.6719 196.9,439.3281 L196.9,440.8906 Q196.9,441.5469 196.6188,441.8281 Q196.3375,442.1094 195.9,442.1094 Q195.5094,442.1094 195.2594,441.9375 Q195.0094,441.7656 194.9,441.3125 Q194.8531,441 194.6813,440.8281 Q194.3688,440.5 193.8063,440.3125 Q193.2438,440.1094 192.6813,440.1094 Q191.9781,440.1094 191.3844,440.3906 Q190.8063,440.6719 190.3531,441.2969 Q189.9,441.9219 189.9,442.7813 L189.9,443.7031 Q189.9,444.7344 190.7438,445.4219 Q191.5875,446.1094 193.0875,446.1094 Q193.9781,446.1094 194.6031,445.9063 Q194.9625,445.7969 195.3688,445.4375 Q195.6344,445.2344 195.775,445.1719 Q195.9156,445.1094 196.0875,445.1094 Q196.4156,445.1094 196.65,445.375 Q196.9,445.625 196.9,445.9844 Q196.9,446.3281 196.5563,446.7344 Q196.0563,447.3281 195.2594,447.6563 Q194.2125,448.1094 192.9313,448.1094 Q191.4313,448.1094 190.2281,447.5156 Q189.2594,447.0469 188.5719,446.0313 Q187.9,445.0156 187.9,443.8125 L187.9,442.7188 Q187.9,441.4688 188.4938,440.375 Q189.1031,439.2813 190.15,438.7031 Q191.2125,438.1094 192.4,438.1094 Q193.1188,438.1094 193.7438,438.3594 Q194.3688,438.6094 194.9,439.1094 Z " fill="#000000"/><text fill="#000000" font-family="sans-serif" font-size="14" lengthAdjust="spacing" textLength="61" x="209.1" y="448.3379">Customer</text><line style="stroke:#181818;stroke-width:0.5;" x1="169" x2="282" y1="458.6094" y2="458.6094"/><rect fill="none" height="6" style="stroke:#C82930;stroke-width:1.0;" width="6" x="176" y="488.2188"/><text fill="#000000" font-family="sans-serif" font-size="14" lengthAdjust="spacing" textLength="11" x="188" y="498.752">id</text><rect fill="none" height="6" style="stroke:#C82930;stroke-width:1.0;" width="6" x="176" y="505.8281"/><text fill="#000000" font-family="sans-serif" font-size="14" lengthAdjust="spacing" textLength="63" x="188" y="516.3613">username</text><rect fill="none" height="6" style="stroke:#C82930;stroke-width:1.0;" width="6" x="176" y="523.4375"/><text fill="#000000" font-family="sans-serif" font-size="14" lengthAdjust="spacing" textLength="33" x="188" y="533.9707">email</text><rect fill="none" height="6" style="stroke:#C82930;stroke-width:1.0;" width="6" x="176" y="541.0469"/><text fill="#000000" font-family="sans-serif" font-size="14" lengthAdjust="spacing" textLength="89" x="188" y="551.5801">phoneNumber</text><line style="stroke:#181818;stroke-width:1.0;stroke-dasharray:1.0,2.0;" x1="169" x2="195.5" y1="475.4141" y2="475.4141"/><text fill="#000000" font-family="sans-serif" font-size="14" lengthAdjust="spacing" textLength="60" x="195.5" y="480.6426">Attributes</text><line style="stroke:#181818;stroke-width:1.0;stroke-dasharray:1.0,2.0;" x1="255.5" x2="282" y1="475.4141" y2="475.4141"/></g><!--MD5=[3145b4be7c5005b24cda6f18a1d594b0]
class Survey--><g id="elem_Survey"><rect codeLine="23" fill="#F1F1F1" height="96.8281" id="Survey" rx="2.5" ry="2.5" style="stroke:#181818;stroke-width:0.5;" width="112" x="318.5" y="444.1094"/><ellipse cx="349.7" cy="460.1094" fill="#ADD1B2" rx="11" ry="11" style="stroke:#181818;stroke-width:1.0;"/><path d="M351.7,456.6094 Q351.9031,456.1094 352.1375,455.8594 Q352.3719,455.6094 352.6375,455.6094 Q353.1063,455.6094 353.4031,455.8906 Q353.7,456.1719 353.7,456.8281 L353.7,458.3906 Q353.7,459.0469 353.4188,459.3281 Q353.1375,459.6094 352.7,459.6094 Q352.3094,459.6094 352.0594,459.4375 Q351.8094,459.2656 351.7,458.8125 Q351.6531,458.5 351.4813,458.3281 Q351.1688,458 350.6063,457.8125 Q350.0438,457.6094 349.4813,457.6094 Q348.7781,457.6094 348.1844,457.8906 Q347.6063,458.1719 347.1531,458.7969 Q346.7,459.4219 346.7,460.2813 L346.7,461.2031 Q346.7,462.2344 347.5438,462.9219 Q348.3875,463.6094 349.8875,463.6094 Q350.7781,463.6094 351.4031,463.4063 Q351.7625,463.2969 352.1688,462.9375 Q352.4344,462.7344 352.575,462.6719 Q352.7156,462.6094 352.8875,462.6094 Q353.2156,462.6094 353.45,462.875 Q353.7,463.125 353.7,463.4844 Q353.7,463.8281 353.3563,464.2344 Q352.8563,464.8281 352.0594,465.1563 Q351.0125,465.6094 349.7313,465.6094 Q348.2313,465.6094 347.0281,465.0156 Q346.0594,464.5469 345.3719,463.5313 Q344.7,462.5156 344.7,461.3125 L344.7,460.2188 Q344.7,458.9688 345.2938,457.875 Q345.9031,456.7813 346.95,456.2031 Q348.0125,455.6094 349.2,455.6094 Q349.9188,455.6094 350.5438,455.8594 Q351.1688,456.1094 351.7,456.6094 Z " fill="#000000"/><text fill="#000000" font-family="sans-serif" font-size="14" lengthAdjust="spacing" textLength="44" x="367.3" y="465.8379">Survey</text><line style="stroke:#181818;stroke-width:0.5;" x1="319.5" x2="429.5" y1="476.1094" y2="476.1094"/><rect fill="none" height="6" style="stroke:#C82930;stroke-width:1.0;" width="6" x="326.5" y="505.7188"/><text fill="#000000" font-family="sans-serif" font-size="14" lengthAdjust="spacing" textLength="11" x="338.5" y="516.252">id</text><rect fill="none" height="6" style="stroke:#C82930;stroke-width:1.0;" width="6" x="326.5" y="523.3281"/><text fill="#000000" font-family="sans-serif" font-size="14" lengthAdjust="spacing" textLength="86" x="338.5" y="533.8613">questionnaire</text><line style="stroke:#181818;stroke-width:1.0;stroke-dasharray:1.0,2.0;" x1="319.5" x2="344.5" y1="492.9141" y2="492.9141"/><text fill="#000000" font-family="sans-serif" font-size="14" lengthAdjust="spacing" textLength="60" x="344.5" y="498.1426">Attributes</text><line style="stroke:#181818;stroke-width:1.0;stroke-dasharray:1.0,2.0;" x1="404.5" x2="429.5" y1="492.9141" y2="492.9141"/></g><!--MD5=[5a3b85c54cc1c79904e0b827443986bf]
class Questionnaire--><g id="elem_Questionnaire"><rect codeLine="29" fill="#F1F1F1" height="96.8281" id="Questionnaire" rx="2.5" ry="2.5" style="stroke:#181818;stroke-width:0.5;" width="121" x="266" y="710.6094"/><ellipse cx="281" cy="726.6094" fill="#ADD1B2" rx="11" ry="11" style="stroke:#181818;stroke-width:1.0;"/><path d="M283,723.1094 Q283.2031,722.6094 283.4375,722.3594 Q283.6719,722.1094 283.9375,722.1094 Q284.4063,722.1094 284.7031,722.3906 Q285,722.6719 285,723.3281 L285,724.8906 Q285,725.5469 284.7188,725.8281 Q284.4375,726.1094 284,726.1094 Q283.6094,726.1094 283.3594,725.9375 Q283.1094,725.7656 283,725.3125 Q282.9531,725 282.7813,724.8281 Q282.4688,724.5 281.9063,724.3125 Q281.3438,724.1094 280.7813,724.1094 Q280.0781,724.1094 279.4844,724.3906 Q278.9063,724.6719 278.4531,725.2969 Q278,725.9219 278,726.7813 L278,727.7031 Q278,728.7344 278.8438,729.4219 Q279.6875,730.1094 281.1875,730.1094 Q282.0781,730.1094 282.7031,729.9063 Q283.0625,729.7969 283.4688,729.4375 Q283.7344,729.2344 283.875,729.1719 Q284.0156,729.1094 284.1875,729.1094 Q284.5156,729.1094 284.75,729.375 Q285,729.625 285,729.9844 Q285,730.3281 284.6563,730.7344 Q284.1563,731.3281 283.3594,731.6563 Q282.3125,732.1094 281.0313,732.1094 Q279.5313,732.1094 278.3281,731.5156 Q277.3594,731.0469 276.6719,730.0313 Q276,729.0156 276,727.8125 L276,726.7188 Q276,725.4688 276.5938,724.375 Q277.2031,723.2813 278.25,722.7031 Q279.3125,722.1094 280.5,722.1094 Q281.2188,722.1094 281.8438,722.3594 Q282.4688,722.6094 283,723.1094 Z " fill="#000000"/><text fill="#000000" font-family="sans-serif" font-size="14" lengthAdjust="spacing" textLength="89" x="295" y="732.3379">Questionnaire</text><line style="stroke:#181818;stroke-width:0.5;" x1="267" x2="386" y1="742.6094" y2="742.6094"/><rect fill="none" height="6" style="stroke:#C82930;stroke-width:1.0;" width="6" x="274" y="772.2188"/><text fill="#000000" font-family="sans-serif" font-size="14" lengthAdjust="spacing" textLength="11" x="286" y="782.752">id</text><rect fill="none" height="6" style="stroke:#C82930;stroke-width:1.0;" width="6" x="274" y="789.8281"/><text fill="#000000" font-family="sans-serif" font-size="14" lengthAdjust="spacing" textLength="52" x="286" y="800.3613">sections</text><line style="stroke:#181818;stroke-width:1.0;stroke-dasharray:1.0,2.0;" x1="267" x2="296.5" y1="759.4141" y2="759.4141"/><text fill="#000000" font-family="sans-serif" font-size="14" lengthAdjust="spacing" textLength="60" x="296.5" y="764.6426">Attributes</text><line style="stroke:#181818;stroke-width:1.0;stroke-dasharray:1.0,2.0;" x1="356.5" x2="386" y1="759.4141" y2="759.4141"/></g><!--MD5=[09a53695e98d4f26e7a054522080af08]
class Section--><g id="elem_Section"><rect codeLine="35" fill="#F1F1F1" height="96.8281" id="Section" rx="2.5" ry="2.5" style="stroke:#181818;stroke-width:0.5;" width="87" x="283" y="913.6094"/><ellipse cx="301.6" cy="929.6094" fill="#ADD1B2" rx="11" ry="11" style="stroke:#181818;stroke-width:1.0;"/><path d="M303.6,926.1094 Q303.8031,925.6094 304.0375,925.3594 Q304.2719,925.1094 304.5375,925.1094 Q305.0063,925.1094 305.3031,925.3906 Q305.6,925.6719 305.6,926.3281 L305.6,927.8906 Q305.6,928.5469 305.3188,928.8281 Q305.0375,929.1094 304.6,929.1094 Q304.2094,929.1094 303.9594,928.9375 Q303.7094,928.7656 303.6,928.3125 Q303.5531,928 303.3813,927.8281 Q303.0688,927.5 302.5063,927.3125 Q301.9438,927.1094 301.3813,927.1094 Q300.6781,927.1094 300.0844,927.3906 Q299.5063,927.6719 299.0531,928.2969 Q298.6,928.9219 298.6,929.7813 L298.6,930.7031 Q298.6,931.7344 299.4438,932.4219 Q300.2875,933.1094 301.7875,933.1094 Q302.6781,933.1094 303.3031,932.9063 Q303.6625,932.7969 304.0688,932.4375 Q304.3344,932.2344 304.475,932.1719 Q304.6156,932.1094 304.7875,932.1094 Q305.1156,932.1094 305.35,932.375 Q305.6,932.625 305.6,932.9844 Q305.6,933.3281 305.2563,933.7344 Q304.7563,934.3281 303.9594,934.6563 Q302.9125,935.1094 301.6313,935.1094 Q300.1313,935.1094 298.9281,934.5156 Q297.9594,934.0469 297.2719,933.0313 Q296.6,932.0156 296.6,930.8125 L296.6,929.7188 Q296.6,928.4688 297.1938,927.375 Q297.8031,926.2813 298.85,925.7031 Q299.9125,925.1094 301.1,925.1094 Q301.8188,925.1094 302.4438,925.3594 Q303.0688,925.6094 303.6,926.1094 Z " fill="#000000"/><text fill="#000000" font-family="sans-serif" font-size="14" lengthAdjust="spacing" textLength="47" x="316.4" y="935.3379">Section</text><line style="stroke:#181818;stroke-width:0.5;" x1="284" x2="369" y1="945.6094" y2="945.6094"/><rect fill="none" height="6" style="stroke:#C82930;stroke-width:1.0;" width="6" x="291" y="975.2188"/><text fill="#000000" font-family="sans-serif" font-size="14" lengthAdjust="spacing" textLength="11" x="303" y="985.752">id</text><rect fill="none" height="6" style="stroke:#C82930;stroke-width:1.0;" width="6" x="291" y="992.8281"/><text fill="#000000" font-family="sans-serif" font-size="14" lengthAdjust="spacing" textLength="61" x="303" y="1003.3613">questions</text><line style="stroke:#181818;stroke-width:1.0;stroke-dasharray:1.0,2.0;" x1="284" x2="296.5" y1="962.4141" y2="962.4141"/><text fill="#000000" font-family="sans-serif" font-size="14" lengthAdjust="spacing" textLength="60" x="296.5" y="967.6426">Attributes</text><line style="stroke:#181818;stroke-width:1.0;stroke-dasharray:1.0,2.0;" x1="356.5" x2="369" y1="962.4141" y2="962.4141"/></g><!--MD5=[fc7123defb831ecdd44b2d9bcef6cceb]
class Question--><g id="elem_Question"><rect codeLine="41" fill="#F1F1F1" height="188.875" id="Question" rx="2.5" ry="2.5" style="stroke:#181818;stroke-width:0.5;" width="117" x="212" y="1070.6094"/><ellipse cx="239.6" cy="1086.6094" fill="#ADD1B2" rx="11" ry="11" style="stroke:#181818;stroke-width:1.0;"/><path d="M241.6,1083.1094 Q241.8031,1082.6094 242.0375,1082.3594 Q242.2719,1082.1094 242.5375,1082.1094 Q243.0063,1082.1094 243.3031,1082.3906 Q243.6,1082.6719 243.6,1083.3281 L243.6,1084.8906 Q243.6,1085.5469 243.3188,1085.8281 Q243.0375,1086.1094 242.6,1086.1094 Q242.2094,1086.1094 241.9594,1085.9375 Q241.7094,1085.7656 241.6,1085.3125 Q241.5531,1085 241.3813,1084.8281 Q241.0688,1084.5 240.5063,1084.3125 Q239.9438,1084.1094 239.3813,1084.1094 Q238.6781,1084.1094 238.0844,1084.3906 Q237.5063,1084.6719 237.0531,1085.2969 Q236.6,1085.9219 236.6,1086.7813 L236.6,1087.7031 Q236.6,1088.7344 237.4438,1089.4219 Q238.2875,1090.1094 239.7875,1090.1094 Q240.6781,1090.1094 241.3031,1089.9063 Q241.6625,1089.7969 242.0688,1089.4375 Q242.3344,1089.2344 242.475,1089.1719 Q242.6156,1089.1094 242.7875,1089.1094 Q243.1156,1089.1094 243.35,1089.375 Q243.6,1089.625 243.6,1089.9844 Q243.6,1090.3281 243.2563,1090.7344 Q242.7563,1091.3281 241.9594,1091.6563 Q240.9125,1092.1094 239.6313,1092.1094 Q238.1313,1092.1094 236.9281,1091.5156 Q235.9594,1091.0469 235.2719,1090.0313 Q234.6,1089.0156 234.6,1087.8125 L234.6,1086.7188 Q234.6,1085.4688 235.1938,1084.375 Q235.8031,1083.2813 236.85,1082.7031 Q237.9125,1082.1094 239.1,1082.1094 Q239.8188,1082.1094 240.4438,1082.3594 Q241.0688,1082.6094 241.6,1083.1094 Z " fill="#000000"/><text fill="#000000" font-family="sans-serif" font-size="14" lengthAdjust="spacing" textLength="57" x="256.4" y="1092.3379">Question</text><line style="stroke:#181818;stroke-width:0.5;" x1="213" x2="328" y1="1102.6094" y2="1102.6094"/><rect fill="none" height="6" style="stroke:#C82930;stroke-width:1.0;" width="6" x="220" y="1132.2188"/><text fill="#000000" font-family="sans-serif" font-size="14" lengthAdjust="spacing" textLength="11" x="232" y="1142.752">id</text><rect fill="none" height="6" style="stroke:#C82930;stroke-width:1.0;" width="6" x="220" y="1149.8281"/><text fill="#000000" font-family="sans-serif" font-size="14" lengthAdjust="spacing" textLength="22" x="232" y="1160.3613">text</text><rect fill="none" height="6" style="stroke:#C82930;stroke-width:1.0;" width="6" x="220" y="1167.4375"/><text fill="#000000" font-family="sans-serif" font-size="14" lengthAdjust="spacing" textLength="88" x="232" y="1177.9707">obligatoriness</text><line style="stroke:#181818;stroke-width:1.0;stroke-dasharray:1.0,2.0;" x1="213" x2="240.5" y1="1119.4141" y2="1119.4141"/><text fill="#000000" font-family="sans-serif" font-size="14" lengthAdjust="spacing" textLength="60" x="240.5" y="1124.6426">Attributes</text><line style="stroke:#181818;stroke-width:1.0;stroke-dasharray:1.0,2.0;" x1="300.5" x2="328" y1="1119.4141" y2="1119.4141"/><ellipse cx="223" cy="1209.6563" fill="#84BE84" rx="3" ry="3" style="stroke:#038048;stroke-width:1.0;"/><text fill="#000000" font-family="sans-serif" font-size="14" lengthAdjust="spacing" textLength="87" x="232" y="1217.1895">isMandatory()</text><ellipse cx="223" cy="1227.2656" fill="#84BE84" rx="3" ry="3" style="stroke:#038048;stroke-width:1.0;"/><text fill="#000000" font-family="sans-serif" font-size="14" lengthAdjust="spacing" textLength="73" x="232" y="1234.7988">isOptional()</text><ellipse cx="223" cy="1244.875" fill="#84BE84" rx="3" ry="3" style="stroke:#038048;stroke-width:1.0;"/><text fill="#000000" font-family="sans-serif" font-size="14" lengthAdjust="spacing" textLength="91" x="232" y="1252.4082">isConditional()</text><line style="stroke:#181818;stroke-width:1.0;" x1="213" x2="243.5" y1="1193.8516" y2="1193.8516"/><text fill="#000000" font-family="sans-serif" font-size="14" lengthAdjust="spacing" textLength="54" x="243.5" y="1199.0801">Methods</text><line style="stroke:#181818;stroke-width:1.0;" x1="297.5" x2="328" y1="1193.8516" y2="1193.8516"/></g><!--MD5=[1ada4a370fc31d10353a46a56e785754]
class QuestionType--><g id="elem_QuestionType"><rect codeLine="52" fill="#F1F1F1" height="188.875" id="QuestionType" rx="2.5" ry="2.5" style="stroke:#181818;stroke-width:0.5;" width="279" x="7" y="1319.6094"/><ellipse cx="97.75" cy="1335.6094" fill="#EB937F" rx="11" ry="11" style="stroke:#181818;stroke-width:1.0;"/><path d="M96.25,1336.6094 L96.25,1338.6094 L100.25,1338.6094 L100.25,1337.6094 L100.25,1337.125 L100.875,1336.6094 L101.25,1336.6094 L101.625,1336.6094 L102.25,1337.125 L102.25,1337.6094 L102.25,1340.6094 L94.25,1340.6094 L93.7656,1340.6094 L93.25,1339.9844 L93.25,1339.6094 L93.25,1339.2344 L93.7656,1338.6094 L94.25,1338.6094 L94.25,1338.6094 L94.25,1332.6094 L94.25,1332.6094 L93.7656,1332.6094 L93.25,1331.9844 L93.25,1331.6094 L93.25,1331.2344 L93.7656,1330.6094 L94.25,1330.6094 L102.25,1330.6094 L102.25,1333.6094 L102.25,1334.0938 L101.625,1334.6094 L101.25,1334.6094 L100.875,1334.6094 L100.25,1334.0938 L100.25,1333.6094 L100.25,1332.6094 L96.25,1332.6094 L96.25,1334.6094 L97.25,1334.6094 L97.25,1334.125 L97.25,1334.125 L97.875,1333.6094 L98.25,1333.6094 L98.625,1333.6094 L99.25,1334.125 L99.25,1334.6094 L99.25,1336.6094 L99.25,1337.0938 L98.625,1337.6094 L98.625,1337.6094 L98.25,1337.6094 L97.875,1337.6094 L97.25,1337.0938 L97.25,1337.0938 L97.25,1336.6094 L96.25,1336.6094 Z " fill="#000000"/><text fill="#000000" font-family="sans-serif" font-size="14" lengthAdjust="spacing" textLength="89" x="118.25" y="1341.3379">QuestionType</text><line style="stroke:#181818;stroke-width:0.5;" x1="8" x2="285" y1="1351.6094" y2="1351.6094"/><text fill="#000000" font-family="sans-serif" font-size="14" lengthAdjust="spacing" textLength="80" x="13" y="1370.1426">FREE_TEXT</text><text fill="#000000" font-family="sans-serif" font-size="14" lengthAdjust="spacing" textLength="61" x="13" y="1387.752">NUMERIC</text><text fill="#000000" font-family="sans-serif" font-size="14" lengthAdjust="spacing" textLength="109" x="13" y="1405.3613">SINGLE_CHOICE</text><text fill="#000000" font-family="sans-serif" font-size="14" lengthAdjust="spacing" textLength="250" x="13" y="1422.9707">SINGLE_CHOICE_WITH_INPUT_VALUE</text><text fill="#000000" font-family="sans-serif" font-size="14" lengthAdjust="spacing" textLength="126" x="13" y="1440.5801">MULTIPLE_CHOICE</text><text fill="#000000" font-family="sans-serif" font-size="14" lengthAdjust="spacing" textLength="267" x="13" y="1458.1895">MULTIPLE_CHOICE_WITH_INPUT_VALUE</text><text fill="#000000" font-family="sans-serif" font-size="14" lengthAdjust="spacing" textLength="62" x="13" y="1475.7988">SORTING</text><text fill="#000000" font-family="sans-serif" font-size="14" lengthAdjust="spacing" textLength="59" x="13" y="1493.4082">SCALING</text><line style="stroke:#181818;stroke-width:0.5;" x1="8" x2="285" y1="1500.4844" y2="1500.4844"/></g><!--MD5=[612a8bdae8d52d1733a2d00cd54fc954]
class Obligatoriness--><g id="elem_Obligatoriness"><rect codeLine="63" fill="#F1F1F1" height="100.8281" id="Obligatoriness" rx="2.5" ry="2.5" style="stroke:#181818;stroke-width:0.5;" width="123" x="321" y="1363.6094"/><ellipse cx="336" cy="1379.6094" fill="#EB937F" rx="11" ry="11" style="stroke:#181818;stroke-width:1.0;"/><path d="M334.5,1380.6094 L334.5,1382.6094 L338.5,1382.6094 L338.5,1381.6094 L338.5,1381.125 L339.125,1380.6094 L339.5,1380.6094 L339.875,1380.6094 L340.5,1381.125 L340.5,1381.6094 L340.5,1384.6094 L332.5,1384.6094 L332.0156,1384.6094 L331.5,1383.9844 L331.5,1383.6094 L331.5,1383.2344 L332.0156,1382.6094 L332.5,1382.6094 L332.5,1382.6094 L332.5,1376.6094 L332.5,1376.6094 L332.0156,1376.6094 L331.5,1375.9844 L331.5,1375.6094 L331.5,1375.2344 L332.0156,1374.6094 L332.5,1374.6094 L340.5,1374.6094 L340.5,1377.6094 L340.5,1378.0938 L339.875,1378.6094 L339.5,1378.6094 L339.125,1378.6094 L338.5,1378.0938 L338.5,1377.6094 L338.5,1376.6094 L334.5,1376.6094 L334.5,1378.6094 L335.5,1378.6094 L335.5,1378.125 L335.5,1378.125 L336.125,1377.6094 L336.5,1377.6094 L336.875,1377.6094 L337.5,1378.125 L337.5,1378.6094 L337.5,1380.6094 L337.5,1381.0938 L336.875,1381.6094 L336.875,1381.6094 L336.5,1381.6094 L336.125,1381.6094 L335.5,1381.0938 L335.5,1381.0938 L335.5,1380.6094 L334.5,1380.6094 Z " fill="#000000"/><text fill="#000000" font-family="sans-serif" font-size="14" lengthAdjust="spacing" textLength="91" x="350" y="1385.3379">Obligatoriness</text><line style="stroke:#181818;stroke-width:0.5;" x1="322" x2="443" y1="1395.6094" y2="1395.6094"/><text fill="#000000" font-family="sans-serif" font-size="14" lengthAdjust="spacing" textLength="87" x="327" y="1414.1426">MANDATORY</text><text fill="#000000" font-family="sans-serif" font-size="14" lengthAdjust="spacing" textLength="69" x="327" y="1431.752">OPTIONAL</text><text fill="#000000" font-family="sans-serif" font-size="14" lengthAdjust="spacing" textLength="92" x="327" y="1449.3613">CONDITIONAL</text><line style="stroke:#181818;stroke-width:0.5;" x1="322" x2="443" y1="1456.4375" y2="1456.4375"/></g><!--MD5=[f9fadfa5a66b7e5a67b370cd443ffe52]
class Answer--><g id="elem_Answer"><rect codeLine="69" fill="#F1F1F1" height="188.875" id="Answer" rx="2.5" ry="2.5" style="stroke:#181818;stroke-width:0.5;" width="257" x="422" y="664.6094"/><ellipse cx="523.25" cy="680.6094" fill="#ADD1B2" rx="11" ry="11" style="stroke:#181818;stroke-width:1.0;"/><path d="M525.25,677.1094 Q525.4531,676.6094 525.6875,676.3594 Q525.9219,676.1094 526.1875,676.1094 Q526.6563,676.1094 526.9531,676.3906 Q527.25,676.6719 527.25,677.3281 L527.25,678.8906 Q527.25,679.5469 526.9688,679.8281 Q526.6875,680.1094 526.25,680.1094 Q525.8594,680.1094 525.6094,679.9375 Q525.3594,679.7656 525.25,679.3125 Q525.2031,679 525.0313,678.8281 Q524.7188,678.5 524.1563,678.3125 Q523.5938,678.1094 523.0313,678.1094 Q522.3281,678.1094 521.7344,678.3906 Q521.1563,678.6719 520.7031,679.2969 Q520.25,679.9219 520.25,680.7813 L520.25,681.7031 Q520.25,682.7344 521.0938,683.4219 Q521.9375,684.1094 523.4375,684.1094 Q524.3281,684.1094 524.9531,683.9063 Q525.3125,683.7969 525.7188,683.4375 Q525.9844,683.2344 526.125,683.1719 Q526.2656,683.1094 526.4375,683.1094 Q526.7656,683.1094 527,683.375 Q527.25,683.625 527.25,683.9844 Q527.25,684.3281 526.9063,684.7344 Q526.4063,685.3281 525.6094,685.6563 Q524.5625,686.1094 523.2813,686.1094 Q521.7813,686.1094 520.5781,685.5156 Q519.6094,685.0469 518.9219,684.0313 Q518.25,683.0156 518.25,681.8125 L518.25,680.7188 Q518.25,679.4688 518.8438,678.375 Q519.4531,677.2813 520.5,676.7031 Q521.5625,676.1094 522.75,676.1094 Q523.4688,676.1094 524.0938,676.3594 Q524.7188,676.6094 525.25,677.1094 Z " fill="#000000"/><text fill="#000000" font-family="sans-serif" font-size="14" lengthAdjust="spacing" textLength="46" x="543.75" y="686.3379">Answer</text><line style="stroke:#181818;stroke-width:0.5;" x1="423" x2="678" y1="696.6094" y2="696.6094"/><rect fill="none" height="6" style="stroke:#C82930;stroke-width:1.0;" width="6" x="430" y="726.2188"/><text fill="#000000" font-family="sans-serif" font-size="14" lengthAdjust="spacing" textLength="54" x="442" y="736.752">question</text><rect fill="none" height="6" style="stroke:#C82930;stroke-width:1.0;" width="6" x="430" y="743.8281"/><text fill="#000000" font-family="sans-serif" font-size="14" lengthAdjust="spacing" textLength="45" x="442" y="754.3613">section</text><rect fill="none" height="6" style="stroke:#C82930;stroke-width:1.0;" width="6" x="430" y="761.4375"/><text fill="#000000" font-family="sans-serif" font-size="14" lengthAdjust="spacing" textLength="42" x="442" y="771.9707">survey</text><rect fill="none" height="6" style="stroke:#C82930;stroke-width:1.0;" width="6" x="430" y="779.0469"/><text fill="#000000" font-family="sans-serif" font-size="14" lengthAdjust="spacing" textLength="22" x="442" y="789.5801">text</text><line style="stroke:#181818;stroke-width:1.0;stroke-dasharray:1.0,2.0;" x1="423" x2="520.5" y1="713.4141" y2="713.4141"/><text fill="#000000" font-family="sans-serif" font-size="14" lengthAdjust="spacing" textLength="60" x="520.5" y="718.6426">Attributes</text><line style="stroke:#181818;stroke-width:1.0;stroke-dasharray:1.0,2.0;" x1="580.5" x2="678" y1="713.4141" y2="713.4141"/><ellipse cx="433" cy="821.2656" fill="#84BE84" rx="3" ry="3" style="stroke:#038048;stroke-width:1.0;"/><text fill="#000000" font-family="sans-serif" font-size="14" lengthAdjust="spacing" textLength="231" x="442" y="828.7988">Answer(survey,section,question,text)</text><ellipse cx="433" cy="838.875" fill="#84BE84" rx="3" ry="3" style="stroke:#038048;stroke-width:1.0;"/><text fill="#000000" font-family="sans-serif" font-size="14" lengthAdjust="spacing" textLength="59" x="442" y="846.4082">toString()</text><line style="stroke:#181818;stroke-width:1.0;" x1="423" x2="523.5" y1="805.4609" y2="805.4609"/><text fill="#000000" font-family="sans-serif" font-size="14" lengthAdjust="spacing" textLength="54" x="523.5" y="810.6895">Methods</text><line style="stroke:#181818;stroke-width:1.0;" x1="577.5" x2="678" y1="805.4609" y2="805.4609"/></g><!--MD5=[c8b118812a207af345015983022e040f]
class AnswerBuilder--><g id="elem_AnswerBuilder"><rect codeLine="80" fill="#F1F1F1" height="224.0938" id="AnswerBuilder" rx="2.5" ry="2.5" style="stroke:#181818;stroke-width:0.5;" width="187" x="466" y="380.6094"/><ellipse cx="510.25" cy="396.6094" fill="#ADD1B2" rx="11" ry="11" style="stroke:#181818;stroke-width:1.0;"/><path d="M512.25,393.1094 Q512.4531,392.6094 512.6875,392.3594 Q512.9219,392.1094 513.1875,392.1094 Q513.6563,392.1094 513.9531,392.3906 Q514.25,392.6719 514.25,393.3281 L514.25,394.8906 Q514.25,395.5469 513.9688,395.8281 Q513.6875,396.1094 513.25,396.1094 Q512.8594,396.1094 512.6094,395.9375 Q512.3594,395.7656 512.25,395.3125 Q512.2031,395 512.0313,394.8281 Q511.7188,394.5 511.1563,394.3125 Q510.5938,394.1094 510.0313,394.1094 Q509.3281,394.1094 508.7344,394.3906 Q508.1563,394.6719 507.7031,395.2969 Q507.25,395.9219 507.25,396.7813 L507.25,397.7031 Q507.25,398.7344 508.0938,399.4219 Q508.9375,400.1094 510.4375,400.1094 Q511.3281,400.1094 511.9531,399.9063 Q512.3125,399.7969 512.7188,399.4375 Q512.9844,399.2344 513.125,399.1719 Q513.2656,399.1094 513.4375,399.1094 Q513.7656,399.1094 514,399.375 Q514.25,399.625 514.25,399.9844 Q514.25,400.3281 513.9063,400.7344 Q513.4063,401.3281 512.6094,401.6563 Q511.5625,402.1094 510.2813,402.1094 Q508.7813,402.1094 507.5781,401.5156 Q506.6094,401.0469 505.9219,400.0313 Q505.25,399.0156 505.25,397.8125 L505.25,396.7188 Q505.25,395.4688 505.8438,394.375 Q506.4531,393.2813 507.5,392.7031 Q508.5625,392.1094 509.75,392.1094 Q510.4688,392.1094 511.0938,392.3594 Q511.7188,392.6094 512.25,393.1094 Z " fill="#000000"/><text fill="#000000" font-family="sans-serif" font-size="14" lengthAdjust="spacing" textLength="90" x="530.75" y="402.3379">AnswerBuilder</text><line style="stroke:#181818;stroke-width:0.5;" x1="467" x2="652" y1="412.6094" y2="412.6094"/><rect fill="none" height="6" style="stroke:#C82930;stroke-width:1.0;" width="6" x="474" y="442.2188"/><text fill="#000000" font-family="sans-serif" font-size="14" lengthAdjust="spacing" textLength="63" x="486" y="452.752">username</text><rect fill="none" height="6" style="stroke:#C82930;stroke-width:1.0;" width="6" x="474" y="459.8281"/><text fill="#000000" font-family="sans-serif" font-size="14" lengthAdjust="spacing" textLength="42" x="486" y="470.3613">survey</text><rect fill="none" height="6" style="stroke:#C82930;stroke-width:1.0;" width="6" x="474" y="477.4375"/><text fill="#000000" font-family="sans-serif" font-size="14" lengthAdjust="spacing" textLength="45" x="486" y="487.9707">section</text><rect fill="none" height="6" style="stroke:#C82930;stroke-width:1.0;" width="6" x="474" y="495.0469"/><text fill="#000000" font-family="sans-serif" font-size="14" lengthAdjust="spacing" textLength="54" x="486" y="505.5801">question</text><line style="stroke:#181818;stroke-width:1.0;stroke-dasharray:1.0,2.0;" x1="467" x2="529.5" y1="429.4141" y2="429.4141"/><text fill="#000000" font-family="sans-serif" font-size="14" lengthAdjust="spacing" textLength="60" x="529.5" y="434.6426">Attributes</text><line style="stroke:#181818;stroke-width:1.0;stroke-dasharray:1.0,2.0;" x1="589.5" x2="652" y1="429.4141" y2="429.4141"/><ellipse cx="477" cy="537.2656" fill="#84BE84" rx="3" ry="3" style="stroke:#038048;stroke-width:1.0;"/><text fill="#000000" font-family="sans-serif" font-size="14" lengthAdjust="spacing" textLength="161" x="486" y="544.7988">withUsername(username)</text><ellipse cx="477" cy="554.875" fill="#84BE84" rx="3" ry="3" style="stroke:#038048;stroke-width:1.0;"/><text fill="#000000" font-family="sans-serif" font-size="14" lengthAdjust="spacing" textLength="120" x="486" y="562.4082">withSurvey(survey)</text><ellipse cx="477" cy="572.4844" fill="#84BE84" rx="3" ry="3" style="stroke:#038048;stroke-width:1.0;"/><text fill="#000000" font-family="sans-serif" font-size="14" lengthAdjust="spacing" textLength="126" x="486" y="580.0176">withSection(section)</text><ellipse cx="477" cy="590.0938" fill="#84BE84" rx="3" ry="3" style="stroke:#038048;stroke-width:1.0;"/><text fill="#000000" font-family="sans-serif" font-size="14" lengthAdjust="spacing" textLength="145" x="486" y="597.627">withQuestion(question)</text><line style="stroke:#181818;stroke-width:1.0;" x1="467" x2="532.5" y1="521.4609" y2="521.4609"/><text fill="#000000" font-family="sans-serif" font-size="14" lengthAdjust="spacing" textLength="54" x="532.5" y="526.6895">Methods</text><line style="stroke:#181818;stroke-width:1.0;" x1="586.5" x2="652" y1="521.4609" y2="521.4609"/></g><!--MD5=[e8c189551b7885b999ad7cefb30fc2a3]
class PersistenceContext--><g id="elem_PersistenceContext"><rect codeLine="93" fill="#F1F1F1" height="79.2188" id="PersistenceContext" rx="2.5" ry="2.5" style="stroke:#181818;stroke-width:0.5;" width="154" x="704.5" y="453.1094"/><ellipse cx="719.5" cy="469.1094" fill="#ADD1B2" rx="11" ry="11" style="stroke:#181818;stroke-width:1.0;"/><path d="M721.5,465.6094 Q721.7031,465.1094 721.9375,464.8594 Q722.1719,464.6094 722.4375,464.6094 Q722.9063,464.6094 723.2031,464.8906 Q723.5,465.1719 723.5,465.8281 L723.5,467.3906 Q723.5,468.0469 723.2188,468.3281 Q722.9375,468.6094 722.5,468.6094 Q722.1094,468.6094 721.8594,468.4375 Q721.6094,468.2656 721.5,467.8125 Q721.4531,467.5 721.2813,467.3281 Q720.9688,467 720.4063,466.8125 Q719.8438,466.6094 719.2813,466.6094 Q718.5781,466.6094 717.9844,466.8906 Q717.4063,467.1719 716.9531,467.7969 Q716.5,468.4219 716.5,469.2813 L716.5,470.2031 Q716.5,471.2344 717.3438,471.9219 Q718.1875,472.6094 719.6875,472.6094 Q720.5781,472.6094 721.2031,472.4063 Q721.5625,472.2969 721.9688,471.9375 Q722.2344,471.7344 722.375,471.6719 Q722.5156,471.6094 722.6875,471.6094 Q723.0156,471.6094 723.25,471.875 Q723.5,472.125 723.5,472.4844 Q723.5,472.8281 723.1563,473.2344 Q722.6563,473.8281 721.8594,474.1563 Q720.8125,474.6094 719.5313,474.6094 Q718.0313,474.6094 716.8281,474.0156 Q715.8594,473.5469 715.1719,472.5313 Q714.5,471.5156 714.5,470.3125 L714.5,469.2188 Q714.5,467.9688 715.0938,466.875 Q715.7031,465.7813 716.75,465.2031 Q717.8125,464.6094 719,464.6094 Q719.7188,464.6094 720.3438,464.8594 Q720.9688,465.1094 721.5,465.6094 Z " fill="#000000"/><text fill="#000000" font-family="sans-serif" font-size="14" lengthAdjust="spacing" textLength="122" x="733.5" y="474.8379">PersistenceContext</text><line style="stroke:#181818;stroke-width:0.5;" x1="705.5" x2="857.5" y1="485.1094" y2="485.1094"/><ellipse cx="715.5" cy="517.7188" fill="#84BE84" rx="3" ry="3" style="stroke:#038048;stroke-width:1.0;"/><text fill="#000000" font-family="sans-serif" font-size="14" lengthAdjust="spacing" textLength="84" x="724.5" y="525.252">repositories()</text><line style="stroke:#181818;stroke-width:1.0;" x1="705.5" x2="754.5" y1="501.9141" y2="501.9141"/><text fill="#000000" font-family="sans-serif" font-size="14" lengthAdjust="spacing" textLength="54" x="754.5" y="507.1426">Methods</text><line style="stroke:#181818;stroke-width:1.0;" x1="808.5" x2="857.5" y1="501.9141" y2="501.9141"/></g><!--MD5=[48590afff58a68e2fcba47824d6f8a11]
class RepositoryFactory--><g id="elem_RepositoryFactory"><rect codeLine="98" fill="#F1F1F1" height="79.2188" id="RepositoryFactory" rx="2.5" ry="2.5" style="stroke:#181818;stroke-width:0.5;" width="148" x="714.5" y="719.6094"/><ellipse cx="729.5" cy="735.6094" fill="#ADD1B2" rx="11" ry="11" style="stroke:#181818;stroke-width:1.0;"/><path d="M731.5,732.1094 Q731.7031,731.6094 731.9375,731.3594 Q732.1719,731.1094 732.4375,731.1094 Q732.9063,731.1094 733.2031,731.3906 Q733.5,731.6719 733.5,732.3281 L733.5,733.8906 Q733.5,734.5469 733.2188,734.8281 Q732.9375,735.1094 732.5,735.1094 Q732.1094,735.1094 731.8594,734.9375 Q731.6094,734.7656 731.5,734.3125 Q731.4531,734 731.2813,733.8281 Q730.9688,733.5 730.4063,733.3125 Q729.8438,733.1094 729.2813,733.1094 Q728.5781,733.1094 727.9844,733.3906 Q727.4063,733.6719 726.9531,734.2969 Q726.5,734.9219 726.5,735.7813 L726.5,736.7031 Q726.5,737.7344 727.3438,738.4219 Q728.1875,739.1094 729.6875,739.1094 Q730.5781,739.1094 731.2031,738.9063 Q731.5625,738.7969 731.9688,738.4375 Q732.2344,738.2344 732.375,738.1719 Q732.5156,738.1094 732.6875,738.1094 Q733.0156,738.1094 733.25,738.375 Q733.5,738.625 733.5,738.9844 Q733.5,739.3281 733.1563,739.7344 Q732.6563,740.3281 731.8594,740.6563 Q730.8125,741.1094 729.5313,741.1094 Q728.0313,741.1094 726.8281,740.5156 Q725.8594,740.0469 725.1719,739.0313 Q724.5,738.0156 724.5,736.8125 L724.5,735.7188 Q724.5,734.4688 725.0938,733.375 Q725.7031,732.2813 726.75,731.7031 Q727.8125,731.1094 729,731.1094 Q729.7188,731.1094 730.3438,731.3594 Q730.9688,731.6094 731.5,732.1094 Z " fill="#000000"/><text fill="#000000" font-family="sans-serif" font-size="14" lengthAdjust="spacing" textLength="116" x="743.5" y="741.3379">RepositoryFactory</text><line style="stroke:#181818;stroke-width:0.5;" x1="715.5" x2="861.5" y1="751.6094" y2="751.6094"/><ellipse cx="725.5" cy="784.2188" fill="#84BE84" rx="3" ry="3" style="stroke:#038048;stroke-width:1.0;"/><text fill="#000000" font-family="sans-serif" font-size="14" lengthAdjust="spacing" textLength="59" x="734.5" y="791.752">surveys()</text><line style="stroke:#181818;stroke-width:1.0;" x1="715.5" x2="761.5" y1="768.4141" y2="768.4141"/><text fill="#000000" font-family="sans-serif" font-size="14" lengthAdjust="spacing" textLength="54" x="761.5" y="773.6426">Methods</text><line style="stroke:#181818;stroke-width:1.0;" x1="815.5" x2="861.5" y1="768.4141" y2="768.4141"/></g><!--MD5=[ca0abe252586467d5b989c6b12cf24dd]
class SurveyRepository--><g id="elem_SurveyRepository"><rect codeLine="103" fill="#F1F1F1" height="79.2188" id="SurveyRepository" rx="2.5" ry="2.5" style="stroke:#181818;stroke-width:0.5;" width="256" x="634.5" y="922.6094"/><ellipse cx="702.25" cy="938.6094" fill="#ADD1B2" rx="11" ry="11" style="stroke:#181818;stroke-width:1.0;"/><path d="M704.25,935.1094 Q704.4531,934.6094 704.6875,934.3594 Q704.9219,934.1094 705.1875,934.1094 Q705.6563,934.1094 705.9531,934.3906 Q706.25,934.6719 706.25,935.3281 L706.25,936.8906 Q706.25,937.5469 705.9688,937.8281 Q705.6875,938.1094 705.25,938.1094 Q704.8594,938.1094 704.6094,937.9375 Q704.3594,937.7656 704.25,937.3125 Q704.2031,937 704.0313,936.8281 Q703.7188,936.5 703.1563,936.3125 Q702.5938,936.1094 702.0313,936.1094 Q701.3281,936.1094 700.7344,936.3906 Q700.1563,936.6719 699.7031,937.2969 Q699.25,937.9219 699.25,938.7813 L699.25,939.7031 Q699.25,940.7344 700.0938,941.4219 Q700.9375,942.1094 702.4375,942.1094 Q703.3281,942.1094 703.9531,941.9063 Q704.3125,941.7969 704.7188,941.4375 Q704.9844,941.2344 705.125,941.1719 Q705.2656,941.1094 705.4375,941.1094 Q705.7656,941.1094 706,941.375 Q706.25,941.625 706.25,941.9844 Q706.25,942.3281 705.9063,942.7344 Q705.4063,943.3281 704.6094,943.6563 Q703.5625,944.1094 702.2813,944.1094 Q700.7813,944.1094 699.5781,943.5156 Q698.6094,943.0469 697.9219,942.0313 Q697.25,941.0156 697.25,939.8125 L697.25,938.7188 Q697.25,937.4688 697.8438,936.375 Q698.4531,935.2813 699.5,934.7031 Q700.5625,934.1094 701.75,934.1094 Q702.4688,934.1094 703.0938,934.3594 Q703.7188,934.6094 704.25,935.1094 Z " fill="#000000"/><text fill="#000000" font-family="sans-serif" font-size="14" lengthAdjust="spacing" textLength="112" x="722.75" y="944.3379">SurveyRepository</text><line style="stroke:#181818;stroke-width:0.5;" x1="635.5" x2="889.5" y1="954.6094" y2="954.6094"/><ellipse cx="645.5" cy="987.2188" fill="#84BE84" rx="3" ry="3" style="stroke:#038048;stroke-width:1.0;"/><text fill="#000000" font-family="sans-serif" font-size="14" lengthAdjust="spacing" textLength="230" x="654.5" y="994.752">findSurveysForCustomer(username)</text><line style="stroke:#181818;stroke-width:1.0;" x1="635.5" x2="735.5" y1="971.4141" y2="971.4141"/><text fill="#000000" font-family="sans-serif" font-size="14" lengthAdjust="spacing" textLength="54" x="735.5" y="976.6426">Methods</text><line style="stroke:#181818;stroke-width:1.0;" x1="789.5" x2="889.5" y1="971.4141" y2="971.4141"/></g><!--MD5=[8fd4197139024d008d8c4a28b98d9900]
class AnswerValidator--><g id="elem_AnswerValidator"><rect codeLine="108" fill="#F1F1F1" height="79.2188" id="AnswerValidator" rx="2.5" ry="2.5" style="stroke:#181818;stroke-width:0.5;" width="204" x="900.5" y="453.1094"/><ellipse cx="947.25" cy="469.1094" fill="#ADD1B2" rx="11" ry="11" style="stroke:#181818;stroke-width:1.0;"/><path d="M949.25,465.6094 Q949.4531,465.1094 949.6875,464.8594 Q949.9219,464.6094 950.1875,464.6094 Q950.6563,464.6094 950.9531,464.8906 Q951.25,465.1719 951.25,465.8281 L951.25,467.3906 Q951.25,468.0469 950.9688,468.3281 Q950.6875,468.6094 950.25,468.6094 Q949.8594,468.6094 949.6094,468.4375 Q949.3594,468.2656 949.25,467.8125 Q949.2031,467.5 949.0313,467.3281 Q948.7188,467 948.1563,466.8125 Q947.5938,466.6094 947.0313,466.6094 Q946.3281,466.6094 945.7344,466.8906 Q945.1563,467.1719 944.7031,467.7969 Q944.25,468.4219 944.25,469.2813 L944.25,470.2031 Q944.25,471.2344 945.0938,471.9219 Q945.9375,472.6094 947.4375,472.6094 Q948.3281,472.6094 948.9531,472.4063 Q949.3125,472.2969 949.7188,471.9375 Q949.9844,471.7344 950.125,471.6719 Q950.2656,471.6094 950.4375,471.6094 Q950.7656,471.6094 951,471.875 Q951.25,472.125 951.25,472.4844 Q951.25,472.8281 950.9063,473.2344 Q950.4063,473.8281 949.6094,474.1563 Q948.5625,474.6094 947.2813,474.6094 Q945.7813,474.6094 944.5781,474.0156 Q943.6094,473.5469 942.9219,472.5313 Q942.25,471.5156 942.25,470.3125 L942.25,469.2188 Q942.25,467.9688 942.8438,466.875 Q943.4531,465.7813 944.5,465.2031 Q945.5625,464.6094 946.75,464.6094 Q947.4688,464.6094 948.0938,464.8594 Q948.7188,465.1094 949.25,465.6094 Z " fill="#000000"/><text fill="#000000" font-family="sans-serif" font-size="14" lengthAdjust="spacing" textLength="102" x="967.75" y="474.8379">AnswerValidator</text><line style="stroke:#181818;stroke-width:0.5;" x1="901.5" x2="1103.5" y1="485.1094" y2="485.1094"/><ellipse cx="911.5" cy="517.7188" fill="#84BE84" rx="3" ry="3" style="stroke:#038048;stroke-width:1.0;"/><text fill="#000000" font-family="sans-serif" font-size="14" lengthAdjust="spacing" textLength="178" x="920.5" y="525.252">validateSurveyAnswers(text)</text><line style="stroke:#181818;stroke-width:1.0;" x1="901.5" x2="975.5" y1="501.9141" y2="501.9141"/><text fill="#000000" font-family="sans-serif" font-size="14" lengthAdjust="spacing" textLength="54" x="975.5" y="507.1426">Methods</text><line style="stroke:#181818;stroke-width:1.0;" x1="1029.5" x2="1103.5" y1="501.9141" y2="501.9141"/></g><!--MD5=[7ea5c0d33387e69575c9175cd12fbb86]
class AnswerVerifierAdapter--><g id="elem_AnswerVerifierAdapter"><rect fill="#F1F1F1" height="48" id="AnswerVerifierAdapter" rx="2.5" ry="2.5" style="stroke:#181818;stroke-width:0.5;" width="173" x="910" y="735.1094"/><ellipse cx="925" cy="751.1094" fill="#ADD1B2" rx="11" ry="11" style="stroke:#181818;stroke-width:1.0;"/><path d="M927,747.6094 Q927.2031,747.1094 927.4375,746.8594 Q927.6719,746.6094 927.9375,746.6094 Q928.4063,746.6094 928.7031,746.8906 Q929,747.1719 929,747.8281 L929,749.3906 Q929,750.0469 928.7188,750.3281 Q928.4375,750.6094 928,750.6094 Q927.6094,750.6094 927.3594,750.4375 Q927.1094,750.2656 927,749.8125 Q926.9531,749.5 926.7813,749.3281 Q926.4688,749 925.9063,748.8125 Q925.3438,748.6094 924.7813,748.6094 Q924.0781,748.6094 923.4844,748.8906 Q922.9063,749.1719 922.4531,749.7969 Q922,750.4219 922,751.2813 L922,752.2031 Q922,753.2344 922.8438,753.9219 Q923.6875,754.6094 925.1875,754.6094 Q926.0781,754.6094 926.7031,754.4063 Q927.0625,754.2969 927.4688,753.9375 Q927.7344,753.7344 927.875,753.6719 Q928.0156,753.6094 928.1875,753.6094 Q928.5156,753.6094 928.75,753.875 Q929,754.125 929,754.4844 Q929,754.8281 928.6563,755.2344 Q928.1563,755.8281 927.3594,756.1563 Q926.3125,756.6094 925.0313,756.6094 Q923.5313,756.6094 922.3281,756.0156 Q921.3594,755.5469 920.6719,754.5313 Q920,753.5156 920,752.3125 L920,751.2188 Q920,749.9688 920.5938,748.875 Q921.2031,747.7813 922.25,747.2031 Q923.3125,746.6094 924.5,746.6094 Q925.2188,746.6094 925.8438,746.8594 Q926.4688,747.1094 927,747.6094 Z " fill="#000000"/><text fill="#000000" font-family="sans-serif" font-size="14" lengthAdjust="spacing" textLength="141" x="939" y="756.8379">AnswerVerifierAdapter</text><line style="stroke:#181818;stroke-width:0.5;" x1="911" x2="1082" y1="767.1094" y2="767.1094"/><line style="stroke:#181818;stroke-width:0.5;" x1="911" x2="1082" y1="775.1094" y2="775.1094"/></g><!--MD5=[432a1ba3949e60a35a8c32697568e2ff]
class AnswerVerifierLexer--><g id="elem_AnswerVerifierLexer"><rect fill="#F1F1F1" height="48" id="AnswerVerifierLexer" rx="2.5" ry="2.5" style="stroke:#181818;stroke-width:0.5;" width="158" x="1118.5" y="735.1094"/><ellipse cx="1133.5" cy="751.1094" fill="#ADD1B2" rx="11" ry="11" style="stroke:#181818;stroke-width:1.0;"/><path d="M1135.5,747.6094 Q1135.7031,747.1094 1135.9375,746.8594 Q1136.1719,746.6094 1136.4375,746.6094 Q1136.9063,746.6094 1137.2031,746.8906 Q1137.5,747.1719 1137.5,747.8281 L1137.5,749.3906 Q1137.5,750.0469 1137.2188,750.3281 Q1136.9375,750.6094 1136.5,750.6094 Q1136.1094,750.6094 1135.8594,750.4375 Q1135.6094,750.2656 1135.5,749.8125 Q1135.4531,749.5 1135.2813,749.3281 Q1134.9688,749 1134.4063,748.8125 Q1133.8438,748.6094 1133.2813,748.6094 Q1132.5781,748.6094 1131.9844,748.8906 Q1131.4063,749.1719 1130.9531,749.7969 Q1130.5,750.4219 1130.5,751.2813 L1130.5,752.2031 Q1130.5,753.2344 1131.3438,753.9219 Q1132.1875,754.6094 1133.6875,754.6094 Q1134.5781,754.6094 1135.2031,754.4063 Q1135.5625,754.2969 1135.9688,753.9375 Q1136.2344,753.7344 1136.375,753.6719 Q1136.5156,753.6094 1136.6875,753.6094 Q1137.0156,753.6094 1137.25,753.875 Q1137.5,754.125 1137.5,754.4844 Q1137.5,754.8281 1137.1563,755.2344 Q1136.6563,755.8281 1135.8594,756.1563 Q1134.8125,756.6094 1133.5313,756.6094 Q1132.0313,756.6094 1130.8281,756.0156 Q1129.8594,755.5469 1129.1719,754.5313 Q1128.5,753.5156 1128.5,752.3125 L1128.5,751.2188 Q1128.5,749.9688 1129.0938,748.875 Q1129.7031,747.7813 1130.75,747.2031 Q1131.8125,746.6094 1133,746.6094 Q1133.7188,746.6094 1134.3438,746.8594 Q1134.9688,747.1094 1135.5,747.6094 Z " fill="#000000"/><text fill="#000000" font-family="sans-serif" font-size="14" lengthAdjust="spacing" textLength="126" x="1147.5" y="756.8379">AnswerVerifierLexer</text><line style="stroke:#181818;stroke-width:0.5;" x1="1119.5" x2="1275.5" y1="767.1094" y2="767.1094"/><line style="stroke:#181818;stroke-width:0.5;" x1="1119.5" x2="1275.5" y1="775.1094" y2="775.1094"/></g><!--MD5=[9b96aae770ed540bfac1cb9206870cc6]
class AnswerVerifierParser--><g id="elem_AnswerVerifierParser"><rect fill="#F1F1F1" height="48" id="AnswerVerifierParser" rx="2.5" ry="2.5" style="stroke:#181818;stroke-width:0.5;" width="165" x="1312" y="735.1094"/><ellipse cx="1327" cy="751.1094" fill="#ADD1B2" rx="11" ry="11" style="stroke:#181818;stroke-width:1.0;"/><path d="M1329,747.6094 Q1329.2031,747.1094 1329.4375,746.8594 Q1329.6719,746.6094 1329.9375,746.6094 Q1330.4063,746.6094 1330.7031,746.8906 Q1331,747.1719 1331,747.8281 L1331,749.3906 Q1331,750.0469 1330.7188,750.3281 Q1330.4375,750.6094 1330,750.6094 Q1329.6094,750.6094 1329.3594,750.4375 Q1329.1094,750.2656 1329,749.8125 Q1328.9531,749.5 1328.7813,749.3281 Q1328.4688,749 1327.9063,748.8125 Q1327.3438,748.6094 1326.7813,748.6094 Q1326.0781,748.6094 1325.4844,748.8906 Q1324.9063,749.1719 1324.4531,749.7969 Q1324,750.4219 1324,751.2813 L1324,752.2031 Q1324,753.2344 1324.8438,753.9219 Q1325.6875,754.6094 1327.1875,754.6094 Q1328.0781,754.6094 1328.7031,754.4063 Q1329.0625,754.2969 1329.4688,753.9375 Q1329.7344,753.7344 1329.875,753.6719 Q1330.0156,753.6094 1330.1875,753.6094 Q1330.5156,753.6094 1330.75,753.875 Q1331,754.125 1331,754.4844 Q1331,754.8281 1330.6563,755.2344 Q1330.1563,755.8281 1329.3594,756.1563 Q1328.3125,756.6094 1327.0313,756.6094 Q1325.5313,756.6094 1324.3281,756.0156 Q1323.3594,755.5469 1322.6719,754.5313 Q1322,753.5156 1322,752.3125 L1322,751.2188 Q1322,749.9688 1322.5938,748.875 Q1323.2031,747.7813 1324.25,747.2031 Q1325.3125,746.6094 1326.5,746.6094 Q1327.2188,746.6094 1327.8438,746.8594 Q1328.4688,747.1094 1329,747.6094 Z " fill="#000000"/><text fill="#000000" font-family="sans-serif" font-size="14" lengthAdjust="spacing" textLength="133" x="1341" y="756.8379">AnswerVerifierParser</text><line style="stroke:#181818;stroke-width:0.5;" x1="1313" x2="1476" y1="767.1094" y2="767.1094"/><line style="stroke:#181818;stroke-width:0.5;" x1="1313" x2="1476" y1="775.1094" y2="775.1094"/></g><!--MD5=[07797895e4ade016f2def1d824f0fbfb]
class AnswerVerifierBaseVisitor--><g id="elem_AnswerVerifierBaseVisitor"><rect fill="#F1F1F1" height="48" id="AnswerVerifierBaseVisitor" rx="2.5" ry="2.5" style="stroke:#181818;stroke-width:0.5;" width="194" x="925.5" y="938.1094"/><ellipse cx="940.5" cy="954.1094" fill="#ADD1B2" rx="11" ry="11" style="stroke:#181818;stroke-width:1.0;"/><path d="M942.5,950.6094 Q942.7031,950.1094 942.9375,949.8594 Q943.1719,949.6094 943.4375,949.6094 Q943.9063,949.6094 944.2031,949.8906 Q944.5,950.1719 944.5,950.8281 L944.5,952.3906 Q944.5,953.0469 944.2188,953.3281 Q943.9375,953.6094 943.5,953.6094 Q943.1094,953.6094 942.8594,953.4375 Q942.6094,953.2656 942.5,952.8125 Q942.4531,952.5 942.2813,952.3281 Q941.9688,952 941.4063,951.8125 Q940.8438,951.6094 940.2813,951.6094 Q939.5781,951.6094 938.9844,951.8906 Q938.4063,952.1719 937.9531,952.7969 Q937.5,953.4219 937.5,954.2813 L937.5,955.2031 Q937.5,956.2344 938.3438,956.9219 Q939.1875,957.6094 940.6875,957.6094 Q941.5781,957.6094 942.2031,957.4063 Q942.5625,957.2969 942.9688,956.9375 Q943.2344,956.7344 943.375,956.6719 Q943.5156,956.6094 943.6875,956.6094 Q944.0156,956.6094 944.25,956.875 Q944.5,957.125 944.5,957.4844 Q944.5,957.8281 944.1563,958.2344 Q943.6563,958.8281 942.8594,959.1563 Q941.8125,959.6094 940.5313,959.6094 Q939.0313,959.6094 937.8281,959.0156 Q936.8594,958.5469 936.1719,957.5313 Q935.5,956.5156 935.5,955.3125 L935.5,954.2188 Q935.5,952.9688 936.0938,951.875 Q936.7031,950.7813 937.75,950.2031 Q938.8125,949.6094 940,949.6094 Q940.7188,949.6094 941.3438,949.8594 Q941.9688,950.1094 942.5,950.6094 Z " fill="#000000"/><text fill="#000000" font-family="sans-serif" font-size="14" lengthAdjust="spacing" textLength="162" x="954.5" y="959.8379">AnswerVerifierBaseVisitor</text><line style="stroke:#181818;stroke-width:0.5;" x1="926.5" x2="1118.5" y1="970.1094" y2="970.1094"/><line style="stroke:#181818;stroke-width:0.5;" x1="926.5" x2="1118.5" y1="978.1094" y2="978.1094"/></g><!--MD5=[98d0d3518dafd8a843cd1797a51621f4]
link AnswerSurveyUI to AnswerSurveyController--><g id="link_AnswerSurveyUI_AnswerSurveyController"><path codeLine="113" d="M559.5,93.6194 C559.5,108.1994 559.5,128.0594 559.5,148.3394 " fill="none" id="AnswerSurveyUI-to-AnswerSurveyController" style="stroke:#181818;stroke-width:1.0;"/><polygon fill="#181818" points="559.5,153.4994,563.5,144.4994,559.5,148.4994,555.5,144.4994,559.5,153.4994" style="stroke:#181818;stroke-width:1.0;"/></g><!--MD5=[843d8d18f836edff553eeb1477138713]
link AnswerSurveyController to PersistenceContext--><g id="link_AnswerSurveyController_PersistenceContext"><path codeLine="115" d="M631.88,320.7594 C669.33,363.5294 713.48,413.9394 744.07,448.8694 " fill="none" id="AnswerSurveyController-to-PersistenceContext" style="stroke:#181818;stroke-width:1.0;stroke-dasharray:7.0,7.0;"/><polygon fill="#181818" points="747.73,453.0494,744.8163,443.6414,744.4385,449.2856,738.7943,448.9078,747.73,453.0494" style="stroke:#181818;stroke-width:1.0;"/></g><!--MD5=[d7e19784770c86ff840940027fed66bc]
link AnswerSurveyController to Customer--><g id="link_AnswerSurveyController_Customer"><path codeLine="116" d="M445.82,286.0294 C397.59,309.8894 342.86,341.9494 300.5,380.6094 C287.31,392.6494 275.29,407.4494 264.91,422.2794 " fill="none" id="AnswerSurveyController-to-Customer" style="stroke:#181818;stroke-width:1.0;stroke-dasharray:7.0,7.0;"/><polygon fill="#181818" points="262.03,426.4594,270.4249,421.3091,264.8626,422.3392,263.8326,416.7769,262.03,426.4594" style="stroke:#181818;stroke-width:1.0;"/></g><!--MD5=[207d9a9168a6f64f30a3a12e74eec88b]
link AnswerSurveyController to Survey--><g id="link_AnswerSurveyController_Survey"><path codeLine="117" d="M493.3,320.9694 C478.3,340.3294 462.63,361.0294 448.5,380.6094 C434.77,399.6394 420.31,420.9994 407.86,439.8594 " fill="none" id="AnswerSurveyController-to-Survey" style="stroke:#181818;stroke-width:1.0;stroke-dasharray:7.0,7.0;"/><polygon fill="#181818" points="405.07,444.0994,413.3569,438.777,407.817,439.9216,406.6724,434.3818,405.07,444.0994" style="stroke:#181818;stroke-width:1.0;"/></g><!--MD5=[6a7d6027dc48aaa77bbc910f537737dc]
link AnswerSurveyController to AnswerBuilder--><g id="link_AnswerSurveyController_AnswerBuilder"><path codeLine="118" d="M559.5,320.7594 C559.5,338.1994 559.5,356.8994 559.5,375.3094 " fill="none" id="AnswerSurveyController-to-AnswerBuilder" style="stroke:#181818;stroke-width:1.0;stroke-dasharray:7.0,7.0;"/><polygon fill="#181818" points="559.5,380.4894,563.5,371.4894,559.5,375.4894,555.5,371.4894,559.5,380.4894" style="stroke:#181818;stroke-width:1.0;"/></g><!--MD5=[9f427e464b230ae6000890d56b5028cc]
link AnswerSurveyController to AnswerValidator--><g id="link_AnswerSurveyController_AnswerValidator"><path codeLine="119" d="M673.24,312.0294 C679.01,315.0494 684.78,317.9294 690.5,320.6094 C768.79,357.2594 800.31,337.9594 875.5,380.6094 C907.78,398.9194 939.22,426.2994 962.74,449.2794 " fill="none" id="AnswerSurveyController-to-AnswerValidator" style="stroke:#181818;stroke-width:1.0;stroke-dasharray:7.0,7.0;"/><polygon fill="#181818" points="966.45,452.9294,962.8402,443.7659,962.886,449.4226,957.2293,449.4684,966.45,452.9294" style="stroke:#181818;stroke-width:1.0;"/></g><!--MD5=[754b775031405e096442b27febffa290]
link PersistenceContext to RepositoryFactory--><g id="link_PersistenceContext_RepositoryFactory"><path codeLine="121" d="M782.53,532.3494 C783.81,580.7694 785.99,663.4194 787.34,714.1494 " fill="none" id="PersistenceContext-to-RepositoryFactory" style="stroke:#181818;stroke-width:1.0;stroke-dasharray:7.0,7.0;"/><polygon fill="#181818" points="787.47,719.2594,791.2373,710.1595,787.3415,714.261,783.24,710.3652,787.47,719.2594" style="stroke:#181818;stroke-width:1.0;"/></g><!--MD5=[b2261c22df95718c10e32de77a70473c]
link RepositoryFactory to SurveyRepository--><g id="link_RepositoryFactory_SurveyRepository"><path codeLine="123" d="M783.49,798.8594 C779.1,832.7894 772.73,882.0394 768.16,917.3694 " fill="none" id="RepositoryFactory-to-SurveyRepository" style="stroke:#181818;stroke-width:1.0;stroke-dasharray:7.0,7.0;"/><polygon fill="#181818" points="767.5,922.4694,772.6242,914.0585,768.143,917.5109,764.6907,913.0297,767.5,922.4694" style="stroke:#181818;stroke-width:1.0;"/></g><!--MD5=[7dee0af83522f01292b78abb082edacc]
link AnswerValidator to AnswerVerifierAdapter--><g id="link_AnswerValidator_AnswerVerifierAdapter"><path codeLine="125" d="M1001.62,532.3494 C1000.4,586.0994 998.23,682.0294 997.15,729.6594 " fill="none" id="AnswerValidator-to-AnswerVerifierAdapter" style="stroke:#181818;stroke-width:1.0;stroke-dasharray:7.0,7.0;"/><polygon fill="#181818" points="997.03,734.9494,1001.2346,726.0431,997.1443,729.9507,993.2367,725.8603,997.03,734.9494" style="stroke:#181818;stroke-width:1.0;"/></g><!--MD5=[a44b97cc493f71968eb364f68fab7432]
link AnswerValidator to AnswerVerifierLexer--><g id="link_AnswerValidator_AnswerVerifierLexer"><path codeLine="126" d="M1031.06,532.3494 C1071.01,586.5394 1142.56,683.5894 1177.37,730.8094 " fill="none" id="AnswerValidator-to-AnswerVerifierLexer" style="stroke:#181818;stroke-width:1.0;stroke-dasharray:7.0,7.0;"/><polygon fill="#181818" points="1180.42,734.9494,1178.2968,725.3321,1177.4521,730.9255,1171.8586,730.0808,1180.42,734.9494" style="stroke:#181818;stroke-width:1.0;"/></g><!--MD5=[b7cf03faaca0e3f3515c51c8dc22deb2]
link AnswerValidator to AnswerVerifierParser--><g id="link_AnswerValidator_AnswerVerifierParser"><path codeLine="127" d="M1078.58,532.1294 C1139.27,564.2594 1225.27,612.9794 1294.5,664.6094 C1321.65,684.8594 1349.56,711.5394 1368.97,731.2094 " fill="none" id="AnswerValidator-to-AnswerVerifierParser" style="stroke:#181818;stroke-width:1.0;stroke-dasharray:7.0,7.0;"/><polygon fill="#181818" points="1372.74,735.0494,1369.279,725.8287,1369.2332,731.4853,1363.5765,731.4395,1372.74,735.0494" style="stroke:#181818;stroke-width:1.0;"/></g><!--MD5=[78473881c67f03920653428991797c1d]
link AnswerVerifierAdapter to AnswerVerifierBaseVisitor--><g id="link_AnswerVerifierAdapter_AnswerVerifierBaseVisitor"><path codeLine="129" d="M999.48,783.1694 C1004.27,820.1694 1013.65,892.7294 1018.84,932.8194 " fill="none" id="AnswerVerifierAdapter-to-AnswerVerifierBaseVisitor" style="stroke:#181818;stroke-width:1.0;stroke-dasharray:7.0,7.0;"/><polygon fill="#181818" points="1019.51,938.0094,1022.3193,928.5697,1018.867,933.0509,1014.3858,929.5985,1019.51,938.0094" style="stroke:#181818;stroke-width:1.0;"/></g><!--MD5=[f0882eb6fdd2924eb86e87a1f643aeff]
link AnswerBuilder to Answer--><g id="link_AnswerBuilder_Answer"><path codeLine="131" d="M555.72,604.6294 C555.1,622.8494 554.46,641.6294 553.85,659.5194 " fill="none" id="AnswerBuilder-to-Answer" style="stroke:#181818;stroke-width:1.0;stroke-dasharray:7.0,7.0;"/><polygon fill="#181818" points="553.68,664.5394,557.9869,655.6821,553.8518,659.5423,549.9916,655.4072,553.68,664.5394" style="stroke:#181818;stroke-width:1.0;"/></g><!--MD5=[c4fc62c77a23cb95f5f7a53b7ddeb930]
link Survey to Questionnaire--><g id="link_Survey_Questionnaire"><path codeLine="133" d="M365.86,541.1994 C357.48,587.4094 344.78,657.4094 336.08,705.3094 " fill="none" id="Survey-to-Questionnaire" style="stroke:#181818;stroke-width:1.0;"/><polygon fill="#181818" points="335.15,710.4494,340.7059,702.3172,336.0507,705.5312,332.8367,700.876,335.15,710.4494" style="stroke:#181818;stroke-width:1.0;"/></g><!--MD5=[3da50156e7717b39021783dfd0973443]
link Questionnaire to Section--><g id="link_Questionnaire_Section"><path codeLine="134" d="M326.5,807.7394 C326.5,837.9194 326.5,876.9894 326.5,908.1494 " fill="none" id="Questionnaire-to-Section" style="stroke:#181818;stroke-width:1.0;"/><polygon fill="#181818" points="326.5,913.4694,330.5,904.4694,326.5,908.4694,322.5,904.4694,326.5,913.4694" style="stroke:#181818;stroke-width:1.0;"/></g><!--MD5=[87fa8ff7d398728728a611d860795352]
link Section to Question--><g id="link_Section_Question"><path codeLine="135" d="M313.23,1010.7394 C308.64,1027.2294 303.31,1046.3594 298,1065.4094 " fill="none" id="Section-to-Question" style="stroke:#181818;stroke-width:1.0;"/><polygon fill="#181818" points="296.65,1070.2394,302.921,1062.645,297.9934,1065.4232,295.2152,1060.4956,296.65,1070.2394" style="stroke:#181818;stroke-width:1.0;"/></g><!--MD5=[5cdb98ab5092f89550e36d3e1e1f4842]
link Section to Obligatoriness--><g id="link_Section_Obligatoriness"><path codeLine="136" d="M336.23,1010.8694 C339.79,1029.4594 343.65,1050.9794 346.5,1070.6094 C361.19,1171.6694 372.3,1290.3394 378.07,1358.1294 " fill="none" id="Section-to-Obligatoriness" style="stroke:#181818;stroke-width:1.0;stroke-dasharray:7.0,7.0;"/><polygon fill="#181818" points="378.51,1363.3294,381.7488,1354.0283,378.0948,1358.3466,373.7764,1354.6926,378.51,1363.3294" style="stroke:#181818;stroke-width:1.0;"/></g><!--MD5=[1dff6a6e6893a019126d102b73351de4]
link Question to QuestionType--><g id="link_Question_QuestionType"><path codeLine="138" d="M223.44,1259.8394 C214.41,1277.8294 204.93,1296.7194 195.83,1314.8494 " fill="none" id="Question-to-QuestionType" style="stroke:#181818;stroke-width:1.0;stroke-dasharray:7.0,7.0;"/><polygon fill="#181818" points="193.52,1319.4394,201.1306,1313.1881,195.7618,1314.9701,193.9798,1309.6013,193.52,1319.4394" style="stroke:#181818;stroke-width:1.0;"/></g><!--MD5=[c854ca08d1f19f359862882e694a98e5]
link Question to Obligatoriness--><g id="link_Question_Obligatoriness"><path codeLine="139" d="M313,1259.8394 C328.16,1293.2594 344.71,1329.7794 357.87,1358.7794 " fill="none" id="Question-to-Obligatoriness" style="stroke:#181818;stroke-width:1.0;stroke-dasharray:7.0,7.0;"/><polygon fill="#181818" points="359.95,1363.3694,359.8672,1353.5209,357.881,1358.8175,352.5843,1356.8313,359.95,1363.3694" style="stroke:#181818;stroke-width:1.0;"/></g><!--MD5=[929a4a9aa38598c9359de62d96e592a2]
@startuml
title Answer Survey Class Diagram

class AnswerSurveyUI

class AnswerSurveyController{
- -Methods- -
+ getAvailableSurveys(username)
+ getSections(surveyId)
+ getQuestions(sectionId)
+ exportSurvey(surveyId)
+ answerSurvey(directory)
+ cancelOperation()
}
note right: Diagram won't show Mappers and DTOs\nfor simplicity sake.
class Customer{
..Attributes..
- id
- username
- email
- phoneNumber
}

class Survey{
..Attributes..
- id
- questionnaire
}

class Questionnaire{
..Attributes..
- id
- sections
}

class Section{
..Attributes..
- id
- questions
}

class Question{
..Attributes..
- id
- text
- obligatoriness
- -Methods- -
+ isMandatory()
+ isOptional()
+ isConditional()
}

enum QuestionType{
 FREE_TEXT
    NUMERIC
    SINGLE_CHOICE
    SINGLE_CHOICE_WITH_INPUT_VALUE
    MULTIPLE_CHOICE
    MULTIPLE_CHOICE_WITH_INPUT_VALUE
    SORTING
    SCALING
}

enum Obligatoriness{
    MANDATORY
    OPTIONAL
    CONDITIONAL
}

class Answer{
..Attributes..
- question
- section
- survey
- text
- -Methods- -
+Answer(survey,section,question,text)
+ toString()
}

class AnswerBuilder{
..Attributes..
- username
- survey
- section
- question
- -Methods- -
+ withUsername(username)
+ withSurvey(survey)
+ withSection(section)
+ withQuestion(question)
}

class PersistenceContext{
- -Methods- -
+ repositories()
}

class RepositoryFactory{
- -Methods- -
+ surveys()
}

class SurveyRepository{
- -Methods- -
+ findSurveysForCustomer(username)
}

class AnswerValidator{
- -Methods- -
+ validateSurveyAnswers(text)
}

AnswerSurveyUI - -> AnswerSurveyController

AnswerSurveyController ..> PersistenceContext
AnswerSurveyController ..> Customer
AnswerSurveyController ..> Survey
AnswerSurveyController ..> AnswerBuilder
AnswerSurveyController ..> AnswerValidator

PersistenceContext ..> RepositoryFactory

RepositoryFactory ..> SurveyRepository

AnswerValidator ..> AnswerVerifierAdapter
AnswerValidator ..> AnswerVerifierLexer
AnswerValidator ..> AnswerVerifierParser

AnswerVerifierAdapter ..> AnswerVerifierBaseVisitor

AnswerBuilder ..> Answer

Survey - -> Questionnaire
Questionnaire - -> Section
Section - -> Question
Section ..> Obligatoriness

Question ..> QuestionType
Question ..> Obligatoriness

@enduml

PlantUML version 1.2022.4(Sat Apr 09 14:29:17 BST 2022)
(GPL source distribution)
Java Runtime: OpenJDK Runtime Environment
JVM: OpenJDK 64-Bit Server VM
Default Encoding: Cp1252
Language: pt
Country: PT
--></g></svg>