<?xml version="1.0" encoding="UTF-8" standalone="no"?><svg xmlns="http://www.w3.org/2000/svg" xmlns:xlink="http://www.w3.org/1999/xlink" contentScriptType="application/ecmascript" contentStyleType="text/css" height="437.7px" preserveAspectRatio="none" style="width:887px;height:437px;background:#FFFFFF;" version="1.1" viewBox="0 0 887 437" width="887.1px" zoomAndPan="magnify"><defs><filter height="300%" id="f1d8ofirrhbf1" width="300%" x="-1" y="-1"><feGaussianBlur result="blurOut" stdDeviation="0.6"/><feColorMatrix in="blurOut" result="blurOut2" type="matrix" values="0 0 0 0 0 0 0 0 0 0 0 0 0 0 0 0 0 0 .4 0"/><feOffset dx="1.2" dy="1.2" in="blurOut2" result="blurOut3"/><feBlend in="SourceGraphic" in2="blurOut3" mode="normal"/></filter></defs><g><text fill="#000000" font-family="sans-serif" font-size="5.4" lengthAdjust="spacing" textLength="373.2" x="256.275" y="9.2057">SD - Access the list of orders that have already been prepared by the AGVs and update any of those orders as having been dispatched for customer delivery</text><rect fill="#FFFFFF" filter="url(#f1d8ofirrhbf1)" height="380.9859" style="stroke:#A80036;stroke-width:0.3;" width="3" x="195.15" y="38.0859"/><rect fill="#FFFFFF" filter="url(#f1d8ofirrhbf1)" height="362.775" style="stroke:#A80036;stroke-width:0.3;" width="3" x="287.25" y="47.1914"/><rect fill="#FFFFFF" filter="url(#f1d8ofirrhbf1)" height="9" style="stroke:#A80036;stroke-width:0.3;" width="3" x="347.25" y="56.2969"/><rect fill="#FFFFFF" filter="url(#f1d8ofirrhbf1)" height="9" style="stroke:#A80036;stroke-width:0.3;" width="3" x="347.25" y="146.8406"/><rect fill="#FFFFFF" filter="url(#f1d8ofirrhbf1)" height="18.2109" style="stroke:#A80036;stroke-width:0.3;" width="3" x="407.85" y="74.4023"/><rect fill="#FFFFFF" filter="url(#f1d8ofirrhbf1)" height="9.1055" style="stroke:#A80036;stroke-width:0.3;" width="3" x="456.45" y="83.5078"/><rect fill="#FFFFFF" filter="url(#f1d8ofirrhbf1)" height="18.1055" style="stroke:#A80036;stroke-width:0.3;" width="3" x="490.65" y="164.9461"/><rect fill="#FFFFFF" filter="url(#f1d8ofirrhbf1)" height="9" style="stroke:#A80036;stroke-width:0.3;" width="3" x="527.85" y="174.0516"/><rect fill="#FFFFFF" filter="url(#f1d8ofirrhbf1)" height="18.2109" style="stroke:#A80036;stroke-width:0.3;" width="3" x="582.3" y="192.157"/><rect fill="#FFFFFF" filter="url(#f1d8ofirrhbf1)" height="18.2109" style="stroke:#A80036;stroke-width:0.3;" width="3" x="582.3" y="391.7555"/><rect fill="#FFFFFF" filter="url(#f1d8ofirrhbf1)" height="9.1055" style="stroke:#A80036;stroke-width:0.3;" width="3" x="636.6" y="201.2625"/><rect fill="#FFFFFF" filter="url(#f1d8ofirrhbf1)" height="9.1055" style="stroke:#A80036;stroke-width:0.3;" width="3" x="636.6" y="400.8609"/><rect fill="#FFFFFF" filter="url(#f1d8ofirrhbf1)" height="18.2109" style="stroke:#A80036;stroke-width:0.3;" width="3" x="684.15" y="273.7008"/><rect fill="#FFFFFF" filter="url(#f1d8ofirrhbf1)" height="9.1055" style="stroke:#A80036;stroke-width:0.3;" width="3" x="729.45" y="282.8063"/><rect fill="#FFFFFF" filter="url(#f1d8ofirrhbf1)" height="18.2109" style="stroke:#A80036;stroke-width:0.3;" width="3" x="729.45" y="301.0172"/><rect fill="#FFFFFF" filter="url(#f1d8ofirrhbf1)" height="9.1055" style="stroke:#A80036;stroke-width:0.3;" width="3" x="787.5" y="310.1227"/><rect fill="#FFFFFF" filter="url(#f1d8ofirrhbf1)" height="9" style="stroke:#A80036;stroke-width:0.3;" width="3" x="787.5" y="328.3336"/><rect fill="#FFFFFF" filter="url(#f1d8ofirrhbf1)" height="9" style="stroke:#A80036;stroke-width:0.3;" width="3" x="787.5" y="373.65"/><rect fill="#FFFFFF" filter="url(#f1d8ofirrhbf1)" height="9" style="stroke:#A80036;stroke-width:0.3;" width="3" x="853.8" y="346.4391"/><rect fill="#FFFFFF" filter="url(#f1d8ofirrhbf1)" height="31.8164" style="stroke:#000000;stroke-width:0.6;" width="239.25" x="3" y="97.1133"/><rect fill="#FFFFFF" filter="url(#f1d8ofirrhbf1)" height="31.8164" style="stroke:#000000;stroke-width:0.6;" width="223.95" x="3" y="223.9734"/><line style="stroke:#A80036;stroke-width:0.3;stroke-dasharray:5.0,5.0;" x1="28.8" x2="28.8" y1="23.475" y2="424.4719"/><line style="stroke:#A80036;stroke-width:0.3;stroke-dasharray:5.0,5.0;" x1="196.65" x2="196.65" y1="23.475" y2="424.4719"/><line style="stroke:#A80036;stroke-width:0.3;stroke-dasharray:5.0,5.0;" x1="288.75" x2="288.75" y1="23.475" y2="424.4719"/><line style="stroke:#A80036;stroke-width:0.3;stroke-dasharray:5.0,5.0;" x1="348.75" x2="348.75" y1="23.475" y2="424.4719"/><line style="stroke:#A80036;stroke-width:0.3;stroke-dasharray:5.0,5.0;" x1="409.35" x2="409.35" y1="23.475" y2="424.4719"/><line style="stroke:#A80036;stroke-width:0.3;stroke-dasharray:5.0,5.0;" x1="457.95" x2="457.95" y1="23.475" y2="424.4719"/><line style="stroke:#A80036;stroke-width:0.3;stroke-dasharray:5.0,5.0;" x1="492.15" x2="492.15" y1="23.475" y2="424.4719"/><line style="stroke:#A80036;stroke-width:0.3;stroke-dasharray:5.0,5.0;" x1="529.35" x2="529.35" y1="23.475" y2="424.4719"/><line style="stroke:#A80036;stroke-width:0.3;stroke-dasharray:5.0,5.0;" x1="583.65" x2="583.65" y1="23.475" y2="424.4719"/><line style="stroke:#A80036;stroke-width:0.3;stroke-dasharray:5.0,5.0;" x1="637.95" x2="637.95" y1="23.475" y2="424.4719"/><line style="stroke:#A80036;stroke-width:0.3;stroke-dasharray:5.0,5.0;" x1="685.65" x2="685.65" y1="23.475" y2="424.4719"/><line style="stroke:#A80036;stroke-width:0.3;stroke-dasharray:5.0,5.0;" x1="730.95" x2="730.95" y1="23.475" y2="424.4719"/><line style="stroke:#A80036;stroke-width:0.3;stroke-dasharray:5.0,5.0;" x1="788.85" x2="788.85" y1="23.475" y2="424.4719"/><line style="stroke:#A80036;stroke-width:0.3;stroke-dasharray:5.0,5.0;" x1="855.15" x2="855.15" y1="23.475" y2="424.4719"/><rect fill="#FEFECE" filter="url(#f1d8ofirrhbf1)" height="9.4828" style="stroke:#A80036;stroke-width:0.44999999999999996;" width="44.7" x="6" y="12.4922"/><text fill="#000000" font-family="sans-serif" font-size="4.2" lengthAdjust="spacing" textLength="40.5" x="8.1" y="18.9521">WarehouseEmployee</text><rect fill="#FEFECE" filter="url(#f1d8ofirrhbf1)" height="9.4828" style="stroke:#A80036;stroke-width:0.44999999999999996;" width="44.7" x="6" y="424.1719"/><text fill="#000000" font-family="sans-serif" font-size="4.2" lengthAdjust="spacing" textLength="40.5" x="8.1" y="430.6318">WarehouseEmployee</text><rect fill="#FEFECE" filter="url(#f1d8ofirrhbf1)" height="9.4828" style="stroke:#A80036;stroke-width:0.44999999999999996;" width="33.6" x="179.25" y="12.4922"/><text fill="#000000" font-family="sans-serif" font-size="4.2" lengthAdjust="spacing" textLength="29.4" x="181.35" y="18.9521">:UpdateOrderUI</text><rect fill="#FEFECE" filter="url(#f1d8ofirrhbf1)" height="9.4828" style="stroke:#A80036;stroke-width:0.44999999999999996;" width="33.6" x="179.25" y="424.1719"/><text fill="#000000" font-family="sans-serif" font-size="4.2" lengthAdjust="spacing" textLength="29.4" x="181.35" y="430.6318">:UpdateOrderUI</text><rect fill="#FEFECE" filter="url(#f1d8ofirrhbf1)" height="9.4828" style="stroke:#A80036;stroke-width:0.44999999999999996;" width="48.6" x="263.85" y="12.4922"/><text fill="#000000" font-family="sans-serif" font-size="4.2" lengthAdjust="spacing" textLength="44.4" x="265.95" y="18.9521">:UpdateOrderController</text><rect fill="#FEFECE" filter="url(#f1d8ofirrhbf1)" height="9.4828" style="stroke:#A80036;stroke-width:0.44999999999999996;" width="48.6" x="263.85" y="424.1719"/><text fill="#000000" font-family="sans-serif" font-size="4.2" lengthAdjust="spacing" textLength="44.4" x="265.95" y="430.6318">:UpdateOrderController</text><rect fill="#FEFECE" filter="url(#f1d8ofirrhbf1)" height="9.4828" style="stroke:#A80036;stroke-width:0.44999999999999996;" width="63" x="316.65" y="12.4922"/><text fill="#000000" font-family="sans-serif" font-size="4.2" lengthAdjust="spacing" textLength="58.8" x="318.75" y="18.9521">:agvRepository:AGVRepository</text><rect fill="#FEFECE" filter="url(#f1d8ofirrhbf1)" height="9.4828" style="stroke:#A80036;stroke-width:0.44999999999999996;" width="63" x="316.65" y="424.1719"/><text fill="#000000" font-family="sans-serif" font-size="4.2" lengthAdjust="spacing" textLength="58.8" x="318.75" y="430.6318">:agvRepository:AGVRepository</text><rect fill="#FEFECE" filter="url(#f1d8ofirrhbf1)" height="9.4828" style="stroke:#A80036;stroke-width:0.44999999999999996;" width="49.8" x="383.85" y="12.4922"/><text fill="#000000" font-family="sans-serif" font-size="4.2" lengthAdjust="spacing" textLength="45.6" x="385.95" y="18.9521">agvMapper:AGVMapper</text><rect fill="#FEFECE" filter="url(#f1d8ofirrhbf1)" height="9.4828" style="stroke:#A80036;stroke-width:0.44999999999999996;" width="49.8" x="383.85" y="424.1719"/><text fill="#000000" font-family="sans-serif" font-size="4.2" lengthAdjust="spacing" textLength="45.6" x="385.95" y="430.6318">agvMapper:AGVMapper</text><rect fill="#FEFECE" filter="url(#f1d8ofirrhbf1)" height="9.4828" style="stroke:#A80036;stroke-width:0.44999999999999996;" width="39" x="437.85" y="12.4922"/><text fill="#000000" font-family="sans-serif" font-size="4.2" lengthAdjust="spacing" textLength="34.8" x="439.95" y="18.9521">agvDTO:AGVDTO</text><rect fill="#FEFECE" filter="url(#f1d8ofirrhbf1)" height="9.4828" style="stroke:#A80036;stroke-width:0.44999999999999996;" width="39" x="437.85" y="424.1719"/><text fill="#000000" font-family="sans-serif" font-size="4.2" lengthAdjust="spacing" textLength="34.8" x="439.95" y="430.6318">agvDTO:AGVDTO</text><rect fill="#FEFECE" filter="url(#f1d8ofirrhbf1)" height="9.4828" style="stroke:#A80036;stroke-width:0.44999999999999996;" width="21" x="481.05" y="12.4922"/><text fill="#000000" font-family="sans-serif" font-size="4.2" lengthAdjust="spacing" textLength="16.8" x="483.15" y="18.9521">agv:AGV</text><rect fill="#FEFECE" filter="url(#f1d8ofirrhbf1)" height="9.4828" style="stroke:#A80036;stroke-width:0.44999999999999996;" width="21" x="481.05" y="424.1719"/><text fill="#000000" font-family="sans-serif" font-size="4.2" lengthAdjust="spacing" textLength="16.8" x="483.15" y="430.6318">agv:AGV</text><rect fill="#FEFECE" filter="url(#f1d8ofirrhbf1)" height="9.4828" style="stroke:#A80036;stroke-width:0.44999999999999996;" width="45" x="506.25" y="12.4922"/><text fill="#000000" font-family="sans-serif" font-size="4.2" lengthAdjust="spacing" textLength="40.8" x="508.35" y="18.9521">agvStatus:AGVStatus</text><rect fill="#FEFECE" filter="url(#f1d8ofirrhbf1)" height="9.4828" style="stroke:#A80036;stroke-width:0.44999999999999996;" width="45" x="506.25" y="424.1719"/><text fill="#000000" font-family="sans-serif" font-size="4.2" lengthAdjust="spacing" textLength="40.8" x="508.35" y="430.6318">agvStatus:AGVStatus</text><rect fill="#FEFECE" filter="url(#f1d8ofirrhbf1)" height="9.4828" style="stroke:#A80036;stroke-width:0.44999999999999996;" width="55.5" x="555.45" y="12.4922"/><text fill="#000000" font-family="sans-serif" font-size="4.2" lengthAdjust="spacing" textLength="51.3" x="557.55" y="18.9521">orderMapper:OrderMapper</text><rect fill="#FEFECE" filter="url(#f1d8ofirrhbf1)" height="9.4828" style="stroke:#A80036;stroke-width:0.44999999999999996;" width="55.5" x="555.45" y="424.1719"/><text fill="#000000" font-family="sans-serif" font-size="4.2" lengthAdjust="spacing" textLength="51.3" x="557.55" y="430.6318">orderMapper:OrderMapper</text><rect fill="#FEFECE" filter="url(#f1d8ofirrhbf1)" height="9.4828" style="stroke:#A80036;stroke-width:0.44999999999999996;" width="44.7" x="615.15" y="12.4922"/><text fill="#000000" font-family="sans-serif" font-size="4.2" lengthAdjust="spacing" textLength="40.5" x="617.25" y="18.9521">orderDTO:OrderDTO</text><rect fill="#FEFECE" filter="url(#f1d8ofirrhbf1)" height="9.4828" style="stroke:#A80036;stroke-width:0.44999999999999996;" width="44.7" x="615.15" y="424.1719"/><text fill="#000000" font-family="sans-serif" font-size="4.2" lengthAdjust="spacing" textLength="40.5" x="617.25" y="430.6318">orderDTO:OrderDTO</text><rect fill="#FEFECE" filter="url(#f1d8ofirrhbf1)" height="9.4828" style="stroke:#A80036;stroke-width:0.44999999999999996;" width="42" x="664.05" y="12.4922"/><text fill="#000000" font-family="sans-serif" font-size="4.2" lengthAdjust="spacing" textLength="37.8" x="666.15" y="18.9521">:PersistenceContext</text><rect fill="#FEFECE" filter="url(#f1d8ofirrhbf1)" height="9.4828" style="stroke:#A80036;stroke-width:0.44999999999999996;" width="42" x="664.05" y="424.1719"/><text fill="#000000" font-family="sans-serif" font-size="4.2" lengthAdjust="spacing" textLength="37.8" x="666.15" y="430.6318">:PersistenceContext</text><rect fill="#FEFECE" filter="url(#f1d8ofirrhbf1)" height="9.4828" style="stroke:#A80036;stroke-width:0.44999999999999996;" width="40.2" x="710.25" y="12.4922"/><text fill="#000000" font-family="sans-serif" font-size="4.2" lengthAdjust="spacing" textLength="36" x="712.35" y="18.9521">:RepositoryFactory</text><rect fill="#FEFECE" filter="url(#f1d8ofirrhbf1)" height="9.4828" style="stroke:#A80036;stroke-width:0.44999999999999996;" width="40.2" x="710.25" y="424.1719"/><text fill="#000000" font-family="sans-serif" font-size="4.2" lengthAdjust="spacing" textLength="36" x="712.35" y="430.6318">:RepositoryFactory</text><rect fill="#FEFECE" filter="url(#f1d8ofirrhbf1)" height="9.4828" style="stroke:#A80036;stroke-width:0.44999999999999996;" width="67.5" x="754.65" y="12.4922"/><text fill="#000000" font-family="sans-serif" font-size="4.2" lengthAdjust="spacing" textLength="63.3" x="756.75" y="18.9521">orderRepository:OrderRepository</text><rect fill="#FEFECE" filter="url(#f1d8ofirrhbf1)" height="9.4828" style="stroke:#A80036;stroke-width:0.44999999999999996;" width="67.5" x="754.65" y="424.1719"/><text fill="#000000" font-family="sans-serif" font-size="4.2" lengthAdjust="spacing" textLength="63.3" x="756.75" y="430.6318">orderRepository:OrderRepository</text><rect fill="#FEFECE" filter="url(#f1d8ofirrhbf1)" height="9.4828" style="stroke:#A80036;stroke-width:0.44999999999999996;" width="56.7" x="826.35" y="12.4922"/><text fill="#000000" font-family="sans-serif" font-size="4.2" lengthAdjust="spacing" textLength="52.5" x="828.45" y="18.9521">productOrder:ProductOrder</text><rect fill="#FEFECE" filter="url(#f1d8ofirrhbf1)" height="9.4828" style="stroke:#A80036;stroke-width:0.44999999999999996;" width="56.7" x="826.35" y="424.1719"/><text fill="#000000" font-family="sans-serif" font-size="4.2" lengthAdjust="spacing" textLength="52.5" x="828.45" y="430.6318">productOrder:ProductOrder</text><rect fill="#FFFFFF" filter="url(#f1d8ofirrhbf1)" height="380.9859" style="stroke:#A80036;stroke-width:0.3;" width="3" x="195.15" y="38.0859"/><rect fill="#FFFFFF" filter="url(#f1d8ofirrhbf1)" height="362.775" style="stroke:#A80036;stroke-width:0.3;" width="3" x="287.25" y="47.1914"/><rect fill="#FFFFFF" filter="url(#f1d8ofirrhbf1)" height="9" style="stroke:#A80036;stroke-width:0.3;" width="3" x="347.25" y="56.2969"/><rect fill="#FFFFFF" filter="url(#f1d8ofirrhbf1)" height="9" style="stroke:#A80036;stroke-width:0.3;" width="3" x="347.25" y="146.8406"/><rect fill="#FFFFFF" filter="url(#f1d8ofirrhbf1)" height="18.2109" style="stroke:#A80036;stroke-width:0.3;" width="3" x="407.85" y="74.4023"/><rect fill="#FFFFFF" filter="url(#f1d8ofirrhbf1)" height="9.1055" style="stroke:#A80036;stroke-width:0.3;" width="3" x="456.45" y="83.5078"/><rect fill="#FFFFFF" filter="url(#f1d8ofirrhbf1)" height="18.1055" style="stroke:#A80036;stroke-width:0.3;" width="3" x="490.65" y="164.9461"/><rect fill="#FFFFFF" filter="url(#f1d8ofirrhbf1)" height="9" style="stroke:#A80036;stroke-width:0.3;" width="3" x="527.85" y="174.0516"/><rect fill="#FFFFFF" filter="url(#f1d8ofirrhbf1)" height="18.2109" style="stroke:#A80036;stroke-width:0.3;" width="3" x="582.3" y="192.157"/><rect fill="#FFFFFF" filter="url(#f1d8ofirrhbf1)" height="18.2109" style="stroke:#A80036;stroke-width:0.3;" width="3" x="582.3" y="391.7555"/><rect fill="#FFFFFF" filter="url(#f1d8ofirrhbf1)" height="9.1055" style="stroke:#A80036;stroke-width:0.3;" width="3" x="636.6" y="201.2625"/><rect fill="#FFFFFF" filter="url(#f1d8ofirrhbf1)" height="9.1055" style="stroke:#A80036;stroke-width:0.3;" width="3" x="636.6" y="400.8609"/><rect fill="#FFFFFF" filter="url(#f1d8ofirrhbf1)" height="18.2109" style="stroke:#A80036;stroke-width:0.3;" width="3" x="684.15" y="273.7008"/><rect fill="#FFFFFF" filter="url(#f1d8ofirrhbf1)" height="9.1055" style="stroke:#A80036;stroke-width:0.3;" width="3" x="729.45" y="282.8063"/><rect fill="#FFFFFF" filter="url(#f1d8ofirrhbf1)" height="18.2109" style="stroke:#A80036;stroke-width:0.3;" width="3" x="729.45" y="301.0172"/><rect fill="#FFFFFF" filter="url(#f1d8ofirrhbf1)" height="9.1055" style="stroke:#A80036;stroke-width:0.3;" width="3" x="787.5" y="310.1227"/><rect fill="#FFFFFF" filter="url(#f1d8ofirrhbf1)" height="9" style="stroke:#A80036;stroke-width:0.3;" width="3" x="787.5" y="328.3336"/><rect fill="#FFFFFF" filter="url(#f1d8ofirrhbf1)" height="9" style="stroke:#A80036;stroke-width:0.3;" width="3" x="787.5" y="373.65"/><rect fill="#FFFFFF" filter="url(#f1d8ofirrhbf1)" height="9" style="stroke:#A80036;stroke-width:0.3;" width="3" x="853.8" y="346.4391"/><polygon fill="#A80036" points="191.55,36.8859,194.55,38.0859,191.55,39.2859,192.75,38.0859" style="stroke:#A80036;stroke-width:0.3;"/><line style="stroke:#A80036;stroke-width:0.3;" x1="28.95" x2="193.35" y1="38.0859" y2="38.0859"/><text fill="#000000" font-family="sans-serif" font-size="3.9" lengthAdjust="spacing" textLength="24.3" x="31.05" y="31.7235">view the list of</text><text fill="#000000" font-family="sans-serif" font-size="3.9" lengthAdjust="spacing" textLength="90.9" x="31.05" y="36.629">orders that have already been prepared by the AGVs</text><polygon fill="#A80036" points="283.65,45.9914,286.65,47.1914,283.65,48.3914,284.85,47.1914" style="stroke:#A80036;stroke-width:0.3;"/><line style="stroke:#A80036;stroke-width:0.3;" x1="198.15" x2="285.45" y1="47.1914" y2="47.1914"/><text fill="#000000" font-family="sans-serif" font-size="3.9" lengthAdjust="spacing" textLength="33.3" x="200.25" y="45.7345">findAGVOccupied()</text><polygon fill="#A80036" points="343.65,55.0969,346.65,56.2969,343.65,57.4969,344.85,56.2969" style="stroke:#A80036;stroke-width:0.3;"/><line style="stroke:#A80036;stroke-width:0.3;" x1="290.25" x2="345.45" y1="56.2969" y2="56.2969"/><text fill="#000000" font-family="sans-serif" font-size="3.9" lengthAdjust="spacing" textLength="33.3" x="292.35" y="54.8399">findAGVOccupied()</text><polygon fill="#A80036" points="404.25,73.2023,407.25,74.4023,404.25,75.6023,405.45,74.4023" style="stroke:#A80036;stroke-width:0.3;"/><line style="stroke:#A80036;stroke-width:0.3;" x1="290.25" x2="406.05" y1="74.4023" y2="74.4023"/><text fill="#000000" font-family="sans-serif" font-size="3.9" lengthAdjust="spacing" textLength="13.2" x="292.35" y="72.9454">create()</text><polygon fill="#A80036" points="452.85,82.3078,455.85,83.5078,452.85,84.7078,454.05,83.5078" style="stroke:#A80036;stroke-width:0.3;"/><line style="stroke:#A80036;stroke-width:0.3;" x1="410.85" x2="454.65" y1="83.5078" y2="83.5078"/><text fill="#000000" font-family="sans-serif" font-size="3.9" lengthAdjust="spacing" textLength="13.2" x="412.95" y="82.0509">create()</text><polygon fill="#A80036" points="454.35,91.4133,457.35,92.6133,454.35,93.8133,455.55,92.6133" style="stroke:#A80036;stroke-width:0.3;"/><line style="stroke:#A80036;stroke-width:0.3;" x1="409.35" x2="456.15" y1="92.6133" y2="92.6133"/><text fill="#000000" font-family="sans-serif" font-size="3.9" lengthAdjust="spacing" textLength="25.5" x="411.45" y="91.1563">toDTO(agvList)</text><path d="M3,97.1133 L24.9,97.1133 L24.9,99.5133 L21.9,102.5133 L3,102.5133 L3,97.1133 " fill="#EEEEEE" style="stroke:#000000;stroke-width:0.3;"/><rect fill="none" height="31.8164" style="stroke:#000000;stroke-width:0.6;" width="239.25" x="3" y="97.1133"/><text fill="#000000" font-family="sans-serif" font-size="3.9" font-weight="bold" lengthAdjust="spacing" textLength="8.4" x="7.5" y="101.4618">loop</text><text fill="#000000" font-family="sans-serif" font-size="3.3" font-weight="bold" lengthAdjust="spacing" textLength="19.2" x="29.4" y="101.139">[option != 0]</text><line style="stroke:#A80036;stroke-width:0.3;" x1="198.15" x2="210.75" y1="109.3242" y2="109.3242"/><line style="stroke:#A80036;stroke-width:0.3;" x1="210.75" x2="210.75" y1="109.3242" y2="113.2242"/><line style="stroke:#A80036;stroke-width:0.3;" x1="198.45" x2="210.75" y1="113.2242" y2="113.2242"/><polygon fill="#A80036" points="201.45,112.0242,198.45,113.2242,201.45,114.4242,200.25,113.2242" style="stroke:#A80036;stroke-width:0.3;"/><text fill="#000000" font-family="sans-serif" font-size="3.9" lengthAdjust="spacing" textLength="38.4" x="200.25" y="107.8673">showAGVsOccupied()</text><polygon fill="#A80036" points="32.25,116.2242,29.25,117.4242,32.25,118.6242,31.05,117.4242" style="stroke:#A80036;stroke-width:0.3;"/><line style="stroke:#A80036;stroke-width:0.3;stroke-dasharray:2.0,2.0;" x1="30.45" x2="194.85" y1="117.4242" y2="117.4242"/><polygon fill="#A80036" points="191.55,125.3297,194.55,126.5297,191.55,127.7297,192.75,126.5297" style="stroke:#A80036;stroke-width:0.3;"/><line style="stroke:#A80036;stroke-width:0.3;" x1="28.95" x2="193.35" y1="126.5297" y2="126.5297"/><text fill="#000000" font-family="sans-serif" font-size="3.9" lengthAdjust="spacing" textLength="26.7" x="31.05" y="125.0728">select the AGV</text><polygon fill="#A80036" points="283.65,136.5352,286.65,137.7352,283.65,138.9352,284.85,137.7352" style="stroke:#A80036;stroke-width:0.3;"/><line style="stroke:#A80036;stroke-width:0.3;" x1="198.15" x2="285.45" y1="137.7352" y2="137.7352"/><text fill="#000000" font-family="sans-serif" font-size="3.9" lengthAdjust="spacing" textLength="48.6" x="200.25" y="136.2782">findOrderByAGVId(identifier)</text><polygon fill="#A80036" points="343.65,145.6406,346.65,146.8406,343.65,148.0406,344.85,146.8406" style="stroke:#A80036;stroke-width:0.3;"/><line style="stroke:#A80036;stroke-width:0.3;" x1="290.25" x2="345.45" y1="146.8406" y2="146.8406"/><text fill="#000000" font-family="sans-serif" font-size="3.9" lengthAdjust="spacing" textLength="42" x="292.35" y="145.3837">findByIdentifier(identifier)</text><polygon fill="#A80036" points="487.05,163.7461,490.05,164.9461,487.05,166.1461,488.25,164.9461" style="stroke:#A80036;stroke-width:0.3;"/><line style="stroke:#A80036;stroke-width:0.3;" x1="290.25" x2="488.85" y1="164.9461" y2="164.9461"/><text fill="#000000" font-family="sans-serif" font-size="3.9" lengthAdjust="spacing" textLength="13.2" x="292.35" y="163.4892">status()</text><polygon fill="#A80036" points="524.25,172.8516,527.25,174.0516,524.25,175.2516,525.45,174.0516" style="stroke:#A80036;stroke-width:0.3;"/><line style="stroke:#A80036;stroke-width:0.3;" x1="493.65" x2="526.05" y1="174.0516" y2="174.0516"/><text fill="#000000" font-family="sans-serif" font-size="3.9" lengthAdjust="spacing" textLength="24.9" x="495.75" y="172.5946">productOrder()</text><polygon fill="#A80036" points="578.7,190.957,581.7,192.157,578.7,193.357,579.9,192.157" style="stroke:#A80036;stroke-width:0.3;"/><line style="stroke:#A80036;stroke-width:0.3;" x1="290.25" x2="580.5" y1="192.157" y2="192.157"/><text fill="#000000" font-family="sans-serif" font-size="3.9" lengthAdjust="spacing" textLength="13.2" x="292.35" y="190.7001">create()</text><polygon fill="#A80036" points="633,200.0625,636,201.2625,633,202.4625,634.2,201.2625" style="stroke:#A80036;stroke-width:0.3;"/><line style="stroke:#A80036;stroke-width:0.3;" x1="585.3" x2="634.8" y1="201.2625" y2="201.2625"/><text fill="#000000" font-family="sans-serif" font-size="3.9" lengthAdjust="spacing" textLength="13.2" x="587.4" y="199.8056">create()</text><polygon fill="#A80036" points="634.5,209.168,637.5,210.368,634.5,211.568,635.7,210.368" style="stroke:#A80036;stroke-width:0.3;"/><line style="stroke:#A80036;stroke-width:0.3;" x1="583.8" x2="636.3" y1="210.368" y2="210.368"/><text fill="#000000" font-family="sans-serif" font-size="3.9" lengthAdjust="spacing" textLength="28.5" x="585.9" y="208.911">toDTO(orderList)</text><polygon fill="#A80036" points="32.25,218.2734,29.25,219.4734,32.25,220.6734,31.05,219.4734" style="stroke:#A80036;stroke-width:0.3;"/><line style="stroke:#A80036;stroke-width:0.3;stroke-dasharray:2.0,2.0;" x1="30.45" x2="194.85" y1="219.4734" y2="219.4734"/><text fill="#000000" font-family="sans-serif" font-size="3.9" lengthAdjust="spacing" textLength="159" x="34.05" y="218.0165">Asks the Warehouse Employee which of the orders can be dispatched for customer delivery</text><path d="M3,223.9734 L24.9,223.9734 L24.9,226.3734 L21.9,229.3734 L3,229.3734 L3,223.9734 " fill="#EEEEEE" style="stroke:#000000;stroke-width:0.3;"/><rect fill="none" height="31.8164" style="stroke:#000000;stroke-width:0.6;" width="223.95" x="3" y="223.9734"/><text fill="#000000" font-family="sans-serif" font-size="3.9" font-weight="bold" lengthAdjust="spacing" textLength="8.4" x="7.5" y="228.322">loop</text><text fill="#000000" font-family="sans-serif" font-size="3.3" font-weight="bold" lengthAdjust="spacing" textLength="19.2" x="29.4" y="227.9991">[option != 0]</text><line style="stroke:#A80036;stroke-width:0.3;" x1="198.15" x2="210.75" y1="236.1844" y2="236.1844"/><line style="stroke:#A80036;stroke-width:0.3;" x1="210.75" x2="210.75" y1="236.1844" y2="240.0844"/><line style="stroke:#A80036;stroke-width:0.3;" x1="198.45" x2="210.75" y1="240.0844" y2="240.0844"/><polygon fill="#A80036" points="201.45,238.8844,198.45,240.0844,201.45,241.2844,200.25,240.0844" style="stroke:#A80036;stroke-width:0.3;"/><text fill="#000000" font-family="sans-serif" font-size="3.9" lengthAdjust="spacing" textLength="23.1" x="200.25" y="234.7274">showOrders()</text><polygon fill="#A80036" points="32.25,243.0844,29.25,244.2844,32.25,245.4844,31.05,244.2844" style="stroke:#A80036;stroke-width:0.3;"/><line style="stroke:#A80036;stroke-width:0.3;stroke-dasharray:2.0,2.0;" x1="30.45" x2="194.85" y1="244.2844" y2="244.2844"/><polygon fill="#A80036" points="191.55,252.1898,194.55,253.3898,191.55,254.5898,192.75,253.3898" style="stroke:#A80036;stroke-width:0.3;"/><line style="stroke:#A80036;stroke-width:0.3;" x1="28.95" x2="193.35" y1="253.3898" y2="253.3898"/><text fill="#000000" font-family="sans-serif" font-size="3.9" lengthAdjust="spacing" textLength="20.4" x="31.05" y="251.9329">select order</text><polygon fill="#A80036" points="283.65,263.3953,286.65,264.5953,283.65,265.7953,284.85,264.5953" style="stroke:#A80036;stroke-width:0.3;"/><line style="stroke:#A80036;stroke-width:0.3;" x1="198.15" x2="285.45" y1="264.5953" y2="264.5953"/><text fill="#000000" font-family="sans-serif" font-size="3.9" lengthAdjust="spacing" textLength="81.9" x="200.25" y="263.1384">changeOrderStatusToDispatchedForDelivery(id)</text><polygon fill="#A80036" points="680.55,272.5008,683.55,273.7008,680.55,274.9008,681.75,273.7008" style="stroke:#A80036;stroke-width:0.3;"/><line style="stroke:#A80036;stroke-width:0.3;" x1="290.25" x2="682.35" y1="273.7008" y2="273.7008"/><text fill="#000000" font-family="sans-serif" font-size="3.9" lengthAdjust="spacing" textLength="22.5" x="292.35" y="272.2438">repositories()</text><polygon fill="#A80036" points="725.85,281.6063,728.85,282.8063,725.85,284.0062,727.05,282.8063" style="stroke:#A80036;stroke-width:0.3;"/><line style="stroke:#A80036;stroke-width:0.3;" x1="687.15" x2="727.65" y1="282.8063" y2="282.8063"/><text fill="#000000" font-family="sans-serif" font-size="3.9" lengthAdjust="spacing" textLength="13.2" x="689.25" y="281.3493">create()</text><polygon fill="#A80036" points="293.55,290.7117,290.55,291.9117,293.55,293.1117,292.35,291.9117" style="stroke:#A80036;stroke-width:0.3;"/><line style="stroke:#A80036;stroke-width:0.3;stroke-dasharray:2.0,2.0;" x1="291.75" x2="685.35" y1="291.9117" y2="291.9117"/><text fill="#000000" font-family="sans-serif" font-size="3.9" lengthAdjust="spacing" textLength="14.1" x="295.35" y="290.4548">factory()</text><polygon fill="#A80036" points="725.85,299.8172,728.85,301.0172,725.85,302.2172,727.05,301.0172" style="stroke:#A80036;stroke-width:0.3;"/><line style="stroke:#A80036;stroke-width:0.3;" x1="290.25" x2="727.65" y1="301.0172" y2="301.0172"/><text fill="#000000" font-family="sans-serif" font-size="3.9" lengthAdjust="spacing" textLength="13.2" x="292.35" y="299.5603">orders()</text><polygon fill="#A80036" points="783.9,308.9227,786.9,310.1227,783.9,311.3227,785.1,310.1227" style="stroke:#A80036;stroke-width:0.3;"/><line style="stroke:#A80036;stroke-width:0.3;" x1="732.45" x2="785.7" y1="310.1227" y2="310.1227"/><text fill="#000000" font-family="sans-serif" font-size="3.9" lengthAdjust="spacing" textLength="13.2" x="734.55" y="308.6657">create()</text><polygon fill="#A80036" points="293.55,318.0281,290.55,319.2281,293.55,320.4281,292.35,319.2281" style="stroke:#A80036;stroke-width:0.3;"/><line style="stroke:#A80036;stroke-width:0.3;stroke-dasharray:2.0,2.0;" x1="291.75" x2="730.65" y1="319.2281" y2="319.2281"/><text fill="#000000" font-family="sans-serif" font-size="3.9" lengthAdjust="spacing" textLength="29.7" x="295.35" y="317.7712">orderRepository()</text><polygon fill="#A80036" points="783.9,327.1336,786.9,328.3336,783.9,329.5336,785.1,328.3336" style="stroke:#A80036;stroke-width:0.3;"/><line style="stroke:#A80036;stroke-width:0.3;" x1="290.25" x2="785.7" y1="328.3336" y2="328.3336"/><text fill="#000000" font-family="sans-serif" font-size="3.9" lengthAdjust="spacing" textLength="19.2" x="292.35" y="326.8767">findById(id)</text><polygon fill="#A80036" points="850.2,345.2391,853.2,346.4391,850.2,347.6391,851.4,346.4391" style="stroke:#A80036;stroke-width:0.3;"/><line style="stroke:#A80036;stroke-width:0.3;" x1="290.25" x2="852" y1="346.4391" y2="346.4391"/><text fill="#000000" font-family="sans-serif" font-size="3.9" lengthAdjust="spacing" textLength="23.4" x="292.35" y="344.9821">deployOrder()</text><polygon fill="#A80036" points="283.65,363.3445,286.65,364.5445,283.65,365.7445,284.85,364.5445" style="stroke:#A80036;stroke-width:0.3;"/><line style="stroke:#A80036;stroke-width:0.3;" x1="198.15" x2="285.45" y1="364.5445" y2="364.5445"/><text fill="#000000" font-family="sans-serif" font-size="3.9" lengthAdjust="spacing" textLength="42.3" x="200.25" y="363.0876">findProductOrderById(id)</text><polygon fill="#A80036" points="783.9,372.45,786.9,373.65,783.9,374.85,785.1,373.65" style="stroke:#A80036;stroke-width:0.3;"/><line style="stroke:#A80036;stroke-width:0.3;" x1="290.25" x2="785.7" y1="373.65" y2="373.65"/><text fill="#000000" font-family="sans-serif" font-size="3.9" lengthAdjust="spacing" textLength="19.2" x="292.35" y="372.1931">findById(id)</text><polygon fill="#A80036" points="578.7,390.5555,581.7,391.7555,578.7,392.9555,579.9,391.7555" style="stroke:#A80036;stroke-width:0.3;"/><line style="stroke:#A80036;stroke-width:0.3;" x1="290.25" x2="580.5" y1="391.7555" y2="391.7555"/><text fill="#000000" font-family="sans-serif" font-size="3.9" lengthAdjust="spacing" textLength="13.2" x="292.35" y="390.2985">create()</text><polygon fill="#A80036" points="633,399.6609,636,400.8609,633,402.0609,634.2,400.8609" style="stroke:#A80036;stroke-width:0.3;"/><line style="stroke:#A80036;stroke-width:0.3;" x1="585.3" x2="634.8" y1="400.8609" y2="400.8609"/><text fill="#000000" font-family="sans-serif" font-size="3.9" lengthAdjust="spacing" textLength="13.2" x="587.4" y="399.404">create()</text><polygon fill="#A80036" points="634.5,408.7664,637.5,409.9664,634.5,411.1664,635.7,409.9664" style="stroke:#A80036;stroke-width:0.3;"/><line style="stroke:#A80036;stroke-width:0.3;" x1="583.8" x2="636.3" y1="409.9664" y2="409.9664"/><text fill="#000000" font-family="sans-serif" font-size="3.9" lengthAdjust="spacing" textLength="22.2" x="585.9" y="408.5095">toDTO(order)</text><polygon fill="#A80036" points="32.25,417.8719,29.25,419.0719,32.25,420.2719,31.05,419.0719" style="stroke:#A80036;stroke-width:0.3;"/><line style="stroke:#A80036;stroke-width:0.3;stroke-dasharray:2.0,2.0;" x1="30.45" x2="196.35" y1="419.0719" y2="419.0719"/><text fill="#000000" font-family="sans-serif" font-size="3.9" lengthAdjust="spacing" textLength="114.9" x="34.05" y="417.6149">shows the order modified and informs the success of the operation</text><!--MD5=[71e42a42820885815d29256313b0502c]
@startuml
title SD - Access the list of orders that have already been prepared by the AGVs and update any of those orders as having been dispatched for customer delivery

        participant "WarehouseEmployee" as whe
		participant ":UpdateOrderUI" as ui
		participant ":UpdateOrderController" as ctrl
		participant ":agvRepository:AGVRepository" as agvRepo
		participant "agvMapper:AGVMapper" as agvMapper
        participant "agvDTO:AGVDTO" as agvDTO
		participant "agv:AGV" as agv
		participant "agvStatus:AGVStatus" as agvStatus
		participant "orderMapper:OrderMapper" as orderMapper
        participant "orderDTO:OrderDTO" as orderDTO
		participant ":PersistenceContext" as pc
		participant ":RepositoryFactory" as rf
		participant "orderRepository:OrderRepository" as repo
		participant "productOrder:ProductOrder" as order

        whe->ui: view the list of \norders that have already been prepared by the AGVs
        activate ui
        ui->ctrl: findAGVOccupied()
        activate ctrl
        ctrl->agvRepo: findAGVOccupied()
        activate agvRepo
        deactivate agvRepo

        ctrl->agvMapper: create()
        activate agvMapper
        agvMapper->agvDTO: create()
        activate agvDTO
        agvMapper->agvDTO: toDTO(agvList)
        deactivate agvDTO
        deactivate agvMapper

        loop option != 0
        ui->ui:showAGVsOccupied()
        ui- ->whe:
        whe->ui: select the AGV
        end loop

        ui->ctrl: findOrderByAGVId(identifier)
        ctrl->agvRepo: findByIdentifier(identifier)
        activate agvRepo
        deactivate agvRepo
        ctrl->agv: status()
        activate agv
        agv->agvStatus: productOrder()
        activate agvStatus
        deactivate agv
        deactivate agvStatus

        ctrl->orderMapper: create()
        activate orderMapper
        orderMapper->orderDTO: create()
        activate orderDTO
        orderMapper->orderDTO: toDTO(orderList)
        deactivate orderDTO
        deactivate orderMapper

        ui- ->whe: Asks the Warehouse Employee which of the orders can be dispatched for customer delivery

        loop option != 0
        ui->ui:showOrders()
        ui- ->whe:
        whe->ui:select order
        end loop

        ui->ctrl: changeOrderStatusToDispatchedForDelivery(id)

        ctrl->pc: repositories()
        activate pc
        pc->rf: create()
        activate rf
        pc- ->ctrl: factory()
        deactivate rf
        deactivate pc

        ctrl->rf: orders()
        activate rf
        rf->repo: create()
        activate repo
        rf- ->ctrl: orderRepository()
        deactivate repo
        deactivate rf

        ctrl->repo: findById(id)
        activate repo
        deactivate repo
        ctrl->order: deployOrder()
        activate order
        deactivate order
        ui->ctrl: findProductOrderById(id)
        ctrl->repo: findById(id)
        activate repo
        deactivate repo

        ctrl->orderMapper: create()
        activate orderMapper
        orderMapper->orderDTO: create()
        activate orderDTO
        orderMapper->orderDTO: toDTO(order)
        deactivate orderDTO
        deactivate orderMapper

        deactivate ctrl

        ui- ->whe: shows the order modified and informs the success of the operation
        deactivate ui

@enduml

PlantUML version 1.2021.11(Sat Oct 02 14:26:11 BST 2021)
(GPL source distribution)
Java Runtime: OpenJDK Runtime Environment
JVM: OpenJDK 64-Bit Server VM
Default Encoding: Cp1252
Language: en
Country: GB
--></g></svg>