<?xml version="1.0" encoding="UTF-8" standalone="no"?><svg xmlns="http://www.w3.org/2000/svg" xmlns:xlink="http://www.w3.org/1999/xlink" contentStyleType="text/css" height="1067px" preserveAspectRatio="none" style="width:2176px;height:1067px;background:#FFFFFF;" version="1.1" viewBox="0 0 2176 1067" width="2176px" zoomAndPan="magnify"><defs/><g><rect height="27.6094" style="stroke:#00000000;stroke-width:1.0;fill:none;" width="225" x="977.5" y="10"/><text fill="#000000" font-family="sans-serif" font-size="14" font-weight="bold" lengthAdjust="spacing" textLength="215" x="982.5" y="29.5332">SD - Assign an order to an AGV</text><rect fill="#FFFFFF" height="926.4375" style="stroke:#181818;stroke-width:1.0;" width="10" x="76.5" y="86.2188"/><rect fill="#FFFFFF" height="904.0859" style="stroke:#181818;stroke-width:1.0;" width="10" x="320.5" y="108.5703"/><rect fill="#FFFFFF" height="151.4063" style="stroke:#181818;stroke-width:1.0;" width="10" x="464.5" y="138.9219"/><rect fill="#FFFFFF" height="271.7578" style="stroke:#181818;stroke-width:1.0;" width="10" x="464.5" y="381.3828"/><rect fill="#FFFFFF" height="231.1094" style="stroke:#181818;stroke-width:1.0;" width="10" x="464.5" y="744.1953"/><rect fill="#FFFFFF" height="30" style="stroke:#181818;stroke-width:1.0;" width="10" x="666.5" y="169.2734"/><rect fill="#FFFFFF" height="30" style="stroke:#181818;stroke-width:1.0;" width="10" x="666.5" y="411.7344"/><rect fill="#FFFFFF" height="60.7031" style="stroke:#181818;stroke-width:1.0;" width="10" x="883.5" y="229.625"/><rect fill="#FFFFFF" height="30.3516" style="stroke:#181818;stroke-width:1.0;" width="10" x="1064.5" y="259.9766"/><rect fill="#FFFFFF" height="30" style="stroke:#181818;stroke-width:1.0;" width="10" x="1254" y="472.0859"/><rect fill="#FFFFFF" height="30" style="stroke:#181818;stroke-width:1.0;" width="10" x="1254" y="774.5469"/><rect fill="#FFFFFF" height="120.7031" style="stroke:#181818;stroke-width:1.0;" width="10" x="1452" y="532.4375"/><rect fill="#FFFFFF" height="30" style="stroke:#181818;stroke-width:1.0;" width="10" x="1614" y="562.7891"/><rect fill="#FFFFFF" height="30" style="stroke:#181818;stroke-width:1.0;" width="10" x="1614" y="623.1406"/><rect fill="#FFFFFF" height="66.7031" style="stroke:#181818;stroke-width:1.0;" width="10" x="1726" y="834.8984"/><rect fill="#FFFFFF" height="73.7031" style="stroke:#181818;stroke-width:1.0;" width="10" x="1840" y="938.9531"/><rect fill="#FFFFFF" height="73.7031" style="stroke:#181818;stroke-width:1.0;" width="10" x="2012" y="865.25"/><line style="stroke:#181818;stroke-width:0.5;stroke-dasharray:5.0,5.0;" x1="81" x2="81" y1="76.2188" y2="1030.6563"/><line style="stroke:#181818;stroke-width:0.5;stroke-dasharray:5.0,5.0;" x1="325" x2="325" y1="76.2188" y2="1030.6563"/><line style="stroke:#181818;stroke-width:0.5;stroke-dasharray:5.0,5.0;" x1="469" x2="469" y1="76.2188" y2="1030.6563"/><line style="stroke:#181818;stroke-width:0.5;stroke-dasharray:5.0,5.0;" x1="671" x2="671" y1="76.2188" y2="1030.6563"/><line style="stroke:#181818;stroke-width:0.5;stroke-dasharray:5.0,5.0;" x1="888" x2="888" y1="76.2188" y2="1030.6563"/><line style="stroke:#181818;stroke-width:0.5;stroke-dasharray:5.0,5.0;" x1="1069" x2="1069" y1="76.2188" y2="1030.6563"/><line style="stroke:#181818;stroke-width:0.5;stroke-dasharray:5.0,5.0;" x1="1259" x2="1259" y1="76.2188" y2="1030.6563"/><line style="stroke:#181818;stroke-width:0.5;stroke-dasharray:5.0,5.0;" x1="1457" x2="1457" y1="76.2188" y2="1030.6563"/><line style="stroke:#181818;stroke-width:0.5;stroke-dasharray:5.0,5.0;" x1="1619" x2="1619" y1="76.2188" y2="1030.6563"/><line style="stroke:#181818;stroke-width:0.5;stroke-dasharray:5.0,5.0;" x1="1731" x2="1731" y1="76.2188" y2="1030.6563"/><line style="stroke:#181818;stroke-width:0.5;stroke-dasharray:5.0,5.0;" x1="1845" x2="1845" y1="76.2188" y2="1030.6563"/><line style="stroke:#181818;stroke-width:0.5;stroke-dasharray:5.0,5.0;" x1="2016.5" x2="2016.5" y1="76.2188" y2="1030.6563"/><rect fill="#E2E2F0" height="31.6094" rx="2.5" ry="2.5" style="stroke:#181818;stroke-width:0.5;" width="153" x="5" y="43.6094"/><text fill="#000000" font-family="sans-serif" font-size="14" lengthAdjust="spacing" textLength="139" x="12" y="65.1426">Warehouse Employee</text><rect fill="#E2E2F0" height="31.6094" rx="2.5" ry="2.5" style="stroke:#181818;stroke-width:0.5;" width="153" x="5" y="1029.6563"/><text fill="#000000" font-family="sans-serif" font-size="14" lengthAdjust="spacing" textLength="139" x="12" y="1051.1895">Warehouse Employee</text><rect fill="#E2E2F0" height="31.6094" rx="2.5" ry="2.5" style="stroke:#181818;stroke-width:0.5;" width="109" x="271" y="43.6094"/><text fill="#000000" font-family="sans-serif" font-size="14" lengthAdjust="spacing" textLength="95" x="278" y="65.1426">:AssignOrderUI</text><rect fill="#E2E2F0" height="31.6094" rx="2.5" ry="2.5" style="stroke:#181818;stroke-width:0.5;" width="109" x="271" y="1029.6563"/><text fill="#000000" font-family="sans-serif" font-size="14" lengthAdjust="spacing" textLength="95" x="278" y="1051.1895">:AssignOrderUI</text><rect fill="#E2E2F0" height="31.6094" rx="2.5" ry="2.5" style="stroke:#181818;stroke-width:0.5;" width="159" x="390" y="43.6094"/><text fill="#000000" font-family="sans-serif" font-size="14" lengthAdjust="spacing" textLength="145" x="397" y="65.1426">:AssignOrderController</text><rect fill="#E2E2F0" height="31.6094" rx="2.5" ry="2.5" style="stroke:#181818;stroke-width:0.5;" width="159" x="390" y="1029.6563"/><text fill="#000000" font-family="sans-serif" font-size="14" lengthAdjust="spacing" textLength="145" x="397" y="1051.1895">:AssignOrderController</text><rect fill="#E2E2F0" height="31.6094" rx="2.5" ry="2.5" style="stroke:#181818;stroke-width:0.5;" width="225" x="559" y="43.6094"/><text fill="#000000" font-family="sans-serif" font-size="14" lengthAdjust="spacing" textLength="211" x="566" y="65.1426">orderRepository:OrderRepository</text><rect fill="#E2E2F0" height="31.6094" rx="2.5" ry="2.5" style="stroke:#181818;stroke-width:0.5;" width="225" x="559" y="1029.6563"/><text fill="#000000" font-family="sans-serif" font-size="14" lengthAdjust="spacing" textLength="211" x="566" y="1051.1895">orderRepository:OrderRepository</text><rect fill="#E2E2F0" height="31.6094" rx="2.5" ry="2.5" style="stroke:#181818;stroke-width:0.5;" width="189" x="794" y="43.6094"/><text fill="#000000" font-family="sans-serif" font-size="14" lengthAdjust="spacing" textLength="175" x="801" y="65.1426">orderMapper: OrderMapper</text><rect fill="#E2E2F0" height="31.6094" rx="2.5" ry="2.5" style="stroke:#181818;stroke-width:0.5;" width="189" x="794" y="1029.6563"/><text fill="#000000" font-family="sans-serif" font-size="14" lengthAdjust="spacing" textLength="175" x="801" y="1051.1895">orderMapper: OrderMapper</text><rect fill="#E2E2F0" height="31.6094" rx="2.5" ry="2.5" style="stroke:#181818;stroke-width:0.5;" width="153" x="993" y="43.6094"/><text fill="#000000" font-family="sans-serif" font-size="14" lengthAdjust="spacing" textLength="139" x="1000" y="65.1426">orderDTO: OrderDTO</text><rect fill="#E2E2F0" height="31.6094" rx="2.5" ry="2.5" style="stroke:#181818;stroke-width:0.5;" width="153" x="993" y="1029.6563"/><text fill="#000000" font-family="sans-serif" font-size="14" lengthAdjust="spacing" textLength="139" x="1000" y="1051.1895">orderDTO: OrderDTO</text><rect fill="#E2E2F0" height="31.6094" rx="2.5" ry="2.5" style="stroke:#181818;stroke-width:0.5;" width="206" x="1156" y="43.6094"/><text fill="#000000" font-family="sans-serif" font-size="14" lengthAdjust="spacing" textLength="192" x="1163" y="65.1426">agvRepository:AGVRepository</text><rect fill="#E2E2F0" height="31.6094" rx="2.5" ry="2.5" style="stroke:#181818;stroke-width:0.5;" width="206" x="1156" y="1029.6563"/><text fill="#000000" font-family="sans-serif" font-size="14" lengthAdjust="spacing" textLength="192" x="1163" y="1051.1895">agvRepository:AGVRepository</text><rect fill="#E2E2F0" height="31.6094" rx="2.5" ry="2.5" style="stroke:#181818;stroke-width:0.5;" width="170" x="1372" y="43.6094"/><text fill="#000000" font-family="sans-serif" font-size="14" lengthAdjust="spacing" textLength="156" x="1379" y="65.1426">agvMapper: AGVMapper</text><rect fill="#E2E2F0" height="31.6094" rx="2.5" ry="2.5" style="stroke:#181818;stroke-width:0.5;" width="170" x="1372" y="1029.6563"/><text fill="#000000" font-family="sans-serif" font-size="14" lengthAdjust="spacing" textLength="156" x="1379" y="1051.1895">agvMapper: AGVMapper</text><rect fill="#E2E2F0" height="31.6094" rx="2.5" ry="2.5" style="stroke:#181818;stroke-width:0.5;" width="134" x="1552" y="43.6094"/><text fill="#000000" font-family="sans-serif" font-size="14" lengthAdjust="spacing" textLength="120" x="1559" y="65.1426">agvDTO: AGVDTO</text><rect fill="#E2E2F0" height="31.6094" rx="2.5" ry="2.5" style="stroke:#181818;stroke-width:0.5;" width="134" x="1552" y="1029.6563"/><text fill="#000000" font-family="sans-serif" font-size="14" lengthAdjust="spacing" textLength="120" x="1559" y="1051.1895">agvDTO: AGVDTO</text><rect fill="#E2E2F0" height="31.6094" rx="2.5" ry="2.5" style="stroke:#181818;stroke-width:0.5;" width="70" x="1696" y="43.6094"/><text fill="#000000" font-family="sans-serif" font-size="14" lengthAdjust="spacing" textLength="56" x="1703" y="65.1426">agv:AGV</text><rect fill="#E2E2F0" height="31.6094" rx="2.5" ry="2.5" style="stroke:#181818;stroke-width:0.5;" width="70" x="1696" y="1029.6563"/><text fill="#000000" font-family="sans-serif" font-size="14" lengthAdjust="spacing" textLength="56" x="1703" y="1051.1895">agv:AGV</text><rect fill="#E2E2F0" height="31.6094" rx="2.5" ry="2.5" style="stroke:#181818;stroke-width:0.5;" width="138" x="1776" y="43.6094"/><text fill="#000000" font-family="sans-serif" font-size="14" lengthAdjust="spacing" textLength="124" x="1783" y="65.1426">order:ProductOrder</text><rect fill="#E2E2F0" height="31.6094" rx="2.5" ry="2.5" style="stroke:#181818;stroke-width:0.5;" width="138" x="1776" y="1029.6563"/><text fill="#000000" font-family="sans-serif" font-size="14" lengthAdjust="spacing" textLength="124" x="1783" y="1051.1895">order:ProductOrder</text><rect fill="#E2E2F0" height="31.6094" rx="2.5" ry="2.5" style="stroke:#181818;stroke-width:0.5;" width="121" x="1956.5" y="43.6094"/><text fill="#000000" font-family="sans-serif" font-size="14" lengthAdjust="spacing" textLength="107" x="1963.5" y="65.1426">agvStatus:Status</text><rect fill="#E2E2F0" height="31.6094" rx="2.5" ry="2.5" style="stroke:#181818;stroke-width:0.5;" width="121" x="1956.5" y="1029.6563"/><text fill="#000000" font-family="sans-serif" font-size="14" lengthAdjust="spacing" textLength="107" x="1963.5" y="1051.1895">agvStatus:Status</text><rect fill="#FFFFFF" height="926.4375" style="stroke:#181818;stroke-width:1.0;" width="10" x="76.5" y="86.2188"/><rect fill="#FFFFFF" height="904.0859" style="stroke:#181818;stroke-width:1.0;" width="10" x="320.5" y="108.5703"/><rect fill="#FFFFFF" height="151.4063" style="stroke:#181818;stroke-width:1.0;" width="10" x="464.5" y="138.9219"/><rect fill="#FFFFFF" height="271.7578" style="stroke:#181818;stroke-width:1.0;" width="10" x="464.5" y="381.3828"/><rect fill="#FFFFFF" height="231.1094" style="stroke:#181818;stroke-width:1.0;" width="10" x="464.5" y="744.1953"/><rect fill="#FFFFFF" height="30" style="stroke:#181818;stroke-width:1.0;" width="10" x="666.5" y="169.2734"/><rect fill="#FFFFFF" height="30" style="stroke:#181818;stroke-width:1.0;" width="10" x="666.5" y="411.7344"/><rect fill="#FFFFFF" height="60.7031" style="stroke:#181818;stroke-width:1.0;" width="10" x="883.5" y="229.625"/><rect fill="#FFFFFF" height="30.3516" style="stroke:#181818;stroke-width:1.0;" width="10" x="1064.5" y="259.9766"/><rect fill="#FFFFFF" height="30" style="stroke:#181818;stroke-width:1.0;" width="10" x="1254" y="472.0859"/><rect fill="#FFFFFF" height="30" style="stroke:#181818;stroke-width:1.0;" width="10" x="1254" y="774.5469"/><rect fill="#FFFFFF" height="120.7031" style="stroke:#181818;stroke-width:1.0;" width="10" x="1452" y="532.4375"/><rect fill="#FFFFFF" height="30" style="stroke:#181818;stroke-width:1.0;" width="10" x="1614" y="562.7891"/><rect fill="#FFFFFF" height="30" style="stroke:#181818;stroke-width:1.0;" width="10" x="1614" y="623.1406"/><rect fill="#FFFFFF" height="66.7031" style="stroke:#181818;stroke-width:1.0;" width="10" x="1726" y="834.8984"/><rect fill="#FFFFFF" height="73.7031" style="stroke:#181818;stroke-width:1.0;" width="10" x="1840" y="938.9531"/><rect fill="#FFFFFF" height="73.7031" style="stroke:#181818;stroke-width:1.0;" width="10" x="2012" y="865.25"/><polygon fill="#181818" points="308.5,104.5703,318.5,108.5703,308.5,112.5703,312.5,108.5703" style="stroke:#181818;stroke-width:1.0;"/><line style="stroke:#181818;stroke-width:1.0;" x1="86.5" x2="314.5" y1="108.5703" y2="108.5703"/><text fill="#000000" font-family="sans-serif" font-size="13" lengthAdjust="spacing" textLength="198" x="93.5" y="103.7139">wants to assign an order to an agv</text><polygon fill="#181818" points="452.5,134.9219,462.5,138.9219,452.5,142.9219,456.5,138.9219" style="stroke:#181818;stroke-width:1.0;"/><line style="stroke:#181818;stroke-width:1.0;" x1="330.5" x2="458.5" y1="138.9219" y2="138.9219"/><text fill="#000000" font-family="sans-serif" font-size="13" lengthAdjust="spacing" textLength="90" x="337.5" y="134.0654">listPaidOrders()</text><polygon fill="#181818" points="654.5,165.2734,664.5,169.2734,654.5,173.2734,658.5,169.2734" style="stroke:#181818;stroke-width:1.0;"/><line style="stroke:#181818;stroke-width:1.0;" x1="474.5" x2="660.5" y1="169.2734" y2="169.2734"/><text fill="#000000" font-family="sans-serif" font-size="13" lengthAdjust="spacing" textLength="54" x="481.5" y="164.417">findPaid()</text><polygon fill="#181818" points="871.5,225.625,881.5,229.625,871.5,233.625,875.5,229.625" style="stroke:#181818;stroke-width:1.0;"/><line style="stroke:#181818;stroke-width:1.0;stroke-dasharray:2.0,2.0;" x1="474.5" x2="877.5" y1="229.625" y2="229.625"/><text fill="#000000" font-family="sans-serif" font-size="13" lengthAdjust="spacing" textLength="44" x="481.5" y="224.7686">create()</text><polygon fill="#181818" points="1052.5,255.9766,1062.5,259.9766,1052.5,263.9766,1056.5,259.9766" style="stroke:#181818;stroke-width:1.0;"/><line style="stroke:#181818;stroke-width:1.0;stroke-dasharray:2.0,2.0;" x1="893.5" x2="1058.5" y1="259.9766" y2="259.9766"/><text fill="#000000" font-family="sans-serif" font-size="13" lengthAdjust="spacing" textLength="44" x="900.5" y="255.1201">create()</text><polygon fill="#181818" points="1057.5,286.3281,1067.5,290.3281,1057.5,294.3281,1061.5,290.3281" style="stroke:#181818;stroke-width:1.0;"/><line style="stroke:#181818;stroke-width:1.0;" x1="888.5" x2="1063.5" y1="290.3281" y2="290.3281"/><text fill="#000000" font-family="sans-serif" font-size="13" lengthAdjust="spacing" textLength="95" x="895.5" y="285.4717">toDTO(orderList)</text><polygon fill="#181818" points="97.5,316.6797,87.5,320.6797,97.5,324.6797,93.5,320.6797" style="stroke:#181818;stroke-width:1.0;"/><line style="stroke:#181818;stroke-width:1.0;stroke-dasharray:2.0,2.0;" x1="91.5" x2="319.5" y1="320.6797" y2="320.6797"/><text fill="#000000" font-family="sans-serif" font-size="13" lengthAdjust="spacing" textLength="144" x="103.5" y="315.8232">asks to choose the order</text><polygon fill="#181818" points="308.5,347.0313,318.5,351.0313,308.5,355.0313,312.5,351.0313" style="stroke:#181818;stroke-width:1.0;"/><line style="stroke:#181818;stroke-width:1.0;" x1="86.5" x2="314.5" y1="351.0313" y2="351.0313"/><text fill="#000000" font-family="sans-serif" font-size="13" lengthAdjust="spacing" textLength="104" x="93.5" y="346.1748">chooses the order</text><polygon fill="#181818" points="452.5,377.3828,462.5,381.3828,452.5,385.3828,456.5,381.3828" style="stroke:#181818;stroke-width:1.0;"/><line style="stroke:#181818;stroke-width:1.0;" x1="330.5" x2="458.5" y1="381.3828" y2="381.3828"/><text fill="#000000" font-family="sans-serif" font-size="13" lengthAdjust="spacing" textLength="101" x="337.5" y="376.5264">listAgvAble(order)</text><polygon fill="#181818" points="654.5,407.7344,664.5,411.7344,654.5,415.7344,658.5,411.7344" style="stroke:#181818;stroke-width:1.0;"/><line style="stroke:#181818;stroke-width:1.0;" x1="474.5" x2="660.5" y1="411.7344" y2="411.7344"/><text fill="#000000" font-family="sans-serif" font-size="13" lengthAdjust="spacing" textLength="64" x="481.5" y="406.8779">findById(id)</text><polygon fill="#181818" points="1242,468.0859,1252,472.0859,1242,476.0859,1246,472.0859" style="stroke:#181818;stroke-width:1.0;"/><line style="stroke:#181818;stroke-width:1.0;" x1="474.5" x2="1248" y1="472.0859" y2="472.0859"/><text fill="#000000" font-family="sans-serif" font-size="13" lengthAdjust="spacing" textLength="73" x="481.5" y="467.2295">isAble(order)</text><polygon fill="#181818" points="1440,528.4375,1450,532.4375,1440,536.4375,1444,532.4375" style="stroke:#181818;stroke-width:1.0;"/><line style="stroke:#181818;stroke-width:1.0;stroke-dasharray:2.0,2.0;" x1="474.5" x2="1446" y1="532.4375" y2="532.4375"/><text fill="#000000" font-family="sans-serif" font-size="13" lengthAdjust="spacing" textLength="44" x="481.5" y="527.5811">create()</text><polygon fill="#181818" points="1602,558.7891,1612,562.7891,1602,566.7891,1606,562.7891" style="stroke:#181818;stroke-width:1.0;"/><line style="stroke:#181818;stroke-width:1.0;" x1="1462" x2="1608" y1="562.7891" y2="562.7891"/><text fill="#000000" font-family="sans-serif" font-size="13" lengthAdjust="spacing" textLength="44" x="1469" y="557.9326">create()</text><polygon fill="#181818" points="1602,619.1406,1612,623.1406,1602,627.1406,1606,623.1406" style="stroke:#181818;stroke-width:1.0;"/><line style="stroke:#181818;stroke-width:1.0;" x1="1462" x2="1608" y1="623.1406" y2="623.1406"/><text fill="#000000" font-family="sans-serif" font-size="13" lengthAdjust="spacing" textLength="85" x="1469" y="618.2842">toDTO(agvList)</text><polygon fill="#181818" points="97.5,679.4922,87.5,683.4922,97.5,687.4922,93.5,683.4922" style="stroke:#181818;stroke-width:1.0;"/><line style="stroke:#181818;stroke-width:1.0;stroke-dasharray:2.0,2.0;" x1="91.5" x2="319.5" y1="683.4922" y2="683.4922"/><text fill="#000000" font-family="sans-serif" font-size="13" lengthAdjust="spacing" textLength="143" x="103.5" y="678.6357">asks to choose the AGV</text><polygon fill="#181818" points="308.5,709.8438,318.5,713.8438,308.5,717.8438,312.5,713.8438" style="stroke:#181818;stroke-width:1.0;"/><line style="stroke:#181818;stroke-width:1.0;" x1="86.5" x2="314.5" y1="713.8438" y2="713.8438"/><text fill="#000000" font-family="sans-serif" font-size="13" lengthAdjust="spacing" textLength="103" x="93.5" y="708.9873">chooses the AGV</text><polygon fill="#181818" points="452.5,740.1953,462.5,744.1953,452.5,748.1953,456.5,744.1953" style="stroke:#181818;stroke-width:1.0;"/><line style="stroke:#181818;stroke-width:1.0;" x1="330.5" x2="458.5" y1="744.1953" y2="744.1953"/><text fill="#000000" font-family="sans-serif" font-size="13" lengthAdjust="spacing" textLength="97" x="337.5" y="739.3389">assignOrder(agv)</text><polygon fill="#181818" points="1242,770.5469,1252,774.5469,1242,778.5469,1246,774.5469" style="stroke:#181818;stroke-width:1.0;"/><line style="stroke:#181818;stroke-width:1.0;" x1="474.5" x2="1248" y1="774.5469" y2="774.5469"/><text fill="#000000" font-family="sans-serif" font-size="13" lengthAdjust="spacing" textLength="102" x="481.5" y="769.6904">findByIdentifier(id)</text><polygon fill="#181818" points="1714,830.8984,1724,834.8984,1714,838.8984,1718,834.8984" style="stroke:#181818;stroke-width:1.0;"/><line style="stroke:#181818;stroke-width:1.0;" x1="474.5" x2="1720" y1="834.8984" y2="834.8984"/><text fill="#000000" font-family="sans-serif" font-size="13" lengthAdjust="spacing" textLength="107" x="481.5" y="830.042">assignOrder(order)</text><polygon fill="#181818" points="2000,861.25,2010,865.25,2000,869.25,2004,865.25" style="stroke:#181818;stroke-width:1.0;"/><line style="stroke:#181818;stroke-width:1.0;" x1="1736" x2="2006" y1="865.25" y2="865.25"/><text fill="#000000" font-family="sans-serif" font-size="13" lengthAdjust="spacing" textLength="107" x="1743" y="860.3936">assignOrder(order)</text><line style="stroke:#181818;stroke-width:1.0;" x1="2022" x2="2064" y1="900.6016" y2="900.6016"/><line style="stroke:#181818;stroke-width:1.0;" x1="2064" x2="2064" y1="900.6016" y2="913.6016"/><line style="stroke:#181818;stroke-width:1.0;" x1="2017" x2="2064" y1="913.6016" y2="913.6016"/><polygon fill="#181818" points="2027,909.6016,2017,913.6016,2027,917.6016,2023,913.6016" style="stroke:#181818;stroke-width:1.0;"/><text fill="#000000" font-family="sans-serif" font-size="13" lengthAdjust="spacing" textLength="140" x="2029" y="895.7451">changeStatus(occupied)</text><polygon fill="#181818" points="1828,934.9531,1838,938.9531,1828,942.9531,1832,938.9531" style="stroke:#181818;stroke-width:1.0;"/><line style="stroke:#181818;stroke-width:1.0;" x1="474.5" x2="1834" y1="938.9531" y2="938.9531"/><text fill="#000000" font-family="sans-serif" font-size="13" lengthAdjust="spacing" textLength="83" x="481.5" y="934.0967">developOrder()</text><line style="stroke:#181818;stroke-width:1.0;" x1="1850" x2="1892" y1="974.3047" y2="974.3047"/><line style="stroke:#181818;stroke-width:1.0;" x1="1892" x2="1892" y1="974.3047" y2="987.3047"/><line style="stroke:#181818;stroke-width:1.0;" x1="1845" x2="1892" y1="987.3047" y2="987.3047"/><polygon fill="#181818" points="1855,983.3047,1845,987.3047,1855,991.3047,1851,987.3047" style="stroke:#181818;stroke-width:1.0;"/><text fill="#000000" font-family="sans-serif" font-size="13" lengthAdjust="spacing" textLength="148" x="1857" y="969.4482">changeStatus(developing)</text><polygon fill="#181818" points="92.5,1008.6563,82.5,1012.6563,92.5,1016.6563,88.5,1012.6563" style="stroke:#181818;stroke-width:1.0;"/><line style="stroke:#181818;stroke-width:1.0;stroke-dasharray:2.0,2.0;" x1="86.5" x2="324.5" y1="1012.6563" y2="1012.6563"/><text fill="#000000" font-family="sans-serif" font-size="13" lengthAdjust="spacing" textLength="210" x="98.5" y="1007.7998">informs the success of the operation</text><!--MD5=[de710e09e2adc180fd16f473fd62bc1b]
@startuml

title SD - Assign an order to an AGV

    participant "Warehouse Employee" as we
	participant ":AssignOrderUI" as ui
	participant ":AssignOrderController" as ctrl
	participant "orderRepository:OrderRepository" as orderRepo
	participant "orderMapper: OrderMapper" as orderMapper
    participant "orderDTO: OrderDTO" as orderDto
	participant "agvRepository:AGVRepository" as agvRepo
	participant "agvMapper: AGVMapper" as agvMapper
    participant "agvDTO: AGVDTO" as agvDto
    participant "agv:AGV" as agv
	participant "order:ProductOrder" as order
	participant "agvStatus:Status" as agvStatus

    activate we
    we->ui:wants to assign an order to an agv
        activate ui
            ui->ctrl: listPaidOrders()
            activate ctrl
                ctrl->orderRepo:findPaid()
                activate orderRepo
                deactivate orderRepo
                ctrl- ->orderMapper: create()
                    activate orderMapper
                    orderMapper- ->orderDto: create()
                        activate orderDto
                    orderMapper->orderDto: toDTO(orderList)
                        deactivate orderDto
                    deactivate orderMapper
            deactivate ctrl
                deactivate orderRepo
        ui- ->we:asks to choose the order
    we->ui:chooses the order
            ui->ctrl: listAgvAble(order)
            activate ctrl
                ctrl->orderRepo:findById(id)
                activate orderRepo
                deactivate orderRepo
                ctrl->agvRepo:isAble(order)
                activate agvRepo
                deactivate agvRepo
                ctrl- ->agvMapper:create()
                activate agvMapper
                    agvMapper->agvDto:create()
                    activate agvDto
                    deactivate agvDto
                    agvMapper->agvDto:toDTO(agvList)
                    activate agvDto
                    deactivate agvDto
                deactivate agvMapper
            deactivate ctrl
        ui- ->we:asks to choose the AGV
    we->ui:chooses the AGV
        ui->ctrl:assignOrder(agv)
            activate ctrl
            ctrl->agvRepo:findByIdentifier(id)
            activate agvRepo
            deactivate agvRepo
            ctrl->agv:assignOrder(order)
                activate agv
                agv->agvStatus:assignOrder(order)
                activate agvStatus
                    agvStatus->agvStatus:changeStatus(occupied)
                deactivate agv
            ctrl->order:developOrder()
                deactivate agvStatus
                activate order
                order->order:changeStatus(developing)
            deactivate ctrl
        ui- ->we:informs the success of the operation
                deactivate order
        deactivate ui
    deactivate we
@enduml

PlantUML version 1.2022.4(Sat Apr 09 14:29:17 BST 2022)
(GPL source distribution)
Java Runtime: OpenJDK Runtime Environment
JVM: OpenJDK 64-Bit Server VM
Default Encoding: Cp1252
Language: pt
Country: PT
--></g></svg>